<?xml version="1.0" standalone="no"?>
<!DOCTYPE svg PUBLIC "-//W3C//DTD SVG 1.1//EN" "http://www.w3.org/Graphics/SVG/1.1/DTD/svg11.dtd">
<svg xmlns="http://www.w3.org/2000/svg" width="1920" height="1080" viewBox="0 0 1920 1080" fill="none">
<g clip-path="url(#clip0_826_50051)">
<mask id="mask0_826_50051" style="mask-type:alpha" maskUnits="userSpaceOnUse" x="0" y="0" width="1920" height="1080">
<path d="M1860 0H60C26.8629 0 0 26.8629 0 60V1020C0 1053.14 26.8629 1080 60 1080H1860C1893.14 1080 1920 1053.14 1920 1020V60C1920 26.8629 1893.14 0 1860 0Z" fill="url(#paint0_linear_826_50051)"/>
</mask>
<g mask="url(#mask0_826_50051)">
<path d="M1920 0H0V1080H1920V0Z" fill="url(#paint1_linear_826_50051)"/>
<path d="M728.29 580.62C863.351 580.62 972.84 471.131 972.84 336.07C972.84 201.008 863.351 91.5195 728.29 91.5195C593.229 91.5195 483.74 201.008 483.74 336.07C483.74 471.131 593.229 580.62 728.29 580.62Z" stroke="#FCE9D5" stroke-width="6.9"/>
<path d="M728.29 540.44C841.16 540.44 932.66 448.941 932.66 336.07C932.66 223.2 841.16 131.7 728.29 131.7C615.419 131.7 523.92 223.2 523.92 336.07C523.92 448.941 615.419 540.44 728.29 540.44Z" stroke="#FCE9D5" stroke-width="4.6"/>
<path d="M728.289 500.25C818.963 500.25 892.469 426.744 892.469 336.07C892.469 245.396 818.963 171.89 728.289 171.89C637.615 171.89 564.109 245.396 564.109 336.07C564.109 426.744 637.615 500.25 728.289 500.25Z" stroke="#FCE9D5" stroke-width="2.3"/>
<path d="M728.291 456.72C794.924 456.72 848.941 402.703 848.941 336.07C848.941 269.437 794.924 215.42 728.291 215.42C661.657 215.42 607.641 269.437 607.641 336.07C607.641 402.703 661.657 456.72 728.291 456.72Z" stroke="#FCE9D5" stroke-width="1.84"/>
<path d="M728.291 415.73C772.286 415.73 807.951 380.065 807.951 336.07C807.951 292.075 772.286 256.41 728.291 256.41C684.296 256.41 648.631 292.075 648.631 336.07C648.631 380.065 684.296 415.73 728.291 415.73Z" stroke="#FCE9D5" stroke-width="1.15"/>
<path d="M1795.11 0.0302734C1795.11 135.09 1685.62 244.58 1550.56 244.58C1415.5 244.58 1306.01 135.09 1306.01 0.0302734" stroke="#FCE9D5" stroke-width="15"/>
<path d="M1754.93 0.0302734C1754.93 112.9 1663.43 204.4 1550.56 204.4C1437.69 204.4 1346.19 112.9 1346.19 0.0302734" stroke="#FCE9D5" stroke-width="12"/>
<path d="M1714.74 0.0302734C1714.74 90.7103 1641.23 164.21 1550.56 164.21C1459.89 164.21 1386.37 90.7103 1386.37 0.0302734" stroke="#FCE9D5" stroke-width="8"/>
<path d="M1671.21 0.0302734C1671.21 66.6603 1617.19 120.68 1550.56 120.68C1483.93 120.68 1429.91 66.6603 1429.91 0.0302734" stroke="#FCE9D5" stroke-width="6"/>
<path d="M1630.22 0.0302734C1630.22 44.0303 1594.55 79.6903 1550.56 79.6903C1506.57 79.6903 1470.9 44.0203 1470.9 0.0302734" stroke="#FCE9D5" stroke-width="3"/>
<path d="M569.52 1080.25V792.59C569.52 668.33 468.78 567.59 344.52 567.59C220.26 567.59 119.52 668.33 119.52 792.59V1080.25" stroke="#FDEEDD" stroke-width="6.9"/>
<path d="M532.01 1080.25V792.59C532.01 689.04 448.06 605.09 344.51 605.09C240.96 605.09 157.01 689.04 157.01 792.59V1080.25" stroke="#FDEEDD" stroke-width="4.6"/>
<path d="M494.52 1080.25V792.58C494.52 709.74 427.36 642.58 344.52 642.58C261.68 642.58 194.52 709.74 194.52 792.58V1080.25" stroke="#FDEEDD" stroke-width="2.3"/>
<path d="M454.81 1080.25V792.58C454.81 731.67 405.43 682.29 344.52 682.29C283.61 682.29 234.23 731.67 234.23 792.58V1080.25" stroke="#FDEEDD" stroke-width="1.84"/>
<path d="M417.31 1080.25V792.59C417.31 752.39 384.72 719.8 344.52 719.8C304.32 719.8 271.73 752.39 271.73 792.59V1080.25" stroke="#FDEEDD" stroke-width="1.15"/>
<path d="M1846.81 1079.63V764.48C1846.81 665.1 1766.24 584.53 1666.86 584.53H1079.36C968.6 584.53 881.22 675.11 887.37 785.7C892.94 885.87 975.94 965.38 1077.5 965.38H1464.39C1469.46 965.38 1473.58 969.49 1473.58 974.57V1079.64" stroke="#FDEEDD" stroke-width="6.9"/>
<path d="M1816.34 1079.63V771.729C1816.34 685.869 1746.74 616.27 1660.88 616.27H1079.02C991.16 616.27 918.86 687.02 918.82 774.88C918.78 862.56 989.83 933.65 1077.5 933.65H1488.19C1499.06 933.65 1507.87 942.46 1507.87 953.33V965.39V1079.64" stroke="#FDEEDD" stroke-width="4.6"/>
<path d="M1782.06 1079.63V776.46C1782.06 705.52 1724.55 648 1653.6 648H1078.87C1008.71 648 950.79 704.34 950.54 774.5C950.3 844.82 1007.23 901.9 1077.49 901.9H1502.82C1524.52 901.9 1542.12 919.49 1542.12 941.2V1079.63" stroke="#FDEEDD" stroke-width="2.3"/>
<path d="M1751.6 1079.63V781.26C1751.6 726.22 1706.98 681.6 1651.94 681.6H1078.66C1027.19 681.6 984.529 722.77 984.139 774.24C983.759 826.12 1025.7 868.29 1077.49 868.29H1513.74C1546.25 868.29 1572.6 894.64 1572.6 927.15V1079.63" stroke="#FDEEDD" stroke-width="1.84"/>
<path d="M1603.07 1079.63V917.73C1603.07 872.9 1566.73 836.56 1521.9 836.56H1078.41C1044.55 836.56 1016.33 809.63 1015.89 775.77C1015.44 741.37 1043.19 713.34 1077.49 713.34H1649.51C1689.06 713.34 1721.12 745.4 1721.12 784.95V1079.63" stroke="#FDEEDD" stroke-width="1.15"/>
</g>
</g>
<defs>
<linearGradient id="paint0_linear_826_50051" x1="960" y1="0" x2="960" y2="1080" gradientUnits="userSpaceOnUse">
<stop stop-color="#FFFCF7"/>
<stop offset="1" stop-color="#FBF7FF"/>
</linearGradient>
<linearGradient id="paint1_linear_826_50051" x1="960" y1="0" x2="960" y2="1080" gradientUnits="userSpaceOnUse">
<stop stop-color="#FFFCF7"/>
<stop offset="1" stop-color="#FBF7FF"/>
</linearGradient>
<clipPath id="clip0_826_50051">
<rect width="1920" height="1080" fill="white"/>
</clipPath>
</defs>
</svg>