<?xml version="1.0" standalone="no"?>
<!DOCTYPE svg PUBLIC "-//W3C//DTD SVG 1.1//EN" "http://www.w3.org/Graphics/SVG/1.1/DTD/svg11.dtd">
<svg xmlns="http://www.w3.org/2000/svg" width="1920" height="1080" viewBox="0 0 1920 1080" fill="none">
<g clip-path="url(#clip0_826_50036)">
<mask id="mask0_826_50036" style="mask-type:alpha" maskUnits="userSpaceOnUse" x="0" y="0" width="1920" height="1080">
<path d="M1860 0H60C26.8629 0 0 26.8629 0 60V1020C0 1053.14 26.8629 1080 60 1080H1860C1893.14 1080 1920 1053.14 1920 1020V60C1920 26.8629 1893.14 0 1860 0Z" fill="url(#paint0_linear_826_50036)"/>
</mask>
<g mask="url(#mask0_826_50036)">
<path d="M1920 0H0V1080H1920V0Z" fill="url(#paint1_linear_826_50036)"/>
<path fill-rule="evenodd" clip-rule="evenodd" d="M805.66 299.53C640.25 299.53 506.16 165.44 506.16 0.0295312H507.16C507.16 164.89 640.8 298.53 805.66 298.53V299.53ZM805.66 116.48C741.35 116.48 689.21 64.3395 689.21 0.0295312H687.21C687.21 65.4495 740.24 118.48 805.66 118.48V116.48ZM952.97 0.0295312H951.97H952.97ZM659.35 0.0295312H658.35H659.35ZM551.64 0.0295312C551.64 140.32 665.37 254.05 805.66 254.05C945.95 254.05 1059.68 140.31 1059.68 0.0195312H1056.68C1056.68 138.65 944.3 251.04 805.66 251.04C667.02 251.04 554.65 138.66 554.65 0.0195312H551.65L551.64 0.0295312ZM724.95 0.0295312C724.95 44.6095 761.09 80.7495 805.67 80.7495C850.25 80.7495 886.38 44.5995 886.38 0.0195312H889.38C889.38 46.2495 851.9 83.7395 805.67 83.7395C759.44 83.7395 721.95 46.2595 721.95 0.0195312M805.66 203.69C918.14 203.69 1009.32 112.51 1009.32 0.0195312H1001.32C1001.32 108.08 913.72 195.69 805.66 195.69V203.69Z" fill="#8BDFE4"/>
<path fill-rule="evenodd" clip-rule="evenodd" d="M1111.3 866.16C950.6 705.46 950.6 444.92 1111.3 284.22C1272 123.52 1532.55 123.52 1693.25 284.22C1853.95 444.92 1853.95 705.46 1693.25 866.16C1532.55 1026.87 1272 1026.87 1111.3 866.16ZM1110.59 866.87C949.5 705.78 949.5 444.6 1110.59 283.51C1271.68 122.42 1532.86 122.42 1693.95 283.51C1855.04 444.6 1855.04 705.78 1693.95 866.87C1532.86 1027.96 1271.68 1027.96 1110.59 866.87ZM1515.94 461.51C1578.72 524.29 1578.72 626.08 1515.94 688.86L1517.35 690.27C1580.91 626.71 1580.91 523.65 1517.35 460.09L1515.94 461.51ZM1259.64 717.81C1338.41 796.58 1466.12 796.58 1544.9 717.81L1545.61 718.51C1466.45 797.68 1338.1 797.68 1258.94 718.51C1179.78 639.35 1179.78 511.01 1258.94 431.84L1259.65 432.55C1180.88 511.32 1180.88 639.04 1259.65 717.81H1259.64ZM1647.13 330.31C1782.37 465.55 1782.37 684.81 1647.13 820.05C1511.89 955.28 1292.63 955.28 1157.4 820.05L1155.28 822.17C1291.69 958.58 1512.85 958.58 1649.26 822.17C1785.67 685.76 1785.67 464.6 1649.26 328.19C1512.85 191.78 1291.69 191.78 1155.28 328.19L1157.4 330.31C1292.64 195.07 1511.9 195.07 1647.13 330.31ZM1481.27 654.19C1524.9 610.55 1524.9 539.81 1481.27 496.17C1437.63 452.53 1366.89 452.53 1323.25 496.17L1321.13 494.05C1365.94 449.24 1438.58 449.24 1483.39 494.05C1528.2 538.86 1528.2 611.5 1483.39 656.31C1438.58 701.12 1365.94 701.12 1321.13 656.31L1323.25 654.19C1366.89 697.82 1437.63 697.82 1481.27 654.19ZM1593.9 383.56C1699.73 489.39 1699.73 660.98 1593.9 766.81L1599.56 772.47C1708.52 663.51 1708.52 486.86 1599.56 377.9C1490.6 268.94 1313.95 268.94 1204.99 377.9L1210.65 383.56C1316.48 277.73 1488.07 277.73 1593.9 383.56Z" fill="#C5EFF2"/>
<path d="M323.13 640.87C323.13 601.97 354.67 570.43 393.57 570.43" stroke="#C5EFF2" stroke-width="7" stroke-miterlimit="10"/>
<path d="M267.37 640.87C267.37 571.17 323.87 514.67 393.57 514.67C463.27 514.67 519.77 571.17 519.77 640.87" stroke="#C5EFF2" stroke-width="14" stroke-miterlimit="10"/>
<path d="M393.57 480.36C482.22 480.36 554.08 552.22 554.08 640.87C554.08 729.52 482.22 801.38 393.57 801.38C304.92 801.38 233.06 729.52 233.06 640.87" stroke="#C5EFF2" stroke-width="21" stroke-miterlimit="10"/>
<path d="M610.55 640.87C610.55 760.71 513.4 857.85 393.57 857.85C273.74 857.85 176.59 760.7 176.59 640.87C176.59 521.04 273.74 423.89 393.57 423.89C452.05 423.89 505.12 447.02 544.14 484.63" stroke="#C5EFF2" stroke-width="4" stroke-miterlimit="10"/>
<path d="M393.57 594.42C419.22 594.42 440.02 615.22 440.02 640.87C440.02 666.52 419.22 687.32 393.57 687.32C367.92 687.32 347.12 666.52 347.12 640.87" stroke="#C5EFF2" stroke-width="3" stroke-miterlimit="10"/>
</g>
</g>
<defs>
<linearGradient id="paint0_linear_826_50036" x1="960" y1="0" x2="960" y2="1080" gradientUnits="userSpaceOnUse">
<stop stop-color="#F3FCFD"/>
<stop offset="1" stop-color="#FBF7FF"/>
</linearGradient>
<linearGradient id="paint1_linear_826_50036" x1="960" y1="0" x2="960" y2="1080" gradientUnits="userSpaceOnUse">
<stop stop-color="#F3FCFD"/>
<stop offset="1" stop-color="#FBF7FF"/>
</linearGradient>
<clipPath id="clip0_826_50036">
<rect width="1920" height="1080" fill="white"/>
</clipPath>
</defs>
</svg>