<?xml version="1.0" standalone="no"?>
<!DOCTYPE svg PUBLIC "-//W3C//DTD SVG 1.1//EN" "http://www.w3.org/Graphics/SVG/1.1/DTD/svg11.dtd">
<svg xmlns="http://www.w3.org/2000/svg" width="1920" height="1080" viewBox="0 0 1920 1080" fill="none">
<g clip-path="url(#clip0_826_50038)">
<mask id="mask0_826_50038" style="mask-type:alpha" maskUnits="userSpaceOnUse" x="0" y="0" width="1920" height="1080">
<path d="M1860 0H60C26.8629 0 0 26.8629 0 60V1020C0 1053.14 26.8629 1080 60 1080H1860C1893.14 1080 1920 1053.14 1920 1020V60C1920 26.8629 1893.14 0 1860 0Z" fill="url(#paint0_linear_826_50038)"/>
</mask>
<g mask="url(#mask0_826_50038)">
<path d="M1920 0H0V1080H1920V0Z" fill="url(#paint1_linear_826_50038)"/>
<path d="M1605.58 121.54C1613.86 121.54 1620.57 114.828 1620.57 106.55C1620.57 98.2708 1613.86 91.5596 1605.58 91.5596C1597.3 91.5596 1590.59 98.2708 1590.59 106.55C1590.59 114.828 1597.3 121.54 1605.58 121.54Z" fill="#DAF0EE" stroke="#DAF0EE" stroke-width="9" stroke-miterlimit="10"/>
<path d="M1605.58 125.17C1595.31 125.17 1586.96 116.82 1586.96 106.55C1586.96 96.2797 1595.31 87.9297 1605.58 87.9297C1615.85 87.9297 1624.2 96.2797 1624.2 106.55C1624.2 116.82 1615.85 125.17 1605.58 125.17ZM1605.58 95.1897C1599.31 95.1897 1594.21 100.29 1594.21 106.55C1594.21 112.81 1599.31 117.92 1605.58 117.92C1611.85 117.92 1616.95 112.82 1616.95 106.55C1616.95 100.28 1611.85 95.1897 1605.58 95.1897Z" fill="#DAF0EE" stroke="#DAF0EE" stroke-width="9" stroke-miterlimit="10"/>
<path d="M1798.03 121.54C1806.31 121.54 1813.02 114.828 1813.02 106.55C1813.02 98.2708 1806.31 91.5596 1798.03 91.5596C1789.75 91.5596 1783.04 98.2708 1783.04 106.55C1783.04 114.828 1789.75 121.54 1798.03 121.54Z" fill="#DAF0EE" stroke="#DAF0EE" stroke-width="10" stroke-miterlimit="10"/>
<path d="M1798.03 128.07C1786.17 128.07 1776.51 118.42 1776.51 106.55C1776.51 94.6803 1786.16 85.0303 1798.03 85.0303C1809.9 85.0303 1819.55 94.6803 1819.55 106.55C1819.55 118.42 1809.9 128.07 1798.03 128.07ZM1798.03 98.0903C1793.36 98.0903 1789.57 101.89 1789.57 106.55C1789.57 111.21 1793.37 115.02 1798.03 115.02C1802.69 115.02 1806.49 111.22 1806.49 106.55C1806.49 101.88 1802.69 98.0903 1798.03 98.0903Z" fill="#DAF0EE" stroke="#DAF0EE" stroke-width="10" stroke-miterlimit="10"/>
<path d="M1605.58 319.25C1613.86 319.25 1620.57 312.538 1620.57 304.26C1620.57 295.981 1613.86 289.27 1605.58 289.27C1597.3 289.27 1590.59 295.981 1590.59 304.26C1590.59 312.538 1597.3 319.25 1605.58 319.25Z" fill="#DAF0EE"/>
<path d="M1605.58 319.8C1597.01 319.8 1590.05 312.83 1590.05 304.26C1590.05 295.69 1597.02 288.73 1605.58 288.73C1614.14 288.73 1621.11 295.7 1621.11 304.26C1621.11 312.82 1614.14 319.8 1605.58 319.8ZM1605.58 289.82C1597.61 289.82 1591.13 296.3 1591.13 304.27C1591.13 312.24 1597.61 318.72 1605.58 318.72C1613.55 318.72 1620.03 312.24 1620.03 304.27C1620.03 296.3 1613.55 289.82 1605.58 289.82Z" fill="#DAF0EE"/>
<path d="M1798.03 319.25C1806.31 319.25 1813.02 312.538 1813.02 304.26C1813.02 295.981 1806.31 289.27 1798.03 289.27C1789.75 289.27 1783.04 295.981 1783.04 304.26C1783.04 312.538 1789.75 319.25 1798.03 319.25Z" fill="#DAF0EE" stroke="#DAF0EE" stroke-width="9" stroke-miterlimit="10"/>
<path d="M1798.03 322.88C1787.76 322.88 1779.41 314.53 1779.41 304.26C1779.41 293.99 1787.76 285.64 1798.03 285.64C1808.3 285.64 1816.65 293.99 1816.65 304.26C1816.65 314.53 1808.3 322.88 1798.03 322.88ZM1798.03 292.9C1791.76 292.9 1786.66 298 1786.66 304.26C1786.66 310.52 1791.76 315.63 1798.03 315.63C1804.3 315.63 1809.4 310.53 1809.4 304.26C1809.4 297.99 1804.3 292.9 1798.03 292.9Z" fill="#DAF0EE" stroke="#DAF0EE" stroke-width="9" stroke-miterlimit="10"/>
<path d="M1605.58 520.62C1613.86 520.62 1620.57 513.908 1620.57 505.63C1620.57 497.351 1613.86 490.64 1605.58 490.64C1597.3 490.64 1590.59 497.351 1590.59 505.63C1590.59 513.908 1597.3 520.62 1605.58 520.62Z" fill="#DAF0EE"/>
<path d="M1605.58 524.24C1595.31 524.24 1586.96 515.89 1586.96 505.62C1586.96 495.35 1595.31 487 1605.58 487C1615.85 487 1624.2 495.35 1624.2 505.62C1624.2 515.89 1615.85 524.24 1605.58 524.24ZM1605.58 494.26C1599.31 494.26 1594.21 499.36 1594.21 505.63C1594.21 511.9 1599.31 516.99 1605.58 516.99C1611.85 516.99 1616.95 511.89 1616.95 505.63C1616.95 499.37 1611.85 494.26 1605.58 494.26Z" fill="#DAF0EE"/>
<path d="M1798.03 520.62C1806.31 520.62 1813.02 513.908 1813.02 505.63C1813.02 497.351 1806.31 490.64 1798.03 490.64C1789.75 490.64 1783.04 497.351 1783.04 505.63C1783.04 513.908 1789.75 520.62 1798.03 520.62Z" fill="#DAF0EE"/>
<path d="M1798.03 527.15C1786.17 527.15 1776.51 517.5 1776.51 505.63C1776.51 493.76 1786.16 484.11 1798.03 484.11C1809.9 484.11 1819.55 493.76 1819.55 505.63C1819.55 517.5 1809.9 527.15 1798.03 527.15ZM1798.03 497.17C1793.36 497.17 1789.57 500.97 1789.57 505.64C1789.57 510.31 1793.37 514.1 1798.03 514.1C1802.69 514.1 1806.49 510.3 1806.49 505.64C1806.49 500.98 1802.69 497.17 1798.03 497.17Z" fill="#DAF0EE"/>
<path d="M1605.58 718.32C1613.86 718.32 1620.57 711.609 1620.57 703.33C1620.57 695.051 1613.86 688.34 1605.58 688.34C1597.3 688.34 1590.59 695.051 1590.59 703.33C1590.59 711.609 1597.3 718.32 1605.58 718.32Z" fill="#DAF0EE"/>
<path d="M1605.58 718.87C1597.01 718.87 1590.05 711.9 1590.05 703.33C1590.05 694.76 1597.02 687.8 1605.58 687.8C1614.14 687.8 1621.11 694.77 1621.11 703.33C1621.11 711.89 1614.14 718.87 1605.58 718.87ZM1605.58 688.89C1597.61 688.89 1591.13 695.37 1591.13 703.34C1591.13 711.31 1597.61 717.79 1605.58 717.79C1613.55 717.79 1620.03 711.31 1620.03 703.34C1620.03 695.37 1613.55 688.89 1605.58 688.89Z" fill="#DAF0EE"/>
<path d="M1798.03 718.32C1806.31 718.32 1813.02 711.609 1813.02 703.33C1813.02 695.051 1806.31 688.34 1798.03 688.34C1789.75 688.34 1783.04 695.051 1783.04 703.33C1783.04 711.609 1789.75 718.32 1798.03 718.32Z" fill="#DAF0EE"/>
<path d="M1798.03 721.95C1787.76 721.95 1779.41 713.6 1779.41 703.33C1779.41 693.06 1787.76 684.71 1798.03 684.71C1808.3 684.71 1816.65 693.06 1816.65 703.33C1816.65 713.6 1808.3 721.95 1798.03 721.95ZM1798.03 691.97C1791.76 691.97 1786.66 697.07 1786.66 703.33C1786.66 709.59 1791.76 714.7 1798.03 714.7C1804.3 714.7 1809.4 709.6 1809.4 703.33C1809.4 697.06 1804.3 691.97 1798.03 691.97Z" fill="#DAF0EE"/>
<path d="M1605.58 919.69C1613.86 919.69 1620.57 912.979 1620.57 904.7C1620.57 896.421 1613.86 889.71 1605.58 889.71C1597.3 889.71 1590.59 896.421 1590.59 904.7C1590.59 912.979 1597.3 919.69 1605.58 919.69Z" fill="#DAF0EE"/>
<path d="M1798.03 919.69C1806.31 919.69 1813.02 912.979 1813.02 904.7C1813.02 896.421 1806.31 889.71 1798.03 889.71C1789.75 889.71 1783.04 896.421 1783.04 904.7C1783.04 912.979 1789.75 919.69 1798.03 919.69Z" fill="#DAF0EE"/>
<path d="M1798.03 896.24C1793.36 896.24 1789.57 900.04 1789.57 904.71C1789.57 909.38 1793.37 913.17 1798.03 913.17C1802.69 913.17 1806.49 909.37 1806.49 904.71C1806.49 900.05 1802.69 896.24 1798.03 896.24Z" fill="#DAF0EE"/>
<path d="M1206.7 121.54C1214.98 121.54 1221.69 114.828 1221.69 106.55C1221.69 98.2708 1214.98 91.5596 1206.7 91.5596C1198.42 91.5596 1191.71 98.2708 1191.71 106.55C1191.71 114.828 1198.42 121.54 1206.7 121.54Z" fill="#DAF0EE"/>
<path d="M1206.7 125.17C1196.43 125.17 1188.08 116.82 1188.08 106.55C1188.08 96.2797 1196.43 87.9297 1206.7 87.9297C1216.97 87.9297 1225.32 96.2797 1225.32 106.55C1225.32 116.82 1216.97 125.17 1206.7 125.17ZM1206.7 95.1897C1200.43 95.1897 1195.33 100.29 1195.33 106.55C1195.33 112.81 1200.43 117.92 1206.7 117.92C1212.97 117.92 1218.07 112.82 1218.07 106.55C1218.07 100.28 1212.97 95.1897 1206.7 95.1897Z" fill="#DAF0EE"/>
<path d="M1399.15 121.54C1407.43 121.54 1414.14 114.828 1414.14 106.55C1414.14 98.2708 1407.43 91.5596 1399.15 91.5596C1390.87 91.5596 1384.16 98.2708 1384.16 106.55C1384.16 114.828 1390.87 121.54 1399.15 121.54Z" fill="#DAF0EE"/>
<path d="M1399.15 128.07C1387.29 128.07 1377.63 118.42 1377.63 106.55C1377.63 94.6803 1387.28 85.0303 1399.15 85.0303C1411.02 85.0303 1420.67 94.6803 1420.67 106.55C1420.67 118.42 1411.02 128.07 1399.15 128.07ZM1399.15 98.0903C1394.48 98.0903 1390.69 101.89 1390.69 106.55C1390.69 111.21 1394.49 115.02 1399.15 115.02C1403.81 115.02 1407.61 111.22 1407.61 106.55C1407.61 101.88 1403.81 98.0903 1399.15 98.0903Z" fill="#DAF0EE"/>
<path d="M1206.7 319.25C1214.98 319.25 1221.69 312.538 1221.69 304.26C1221.69 295.981 1214.98 289.27 1206.7 289.27C1198.42 289.27 1191.71 295.981 1191.71 304.26C1191.71 312.538 1198.42 319.25 1206.7 319.25Z" fill="#DAF0EE"/>
<path d="M1206.7 319.8C1198.13 319.8 1191.17 312.83 1191.17 304.26C1191.17 295.69 1198.14 288.73 1206.7 288.73C1215.26 288.73 1222.23 295.7 1222.23 304.26C1222.23 312.82 1215.26 319.8 1206.7 319.8ZM1206.7 289.82C1198.73 289.82 1192.25 296.3 1192.25 304.27C1192.25 312.24 1198.73 318.72 1206.7 318.72C1214.67 318.72 1221.15 312.24 1221.15 304.27C1221.15 296.3 1214.67 289.82 1206.7 289.82Z" fill="#DAF0EE"/>
<path d="M1399.15 319.25C1407.43 319.25 1414.14 312.538 1414.14 304.26C1414.14 295.981 1407.43 289.27 1399.15 289.27C1390.87 289.27 1384.16 295.981 1384.16 304.26C1384.16 312.538 1390.87 319.25 1399.15 319.25Z" fill="#DAF0EE"/>
<path d="M1399.15 322.88C1388.88 322.88 1380.53 314.53 1380.53 304.26C1380.53 293.99 1388.88 285.64 1399.15 285.64C1409.42 285.64 1417.77 293.99 1417.77 304.26C1417.77 314.53 1409.42 322.88 1399.15 322.88ZM1399.15 292.9C1392.88 292.9 1387.78 298 1387.78 304.26C1387.78 310.52 1392.88 315.63 1399.15 315.63C1405.42 315.63 1410.52 310.53 1410.52 304.26C1410.52 297.99 1405.42 292.9 1399.15 292.9Z" fill="#DAF0EE"/>
<path d="M1206.7 520.62C1214.98 520.62 1221.69 513.908 1221.69 505.63C1221.69 497.351 1214.98 490.64 1206.7 490.64C1198.42 490.64 1191.71 497.351 1191.71 505.63C1191.71 513.908 1198.42 520.62 1206.7 520.62Z" fill="#DAF0EE"/>
<path d="M1206.7 494.26C1200.43 494.26 1195.33 499.36 1195.33 505.63C1195.33 511.9 1200.43 516.99 1206.7 516.99C1212.97 516.99 1218.07 511.89 1218.07 505.63C1218.07 499.37 1212.97 494.26 1206.7 494.26Z" fill="#DAF0EE"/>
<path d="M1399.15 520.62C1407.43 520.62 1414.14 513.908 1414.14 505.63C1414.14 497.351 1407.43 490.64 1399.15 490.64C1390.87 490.64 1384.16 497.351 1384.16 505.63C1384.16 513.908 1390.87 520.62 1399.15 520.62Z" fill="#DAF0EE"/>
<path d="M1399.15 497.16C1394.48 497.16 1390.69 500.96 1390.69 505.63C1390.69 510.3 1394.49 514.09 1399.15 514.09C1403.81 514.09 1407.61 510.29 1407.61 505.63C1407.61 500.97 1403.81 497.16 1399.15 497.16Z" fill="#DAF0EE"/>
<path d="M1399.15 718.32C1407.43 718.32 1414.14 711.609 1414.14 703.33C1414.14 695.051 1407.43 688.34 1399.15 688.34C1390.87 688.34 1384.16 695.051 1384.16 703.33C1384.16 711.609 1390.87 718.32 1399.15 718.32Z" fill="#DAF0EE"/>
<path d="M1399.15 691.97C1392.88 691.97 1387.78 697.07 1387.78 703.33C1387.78 709.59 1392.88 714.7 1399.15 714.7C1405.42 714.7 1410.52 709.6 1410.52 703.33C1410.52 697.06 1405.42 691.97 1399.15 691.97Z" fill="#DAF0EE"/>
<circle cx="49" cy="82" r="13" fill="#DAF0EE"/>
<circle cx="324" cy="82" r="13" fill="#DAF0EE"/>
<circle cx="599" cy="82" r="13" fill="#DAF0EE"/>
<circle cx="188" cy="82" r="15" fill="#DAF0EE"/>
<circle cx="463" cy="82" r="15" fill="#DAF0EE"/>
<circle cx="49" cy="357" r="13" fill="#DAF0EE"/>
<circle cx="324" cy="357" r="13" fill="#DAF0EE"/>
<circle cx="599" cy="357" r="13" fill="#DAF0EE"/>
<circle cx="188" cy="357" r="15" fill="#DAF0EE"/>
<circle cx="463" cy="357" r="15" fill="#DAF0EE"/>
<circle cx="49" cy="632" r="13" fill="#DAF0EE"/>
<circle cx="324" cy="632" r="13" fill="#DAF0EE"/>
<circle cx="599" cy="632" r="13" fill="#DAF0EE"/>
<circle cx="188" cy="632" r="15" fill="#DAF0EE"/>
<circle cx="463" cy="632" r="15" fill="#DAF0EE"/>
<circle cx="49" cy="215" r="11" fill="#DAF0EE"/>
<circle cx="324" cy="215" r="11" fill="#DAF0EE"/>
<circle cx="600" cy="215" r="11" fill="#DAF0EE"/>
<circle cx="188" cy="215" r="13" fill="#DAF0EE"/>
<circle cx="463" cy="215" r="13" fill="#DAF0EE"/>
<circle cx="49" cy="490" r="11" fill="#DAF0EE"/>
<circle cx="324" cy="490" r="11" fill="#DAF0EE"/>
<circle cx="600" cy="490" r="11" fill="#DAF0EE"/>
<circle cx="188" cy="490" r="13" fill="#DAF0EE"/>
<circle cx="463" cy="490" r="13" fill="#DAF0EE"/>
</g>
</g>
<defs>
<linearGradient id="paint0_linear_826_50038" x1="960" y1="0" x2="960" y2="1080" gradientUnits="userSpaceOnUse">
<stop stop-color="#FFF7F7"/>
<stop offset="1" stop-color="#FBF7FF"/>
</linearGradient>
<linearGradient id="paint1_linear_826_50038" x1="960" y1="0" x2="960" y2="1080" gradientUnits="userSpaceOnUse">
<stop stop-color="white"/>
<stop offset="1" stop-color="#F4FCFD"/>
</linearGradient>
<clipPath id="clip0_826_50038">
<rect width="1920" height="1080" fill="white"/>
</clipPath>
</defs>
</svg>