<?xml version="1.0" standalone="no"?>
<!DOCTYPE svg PUBLIC "-//W3C//DTD SVG 1.1//EN" "http://www.w3.org/Graphics/SVG/1.1/DTD/svg11.dtd">
<svg xmlns="http://www.w3.org/2000/svg" width="1920" height="1080" viewBox="0 0 1920 1080" fill="none">
<g clip-path="url(#clip0_826_50050)">
<mask id="mask0_826_50050" style="mask-type:alpha" maskUnits="userSpaceOnUse" x="0" y="0" width="1920" height="1080">
<path d="M1860 0H60C26.8629 0 0 26.8629 0 60V1020C0 1053.14 26.8629 1080 60 1080H1860C1893.14 1080 1920 1053.14 1920 1020V60C1920 26.8629 1893.14 0 1860 0Z" fill="url(#paint0_linear_826_50050)"/>
</mask>
<g mask="url(#mask0_826_50050)">
<path d="M1920 0H0V1080H1920V0Z" fill="url(#paint1_linear_826_50050)"/>
<path d="M734.469 751.44L673.699 776.7C674.959 780 676.309 783.25 677.769 786.44L738.549 761.16C737.019 758 735.669 754.75 734.469 751.42V751.44Z" fill="#E3C6FF"/>
<path d="M754.919 785.48L693.869 846.531L701.339 854L762.419 792.92C759.799 790.57 757.289 788.09 754.919 785.48Z" fill="#E3C6FF"/>
<path d="M836.031 818.76C834.181 818.86 832.301 818.91 830.421 818.91C828.761 818.91 827.111 818.87 825.471 818.79V884.59C827.111 884.64 828.761 884.66 830.421 884.66C832.301 884.66 834.161 884.62 836.031 884.56V818.76Z" fill="#E3C6FF"/>
<path d="M787.02 809.25L761.92 870.08C765.13 871.52 768.38 872.86 771.69 874.09L796.8 813.24C793.46 812.07 790.2 810.73 787.03 809.25H787.02Z" fill="#E3C6FF"/>
<path d="M728.479 716.99C728.479 715.27 728.529 713.55 728.599 711.85H642.449V722.41H728.619C728.519 720.62 728.479 718.81 728.479 716.99Z" fill="#E3C6FF"/>
<path d="M796.44 620.87L763.33 541.25L753.58 545.3L786.68 624.9C789.85 623.39 793.1 622.05 796.44 620.87Z" fill="#E3C6FF"/>
<path d="M762.269 641.19L701.329 580.25L693.859 587.72L754.789 648.65C757.149 646.04 759.649 643.55 762.269 641.19Z" fill="#E3C6FF"/>
<path d="M738.31 673.28L658.7 640.43L654.67 650.2L734.28 683.04C735.46 679.7 736.8 676.45 738.31 673.28Z" fill="#E3C6FF"/>
<path d="M906.36 648.99L967.63 587.72L960.16 580.25L898.92 641.49C901.53 643.86 904.01 646.36 906.36 648.99Z" fill="#E3C6FF"/>
<path d="M874.461 625.04L899.571 564.18C896.371 562.73 893.121 561.38 889.821 560.14L864.721 620.97C868.051 622.16 871.301 623.52 874.461 625.03V625.04Z" fill="#E3C6FF"/>
<path d="M926.559 683.01L987.339 657.74C986.089 654.44 984.759 651.19 983.309 647.98L922.529 673.25C924.039 676.42 925.379 679.68 926.559 683.01Z" fill="#E3C6FF"/>
<path d="M825.471 615.18C827.111 615.1 828.761 615.05 830.421 615.05C832.301 615.05 834.171 615.11 836.031 615.2V549.4C834.171 549.34 832.301 549.3 830.421 549.3C828.761 549.3 827.111 549.33 825.471 549.38V615.18Z" fill="#E3C6FF"/>
<path d="M864.881 812.95L898.171 893L907.921 888.95L874.621 808.87C871.461 810.39 868.211 811.75 864.881 812.95Z" fill="#E3C6FF"/>
<path d="M932.361 716.99C932.361 718.81 932.311 720.61 932.221 722.41H1019.05V711.85H932.241C932.331 713.56 932.361 715.27 932.361 716.99Z" fill="#E3C6FF"/>
<path d="M898.779 792.61L960.169 853.99L967.639 846.52L906.239 785.12C903.889 787.75 901.399 790.24 898.779 792.6V792.61Z" fill="#E3C6FF"/>
<path d="M922.539 760.71L1002.8 793.83L1006.83 784.06L926.569 750.94C925.389 754.28 924.049 757.53 922.539 760.71Z" fill="#E3C6FF"/>
<path d="M15.8097 281.64C19.9897 281.64 24.1397 281.76 28.2797 281.94V73.0498H2.67969V281.99C7.02969 281.76 11.3997 281.64 15.8097 281.64Z" fill="#E3C6FF" fill-opacity="0.5"/>
<path d="M248.87 446.4L441.92 366.13L432.09 342.48L239.1 422.73C242.75 430.41 246.02 438.3 248.87 446.4Z" fill="#E3C6FF" fill-opacity="0.5"/>
<path d="M199.6 363.57L347.35 215.82L329.24 197.71L181.51 345.43C187.84 351.16 193.87 357.21 199.6 363.56V363.57Z" fill="#E3C6FF" fill-opacity="0.5"/>
<path d="M121.791 305.47L201.441 112.45L177.761 102.67L98.1309 295.69C106.231 298.55 114.121 301.81 121.791 305.47Z" fill="#E3C6FF" fill-opacity="0.5"/>
<path d="M180.689 712.92L329.249 861.48L347.359 843.37L198.879 694.88C193.129 701.21 187.069 707.22 180.699 712.92H180.689Z" fill="#E3C6FF" fill-opacity="0.5"/>
<path d="M238.76 635.58L386.31 696.47C389.83 688.72 393.09 680.83 396.1 672.82L248.61 611.96C245.72 620.04 242.43 627.93 238.76 635.58Z" fill="#E3C6FF" fill-opacity="0.5"/>
<path d="M98.2109 761.89L159.481 909.27C167.481 906.24 175.371 903.01 183.141 899.5L121.871 752.12C114.181 755.77 106.291 759.03 98.2109 761.9V761.89Z" fill="#E3C6FF" fill-opacity="0.5"/>
<path d="M262.66 516.78C262.85 520.76 262.97 524.76 262.97 528.79C262.97 533.35 262.83 537.89 262.6 542.38H422.14C422.28 537.86 422.39 533.35 422.39 528.79C422.39 524.76 422.31 520.76 422.2 516.78H262.66Z" fill="#E3C6FF" fill-opacity="0.5"/>
<path d="M15.8097 775.97C11.3997 775.97 7.02969 775.85 2.67969 775.62V986.14H28.2897V775.67C24.1497 775.88 19.9897 775.97 15.8197 775.97H15.8097Z" fill="#E3C6FF" fill-opacity="0.5"/>
<path d="M1878.92 349.25L1825.78 221.41C1818.84 224.06 1812.01 226.9 1805.28 229.97L1858.46 357.83C1865.1 354.62 1871.94 351.77 1878.96 349.25H1878.93H1878.92Z" fill="#E3C6FF" fill-opacity="0.5"/>
<path d="M1807.33 392.28L1678.91 263.86L1663.2 279.57L1791.68 408.05C1796.62 402.54 1801.84 397.27 1807.32 392.28H1807.33Z" fill="#E3C6FF" fill-opacity="0.5"/>
<path d="M1737.31 562.89C1737.11 558.99 1736.99 555.05 1736.99 551.1C1736.99 547.61 1737.07 544.13 1737.24 540.68H1598.83C1598.73 544.13 1598.68 547.61 1598.68 551.1C1598.68 555.06 1598.76 558.97 1598.9 562.89H1737.31Z" fill="#E3C6FF" fill-opacity="0.5"/>
<path d="M1757.33 459.8L1629.37 407C1626.34 413.74 1623.52 420.59 1620.94 427.56L1748.93 480.38C1751.39 473.35 1754.21 466.49 1757.32 459.82V459.8H1757.33Z" fill="#E3C6FF" fill-opacity="0.5"/>
<path d="M1749.55 623.59L1581.15 693.62L1589.68 714.14L1758.13 644.09C1754.93 637.45 1752.08 630.6 1749.55 623.59Z" fill="#E3C6FF" fill-opacity="0.5"/>
<path d="M1792.32 694.88L1663.2 824.01L1678.91 839.72L1808.07 710.57C1802.54 705.62 1797.3 700.39 1792.33 694.88H1792.32Z" fill="#E3C6FF" fill-opacity="0.5"/>
<path d="M1859.44 744.86L1789.78 913.69L1810.33 922.17L1879.99 753.34C1872.96 750.86 1866.12 748.03 1859.44 744.86Z" fill="#E3C6FF" fill-opacity="0.5"/>
</g>
</g>
<defs>
<linearGradient id="paint0_linear_826_50050" x1="960" y1="0" x2="960" y2="1080" gradientUnits="userSpaceOnUse">
<stop stop-color="#FFF7F7"/>
<stop offset="1" stop-color="#FBF7FF"/>
</linearGradient>
<linearGradient id="paint1_linear_826_50050" x1="960" y1="0" x2="960" y2="1080" gradientUnits="userSpaceOnUse">
<stop stop-color="#FFF7F7"/>
<stop offset="1" stop-color="#FBF7FF"/>
</linearGradient>
<clipPath id="clip0_826_50050">
<rect width="1920" height="1080" fill="white"/>
</clipPath>
</defs>
</svg>