<?xml version="1.0" standalone="no"?>
<!DOCTYPE svg PUBLIC "-//W3C//DTD SVG 1.1//EN" "http://www.w3.org/Graphics/SVG/1.1/DTD/svg11.dtd">
<svg xmlns="http://www.w3.org/2000/svg" width="1920" height="1080" viewBox="0 0 1920 1080" fill="none">
<g clip-path="url(#clip0_826_50047)">
<mask id="mask0_826_50047" style="mask-type:alpha" maskUnits="userSpaceOnUse" x="0" y="0" width="1920" height="1080">
<path d="M1860 0H60C26.8629 0 0 26.8629 0 60V1020C0 1053.14 26.8629 1080 60 1080H1860C1893.14 1080 1920 1053.14 1920 1020V60C1920 26.8629 1893.14 0 1860 0Z" fill="url(#paint0_linear_826_50047)"/>
</mask>
<g mask="url(#mask0_826_50047)">
<path d="M1920 0H0V1080H1920V0Z" fill="url(#paint1_linear_826_50047)"/>
<path d="M-0.0402985 699.43C127.83 699.43 231.49 595.771 231.49 467.9C231.49 340.03 127.83 236.37 -0.0402985 236.37C-127.911 236.37 -231.57 340.03 -231.57 467.9C-231.57 595.771 -127.911 699.43 -0.0402985 699.43Z" stroke="#FCD0D1"/>
<path d="M-0.0395966 599.96C72.8951 599.96 132.02 540.835 132.02 467.9C132.02 394.965 72.8951 335.84 -0.0395966 335.84C-72.9743 335.84 -132.1 394.965 -132.1 467.9C-132.1 540.835 -72.9743 599.96 -0.0395966 599.96Z" stroke="#FCD0D1" stroke-width="2"/>
<path d="M-0.04039 579.01C61.324 579.01 111.07 529.264 111.07 467.9C111.07 406.536 61.324 356.79 -0.04039 356.79C-61.4047 356.79 -111.15 406.536 -111.15 467.9C-111.15 529.264 -61.4047 579.01 -0.04039 579.01Z" stroke="#FCD0D1"/>
<path d="M111.06 236.96V699.01" stroke="#FCD0D1"/>
<path d="M-231.16 579.09H230.9" stroke="#FCD0D1"/>
<path d="M-231.07 356.79H230.98" stroke="#FCD0D1"/>
<path d="M-231.07 445.08H230.98" stroke="#FCD0D1"/>
<path d="M-231.07 490.72H230.98" stroke="#FCD0D1"/>
<path d="M22.7803 236.87V698.92" stroke="#FCD0D1" stroke-width="0.5"/>
<path d="M189.3 236.87V698.92" stroke="#FCD0D1"/>
<path d="M132.55 236.96V699.01" stroke="#FCD0D1"/>
<path d="M-0.04039 657.26C104.54 657.26 189.32 572.481 189.32 467.9C189.32 363.319 104.54 278.54 -0.04039 278.54C-104.621 278.54 -189.4 363.319 -189.4 467.9C-189.4 572.481 -104.621 657.26 -0.04039 657.26Z" stroke="#FCD0D1"/>
<path d="M-0.0401173 490.73C12.5685 490.73 22.7899 480.509 22.7899 467.9C22.7899 455.292 12.5685 445.07 -0.0401173 445.07C-12.6488 445.07 -22.8701 455.292 -22.8701 467.9C-22.8701 480.509 -12.6488 490.73 -0.0401173 490.73Z" stroke="#FCD0D1"/>
<path d="M1350.56 1322.92C1663.98 1322.92 1918.05 1068.85 1918.05 755.43C1918.05 442.014 1663.98 187.94 1350.56 187.94C1037.14 187.94 783.07 442.014 783.07 755.43C783.07 1068.85 1037.14 1322.92 1350.56 1322.92Z" stroke="#FCD0D1" stroke-width="3"/>
<path d="M1350.56 1079.13C1529.33 1079.13 1674.26 934.205 1674.26 755.43C1674.26 576.656 1529.33 431.73 1350.56 431.73C1171.79 431.73 1026.86 576.656 1026.86 755.43C1026.86 934.205 1171.79 1079.13 1350.56 1079.13Z" stroke="#FCD0D1" stroke-width="4"/>
<path d="M1350.56 1027.77C1500.97 1027.77 1622.9 905.839 1622.9 755.43C1622.9 605.021 1500.97 483.09 1350.56 483.09C1200.15 483.09 1078.22 605.021 1078.22 755.43C1078.22 905.839 1200.15 1027.77 1350.56 1027.77Z" stroke="#FCD0D1" stroke-width="2"/>
<path d="M1078.01 189.16V1321.7" stroke="#FCD0D1"/>
<path d="M1622.86 189.37V1321.92" stroke="#FCD0D1"/>
<path d="M784.06 1027.96H1916.6" stroke="#FCD0D1"/>
<path d="M784.27 483.11H1916.81" stroke="#FCD0D1"/>
<path d="M784.27 699.5H1916.81" stroke="#FCD0D1"/>
<path d="M784.27 811.37H1916.81" stroke="#FCD0D1"/>
<path d="M1025.68 189.16V1321.7" stroke="#FCD0D1"/>
<path d="M1294.64 189.16V1321.7" stroke="#FCD0D1" stroke-width="0.5"/>
<path d="M1406.49 189.16V1321.7" stroke="#FCD0D1" stroke-width="0.5"/>
<path d="M1814.65 189.16V1321.7" stroke="#FCD0D1"/>
<path d="M1675.54 189.37V1321.92" stroke="#FCD0D1"/>
<path d="M1350.56 1219.56C1606.89 1219.56 1814.69 1011.76 1814.69 755.43C1814.69 499.098 1606.89 291.3 1350.56 291.3C1094.23 291.3 886.43 499.098 886.43 755.43C886.43 1011.76 1094.23 1219.56 1350.56 1219.56Z" stroke="#FCD0D1" stroke-width="3"/>
<path d="M1350.56 811.38C1381.46 811.38 1406.51 786.331 1406.51 755.43C1406.51 724.53 1381.46 699.48 1350.56 699.48C1319.66 699.48 1294.61 724.53 1294.61 755.43C1294.61 786.331 1319.66 811.38 1350.56 811.38Z" stroke="#FCD0D1" stroke-width="3"/>
</g>
</g>
<defs>
<linearGradient id="paint0_linear_826_50047" x1="960" y1="0" x2="960" y2="1080" gradientUnits="userSpaceOnUse">
<stop stop-color="#FFF7F7"/>
<stop offset="1" stop-color="#FBF7FF"/>
</linearGradient>
<linearGradient id="paint1_linear_826_50047" x1="960" y1="0" x2="960" y2="1080" gradientUnits="userSpaceOnUse">
<stop stop-color="#FFF7F7"/>
<stop offset="1" stop-color="#FBF7FF"/>
</linearGradient>
<clipPath id="clip0_826_50047">
<rect width="1920" height="1080" fill="white"/>
</clipPath>
</defs>
</svg>