<svg width="902" height="646" viewBox="0 0 902 646" fill="none" xmlns="http://www.w3.org/2000/svg">
<path d="M314.062 470.252C314.062 470.252 297.585 215.634 302.964 34C302.964 34 796.546 78.9241 892.209 89.9249C892.209 89.9249 827.9 496.227 821.6 529.181L314.062 470.3V470.252Z" fill="#BFABFF"/>
<path d="M337.664 452.417L325.984 55.0312L848.934 115.851L799.648 498.988L337.664 452.417Z" fill="white"/>
<path d="M485.764 176.914C494.756 176.914 502.047 169.623 502.047 160.63C502.047 151.637 494.756 144.347 485.764 144.347C476.771 144.347 469.48 151.637 469.48 160.63C469.48 169.623 476.771 176.914 485.764 176.914Z" fill="#864DFF"/>
<path d="M485.765 169.934C490.904 169.934 495.07 165.768 495.07 160.629C495.07 155.49 490.904 151.325 485.765 151.325C480.627 151.325 476.461 155.49 476.461 160.629C476.461 165.768 480.627 169.934 485.765 169.934Z" fill="#470AA7"/>
<path d="M556.809 182.535C565.801 182.535 573.092 175.245 573.092 166.252C573.092 157.259 565.801 149.969 556.809 149.969C547.816 149.969 540.525 157.259 540.525 166.252C540.525 175.245 547.816 182.535 556.809 182.535Z" fill="#CCB5FF"/>
<path d="M556.807 175.557C561.945 175.557 566.111 171.391 566.111 166.252C566.111 161.113 561.945 156.948 556.807 156.948C551.668 156.948 547.502 161.113 547.502 166.252C547.502 171.391 551.668 175.557 556.807 175.557Z" fill="#864DFF"/>
<path d="M627.853 188.155C636.846 188.155 644.137 180.865 644.137 171.872C644.137 162.879 636.846 155.589 627.853 155.589C618.861 155.589 611.57 162.879 611.57 171.872C611.57 180.865 618.861 188.155 627.853 188.155Z" fill="#8FE5D5"/>
<path d="M627.852 181.176C632.99 181.176 637.156 177.01 637.156 171.871C637.156 166.733 632.99 162.567 627.852 162.567C622.713 162.567 618.547 166.733 618.547 171.871C618.547 177.01 622.713 181.176 627.852 181.176Z" fill="#07BC8F"/>
<path d="M695.506 193.487C704.499 193.487 711.789 186.197 711.789 177.204C711.789 168.211 704.499 160.92 695.506 160.92C686.513 160.92 679.223 168.211 679.223 177.204C679.223 186.197 686.513 193.487 695.506 193.487Z" fill="#C4F2F6"/>
<path d="M695.504 186.508C700.643 186.508 704.809 182.343 704.809 177.204C704.809 172.065 700.643 167.899 695.504 167.899C690.365 167.899 686.199 172.065 686.199 177.204C686.199 182.343 690.365 186.508 695.504 186.508Z" fill="#57E1E9"/>
<path d="M764.951 199.012C773.944 199.012 781.234 191.722 781.234 182.729C781.234 173.736 773.944 166.446 764.951 166.446C755.958 166.446 748.668 173.736 748.668 182.729C748.668 191.722 755.958 199.012 764.951 199.012Z" fill="#FFE1A6"/>
<path d="M764.949 192.033C770.088 192.033 774.254 187.867 774.254 182.728C774.254 177.589 770.088 173.423 764.949 173.423C759.81 173.423 755.645 177.589 755.645 182.728C755.645 187.867 759.81 192.033 764.949 192.033Z" fill="#FFBF3F"/>
<path d="M786.67 217.058L467.866 191.856C458.634 191.126 450.559 198.019 449.829 207.25L449.825 207.299C449.095 216.53 455.987 224.606 465.219 225.336L784.023 250.538C793.255 251.268 801.33 244.376 802.06 235.144L802.064 235.096C802.794 225.864 795.901 217.788 786.67 217.058Z" fill="#E5DAFF"/>
<path d="M505.696 245.87L476.226 243.54C463.313 242.519 452.016 252.161 450.995 265.074L441.845 380.827C440.824 393.741 450.465 405.037 463.379 406.058L492.848 408.388C505.762 409.409 517.059 399.768 518.079 386.854L527.23 271.101C528.251 258.187 518.61 246.891 505.696 245.87Z" fill="#E5DAFF"/>
<path d="M592.795 252.76L563.326 250.43C550.412 249.409 539.116 259.05 538.095 271.964L528.944 387.717C527.923 400.631 537.565 411.927 550.478 412.948L579.948 415.278C592.862 416.298 604.158 406.658 605.179 393.744L614.329 277.991C615.35 265.077 605.709 253.781 592.795 252.76Z" fill="#8FE5D5"/>
<path d="M679.842 259.646L650.373 257.317C637.459 256.296 626.163 265.937 625.142 278.851L615.991 394.604C614.97 407.517 624.611 418.813 637.525 419.834L666.995 422.164C679.909 423.185 691.205 413.544 692.226 400.63L701.376 284.877C702.397 271.963 692.756 260.667 679.842 259.646Z" fill="#C4F2F6"/>
<path d="M766.94 266.537L737.47 264.207C724.556 263.186 713.26 272.827 712.239 285.741L703.089 401.494C702.068 414.408 711.709 425.704 724.623 426.725L754.093 429.055C767.006 430.076 778.302 420.435 779.323 407.521L788.474 291.768C789.495 278.854 779.854 267.558 766.94 266.537Z" fill="#FFE1A6"/>
<path d="M666.285 584.039C666.285 584.039 45.0554 513.431 9 507.179L314.066 470.251C314.066 470.251 681.987 505.629 821.604 529.132L666.285 584.039Z" fill="#E5DAFF"/>
<path d="M9.04688 507.18L19.03 538.05L660.516 611.857L821.603 540.716V529.133L666.283 584.04L9.04688 507.18Z" fill="#BFABFF"/>
<path d="M391.311 457.796L402.845 63.9965L325.984 55.0312L337.664 452.417L391.311 457.796Z" fill="#864DFF"/>
<path d="M396.498 217.863C415.072 217.863 430.13 202.805 430.13 184.231C430.13 165.656 415.072 150.598 396.498 150.598C377.923 150.598 362.865 165.656 362.865 184.231C362.865 202.805 377.923 217.863 396.498 217.863Z" fill="#F6A3A5"/>
<path d="M396.497 202.985C406.855 202.985 415.252 194.588 415.252 184.23C415.252 173.872 406.855 165.475 396.497 165.475C386.139 165.475 377.742 173.872 377.742 184.23C377.742 194.588 386.139 202.985 396.497 202.985Z" fill="#FE695D"/>
</svg>
