<?xml version="1.0" standalone="no"?>
<!DOCTYPE svg PUBLIC "-//W3C//DTD SVG 1.1//EN" "http://www.w3.org/Graphics/SVG/1.1/DTD/svg11.dtd">
<svg xmlns="http://www.w3.org/2000/svg" width="34" height="44" viewBox="0 0 34 44" fill="none">
<g clip-path="url(#clip0_4938_12119)">
<path d="M11.5224 26.8221C8.81944 26.8221 6.6328 24.6294 6.6328 21.9325C6.6328 19.2357 8.82551 17.043 11.5224 17.043V10.4102C5.15682 10.4102 0 15.567 0 21.9325C0 28.2981 5.15682 33.4549 11.5224 33.4549V26.8221Z" fill="white"/>
<path d="M11.5223 43.9939C23.6703 43.9939 33.5223 34.148 33.5223 21.9939C33.5223 9.83987 23.6703 0 11.5223 0V6.6328C20.0077 6.6328 26.8895 13.5146 26.8895 22C26.8895 30.4854 20.0077 37.3672 11.5223 37.3672V44V43.9939Z" fill="url(#paint0_linear_4938_12119)"/>
</g>
<defs>
<linearGradient id="paint0_linear_4938_12119" x1="22.5223" y1="-1.25927e-07" x2="39.424" y2="106.012" gradientUnits="userSpaceOnUse">
<stop stop-color="white"/>
<stop offset="1" stop-color="white" stop-opacity="0"/>
</linearGradient>
<clipPath id="clip0_4938_12119">
<rect width="34" height="44" fill="white"/>
</clipPath>
</defs>
</svg>