<svg width="1315" height="1460" viewBox="0 0 1315 1460" fill="none" xmlns="http://www.w3.org/2000/svg">
<path d="M615.561 835.009C615.561 835.009 838.413 776.645 874.234 768.668C874.234 768.668 932.598 784.571 943.2 840.31C953.802 896.049 951.178 934.495 936.561 957.037C936.561 957.037 655.294 1027.34 636.766 1027.34C636.766 1027.34 573.101 1002.12 566.461 921.216C559.822 840.31 615.561 835.009 615.561 835.009Z" fill="#8FE5D5"/>
<path d="M585.349 867.796L867.903 865.325L896.93 945.717L513.449 1048.75L585.349 867.796Z" fill="#6DC9B8"/>
<path d="M861.264 915.508C861.264 915.508 874.851 959.616 907.224 983.136L984.733 978.607C984.733 978.607 1066.62 876.393 990.446 743.042C990.446 743.042 918.032 737.999 901.717 739.44C901.717 739.44 833.729 783.238 861.264 915.508Z" fill="#6DC9B8"/>
<path d="M901.559 873.665L850.606 686.582C850.606 686.582 808.557 668.208 753.745 631.718L748.393 607.066L1103.41 577.009L1107.38 600.992C1107.38 600.992 1033.98 673.561 1002.74 692.861L999.088 863.166L901.559 873.665Z" fill="#8FE5D5"/>
<path d="M314.889 547.566C314.889 547.566 341.343 692.24 372.017 781.793L415.558 803.203C415.558 803.203 372.686 647.052 355.393 553.125L314.889 547.566Z" fill="#6DC9B8"/>
<path d="M336.868 702.382C336.868 702.382 314.016 688.692 314.016 657.658C314.016 626.623 351.381 589.155 351.381 589.155C351.381 589.155 219.162 614.683 154.468 564.76C67.1288 497.338 160.593 445.202 160.593 445.202C160.593 445.202 38.3071 409.329 13.4486 337.944C-11.41 266.56 90.1859 219.107 149.836 210.769C149.836 210.769 97.7516 154.053 155.652 75.411C208.457 3.66596 366.513 -17.487 411.546 43.0897C456.58 103.666 426.986 155.7 426.986 155.7C426.986 155.7 479.071 106.343 538.052 106.343C597.034 106.343 665.279 184.161 553.492 319.21C553.492 319.21 595.747 338.408 593.585 384.007C590.497 450.348 391.474 607.683 391.474 607.683C391.474 607.683 516.436 484.265 551.897 542.886C574.131 579.634 544.331 613.036 544.331 613.036C544.331 613.036 424.773 606.139 394.768 649.886C380.615 670.524 394.768 699.552 394.768 699.552L389.827 719.933C389.827 719.933 366.41 702.537 336.919 702.331L336.868 702.382Z" fill="#441890"/>
<path d="M445.873 561.617C445.873 561.617 496.311 520.495 534.602 489.306C586.893 446.692 650.815 356.779 553.491 319.156C553.491 319.156 573.46 389.923 544.33 434.751C515.199 479.579 445.873 561.617 445.873 561.617Z" fill="#783DEF"/>
<path d="M395.126 735.989C395.126 735.989 354.312 739.541 330.38 718.233C306.448 696.926 356.989 696.926 388.898 718.233C388.898 718.233 376.495 696.926 378.244 690.75C379.994 684.574 388.692 669.185 378.656 654.157C378.656 654.157 432.336 596.771 445.615 594.97C458.893 593.22 462.857 639.952 471.76 655.032C480.613 670.112 522.97 666.149 522.97 666.149L493.325 693.323C493.325 693.323 499.707 738.872 497.03 743.298C494.354 747.724 444.689 751.944 444.689 751.944C444.689 751.944 422.867 780.92 433.726 823.02C424.102 832.078 408.816 822.248 410.051 779.325C410.257 772.119 410.978 754.826 407.478 748.65C404.287 742.989 401.971 741.239 395.023 735.989H395.126Z" fill="#CB6454"/>
<path d="M463.133 664.001C463.964 660.84 456.748 656.204 447.016 653.647C437.284 651.091 428.721 651.581 427.891 654.743C427.06 657.904 434.276 662.539 444.008 665.096C453.74 667.653 462.303 667.163 463.133 664.001Z" fill="#FEFFFE"/>
<path d="M456.627 665.789C458.589 665.789 460.179 662.863 460.179 659.253C460.179 655.643 458.589 652.717 456.627 652.717C454.666 652.717 453.076 655.643 453.076 659.253C453.076 662.863 454.666 665.789 456.627 665.789Z" fill="#441890"/>
<path d="M439.953 697.75C439.953 697.75 452.408 729.66 477.369 725.285L439.953 697.75Z" fill="#FEFFFE"/>
<path d="M445.876 561.616C445.876 561.616 498.475 518.075 542.428 526.67C586.381 535.317 567.595 586.321 544.332 612.981C544.332 612.981 516.54 612.517 504.6 612.981C504.6 612.981 532.546 571.498 533.782 549.676C535.017 527.854 445.824 561.616 445.824 561.616H445.876Z" fill="#783DEF"/>
<path d="M472.992 615.451C472.992 615.451 487.351 576.851 482.462 566.146C477.573 555.441 422.863 572.734 422.863 572.734C422.863 572.734 473.816 561.617 475.462 571.91C477.109 582.204 472.992 615.451 472.992 615.451Z" fill="#783DEF"/>
<path d="M385.762 676.387C385.762 676.387 322.56 674.02 323.487 634.854C323.487 634.854 299.4 692.394 385.762 676.387Z" fill="#783DEF"/>
<path d="M807.324 280.3L816.949 291.159L865.431 586.632L1007.33 575.36L1008.05 585.705L850.402 600.939L807.324 280.3Z" fill="#6DC9B8"/>
<path d="M393.789 793.324C393.789 793.324 468.674 761.466 516.435 764.708C549.528 766.973 644.948 805.933 656.528 820.344C668.057 834.755 556.374 1000.89 556.374 1000.89L446.749 973.459L393.841 793.273L393.789 793.324Z" fill="#6DC9B8"/>
<path d="M430.846 800.116C430.846 800.116 491.114 827.651 518.082 859.818C545.051 891.985 610.517 958.995 630.589 970.472C650.661 981.949 670.785 941.856 715.201 943.555C758.536 945.202 758.948 893.066 817.569 909.175C854.111 919.211 865.845 890.389 865.845 890.389L873.617 912.623L837.538 939.592C837.538 939.592 827.656 974.538 776.498 995.691C725.34 1016.84 717.878 1087.61 678.968 1100.99C640.008 1114.32 604.65 1104.29 564.609 1073.15C524.567 1042.01 426.008 879.067 430.846 800.168V800.116Z" fill="#804DFF"/>
<path d="M522.867 957.297C522.867 957.297 560.902 1019.26 546.439 1055.55C546.439 1055.55 574.849 1072.69 578.709 1031.77C580.974 1007.68 570.217 979.12 554.777 958.944C539.388 938.769 496.465 917.771 483.392 895.383C475.055 881.126 464.812 857.143 464.812 857.143C464.812 857.143 467.489 892.243 489.774 915.095C512.059 937.946 522.919 957.349 522.919 957.349L522.867 957.297Z" fill="#582BBC"/>
<path d="M427.808 823.021C427.808 823.021 510.413 883.752 509.332 929.094C508.252 974.437 537.588 1001.82 546.44 1013.91C556.888 1028.17 548.807 1055.45 538.102 1073.87C528.89 1089.77 479.842 1093.99 479.842 1093.99C479.842 1093.99 373.768 935.322 427.757 823.021H427.808Z" fill="#804DFF"/>
<path d="M440.161 1087.41C440.161 1087.41 478.761 1092.71 521.17 1077.58L552.977 1157.09C552.977 1157.09 446.182 1135.12 440.109 1087.41H440.161Z" fill="#441890"/>
<path d="M413.037 786.067C413.037 786.067 303.67 741.754 288.744 780.2C273.819 818.646 291.935 938.204 291.935 938.204C291.935 938.204 283.443 1074.23 347.416 1115.76C411.39 1157.35 424.154 1309.23 467.335 1312.42C510.515 1315.61 603.208 1238.87 603.208 1238.87C603.208 1238.87 580.819 1162.14 515.302 1130.18C449.784 1098.21 507.325 1011.85 476.908 960.695C446.542 909.537 428.786 847.467 433.83 822.969C407.427 799.603 413.037 786.016 413.037 786.016V786.067Z" fill="#804DFF"/>
<path d="M436.764 866.817C436.764 866.817 427.706 893.066 432.132 934.754C437.433 984.214 481.077 1068.31 484.731 1087.66C488.385 1107.01 495.024 1115.09 495.024 1115.09C495.024 1115.09 472.997 1099.19 468.828 1081.07C464.659 1062.96 460.181 1010.82 434.86 972.788C409.538 934.805 417.052 889 436.764 866.817Z" fill="#967CFF"/>
<path d="M480.871 828.474C480.871 828.474 509.384 846.487 519.935 862.03C530.485 877.573 577.475 924.099 588.026 933.106C598.576 942.113 618.288 962.288 630.692 970.471C643.095 978.654 660.851 956.472 679.38 949.421C697.908 942.422 715.304 943.502 715.304 943.502C715.304 943.502 690.291 948.443 668.108 978.603C650.043 1003.26 624.053 1003.15 605.524 972.118C586.996 941.084 565.483 922.092 541.448 904.027C517.413 886.014 484.886 853.487 480.871 828.474Z" fill="#967CFF"/>
<path d="M546.437 1055.55C546.437 1055.55 568.104 1099.5 615.711 1102.79C643.864 1104.75 749.063 1025.95 749.063 1025.95C749.063 1025.95 691.883 1003.62 603.668 1042.32C584.78 1050.61 588.228 1029.04 575.31 1001.61C567.281 984.523 542.525 1001.4 542.525 1001.4C542.525 1001.4 559.098 1034.24 546.437 1055.55Z" fill="#582BBC"/>
<path d="M411.132 796.875C411.132 796.875 440.88 855.496 440.88 857.606L396.875 902.434L403.154 950.195L383.906 968.209C383.906 968.209 435.784 1084.94 464.297 1109.23C492.758 1133.52 554.467 1171.86 552.1 1241.5C549.938 1303.67 473.201 1296.21 473.201 1296.21L302.896 955.651L411.183 796.926L411.132 796.875Z" fill="#582BBC"/>
<path d="M192.088 1115.04C192.088 1115.04 144.378 1241.24 139.746 1272.02C135.114 1302.8 178.243 1364.35 228.99 1381.28C279.788 1398.22 359.819 1272.02 359.819 1272.02L338.254 1278.2C338.254 1278.2 287.456 1349.01 244.379 1364.4C201.301 1379.79 152.047 1281.28 152.047 1281.28L204.389 1118.13L192.088 1115.04Z" fill="#441890"/>
<path d="M219.778 1152C219.778 1152 190.545 1192.04 189.001 1233.57C187.457 1275.11 259.819 1307.43 293.633 1310.52C327.498 1313.6 304.39 1292.04 304.39 1292.04C304.39 1292.04 241.291 1281.28 213.602 1245.87C185.913 1210.46 264.4 1107.38 264.4 1107.38L219.778 1152Z" fill="#441890"/>
<path d="M358.275 1322.82C358.275 1322.82 330.586 1359.77 330.586 1399.76L379.84 1459.77C379.84 1459.77 510.669 1465.95 573.768 1325.85C573.768 1325.85 535.27 1264.3 524.514 1252C524.514 1252 449.114 1222.76 358.275 1322.82Z" fill="#6DC9B8"/>
<path d="M302.536 406.343C302.536 406.343 397.133 405.725 511.956 459.971L547.416 431.767C547.416 431.767 458.43 370.985 297.75 368.823L302.536 406.394V406.343Z" fill="#8FE5D5"/>
<path d="M142.836 1051.95L310.619 1347.47C310.619 1347.47 327.551 1372.07 390.65 1339.75C453.748 1307.43 487.614 1259.72 495.282 1244.33C503.002 1228.94 327.5 913.449 327.5 913.449L142.836 1051.95Z" fill="#8FE5D5"/>
<path d="M128.115 1097.75L145.099 1098.52C145.099 1098.52 304.956 986.378 386.583 942.837L378.039 880.613C378.039 880.613 403.309 862.754 421.323 850.814L421.683 834.756L150.143 994.149L128.115 1097.75Z" fill="#6DC9B8"/>
<path d="M229.657 747.929C229.657 747.929 150.14 789.514 107.32 855.546C64.4992 921.578 86.527 1068.36 128.112 1097.75C128.112 1097.75 255.339 986.427 381.33 933.828C381.33 933.828 371.551 886.118 371.551 875.104C371.551 864.09 421.68 834.754 421.68 834.754C421.68 834.754 410.666 779.735 389.874 757.707C389.874 757.707 325.025 732.025 229.657 747.929Z" fill="#8FE5D5"/>
<path d="M157.863 1078.71L242.012 1226.73L378.965 1007.53L352.048 958.584L157.863 1078.71Z" fill="#6DC9B8"/>
<path d="M815.25 634.599L771.709 282.822L807.324 280.3L856.784 636.194L815.25 634.599Z" fill="#8FE5D5"/>
<path d="M1010.41 621.579L985.453 268.052L1021.17 267.383L1051.79 625.439L1010.41 621.579Z" fill="#8FE5D5"/>
<path d="M949.479 1153.18C1003.09 1153.18 1046.55 1109.72 1046.55 1056.11C1046.55 1002.5 1003.09 959.046 949.479 959.046C895.871 959.046 852.412 1002.5 852.412 1056.11C852.412 1109.72 895.871 1153.18 949.479 1153.18Z" fill="#967CFF"/>
<path d="M483.648 251.942C502.067 251.942 516.998 237.011 516.998 218.592C516.998 200.173 502.067 185.241 483.648 185.241C465.229 185.241 450.297 200.173 450.297 218.592C450.297 237.011 465.229 251.942 483.648 251.942Z" fill="#8FE5D5"/>
<path d="M843.661 114.886C869.413 114.886 890.29 94.0091 890.29 68.2566C890.29 42.504 869.413 21.6274 843.661 21.6274C817.908 21.6274 797.031 42.504 797.031 68.2566C797.031 94.0091 817.908 114.886 843.661 114.886Z" fill="#967CFF"/>
<path d="M1277.68 513.086C1297.86 513.086 1314.22 496.726 1314.22 476.545C1314.22 456.363 1297.86 440.003 1277.68 440.003C1257.5 440.003 1241.14 456.363 1241.14 476.545C1241.14 496.726 1257.5 513.086 1277.68 513.086Z" fill="#8FE5D5"/>
<path d="M905.32 389.206C946.024 389.206 979.021 356.209 979.021 315.505C979.021 274.802 946.024 241.805 905.32 241.805C864.616 241.805 831.619 274.802 831.619 315.505C831.619 356.209 864.616 389.206 905.32 389.206Z" fill="#967CFF"/>
<path d="M596.826 1055.03L613.501 1068.16L625.545 1090.44L618.957 1094.87L596.826 1055.03Z" fill="#6DC9B8"/>
<path d="M555.035 440.827L681.49 445.15L690.188 492.294L565.483 499.242L555.035 440.827Z" fill="#8FE5D5"/>
<path d="M612.986 699.809L747.47 688.949L754.726 713.808L646.337 738.563L612.986 699.809Z" fill="#8FE5D5"/>
<path d="M655.752 470.729C655.752 470.729 708.351 619.468 721.424 695.331L754.774 713.807C754.774 713.807 704.182 528.011 681.485 445.149L655.752 470.677V470.729Z" fill="#8FE5D5"/>
<path d="M297.801 368.772C297.801 368.772 421.888 360.332 572.069 361.104L608.662 377.522C608.662 377.522 438.049 379.992 345.357 386.58L297.75 368.772H297.801Z" fill="#8FE5D5"/>
<path d="M561.568 370.831C561.568 370.831 595.948 384.264 610.874 393.27C625.799 402.277 657.966 447.825 657.966 447.825L681.487 445.201C681.487 445.201 650.503 400.733 635.578 385.756C620.653 370.779 572.068 361.104 572.068 361.104L561.62 370.831H561.568Z" fill="#8FE5D5"/>
<path d="M361.416 1311.39C376.452 1311.39 388.642 1299.2 388.642 1284.16C388.642 1269.13 376.452 1256.94 361.416 1256.94C346.379 1256.94 334.189 1269.13 334.189 1284.16C334.189 1299.2 346.379 1311.39 361.416 1311.39Z" fill="#6DC9B8"/>
<path d="M255.803 541.29L260.126 562.495C260.126 575.516 272.581 584.883 285.087 581.229L387.61 551.532C398.675 548.341 404.594 536.246 400.322 525.541L392.499 506.035C388.845 496.977 379.066 491.985 369.596 494.352L274.897 518.284C266.251 520.498 255.803 532.335 255.803 541.29Z" fill="#8FE5D5"/>
<path d="M314.735 1159.36C304.03 1196.36 293.119 1226.73 305.78 1251.59C316.537 1272.64 351.586 1282.93 361.519 1286.12C364.504 1281.44 361.57 1277.17 361.57 1277.17C338.925 1271.92 319.213 1258.84 313.758 1240.21C305.523 1212.11 323.639 1165.02 331.308 1122.35C333.16 1112.01 333.16 1102.33 331.925 1093.22L322.559 1106.76C322.559 1106.76 325.492 1122.35 314.787 1159.36H314.735Z" fill="#804DFF"/>
<path d="M307.426 1249.94C294.765 1225.08 304.029 1196.36 314.734 1159.36C325.439 1122.35 322.506 1106.76 322.506 1106.76L331.873 1093.22C324.204 1037.79 267.384 1006.35 267.384 1006.35L253.797 1015.92C253.797 1015.92 305.418 1038.87 316.844 1091.58C324.564 1127.09 292.243 1194.3 296.926 1232.6C302.536 1278.5 358.635 1289.16 358.635 1289.16C359.973 1288.13 360.797 1287.1 361.466 1286.02C351.533 1282.88 318.131 1270.94 307.374 1249.89L307.426 1249.94Z" fill="#441890"/>
<path d="M726.83 705.984C726.83 705.984 653.85 845.1 537.328 986.685L547.776 1016.33C547.776 1016.33 691.935 846.386 754.725 713.807L726.83 705.933V705.984Z" fill="#8FE5D5"/>
<path d="M537.329 986.687L547.777 1016.33C547.777 1016.33 572.995 985.297 577.833 979.584L570.165 945.204L537.277 986.687H537.329Z" fill="#6DC9B8"/>
<path d="M427.089 1330.07L582.983 1218.13C582.983 1218.13 576.807 1133.47 576.807 1070.37L596.828 1054.98L781.491 1385.86L761.471 1399.71C761.471 1399.71 664.507 1364.3 633.729 1344.28L482.879 1430.49L426.986 1330.02L427.089 1330.07Z" fill="#8FE5D5"/>
<path d="M512.47 1260.08C512.47 1260.08 513.859 1327.71 465.532 1422.97L382.67 1348.4L512.47 1260.03V1260.08Z" fill="#6DC9B8"/>
<path d="M436.764 866.817C436.764 866.817 433.933 875.309 433.213 883.03C472.74 903.513 505.627 935.526 537.331 986.684C537.331 986.684 523.64 905.932 436.764 866.817Z" fill="#6DC9B8"/>
<path d="M621.992 1299.81C637.028 1299.81 649.218 1287.62 649.218 1272.58C649.218 1257.55 637.028 1245.36 621.992 1245.36C606.955 1245.36 594.766 1257.55 594.766 1272.58C594.766 1287.62 606.955 1299.81 621.992 1299.81Z" fill="#6DC9B8"/>
<path d="M152.302 1020.5C160.773 1020.5 167.639 1013.63 167.639 1005.16C167.639 996.693 160.773 989.826 152.302 989.826C143.832 989.826 136.965 996.693 136.965 1005.16C136.965 1013.63 143.832 1020.5 152.302 1020.5Z" fill="#6DC9B8"/>
<path d="M889.366 866.458C889.366 866.458 953.339 865.017 1005.73 813.808L1004.86 899.603L889.314 891.935V866.458H889.366Z" fill="#6DC9B8"/>
<path d="M430.533 915.709C430.533 920.444 430.945 926.98 432.077 934.854C460.693 883.954 479.581 854.206 479.581 854.206C479.581 854.206 477.574 852.25 474.64 851.89C461.105 867.175 437.944 900.526 430.533 915.709Z" fill="#6DC9B8"/>
<path d="M389.774 1038.62C389.774 1038.62 566.717 792.605 603.362 727.55C603.362 727.55 508.045 472.068 508.045 450.761C508.045 429.453 547.468 431.769 547.468 431.769C547.468 431.769 556.527 435.423 563.629 456.679C570.732 477.935 645.719 686.582 660.644 735.167C660.644 735.167 453.593 1042.17 413.397 1096.62C373.201 1151.02 389.722 1038.67 389.722 1038.67L389.774 1038.62Z" fill="#8FE5D5"/>
<path d="M393.271 1033.52L421.372 1086.07L460.745 1029.14L410.77 1009.28L393.271 1033.52Z" fill="#6DC9B8"/>
<path d="M578.142 498.569L572.943 485.085L671.143 481.945C671.143 481.945 714.787 565.837 731.925 691.879L720.602 690.953C720.602 690.953 685.245 556.727 663.834 493.834L578.09 498.621L578.142 498.569Z" fill="#6DC9B8"/>
<path d="M521.374 500.015L400.427 531.77C400.427 531.77 400.427 545.614 382.465 552.254C364.503 558.893 281.486 582.002 281.486 582.002L317.359 577.884L394.765 557.915C394.765 557.915 413.191 554.827 414.22 537.946L524.925 508.198L521.323 500.015H521.374Z" fill="#6DC9B8"/>
<path d="M418.387 1036.56L621.065 729.454L603.36 727.55L393.271 1033.52L418.387 1036.56Z" fill="#6DC9B8"/>
<path d="M883.239 219.67L863.219 134.287" stroke="#8FE5D5" stroke-width="11" stroke-miterlimit="10" stroke-linecap="round"/>
<path d="M464.966 616.892C464.966 616.892 425.646 623.892 376.906 654.309C376.906 654.309 417.822 586.527 445.46 585.343C473.098 584.159 464.915 616.892 464.915 616.892H464.966Z" fill="#441890"/>
<path d="M416.898 644.635C416.898 644.635 433.317 621.012 457.249 622.916L455.447 629.195C455.447 629.195 438.051 627.394 416.898 644.635Z" fill="#441890"/>
<path opacity="0.36" d="M434.342 638.51C434.342 638.51 442.371 698.983 453.437 712.777C464.502 726.518 475.516 708.916 470.987 680.867C466.458 652.817 458.429 635.216 455.444 629.194C452.459 623.172 433.879 629.194 434.342 638.561V638.51Z" fill="white"/>
<path d="M736.406 1307.12L1032.7 1131.62L1049.27 1163.27L751.538 1345.82L736.406 1307.12Z" fill="#8FE5D5"/>
<path d="M781.539 1385.91L755.445 1341.34L1049.27 1163.27L1048.55 1179.74L769.753 1343.09L782.259 1368.36L781.539 1385.91Z" fill="#6DC9B8"/>
<path d="M1220.81 456.109L1052.05 380.71" stroke="#8FE5D5" stroke-width="11" stroke-miterlimit="10" stroke-linecap="round"/>
<path d="M1036.3 950.351L1250.51 524.461" stroke="#8FE5D5" stroke-width="11" stroke-miterlimit="10" stroke-linecap="round"/>
<path d="M426.986 155.645C426.986 155.645 519.421 61.6148 597.394 123.993C675.366 186.371 553.492 319.156 553.492 319.156C553.492 319.156 607.327 198.877 572.689 152.557C538.052 106.237 426.986 155.594 426.986 155.594V155.645Z" fill="#783DEF"/>
<path d="M351.377 589.154C351.377 589.154 192.241 631.511 125.643 552.818C76.8519 495.175 160.589 445.2 160.589 445.2C160.589 445.2 104.85 507.321 175.051 548.906C245.2 590.492 351.429 589.102 351.429 589.102L351.377 589.154Z" fill="#783DEF"/>
<path d="M149.832 210.769C149.832 210.769 45.0965 215.812 10.1504 278.293C-40.1844 368.258 110.46 439.437 160.588 445.252C160.588 445.252 35.0604 376.389 39.4351 313.445C43.8098 250.501 149.832 210.769 149.832 210.769Z" fill="#783DEF"/>
<path d="M149.831 210.765C149.831 210.765 81.8951 144.63 153.589 56.5186C227.135 -33.8576 503.359 -26.189 426.93 155.644C426.93 155.644 432.592 68.8706 338.561 44.7326C259.096 24.3517 134.494 79.1126 149.78 210.765H149.831Z" fill="#783DEF"/>
<path d="M145.766 546.798C145.766 546.798 187.094 442.577 297.799 368.773L309.277 406.808C300.167 412.829 239.796 446.18 186.322 552.356L145.817 546.798H145.766Z" fill="#8FE5D5"/>
<path d="M145.766 546.797C145.766 546.797 172.22 691.471 202.894 781.023L236.039 768.774C236.039 768.774 203.512 646.231 186.27 552.355L145.766 546.797Z" fill="#8FE5D5"/>
<path d="M165.016 564.551L535.373 469.697L541.24 495.225L170.523 593.424L165.016 564.551Z" fill="#8FE5D5"/>
<path d="M193.171 587.508L170.525 593.427L213.912 755.187L230.69 747.673L193.171 587.508Z" fill="#6DC9B8"/>
<path d="M187.302 558.788L167.847 564.089L164.811 556.06C164.811 556.06 179.479 521.114 203.617 488.638C247.827 429.194 288.898 411.489 288.898 411.489L309.227 406.806C309.227 406.806 274.847 424.459 239.026 472.632C206.241 516.688 186.272 552.303 186.272 552.303L187.302 558.736V558.788Z" fill="#6DC9B8"/>
<path d="M170.525 593.423L261.571 569.439C261.571 569.439 262.806 574.071 269.548 578.652L181.385 600.886L170.525 593.372V593.423Z" fill="#6DC9B8"/>
<path d="M351.379 589.152C351.379 589.152 313.191 615.812 301.714 654.464C290.236 693.116 328.888 705.159 328.888 705.159L333.109 705.777C333.109 705.777 304.75 694.917 305.316 667.125C305.883 639.333 351.379 589.152 351.379 589.152Z" fill="#441890"/>
<path d="M538.721 194.505L779.741 97.1289" stroke="#8FE5D5" stroke-width="11" stroke-miterlimit="10" stroke-linecap="round"/>
<path d="M876.805 878.447L880.459 854.824C880.459 854.824 903.877 846.692 906.605 847.31C909.332 847.927 921.118 877.572 917.721 879.374C911.751 882.565 904.649 869.132 903.414 861.566L889.363 866.456L902.384 864.345C902.384 864.345 911.34 881.432 909.796 884.16C908.252 886.888 902.642 881.33 899.296 871.036L884.628 883.646L876.754 878.499L876.805 878.447Z" fill="#823658"/>
<path d="M740.416 930.791L770.524 998.573L749.217 1011.13L714.064 924.512L740.416 930.791Z" fill="#6DC9B8"/>
<path d="M380.455 723.328C380.455 723.328 353.075 708.66 340.774 710.976C328.422 713.292 371.14 726.673 380.455 723.328Z" fill="#823658"/>
<path d="M877.476 855.239C877.476 855.239 885.865 842.475 889.468 839.027C893.071 835.579 916.694 823.227 919.731 823.227C922.767 823.227 923.179 830.072 916.849 834.086C910.518 838.101 891.733 847.622 891.733 847.622L886.226 863.062C886.226 863.062 877.27 860.592 877.476 855.239Z" fill="#823658"/>
<path d="M868.004 896.464C868.004 896.464 869.754 884.472 868.879 872.069C868.004 859.665 874.077 835.064 877.422 830.123C892.451 808.044 899.914 802.434 903.465 802.897C907.016 803.36 904.031 817.05 885.914 834.961C885.914 834.961 881.746 860.128 882.209 865.893C882.672 871.657 886.223 880.098 886.223 880.098C886.223 880.098 895.076 873.458 895.076 865.481C895.076 857.504 889.311 846.438 895.076 838.873C897.906 835.218 905.729 839.336 904.391 865.481C903.053 891.626 872.482 908.507 872.482 908.507L868.055 896.516L868.004 896.464Z" fill="#CB6454"/>
<path d="M729.66 937.947L759.202 1006.76L772.893 998.781L738.204 926.572L729.66 937.947Z" fill="#8FE5D5"/>
<path d="M607.889 1101.87L879.532 924.05L897.34 954.982L624.564 1139.9L607.889 1101.87Z" fill="#8FE5D5"/>
<path d="M635.271 1125.29L921.531 935.218L916.899 954.93L649.168 1135.73L747.881 1300.38L736.61 1307.17L635.271 1125.29Z" fill="#6DC9B8"/>
<path d="M381.434 736.093C381.434 736.093 394.764 754.981 405.263 744.739C405.263 744.739 401.712 739.541 395.124 735.938L381.434 736.041V736.093Z" fill="#441890"/>
<path d="M748.393 607.066L769.442 593.633L809.998 589.876L811.645 601.971L748.393 607.066Z" fill="#6DC9B8"/>
<path d="M1021.17 267.383L1031.05 279.169L1057.09 570.369L1109.18 569.083L1107.38 600.992L1103.41 577.009L1046.64 582.104L1021.17 267.383Z" fill="#6DC9B8"/>
<path d="M149.832 210.768C149.832 210.768 104.232 185.086 100.527 131.406C96.8211 77.7261 195.947 9.1205 257.089 4.69434C257.089 4.69434 110.975 47.2061 113.96 138.869C113.96 138.869 112.673 172.322 149.832 210.768Z" fill="#783DEF"/>
<path d="M141.756 202.737C141.756 202.737 26.5209 211.178 3.25781 293.68C3.25781 293.68 26.5211 224.971 141.756 202.737Z" fill="#783DEF"/>
<path d="M427.91 123.994C427.91 123.994 459.974 107.936 488.487 99.0326C517 90.1288 566.665 102.584 582.002 113.289C582.002 113.289 512.522 98.1576 484.009 107.936C455.497 117.715 430.587 134.648 430.587 134.648L427.91 123.943V123.994Z" fill="#783DEF"/>
<path d="M84.4706 946.129C84.4706 946.129 260.9 778.243 326.571 744.79C326.571 744.79 282.258 739.077 229.607 747.981C229.607 747.981 132.952 797.801 97.2343 873.766C97.2343 873.766 83.8015 910.256 84.4191 946.129H84.4706Z" fill="#ADF2E5"/>
<path d="M868.521 749.319L981.595 592.499L751.846 609.792L753.853 631.717C753.853 631.717 814.327 670.472 850.714 686.581L868.573 749.319H868.521Z" fill="#ADF2E5"/>
<path d="M265.018 573.968L339.954 501.914L274.899 518.281C274.899 518.281 238.975 528.625 265.018 573.968Z" fill="#ADF2E5"/>
</svg>
