<svg width="1554" height="1887" viewBox="0 0 1554 1887" fill="none" xmlns="http://www.w3.org/2000/svg">
<path d="M917.462 1258.43C917.516 1258.49 966.661 1312.32 977.66 1317.12C988.61 1321.92 1028.37 1342.91 1057.98 1347.28C1087.59 1351.64 1111.49 1367.93 1137.49 1378.78C1163.49 1389.62 1230.86 1409.79 1248.66 1416.64C1266.41 1423.49 1404.55 1474.9 1417.66 1482.51C1436.49 1493.4 1478.13 1506.29 1478.78 1550.69C1478.94 1560.23 1429.2 1677.88 1411.51 1725.29C1403.47 1746.76 1400.24 1802.7 1393.33 1824.38C1389.63 1835.89 1376.56 1863.5 1365.14 1886.83H1220.42C1229.67 1845.71 1250.2 1771.84 1256.38 1752.75L1256.48 1752.86C1271.75 1705.61 1319.97 1616.39 1319.97 1616.39C1310.97 1616.39 958.384 1462.92 958.026 1462.76L979.225 1519.35C1000.86 1593.35 1047.46 1673.73 1085.65 1738.02C1104.1 1769.09 1102.53 1798.44 1103.99 1857.4C1104.23 1867.15 1104.82 1876.97 1105.7 1886.83H912.927C899.782 1840.15 885.404 1795.59 866.541 1744.87C840.164 1673.94 846.853 1623.56 813.733 1513.74C800.895 1471.07 808.393 1393.02 796.472 1342.26C854.944 1311.57 859.637 1290.26 917.462 1258.43Z" fill="#8655FE"/>
<path fill-rule="evenodd" clip-rule="evenodd" d="M982.785 1281.79C959.267 1331.09 895.13 1469.67 860.446 1500.85C846.529 1513.31 784.497 1500.74 784.497 1500.74C773.169 1492.92 762.381 1374.62 762.381 1374.62C762.758 1369.82 787.841 1380.83 788.219 1376.03C788.219 1376.03 833.745 1384.71 872.313 1364.05C910.881 1343.39 975.395 1273.92 975.395 1273.92C978.362 1277.04 979.818 1278.61 982.785 1281.79Z" fill="#470AA7"/>
<path d="M571.806 1431.21C615.607 1430.94 597.86 1514.82 643.71 1512.39C723.705 1508.18 742.531 1492.75 751.647 1492.97C760.763 1493.19 791.563 1501.01 800.626 1502.89C800.626 1502.89 801.704 1466.65 807.692 1456.88C807.692 1456.88 784.821 1455 770.095 1456.24C755.369 1457.48 723.597 1389.56 716.099 1384.55C708.602 1379.53 681.577 1371.39 660.594 1370.09C650.129 1369.44 653.042 1354.83 658.544 1340.42C666.581 1319.5 670.141 1297.11 668.307 1274.78C666.635 1254.28 665.664 1231.03 668.739 1221.21C668.739 1221.21 701.643 1273.65 723.22 1278.93C728.236 1280.33 754.937 1268.9 759.954 1270.3C765.726 1272.3 740.157 1352.08 765.833 1363.89C791.509 1375.7 888.604 1373.06 905.218 1365.4C921.886 1357.74 931.163 1360.76 955.437 1336.22C979.711 1311.67 1008.68 1253.2 1008.68 1240.04C1008.68 1226.88 989.582 1209.89 978.848 1206.38C968.113 1202.88 937.852 1212.42 933.807 1207.41C929.761 1202.44 939.686 1117.27 909.371 1085.18C909.371 1085.18 974.694 1075.68 1005.76 1071.37C1015.37 1070.02 1046 1067.16 1081.12 1064.79C1097.36 1063.71 1173.04 1073.25 1195.48 1053.35C1217.92 1033.45 1219.05 990.671 1218.72 976.754C1218.4 962.838 1198.6 938.618 1198.55 921.627C1198.5 904.635 1200.22 889.1 1196.18 876.37C1192.19 863.64 1182.1 856.79 1174.44 855.549C1166.78 854.308 1149.03 857.005 1143.1 853.661C1137.17 850.317 1133.28 820.272 1128.16 814.877C1128.16 814.877 1073.14 843.682 1062.13 872.972C1062.13 872.972 1077.83 874.968 1083.39 880.847C1083.39 880.847 1061.32 888.723 1064.4 900.805C1067.47 912.888 1094.23 912.565 1094.23 912.565C1094.23 912.565 1041.42 922.813 1020.22 929.988C999.022 937.162 978.74 945.792 970.379 951.51C962.072 957.228 921.454 956.796 902.682 957.282C883.965 957.767 831.426 962.136 807.53 970.605C783.634 979.074 748.141 996.281 748.141 996.281C751.593 999.518 761.734 1008.04 765.186 1011.33C765.186 1011.33 724.514 1033.55 690.585 1019.42C690.585 1019.42 611.238 1052.11 584.159 1104.06C561.288 1150.82 572.292 1211.78 521.479 1313.89C496.343 1364.43 509.666 1386.98 511.554 1405.05C511.554 1405.05 530.326 1431.69 571.645 1431.48L571.806 1431.21Z" fill="#967CFF"/>
<path d="M668.739 1221.05C668.739 1221.05 729.747 1270.36 906.405 1278.77C906.405 1278.77 701.589 1367.72 699.648 1376.83C691.341 1373.71 668.739 1221.05 668.739 1221.05Z" fill="#804DFF"/>
<path d="M707.846 1394.42C707.846 1394.42 716.207 1425.17 751.053 1423.6C830.077 1418.1 939.47 1350.4 939.47 1350.4C939.47 1350.4 907.591 1353.53 860.824 1351.16C841.675 1350.19 758.443 1358.55 789.136 1302.61C824.467 1297.81 933.914 1276.34 898.151 1277.85C859.206 1279.53 710.166 1248.4 710.166 1248.4C710.166 1248.4 680.444 1372.47 707.846 1394.42Z" fill="#804DFF"/>
<path d="M369.213 1652.33C369.213 1500.18 492.558 1376.83 644.713 1376.83C796.867 1376.83 920.213 1500.18 920.213 1652.33V1886.83H369.213V1652.33Z" fill="#8FE5D5"/>
<path d="M223.561 864.989C223.561 864.989 173.773 897.461 146.964 936.676C120.155 975.891 138.657 1047.74 138.657 1047.74C138.657 1047.74 116.379 940.075 229.98 868.765L223.561 864.989Z" fill="#864DFF"/>
<path opacity="0.59" d="M652.34 800.637C652.34 800.637 716.8 845.3 739.24 847.997C761.679 850.694 719.497 818.977 705.311 810.131C691.124 801.284 667.929 789.795 662.589 788.069C657.249 786.289 646.299 796.699 652.34 800.691V800.637Z" fill="white"/>
<path d="M626.718 799.343C626.718 799.343 645.49 814.392 660 822.969C674.51 831.545 687.995 838.881 687.995 838.881C695.439 835.807 720.954 816.334 728.883 808.135C731.796 805.114 721.331 845.408 721.601 852.582C721.871 859.756 767.775 879.661 767.775 879.661C742.314 913.428 730.987 944.228 730.286 954.747C729.584 965.265 724.136 978.481 756.609 1002.97C760.061 1006.21 761.787 1007.82 765.239 1011.11C765.239 1011.11 728.775 1038.79 690.639 1019.21C690.639 1019.21 717.825 1006.85 702.775 978.211C698.46 970.012 679.635 959.008 663.129 984.36C663.129 984.36 613.61 1063.6 578.009 1025.95C543.972 989.916 567.275 919.038 585.345 873.835C585.345 873.835 538.848 817.089 626.664 799.343H626.718Z" fill="#CB6454"/>
<path d="M651.91 970.875C651.91 970.875 621.756 964.294 605.466 986.032C595.271 999.625 651.91 970.875 651.91 970.875Z" fill="#823658"/>
<path d="M148.961 972.008C119.563 1037.92 149.878 1094.62 175.5 1107.83C194.919 1117.81 266.769 1152.39 381.34 1056.91V1086.63C382.419 1134.37 409.659 1156.43 472.609 1134.37C535.558 1112.31 554.977 1009.01 554.977 1009.01C556.811 1029.13 568.031 1056.64 608.271 1048.28C639.935 1041.7 666.096 993.206 672.407 972.924C667.66 971.468 665.233 971.9 665.233 971.9C650.345 1005.24 584.375 1015.38 577.039 999.356C560.695 963.701 646.569 958.253 646.569 958.253C646.839 936.676 606.329 936.406 606.329 936.406C606.329 936.406 625.694 928.154 630.549 916.718C635.404 905.336 608.271 898.432 608.271 898.432C622.619 886.727 592.25 875.399 592.25 875.399C611.292 874.59 638.586 796.483 638.586 796.483C675.967 760.936 715.398 752.144 715.398 752.144C734.817 724.58 680.337 635.524 640.042 656.992C599.694 678.461 603.362 734.883 603.362 734.883C589.823 717.406 562.691 713.253 545.214 743.891C527.737 774.53 558.375 832.732 565.28 851.935C572.184 871.138 552.28 903.179 552.28 903.179C545.375 903.449 530.326 858.893 522.235 813.96C514.089 769.028 531.998 623.872 504.38 618.424C445.26 606.827 435.767 707.049 435.767 707.049C426.111 658.287 427.837 661.038 413.327 615.188C398.871 569.608 369.041 526.185 325.295 502.775C287.914 482.763 224.856 502.181 208.188 554.882C196.483 591.777 200.259 645.179 200.259 645.179C133.426 605.317 46.5262 596.794 39.6217 664.166C35.1985 707.535 49.9784 817.898 230.898 877.503C230.898 877.503 177.118 908.897 149.015 971.9L148.961 972.008Z" fill="#390A84"/>
<path d="M619.328 879.607C619.328 879.607 644.734 866.445 659.191 851.989C663.83 835.537 623.589 857.437 619.328 879.607Z" fill="white"/>
<path d="M654.337 859.81C652.665 862.939 648.565 863.748 645.221 861.644C641.876 859.541 640.528 855.279 642.2 852.151C643.872 849.022 647.972 848.213 651.316 850.317C654.661 852.421 656.009 856.682 654.337 859.864V859.81Z" fill="#8A79B7"/>
<path d="M654.445 859.648C653.258 861.806 649.59 861.86 646.246 859.702C642.901 857.599 641.121 854.092 642.254 851.935C643.387 849.777 647.109 849.723 650.453 851.827C653.798 853.931 655.578 857.437 654.445 859.594V859.648Z" fill="#322B73"/>
<path d="M723.651 859.055C723.651 859.055 702.56 879.661 682.009 882.52C682.009 882.52 704.826 885.432 727.266 866.823C725.809 863.694 725.108 862.184 723.651 859.055Z" fill="#F7F5FA"/>
<path d="M921.346 521.978C921.346 521.978 904.462 450.776 896.587 429.307C888.712 407.839 868.322 424.345 863.413 425.855C863.413 425.855 874.201 409.673 893.728 413.125C913.255 416.577 921.346 521.978 921.346 521.978Z" fill="white"/>
<path d="M1024.77 1389.98C1024.77 1389.98 971.204 1342.14 966.727 1336.9C962.25 1331.73 969.155 1326.66 969.155 1326.66C933.715 1289.22 970.449 1327.36 1027.57 1389.01C1026.49 1389.39 1025.9 1389.61 1024.82 1389.98H1024.77Z" fill="#470AA7"/>
<path d="M604.171 722.153C604.171 722.153 618.358 707.589 632.329 712.012C651.64 718.107 657.627 778.252 657.627 778.252C657.627 778.252 666.365 712.012 630.602 705.215C618.519 702.896 604.117 722.207 604.117 722.207L604.171 722.153Z" fill="#864DFF"/>
<path d="M922.263 527.965C922.263 527.965 900.525 463.722 890.007 457.195C879.488 450.614 873.932 493.767 882.994 503.26C892.056 512.754 889.305 488.858 889.305 488.858C889.305 488.858 897.72 511.405 883.803 513.401C869.886 515.451 865.086 466.688 880.459 451.477C895.778 436.266 916.761 499.592 922.317 527.965H922.263Z" fill="white"/>
<path d="M929.222 520.899C929.222 520.899 985.806 497.543 1000.05 495.547C1014.29 493.497 1020.6 522.787 1006.14 542.853C991.686 562.865 976.474 531.633 976.474 531.633C976.474 531.633 989.42 544.148 996.325 539.994C1003.23 535.841 1007.76 512.053 999.184 504.609C990.607 497.165 929.276 520.899 929.276 520.899H929.222Z" fill="white"/>
<path d="M927.334 527.372C927.334 527.372 960.4 520.306 965.147 529.853C969.894 539.401 943.462 560.276 943.462 560.276C943.462 560.276 961.802 538.214 958.027 531.31C954.305 524.405 927.334 527.426 927.334 527.426V527.372Z" fill="white"/>
<path d="M1216.94 81.4416C1202.54 84.7859 1169.1 93.1468 1146.28 104.744C1123.46 116.395 1091.53 128.91 1071.57 157.552C1041.15 201.083 1011.48 248.065 985.536 294.077C983.001 298.608 982.839 298.338 977.122 308.803C980.358 329.948 978.578 366.843 977.122 392.142C977.122 392.142 970.217 354.167 967.088 327.952C961.694 337.715 958.674 342.84 953.01 353.035C957.109 373.964 962.072 402.714 963.366 421.432C978.039 391.656 995.893 356.325 1016.66 316.894C1016.66 316.894 1065.8 224.008 1089.43 191.805C1106.26 168.934 1171.69 124.163 1191.16 113.159C1254.65 77.1263 1341.39 114.993 1371.49 114.723C1359.94 110.3 1272.88 68.4958 1216.94 81.4956V81.4416Z" fill="white"/>
<path d="M679.527 969.58C679.527 969.58 688.536 1028.38 627.096 1046.12C622.35 1041.75 620.03 1039.54 615.283 1035.23C615.283 1035.23 648.943 1030.37 661.511 1017.48C678.125 1000.38 679.527 969.58 679.527 969.58Z" fill="#864DFF"/>
<path d="M715.344 752.198C715.344 752.198 717.879 746.966 718.364 735.584C720.468 686.66 712.215 668.482 701.049 662.117C688.805 655.104 660.216 654.403 660.216 654.403C656.763 654.349 651.585 654.349 648.133 654.295C648.133 654.295 684.867 648.362 703.477 658.395C722.086 668.428 722.949 692.755 722.949 698.365C722.949 703.975 722.302 746.804 715.398 752.252L715.344 752.198Z" fill="#864DFF"/>
<path d="M1277.2 88.1304C1256.65 86.728 1181.34 93.3087 1166.56 105.553C1126.22 138.997 1098.92 163.378 1070.87 206.261C1011.59 296.99 980.682 414.42 931.973 516.26C931.973 516.26 931.973 516.26 942.491 511.459C953.064 506.713 987.316 488.534 1000.8 461.996C1007.33 449.211 1016.93 433.137 1027.61 416.307C1005.87 421.702 974.964 429.901 974.964 429.901C986.13 424.183 1016.61 413.934 1032.36 408.81C1042.5 393.005 1053.34 376.823 1063.1 362.313C1081.34 335.288 1108.15 297.637 1123.9 263.061C1108.36 257.289 1072.11 239.705 1072.11 239.705C1094.17 246.663 1106.31 250.493 1126.54 257.02C1128.53 252.273 1130.31 247.58 1131.83 242.995C1132.2 241.808 1132.63 240.568 1133.07 239.381C1112.62 235.443 1100 233.07 1077.34 228.809C1077.34 228.809 1116.45 222.929 1140.46 219.8C1153.73 187.921 1171.96 156.797 1184.53 135.868C1217.11 81.6035 1277.41 88.1843 1277.41 88.1843C1277.41 88.1843 1277.25 88.1304 1277.2 88.0765V88.1304Z" fill="white"/>
<path d="M916.923 618.047C916.923 618.047 903.006 611.951 899.877 618.748C896.695 625.545 907.861 635.847 915.898 636.603C923.935 637.358 916.977 617.993 916.977 617.993L916.923 618.047Z" fill="#DA7D6C"/>
<path d="M949.342 359.723C957.757 385.723 963.043 419.436 963.366 421.432C944.379 459.946 930.84 489.128 923.342 505.634C922.047 498.406 915.196 459.461 915.196 440.419C915.142 419.382 930.354 396.781 931.811 392.196C932.404 390.307 939.955 376.552 949.287 359.723H949.342ZM929.168 399.37C929.168 399.37 925.662 443.656 943.408 461.294C937.798 436.482 934.94 424.129 929.168 399.37Z" fill="white"/>
<path d="M909.425 1085.01C909.425 1085.01 904.247 1080 890.114 1068.51C875.982 1057.02 875.119 1056.96 864.924 1046.07C856.725 1037.33 853.92 1013 853.92 1013C853.92 1013 888.82 1031.61 937.151 1032.85C962.827 1033.5 1025.08 1045.58 1032.3 1068.13C1010.08 1071.1 919.189 1082.05 909.372 1085.07L909.425 1085.01Z" fill="#804DFF"/>
<path d="M917.947 739.198C917.947 739.198 903.329 722.477 900.632 709.477C897.935 696.477 888.711 685.689 887.578 673.93C886.5 662.17 885.637 630.777 895.454 630.561C905.271 630.345 908.616 658.664 903.599 672.527C898.528 686.39 918.81 697.933 922.694 696.854C926.578 695.776 944.54 674.901 943.623 660.013C942.706 645.125 935.64 638.976 931.325 639.246C927.009 639.515 900.578 636.387 899.607 622.416C898.69 608.445 925.769 620.69 934.346 625.383C942.868 630.076 963.636 627.486 957.918 669.668C957.918 669.668 971.781 658.664 973.453 642.212C975.179 625.76 970.324 615.404 963.528 604.454C959.536 598.035 957.271 580.881 968.814 586.006C974.532 588.541 980.735 597.981 980.735 597.981C980.735 597.981 988.718 588.541 995.623 597.819C1002.53 607.097 1010.29 623.009 1003.17 641.187C996.108 659.366 977.93 683.423 977.93 683.423C977.93 683.423 991.685 676.896 996.917 666.809C1002.2 656.722 1010.19 634.499 1017.31 634.93C1024.43 635.362 1023.13 658.61 1004.69 678.73C986.291 698.85 968.113 717.244 973.291 726.9C991.038 759.912 1069.95 803.226 1122.44 834.404C1115.16 848.483 1111.54 855.495 1104.21 869.52C1092.12 868.603 1086.08 868.117 1074.05 867.2C1039.05 822.807 1000.48 777.604 952.2 747.505C952.2 747.505 938.283 752.306 917.947 739.09V739.198Z" fill="#CB6454"/>
<path d="M920.213 1184.86C920.213 1184.86 806.721 1299.92 794.908 1288.64C759.145 1254.5 893.351 1182.59 920.213 1184.86Z" fill="#804DFF"/>
<path d="M1094.28 912.349C1094.28 912.349 1081.34 918.121 1081.88 937.485C1082.41 956.904 1133.6 1000.11 1133.6 1000.11C1133.6 1000.11 1039.96 1021.04 1037.81 992.02C1035.65 963.053 1094.28 912.295 1094.28 912.295V912.349Z" fill="#804DFF"/>
<path d="M1103.99 914.992C1103.99 914.992 1159.87 905.93 1155.61 885.648C1151.35 865.366 1133.34 899.457 1103.99 914.992Z" fill="#804DFF"/>
<path d="M1100 1053.67C1100 1053.67 1065.05 1042.83 1041.37 1030.37C1017.68 1017.91 1040.99 1052.11 1100 1053.67Z" fill="#804DFF"/>
<path d="M1074.11 867.308C1074.11 867.308 1103.18 859.648 1122.49 834.566C1122.49 834.566 1123.84 858.839 1106.04 875.831C1088.24 892.822 1074.11 867.308 1074.11 867.308Z" fill="#804DFF"/>
<path d="M1188.3 945.577C1188.3 945.577 1168.88 986.14 1149.9 996.173C1130.91 1006.21 1170.56 955.718 1188.3 945.577Z" fill="#804DFF"/>
<path d="M559.454 1236.26C592.035 1207.24 625.802 1213.23 652.449 1244.52C656.71 1249.48 663.399 1260.86 663.399 1260.86C663.399 1260.86 635.673 1231.9 612.586 1225.15C589.715 1218.41 577.093 1225.15 559.508 1236.32L559.454 1236.26Z" fill="#804DFF"/>
<path d="M914.064 959.17C914.387 986.194 929.545 1036.09 929.545 1036.09C929.275 1036.25 906.835 985.007 914.064 959.17Z" fill="#804DFF"/>
<path d="M980.79 597.981C980.79 597.981 979.333 601.919 981.815 607.421C984.242 612.922 990.499 625.814 988.234 636.387C985.968 646.905 970.595 676.195 970.595 676.195C970.595 676.195 985.644 644.208 985.159 634.229C984.673 624.304 973.777 606.396 974.209 599.923C974.64 593.45 980.844 597.981 980.844 597.981H980.79Z" fill="#823658"/>
<path d="M909.371 690.867C909.371 690.867 907.753 719.294 910.396 728.248C912.77 731.485 913.956 733.103 916.384 736.339C916.384 736.339 913.255 704.676 913.417 693.834C911.799 692.647 910.989 692.054 909.371 690.813V690.867Z" fill="#823658"/>
<path d="M1047.84 834.512C1047.84 834.512 1075.89 835.699 1114.94 830.574C1117.96 832.192 1119.47 832.948 1122.55 834.566C1122.55 834.566 1108.85 856.088 1074.16 867.308C1068.93 860.727 1053.13 841.093 1047.89 834.512H1047.84Z" fill="#823658"/>
<path d="M1176.97 103.935C1158.9 117.151 1106.2 168.88 1089.43 191.751C1065.75 223.954 1016.66 316.84 1016.66 316.84C983.81 378.818 952.416 441.767 923.342 505.634C923.45 506.389 923.558 506.928 923.558 506.928C923.558 506.928 918.811 537.675 913.309 556.662C907.807 575.649 886.23 700.63 886.23 700.63C885.475 746.588 890.923 752.683 894.052 769.783C897.72 689.95 905.973 608.823 927.118 532.227C928.628 526.832 930.246 521.492 931.918 516.368C980.627 414.527 1026.64 304.542 1085.92 213.813C1113.92 170.93 1140.78 140.399 1181.07 106.956C1195.85 94.7111 1241.7 78.6907 1371.49 114.723C1370.84 114.4 1308.21 94.3875 1256.59 87.1055C1210.31 86.3503 1187.65 96.1136 1176.97 103.989V103.935Z" fill="#F8F5F9"/>
<path d="M914.172 617.13C914.172 617.13 902.575 612.113 899.23 619.935C899.23 619.935 896.857 633.905 919.728 637.789L914.172 617.13Z" fill="#DA7D6C"/>
<path d="M480.214 620.204C480.214 620.204 497.637 612.059 513.442 616.914C529.247 621.769 529.786 669.722 525.956 708.883C522.126 748.099 518.62 845.57 552.226 903.233C552.226 903.233 525.417 896.113 507.454 825.882C489.492 755.65 512.74 653.702 510.529 635.2C508.371 616.698 480.214 620.097 480.214 620.097V620.204Z" fill="#864DFF"/>
<path d="M432.26 698.635C432.26 698.635 430.102 628.188 409.874 584.172C395.418 552.616 357.174 509.14 325.24 502.937C293.307 496.734 265.527 504.663 265.527 504.663L272.162 496.895C272.162 496.895 302.855 484.381 346.224 506.173C394.771 530.555 420.77 595.23 426.165 614.379C431.559 633.528 435.658 707.157 435.658 707.157L432.206 698.635H432.26Z" fill="#864DFF"/>
<path d="M614.852 685.095C614.852 685.095 634.864 674.901 647.54 674.901C660.216 674.901 685.137 727.601 686.917 760.99C686.917 760.99 702.021 753.978 709.411 752.576C709.411 752.576 697.813 684.071 671.436 666.863C645.059 649.656 614.852 685.149 614.852 685.149V685.095Z" fill="#864DFF"/>
<path d="M513.442 616.914C513.442 616.914 536.529 628.35 538.363 639.3C540.197 650.25 527.898 739.522 529.732 781.38C531.566 823.238 535.342 874.267 552.225 903.233C552.225 903.233 536.475 889.748 532.159 860.188C527.844 830.628 526.118 752.899 530.811 699.767C535.504 646.636 534.587 642.536 533.292 636.009C532.051 629.428 513.388 616.914 513.388 616.914H513.442Z" fill="#864DFF"/>
<path d="M554.923 1009.01C554.923 1009.01 541.006 1082.64 501.683 1117.59C462.36 1152.55 417.966 1141.38 417.966 1141.38C417.966 1141.38 471.044 1122.23 496.396 1092.84C517.38 1068.51 554.869 1009.01 554.869 1009.01H554.923Z" fill="#864DFF"/>
<path d="M568.408 1039.97C568.408 1039.97 581.246 1058.42 619.059 1049.41C649.698 1042.13 672.407 972.925 672.407 972.925C672.407 972.925 618.25 1039.11 568.408 1039.97Z" fill="#864DFF"/>
<path d="M435.713 707.157C435.713 707.157 423.09 631.532 406.531 586.869C389.917 542.206 330.959 493.497 302.262 493.497C273.565 493.497 257.814 500.995 245.731 508.061C245.731 508.061 290.934 507.522 331.336 531.741C371.738 555.961 435.767 707.211 435.767 707.211L435.713 707.157Z" fill="#864DFF"/>
<path d="M679.528 969.58L719.714 949.946L720.685 1024.87C720.685 1024.87 706.067 1024.6 690.693 1019.21C690.693 1019.21 705.312 1003.08 705.689 988.783C706.067 974.489 679.474 969.58 679.474 969.58H679.528Z" fill="#823658"/>
<path d="M676.776 1028.54C676.776 1028.54 824.252 1039.65 836.335 1022.93C846.368 1009.01 681.038 1022.17 676.776 1028.54Z" fill="#804DFF"/>
<path d="M673.324 1377.54C673.324 1377.54 678.395 1372.84 678.718 1372.95C683.843 1373.98 713.51 1379.37 721.44 1386.27C725.539 1389.83 752.888 1435.41 756.502 1446.15C760.116 1456.88 692.042 1408.55 692.042 1408.55L673.378 1377.59L673.324 1377.54Z" fill="#967CFF"/>
<path d="M200.204 645.341C200.204 645.341 80.4007 568.259 41.4551 652.731C41.4551 652.731 125.496 617.885 205.437 685.905C205.437 685.905 204.735 677.49 200.258 645.341H200.204Z" fill="#864DFF"/>
<path d="M41.4551 652.731C41.4551 652.731 50.4093 619.773 83.3675 604.13C89.355 601.271 96.4213 599.977 104.027 599.977C138.172 599.815 183.914 624.682 200.258 645.341C200.258 645.341 154.354 605.263 114.653 605.263C74.9526 605.263 41.4551 652.731 41.4551 652.731Z" fill="#864DFF"/>
<path d="M630.818 810.292C630.818 810.292 610.482 775.608 577.794 759.804C545.106 743.999 545.807 790.118 545.807 790.118C545.807 790.118 550.877 769.082 565.172 770.754C579.466 772.426 619.005 841.416 619.005 841.416C619.005 841.416 627.42 827.122 630.764 810.292H630.818Z" fill="#864DFF"/>
<path d="M600.665 876.047C600.665 876.047 592.143 831.275 617.333 814.931C617.333 814.931 622.566 814.554 622.566 817.305C622.566 820.056 600.126 836.831 600.719 876.047H600.665Z" fill="#1F1A4E"/>
<path opacity="0.59" d="M617.603 821.674C611.184 831.437 608.702 843.466 614.959 851.665C629.793 871.084 665.125 900.806 693.66 903.772C730.61 907.602 720.361 874.267 701.266 856.844C683.141 840.284 657.519 824.695 638.046 818.006C632.382 816.064 623.159 813.205 617.603 821.674Z" fill="white"/>
<path d="M230.843 877.611C230.843 877.611 121.558 937.539 138.658 1047.69C138.658 1047.69 181.541 924.917 270.814 884.407C270.814 884.407 249.669 883.922 230.79 877.611H230.843Z" fill="#864DFF"/>
<path fill-rule="evenodd" clip-rule="evenodd" d="M1319.92 1616.28C1319.92 1616.28 1395.38 1636.99 1401.64 1642.33C1407.9 1647.67 1330.33 1645.89 1318.79 1653.93C1307.24 1661.97 1304.55 1710.08 1264.41 1730.58C1264.41 1730.58 1306.81 1636.56 1319.92 1616.28Z" fill="#470AA7"/>
<path fill-rule="evenodd" clip-rule="evenodd" d="M957.973 1462.65L973.454 1414.59C973.454 1414.59 1042.28 1471.99 1112.46 1529.33L957.973 1462.6V1462.65Z" fill="#470AA7"/>
<path d="M666.368 1312.45C664.644 1322.14 661.968 1331.68 658.413 1340.94C652.911 1355.34 649.999 1369.96 660.463 1370.61C681.446 1371.9 708.471 1380.05 715.969 1385.06C723.467 1390.08 755.238 1457.99 769.964 1456.75C784.653 1455.51 807.447 1457.39 807.561 1457.4C801.579 1467.15 800.497 1503.34 800.495 1503.41C791.433 1501.52 760.632 1493.7 751.516 1493.48C742.399 1493.27 723.573 1508.7 643.579 1512.9C597.729 1515.33 615.476 1431.45 571.676 1431.72L571.514 1431.99C530.195 1432.21 511.423 1405.56 511.423 1405.56C509.535 1387.49 496.212 1364.94 521.349 1314.4C528.096 1300.84 533.753 1288.01 538.545 1275.83L666.368 1312.45Z" fill="#967CFF"/>
<path d="M798.738 1489.71C805.157 1490.73 808.932 1491.81 815.298 1493.81C815.298 1493.81 828.405 1526.06 856.832 1532.59C856.832 1532.59 874.903 1552.5 876.035 1557.57C877.168 1562.64 884.342 1598.08 890.114 1598.29C895.886 1598.51 896.533 1579.79 890.707 1561.61C884.828 1543.43 876.899 1528.49 876.899 1528.49C876.899 1528.49 886.662 1558.27 886.392 1566.84C886.123 1575.47 890.923 1604.06 899.23 1604.71C907.591 1605.36 904.948 1569.22 903.599 1560.16C902.251 1551.09 890.06 1527.36 890.06 1527.36C890.06 1527.36 909.587 1553.47 912.985 1568.35C916.384 1583.24 911.799 1603.69 918.164 1604.6C924.583 1605.57 927.495 1577.47 924.798 1559.67C922.155 1541.87 905.272 1522.67 905.272 1522.67C905.272 1522.67 931.271 1536.37 935.91 1542.3C940.549 1548.23 947.4 1565.82 954.844 1564.96C962.288 1564.09 950.798 1539.82 942.383 1528.71C934.022 1517.6 893.782 1505.08 884.936 1499.09C876.089 1493.11 835.687 1472.56 830.293 1469.97C824.899 1467.38 802.675 1467.65 802.675 1467.65C801.057 1476.44 800.302 1480.81 798.684 1489.6L798.738 1489.71Z" fill="#CB6454"/>
<path d="M892.973 1596.19C892.973 1596.19 895.993 1575.26 893.944 1567.06C891.894 1558.86 882.724 1537.45 880.512 1533.35C878.301 1529.25 884.666 1535.83 889.035 1544.08C893.404 1552.33 897.018 1563.88 896.856 1568.68C896.695 1573.48 892.973 1596.19 892.973 1596.19Z" fill="#823658"/>
<path d="M802.729 1467.75C801.111 1476.55 800.356 1480.92 798.737 1489.71C803.754 1490.41 806.397 1491.33 811.629 1492.68C811.036 1483.18 810.281 1477.3 809.687 1467.86C806.882 1467.86 805.534 1467.81 802.729 1467.75Z" fill="#823658"/>
<path d="M657.411 1370.45C657.411 1370.45 626.071 1372.28 612.262 1372.06C598.453 1371.85 579.304 1368.34 581.354 1364.13C583.404 1359.93 631.358 1355.4 657.411 1370.45Z" fill="#804DFF"/>
</svg>
