<svg width="1544" height="1275" viewBox="0 0 1544 1275" fill="none" xmlns="http://www.w3.org/2000/svg">
<path d="M301.625 497.403C301.625 497.403 257.139 507.72 247.719 512.355C238.299 516.99 236.355 541.136 254.149 544.874C271.943 548.612 310.896 520.728 310.896 520.728L301.625 497.403Z" fill="#CB6454"/>
<path d="M306.933 553.471C306.933 553.471 268.803 559.003 268.803 570.441C268.803 581.879 293.849 577.693 315.755 570.217C337.661 562.741 306.933 553.546 306.933 553.546V553.471Z" fill="#CB6454"/>
<path d="M382.895 590.551C382.895 590.551 363.157 513.252 347.98 491.124C332.802 468.996 277.177 469.145 263.719 476.845C250.261 484.545 257.289 505.178 278.373 504.954C299.457 504.73 333.251 508.467 333.251 508.467L357.849 579.262C357.849 579.262 339.98 545.098 329.288 536.726C316.204 526.484 258.859 534.333 254.224 544.949C249.589 555.564 254.373 563.04 278.373 557.732C302.373 552.425 343.942 594.887 343.942 594.887L382.895 590.626V590.551Z" fill="#CB6454"/>
<path d="M327.12 678.166C327.12 678.166 304.914 675.101 301.624 658.356C298.335 641.61 314.783 589.729 314.783 589.729C314.783 589.729 360.091 568.348 378.483 574.179C396.876 580.01 396.278 625.612 396.278 625.612L327.12 678.166Z" fill="#CB6454"/>
<path d="M345.737 649.684C345.737 649.684 372.952 623.444 391.792 607.745C391.792 607.745 373.55 586.14 372.279 565.507C371.008 544.874 367.942 540.165 367.942 540.165L322.186 565.507C322.186 565.507 312.541 603.26 317.775 617.463C323.009 631.667 345.812 649.684 345.812 649.684H345.737Z" fill="#823658"/>
<path d="M758.665 506.748C758.665 506.748 621.62 484.321 582.443 433.785C582.443 433.785 627.901 376.895 676.573 351.627C725.245 326.359 769.581 340.264 777.133 443.952C777.133 443.952 864.384 391.398 911.187 420.179C957.99 448.961 879.561 550.107 879.561 550.107C879.561 550.107 916.196 587.187 916.196 610.362C916.196 633.536 889.654 658.804 889.654 658.804C889.654 658.804 1161.5 546.295 1236.12 546.295C1310.73 546.295 1282.1 643.031 1180.49 703.061C1180.49 703.061 1468.79 689.156 1497.87 839.567C1526.95 990.053 1175.41 954.618 1175.41 954.618C1175.41 954.618 1272.75 1031.77 1238.66 1063.32C1204.49 1094.94 999.26 965.533 889.654 801.142L854.963 746.42C854.963 746.42 794.104 754.718 756.796 719.358C719.488 683.997 758.665 506.599 758.665 506.599V506.748Z" fill="#470AA7"/>
<path d="M1024.98 743.579C1024.98 743.579 1201.2 747.466 1245.31 778.49C1289.42 809.515 1081.88 837.848 1081.88 837.848C1081.88 837.848 1303.48 834.708 1303.48 781.78C1303.48 728.852 1024.98 743.579 1024.98 743.579Z" fill="#783DEF"/>
<path d="M889.58 667.476C889.58 667.476 1090.18 557.209 1148.64 545.771C1207.11 534.333 1258.62 550.331 1258.62 550.331C1258.62 550.331 1217.58 522.671 1124.57 542.482C1031.56 562.292 878.066 662.916 878.066 662.916L889.58 667.476Z" fill="#3F2E7C"/>
<path d="M795.973 1174.78C795.973 1174.78 808.608 1210.44 810.627 1216.34H1101.69C1101.69 1216.34 1106.25 1154.97 1041.13 1091.65C976.008 1028.33 796.047 1174.78 796.047 1174.78H795.973Z" fill="#470AA7"/>
<path d="M1071.41 1127.53C1071.41 1127.53 1028.94 1186.52 932.195 1216.34H810.552L798.889 1192.57C798.889 1192.57 974.214 1172.24 1041.05 1091.57C1041.05 1091.57 1060.87 1110.19 1071.41 1127.46V1127.53Z" fill="#330A74"/>
<path opacity="0.43" d="M696.011 520.728C696.011 520.728 611.676 567.525 579.078 622.771C579.078 622.771 564.873 658.879 707.301 533.511C707.301 533.511 710.815 524.241 695.937 520.728H696.011Z" fill="white"/>
<path d="M712.535 802.188C712.535 802.188 649.283 804.954 589.77 837.548C530.257 870.143 490.257 909.166 476.351 916.567C462.444 923.968 443.828 927.706 408.464 927.706C373.1 927.706 289.438 974.205 243.831 1017.94C243.831 1017.94 266.185 970.542 281.064 946.32C295.942 922.174 309.923 891.448 305.213 870.965C300.503 850.481 278.223 832.839 277.325 825.438C276.428 818.037 295.942 766.828 354.483 717.563C354.483 717.563 329.362 720.329 301.475 702.687C301.475 702.687 289.363 764.959 233.588 812.43C233.588 812.43 208.467 816.168 198.224 836.577C187.981 856.985 137.814 960.225 121.066 986.315C104.319 1012.33 73.6648 1187.19 159.196 1215.97C244.728 1244.83 382.371 1164.84 431.641 1134.11C480.912 1103.39 564.649 967.701 601.807 967.701C601.807 967.701 618.555 970.467 626.928 1000.22C635.302 1029.97 668.797 1148.99 778.478 1192.72C778.478 1192.72 859.374 1199.22 984.905 1140.61C1110.44 1082 1098.32 979.737 1098.32 979.737C1098.32 979.737 1045.32 894.214 1032.31 879.338C1019.3 864.461 1065.8 791.947 1078.81 763.09C1091.82 734.234 1140.64 610.586 1153.2 517.139C1165.76 423.693 1259.14 347.067 1250.85 224.315C1242.47 101.639 1083.52 149.035 1026.32 157.408C969.129 165.78 882.7 164.509 831.112 141.41C779.524 118.31 754.403 151.801 740.497 206.149C740.497 206.149 683.302 257.732 596.873 248.013L592.686 302.362C592.686 302.362 687.488 261.918 741.917 277.243C741.917 277.243 778.179 309.314 825.58 313.501C872.981 317.687 921.803 292.569 952.457 292.569C983.111 292.569 1050.1 312.08 1050.1 312.08C1050.1 312.08 1058.47 356.71 1040.31 377.642C1022.14 398.574 963.597 454.343 953.877 510.112C944.083 565.881 932.943 659.028 924.569 678.017C924.569 678.017 833.953 717.862 762.777 786.19L712.385 802.039L712.535 802.188Z" fill="#967CFF"/>
<path d="M643.078 613.95C643.078 613.95 604.2 581.206 592.611 553.471C592.611 553.471 633.134 569.021 692.498 576.795L732.048 553.471C732.048 553.471 685.844 615.594 643.078 613.95Z" fill="#CB6454"/>
<path d="M758.665 506.748C758.665 506.748 715.077 542.108 701.246 556.013C687.414 569.918 585.06 646.918 568.014 670.915C568.014 670.915 626.704 699.921 702.516 707.546C702.516 707.546 726.965 732.963 722.329 799.198C722.329 799.198 678.517 850.257 683.601 860.35C688.685 870.442 755.824 821.027 762.927 786.415C762.927 786.415 751.787 749.933 756.796 719.582L766.441 704.556C766.441 704.556 786.478 711.433 807.936 714.573C829.393 717.713 881.206 698.874 888.757 684.296C896.308 669.719 851.15 658.43 795.973 674.279C795.973 674.279 811.076 623.743 826.253 610.511C841.431 597.279 856.533 593.84 856.533 593.84C856.533 593.84 835.375 530.521 758.74 506.898L758.665 506.748Z" fill="#CB6454"/>
<path d="M633.133 625.537C633.133 625.537 642.554 631.667 659.226 632.19C675.899 632.714 717.468 625.537 717.468 625.537C717.468 625.537 675.301 658.281 642.554 658.281C609.807 658.281 633.133 625.537 633.133 625.537Z" fill="white"/>
<path d="M739.377 583.823C739.377 583.823 752.909 602.886 795.899 595.635C795.899 595.635 790.74 589.729 770.778 578.216C750.815 566.704 737.433 573.88 739.377 583.823Z" fill="white"/>
<path opacity="0.43" d="M744.385 540.09C744.385 540.09 660.348 608.493 658.255 638.844C656.161 669.196 720.609 650.805 756.721 622.472C792.832 594.14 799.562 559.377 799.562 559.377C799.562 559.377 788.048 539.118 744.385 540.015V540.09Z" fill="white"/>
<path d="M781.395 689.38C781.395 689.38 844.197 671.438 855.038 680.559C865.879 689.679 799.712 706.873 781.395 689.38Z" fill="#823658"/>
<path d="M243.832 1017.94C243.832 1017.94 257.439 1056.29 246 1075.72C234.561 1095.16 198.674 1146.07 198.674 1146.07C198.674 1146.07 255.795 1134.71 269.701 1111.98C283.607 1089.26 276.953 1029.3 243.757 1017.94H243.832Z" fill="#804DFF"/>
<path d="M601.881 967.701C601.881 967.701 530.256 973.083 494.369 995.809C458.482 1018.54 428.127 1103.53 392.987 1128.65C357.847 1153.77 470.967 1078.57 517.097 1025.71C563.228 972.934 601.881 967.626 601.881 967.626V967.701Z" fill="#804DFF"/>
<path d="M636.051 912.082C636.051 912.082 754.18 934.808 793.656 892.944C833.132 851.08 636.051 912.082 636.051 912.082Z" fill="#804DFF"/>
<path d="M842.104 766.38C842.104 766.38 1049.05 688.482 1050.92 615.818C1052.87 543.154 842.104 766.38 842.104 766.38Z" fill="#804DFF"/>
<path d="M1050.18 312.23C1050.18 312.23 1107.22 328.228 1137.13 322.696C1167.03 317.164 1168.23 349.534 1137.13 345.945C1106.03 342.357 1050.18 312.23 1050.18 312.23Z" fill="#804DFF"/>
<path d="M755.605 582.649C759.3 576.877 759.702 570.537 756.502 568.49C753.302 566.442 747.713 569.462 744.018 575.234C740.323 581.007 739.922 587.346 743.122 589.394C746.321 591.442 751.91 588.422 755.605 582.649Z" fill="#3F2E7C"/>
<path d="M582.443 433.785C582.443 433.785 623.938 358.58 658.181 338.096C692.423 317.613 735.338 333.312 754.404 361.869C754.404 361.869 711.863 320.229 662.293 346.245C612.724 372.26 587.079 430.944 587.079 430.944L582.443 433.785Z" fill="#3F2E7C"/>
<path d="M613.471 454.941C613.471 454.941 680.535 375.474 717.469 368.671C754.403 361.868 767.562 389.155 767.562 389.155C767.562 389.155 741.843 372.708 726.366 381.231C704.909 393.042 648.909 472.883 648.909 472.883C648.909 472.883 634.854 465.781 613.471 454.941Z" fill="#783DEF"/>
<path d="M743.489 503.907C743.489 503.907 793.731 429.15 872.235 413.825C872.235 413.825 881.805 412.404 891.225 413.825C891.225 413.825 862.665 429.449 842.03 454.343C821.394 479.237 805.021 514.597 805.021 514.597L743.414 503.832L743.489 503.907Z" fill="#783DEF"/>
<path d="M812.57 630.845C812.57 630.845 867.672 641.76 907.672 630.845C907.672 630.845 877.915 649.161 805.094 648.039L812.57 630.845Z" fill="#783DEF"/>
<path d="M1162.32 701.416C1162.32 701.416 1339.37 681.082 1403.97 719.582C1468.56 758.082 1494.51 826.26 1494.51 826.26C1494.51 826.26 1460.94 737.15 1398.88 707.919C1324.86 673.083 1162.32 690.501 1162.32 690.501V701.416Z" fill="#3F2E7C"/>
<path d="M856.458 593.691C856.458 593.691 888.009 591.598 907.598 593.691C907.598 593.691 902.065 581.655 893.318 578.59C884.57 575.525 846.664 574.104 846.664 574.104L856.383 593.691H856.458Z" fill="#783DEF"/>
<path d="M191.421 878.217C191.421 878.217 191.422 961.048 166.749 984.596C142.076 1008.14 151.048 925.239 191.421 878.217Z" fill="#804DFF"/>
<path d="M765.918 524.989C765.918 524.989 808.908 541.809 830.59 589.729C830.59 589.729 830.59 544.874 773.395 514.672L765.918 524.989Z" fill="#3F2E7C"/>
<path d="M783.861 513.476C800.235 467.575 838.291 417.413 891.225 417.04C841.132 428.253 809.954 472.659 783.861 513.476Z" fill="#441890"/>
<path d="M290.484 492.021L289.512 483.798C288.765 477.518 286.746 471.388 283.606 465.931L281.139 461.595L322.185 465.781L290.559 491.946L290.484 492.021Z" fill="#FFEA3B"/>
<path d="M596.947 248.088L592.76 302.436C592.76 302.436 610.031 291.597 613.47 277.916C616.909 264.235 596.947 248.013 596.947 248.013V248.088Z" fill="#804DFF"/>
<path d="M702.516 707.471C702.516 707.471 729.282 710.013 732.048 711.658C734.814 713.302 714.628 729.749 714.628 729.749C714.628 729.749 710.815 715.694 702.516 707.471Z" fill="#823658"/>
<path d="M762.927 786.34C762.927 786.34 705.059 850.482 683.602 860.275C683.602 860.275 688.985 869.32 715.825 847.416C739.227 828.353 759.414 803.385 763.002 786.265L762.927 786.34Z" fill="#823658"/>
<path d="M645.919 1054.27C645.919 1054.27 693.021 1088.73 743.412 1101.96C793.804 1115.2 846.514 995.436 864.682 990.053C968.007 959.478 1002.77 1041.56 1021.61 1050.68C1040.46 1059.8 1090.17 1034.46 1090.17 1034.46C1090.17 1034.46 1078.73 1077.82 1026.55 1116.47C974.362 1155.12 869.317 1181.81 869.317 1181.81C869.317 1181.81 809.954 1195.11 778.477 1192.79C778.477 1192.79 736.384 1176.35 703.189 1142.03C665.881 1103.46 645.844 1054.34 645.844 1054.34L645.919 1054.27Z" fill="#864DFF"/>
<path d="M361.587 497.403C421.461 497.403 469.997 448.872 469.997 389.005C469.997 329.139 421.461 280.607 361.587 280.607C301.714 280.607 253.178 329.139 253.178 389.005C253.178 448.872 301.714 497.403 361.587 497.403Z" fill="#FFEA3B"/>
<path d="M361.586 422.646C380.167 422.646 395.23 407.585 395.23 389.005C395.23 370.426 380.167 355.365 361.586 355.365C343.005 355.365 327.941 370.426 327.941 389.005C327.941 407.585 343.005 422.646 361.586 422.646Z" fill="white"/>
<path d="M610.181 281.804C610.181 281.804 581.546 288.607 569.434 298.4C569.434 298.4 558.144 337.647 536.238 340.638C514.332 343.628 500.799 338.395 485.697 348.936C470.594 359.476 465.361 364.037 455.566 360.972C445.772 357.907 450.258 329.499 476.65 321.874C503.042 314.248 520.164 321.799 530.481 316.491C540.799 311.183 540.051 278.066 540.051 278.066C540.051 278.066 519.715 265.282 505.36 262.217C491.005 259.152 483.454 259.227 483.454 259.227C483.454 259.227 484.949 287.859 482.706 300.717C480.463 313.576 478.146 333.162 468.351 337.647C458.557 342.133 455.566 315.744 455.566 315.744C455.566 315.744 448.015 330.097 438.968 330.097C429.922 330.097 426.183 316.491 430.669 305.203C430.669 305.203 410.184 314.398 405.025 305.95C403.006 302.586 404.501 297.578 411.38 290.7C424.613 277.468 449.735 259.227 450.258 246.369C450.258 246.369 402.034 257.657 392.988 250.107C383.941 242.556 390.67 228.203 406.52 228.203C422.371 228.203 462.295 216.167 472.912 211.607C483.529 207.047 517.397 213.849 533.995 226.708C550.593 239.566 578.555 254.667 600.387 256.835C612.274 258.031 610.181 281.729 610.181 281.729V281.804Z" fill="#CB6454"/>
<path d="M579.677 292.195C579.677 292.195 552.986 288.233 539.977 277.991C539.977 277.991 540.126 292.718 538.332 300.119L569.434 298.325L579.677 292.195Z" fill="#823658"/>
<path d="M450.259 246.369C450.259 246.369 477.399 237.174 481.586 236.65C485.773 236.127 539.977 278.066 539.977 278.066C539.977 278.066 515.305 264.61 502.52 259.676C489.735 254.742 469.922 254.218 469.922 254.218C469.922 254.218 454.521 292.195 430.596 305.277C430.596 305.277 457.586 272.085 460.353 257.134L450.184 246.444L450.259 246.369Z" fill="#823658"/>
<path d="M455.566 315.743C455.566 315.743 474.332 271.412 475.603 249.209L481.061 242.706C481.061 242.706 482.183 293.167 456.389 320.976L455.566 315.743Z" fill="#823658"/>
<path d="M329.289 561.471C328.167 558.63 315.532 547.341 319.27 546.22C323.009 545.099 346.111 535.829 346.111 535.829L349.251 512.28L297.813 494.114L286.672 563.489C284.878 574.852 290.784 586.14 301.252 591.074L302.971 591.897C308.803 594.663 315.008 596.457 321.363 597.503L319.27 580.085C319.27 580.085 330.485 564.461 329.289 561.62V561.471Z" fill="#E5DFFF"/>
<path d="M349.251 512.28H324.803C324.803 512.28 318.149 538.67 315.308 545.772C313.812 549.36 328.242 558.63 329.364 561.471C330.485 564.311 319.345 579.936 319.345 579.936L321.439 597.354C326.149 598.102 330.934 598.475 335.793 598.251C347.532 597.653 357.326 589.28 359.868 577.842L372.354 520.354L349.326 512.206L349.251 512.28Z" fill="#DBC9FF"/>
<path d="M386.185 514.149L401.213 474.154L293.625 455.54L290.485 492.619C289.065 509.963 300.579 525.662 317.55 529.4L346.111 535.754C363.008 539.492 380.129 530.297 386.185 514.074V514.149Z" fill="#FFEA3B"/>
<path d="M383.343 519.905L392.39 505.851C398.072 497.553 405.25 490.376 413.549 484.695L427.156 475.275L385.362 461.894L376.988 499.347L383.269 519.905H383.343Z" fill="#FFEA3B"/>
<path d="M324.803 732.44C324.803 732.44 354.036 699.024 363.083 690.726C363.083 690.726 397.176 676.148 407.568 641.386C418.035 606.624 401.288 584.346 399.942 564.909C398.596 545.472 404.054 525.587 409.661 506.748C415.269 487.909 411.605 472.21 396.278 470.117C380.951 468.024 365.625 502.487 367.868 540.09C370.036 576.721 376.914 604.531 376.914 604.531C376.914 604.531 337.288 631.667 332.428 660.823L310.896 715.769L324.803 732.44Z" fill="#CB6454"/>
</svg>
