<svg width="1142" height="1882" viewBox="0 0 1142 1882" fill="none" xmlns="http://www.w3.org/2000/svg">
<path d="M507.347 1723.86C507.347 1723.86 514.924 1748.19 506.123 1774.75C501.837 1787.61 500.689 1793.12 501.531 1795.65C502.372 1798.17 543.242 1799.4 567.428 1801.92C591.613 1804.45 647.943 1797.33 649.627 1793.58C651.31 1789.83 605.006 1786.92 588.704 1786.92C572.402 1786.92 549.059 1781.95 549.059 1781.95C549.059 1781.95 541.559 1771.08 546.533 1751.49C551.508 1731.89 551.508 1723.93 551.508 1723.93H507.271L507.347 1723.86Z" fill="#1A0F39"/>
<path d="M849.842 1738.78C849.842 1738.78 849.842 1771.54 853.133 1778.04C856.424 1784.63 880.609 1795.72 893.697 1804.91C906.784 1814.09 946.736 1851.37 953.241 1851.37C959.747 1851.37 913.29 1795.72 903.493 1782.64C893.697 1769.55 887.115 1715.21 887.115 1715.21L849.842 1738.78Z" fill="#1A0F39"/>
<path d="M469.768 1091.42C469.768 1091.42 486.223 1162.22 510.944 1200.03C535.664 1237.91 581.739 1298.76 591.612 1315.22C601.485 1331.67 629.497 1410.66 644.268 1458.42C659.04 1506.18 710.089 1555.55 724.937 1590.07C739.784 1624.66 766.113 1708.55 820.376 1767.86C820.376 1767.86 836.678 1760.29 859.562 1756.61C882.446 1752.94 912.066 1735.18 930.511 1731.51C948.956 1727.83 974.136 1732.96 974.136 1732.96C974.136 1732.96 952.859 1697.53 933.342 1663.85C913.826 1630.17 904.871 1590.98 866.833 1521.95C828.795 1452.91 777.44 1357.31 765.883 1336.04C754.403 1314.76 655.213 1150.13 645.493 1135.97C635.773 1121.81 635.773 1071.37 635.773 1071.37C635.773 1071.37 493.111 1045.12 469.768 1091.42Z" fill="#8655FE"/>
<path d="M666.769 1053.61C666.769 1053.61 674.764 1169.59 673.846 1210.39C672.927 1251.11 645.416 1460.33 627.583 1527.08C609.827 1593.74 626.129 1650.07 572.707 1755.31C572.707 1755.31 551.966 1753.86 513.393 1743.45C474.895 1733.04 400.732 1740.46 400.732 1740.46C400.732 1740.46 403.717 1712.3 418.489 1657.5C433.337 1602.62 452.547 1530.06 461.502 1482.61C470.38 1435.15 501.53 1316.6 504.514 1278.1C507.499 1239.6 508.953 1125.4 511.938 1107.65C514.923 1089.89 666.693 1053.69 666.693 1053.69L666.769 1053.61Z" fill="#8655FE"/>
<path d="M508.346 1195.39C508.346 1195.39 535.358 1241.13 551.201 1272.82C567.044 1304.5 596.357 1388.7 615.873 1414.34C635.39 1439.98 644.268 1458.42 644.268 1458.42C644.268 1458.42 597.658 1404 564.901 1363.59C541.481 1334.74 503.846 1284.39 503.846 1284.39C503.846 1284.39 506.846 1254.39 506.846 1234.89C508.346 1212.39 508.346 1195.39 508.346 1195.39Z" fill="#470AA7"/>
<path d="M472.345 1101.39C472.345 1101.39 518.214 1115.15 574.161 1105.05C605.847 1099.3 666.387 1055.3 666.387 1055.3C666.387 1055.3 533.751 1093.26 468.236 1078.95L472.345 1101.39Z" fill="#470AA7"/>
<path d="M164.85 1114.84C164.85 1114.84 159.11 1130.76 143.038 1133.06C126.047 1135.51 118.623 1141.48 118.623 1141.48C118.623 1141.48 153.829 1156.25 188.347 1188.01C222.864 1219.7 326.417 1308.48 405.401 1238.76C405.401 1238.76 405.401 1209.9 392.008 1192.99C392.008 1192.99 319.911 1137.42 164.927 1114.92L164.85 1114.84Z" fill="#470AA7"/>
<path d="M621.461 867.318C621.461 867.318 627.125 875.507 640.289 889.284C653.453 903.061 661.642 913.776 658.504 941.407C655.366 969.037 652.841 969.649 655.978 977.15C659.116 984.651 704.272 1001.64 696.772 1033.64C696.772 1033.64 639.676 1078.79 593.219 1087.59C546.762 1096.4 471.452 1078.79 471.452 1078.79C471.452 1078.79 452.624 949.52 438.159 928.166C423.693 906.812 385.426 865.405 385.426 865.405L464.487 783.815C464.487 783.815 507.194 823.997 551.125 812.057C551.125 812.057 597.582 844.05 621.384 867.318H621.461Z" fill="#967CFF"/>
<path d="M578.831 649.72C578.831 649.72 646.182 644.898 660.264 627.447C674.347 609.997 590.005 610.533 571.33 635.79L578.831 649.72Z" fill="#1A0F39"/>
<path d="M470.457 980.211C470.457 980.211 565.897 1021.77 589.24 1031.95C589.24 1031.95 549.901 1030.5 522.96 1022.38C495.943 1014.19 470.457 980.211 470.457 980.211Z" fill="#864DFF"/>
<path d="M464.794 902.908C464.794 902.908 336.98 910.562 293.278 920.359C249.576 930.155 185.133 962.99 185.133 962.99C185.133 962.99 110.818 967.353 109.746 930.232C109.746 930.232 110.818 914.924 157.81 869.078C204.803 823.232 298.482 809.991 319.223 800.194C339.965 790.397 387.723 779.758 408.923 776.391C443.976 770.803 491.658 788.407 512.628 805.858C533.599 823.308 464.717 902.984 464.717 902.984L464.794 902.908Z" fill="#967CFF"/>
<path d="M551.201 812.134C551.201 812.134 599.189 817.721 624.292 817.721C649.396 817.721 741.162 782.744 763.051 760.93C784.94 739.117 783.026 724.651 796.879 704.139C812.263 681.407 828.565 651.71 864.613 624.386L900.662 597.062C900.662 597.062 926.913 570.81 926.913 550.068L944.363 558.793C944.363 558.793 919.26 595.914 914.897 609.079C914.897 609.079 912.678 662.579 894.156 690.974C875.558 719.37 865.532 740.265 848.847 753.123C827.8 769.349 814.253 802.49 808.13 821.548C803.997 834.254 789.838 874.589 747.82 894.489C705.802 914.389 667.228 919.44 623.527 893.953C579.825 868.39 532.603 845.352 551.354 812.134H551.201Z" fill="#967CFF"/>
<path d="M345.473 812.669C345.473 812.669 398.052 840.376 450.25 811.445L345.473 812.669Z" fill="#864DFF"/>
<path d="M520.817 730.468C520.817 730.468 503.596 748.072 496.938 751.133C490.279 754.195 454.231 751.133 450.098 724.881C445.965 698.628 452.7 667.247 445.965 655.92C439.23 644.592 397.901 629.285 355.73 631.81C313.559 634.26 241.616 630.126 195.312 605.328C149.008 580.53 124.21 527.642 127.501 492.052C130.792 456.462 185.362 430.898 185.362 426.765C185.362 422.632 112.577 371.351 109.286 308.514C105.995 245.676 122.527 174.572 174.571 152.223C226.691 129.874 271.311 172.046 271.311 172.046C271.311 172.046 262.204 157.963 277.128 121.608C291.976 85.2522 360.628 24.0218 417.724 52.1878C474.819 80.3538 496.249 152.223 476.426 204.345C456.604 256.468 442.521 300.248 443.363 330.863C443.363 330.863 491.351 286.241 531.838 307.748C572.325 329.255 562.452 402.043 545.079 433.424C527.705 464.881 478.11 597.139 512.015 625.228C512.015 625.228 532.68 568.973 570.718 549.149C608.756 529.326 625.288 565.681 628.579 591.322C628.579 591.322 678.174 568.973 662.484 623.544C662.484 623.544 625.288 610.992 575.693 633.8C526.098 656.609 520.434 664.645 517.985 668.166C515.536 671.687 509.796 699.24 509.796 699.24L520.817 730.544V730.468Z" fill="#390A84"/>
<path d="M601.102 673.141C601.102 673.141 585.795 644.21 588.551 637.551C591.306 630.892 621.002 691.893 620.236 703.756C619.471 715.62 601.102 673.064 601.102 673.064V673.141Z" fill="white"/>
<path d="M930.129 557.951L939.39 520.907C941.992 510.421 979.571 472.917 984.086 466.718C988.602 460.518 995.72 466.258 988.602 476.208C981.484 486.158 959.136 504.527 958.447 508.048C957.758 511.569 957.988 517.768 957.988 517.768C957.988 517.768 964.876 503.992 969.851 503.992C974.826 503.992 973.142 511.799 973.142 511.799C973.142 511.799 982.173 510.344 982.403 516.774C982.632 523.203 976.28 538.434 971.381 540.347C967.249 541.955 965.565 538.204 965.565 538.204C965.565 538.204 966.789 550.068 959.365 552.211C951.942 554.354 939.39 555.272 938.242 556.267C937.094 557.262 930.894 566.523 930.894 566.523L930.206 557.951H930.129Z" fill="#DA7D6C"/>
<path d="M514.465 811.139C514.465 811.139 532.91 804.48 532.91 779.223C532.91 753.965 513.852 737.05 513.852 737.05C513.852 737.05 515.995 724.881 509.872 720.748C509.872 720.748 504.209 727.406 492.882 725.416C481.554 723.35 456.298 702.761 459.436 687.836C462.497 672.911 503.673 694.036 509.872 699.164C509.872 699.164 514.005 672.376 520.205 665.181C526.404 657.986 554.722 640.995 575.769 633.8C575.769 633.8 587.097 666.252 593.296 670.385C599.496 674.519 616.946 679.111 627.278 672.988L607.685 695.643C607.685 695.643 621.078 725.493 622.073 730.162C622.073 730.162 571.101 749.755 555.641 769.273C540.181 788.866 546.15 808.843 569.264 823.538C592.378 838.233 533.981 835.937 514.465 811.216V811.139Z" fill="#DA7D6C"/>
<path d="M541.252 649.567C541.252 649.567 564.365 716.155 584.953 711.487C601.256 707.813 575.616 655.69 565.36 639.847C562.452 635.408 556.712 633.8 551.89 636.02C546.38 638.546 540.41 642.832 541.252 649.567Z" fill="white"/>
<path d="M502.294 708.195C502.294 708.195 488.9 697.862 478.644 697.403C468.312 696.867 486.757 715.007 502.294 708.195Z" fill="#AB4E42"/>
<path d="M654.14 907.271C654.14 907.271 620.924 882.396 616.102 875.584C609.903 866.858 608.219 857.75 608.219 857.75C608.219 857.75 677.33 885.228 684.907 911.174C684.907 911.174 674.116 912.628 654.14 907.194V907.271Z" fill="#864DFF"/>
<path d="M790.345 740.387C789.179 753.887 784.345 780.887 774.345 780.887C764.345 780.887 780.845 753.887 790.345 740.387Z" fill="#864DFF"/>
<path d="M361.93 89.9209C399.585 86.094 432.648 119.005 436.016 155.973C439.307 196.079 422.01 232.435 418.336 271.163C416.806 293.129 419.102 316.474 421.933 341.119C397.672 311.728 386.804 270.321 394.916 232.894C398.437 204.651 410.912 177.48 411.142 149.621C409.382 121.455 389.176 98.4932 362.006 89.8444L361.93 89.9209Z" fill="#AD9FFF"/>
<path d="M194.394 958.628C194.394 958.628 165.387 932.222 147.172 923.803C147.172 923.803 181.383 930.462 210.39 951.05C210.39 951.05 198.374 956.408 194.471 958.551L194.394 958.628Z" fill="#864DFF"/>
<path d="M504.744 803.409C504.744 803.409 515.842 832.646 535.358 842.749C560.538 855.761 573.014 848.26 573.014 848.26C573.014 848.26 520.74 827.518 504.744 803.409Z" fill="#864DFF"/>
<path d="M497.933 329.332C510.944 329.179 523.802 339.359 528.93 352.447C546.533 395.308 510.561 453.554 490.509 491.057C482.779 503.15 478.646 516.774 475.202 531.469C470.151 555.196 467.395 579.765 475.738 603.492C448.721 572.494 451.629 519.835 468.543 484.016C472.6 476.668 480.177 462.815 484.233 455.314C500.688 421.101 548.217 353.978 498.01 329.409L497.933 329.332Z" fill="#AD9FFF"/>
<path d="M555.869 582.903C574.391 544.94 622.991 557.492 616.179 600.813C611.51 595.302 608.143 589.485 603.704 584.433C590.693 567.978 572.86 577.698 555.869 582.903Z" fill="#AD9FFF"/>
<path opacity="0.76" d="M321.823 1207.45C419.592 1207.45 498.85 1128.19 498.85 1030.42C498.85 932.648 419.592 853.388 321.823 853.388C224.054 853.388 144.797 932.648 144.797 1030.42C144.797 1128.19 224.054 1207.45 321.823 1207.45Z" fill="white"/>
<path d="M323.356 934.748C305.14 940.105 286.925 944.851 272.307 943.779C272.307 943.779 313.865 1011.82 300.548 1082.77C300.548 1082.77 325.04 1086.45 354.965 1086.91C357.95 991.309 336.443 950.514 323.356 934.824V934.748Z" fill="#470AA7"/>
<path d="M443.593 989.855C432.648 940.258 399.738 921.813 399.738 921.813C399.738 921.813 381.293 918.904 354.199 925.869C344.326 928.395 333.841 931.686 323.355 934.748C336.443 950.515 357.95 991.233 354.965 1086.83C385.196 1087.21 421.015 1084.23 442.445 1070.6C442.445 1070.6 454.537 1039.45 443.593 989.855Z" fill="white"/>
<path d="M347.212 993.053C352.901 991.764 355.742 982.899 353.558 973.252C351.373 963.605 344.99 956.829 339.301 958.117C333.612 959.406 330.771 968.271 332.956 977.918C335.14 987.565 341.523 994.341 347.212 993.053Z" fill="#F36F52"/>
<path d="M386.744 981.589C390.785 980.674 392.796 974.351 391.237 967.466C389.678 960.581 385.139 955.742 381.098 956.657C377.058 957.572 375.047 963.895 376.606 970.78C378.165 977.665 382.704 982.504 386.744 981.589Z" fill="#6ED8DE"/>
<path d="M381.242 1000.12C381.242 1000.12 386.523 1023.69 388.972 1032.57C388.972 1032.57 420.352 1031.88 429.842 1025.91L424.561 993.842C424.561 993.842 390.044 998.051 381.242 1000.19V1000.12Z" fill="#864DFF"/>
<path d="M390.198 1043.9L393.029 1057.29C393.029 1057.29 409.714 1053.47 414.612 1050.63L412.776 1041.37L390.121 1043.97L390.198 1043.9Z" fill="#6ED8DE"/>
<path d="M383.282 1179.67C383.282 1179.67 367.057 1180.2 357.796 1175.77C348.535 1171.33 340.575 1163.75 339.504 1154.41C338.432 1145.07 330.932 1119.13 322.819 1113.23C314.707 1107.34 313.176 1104.36 313.176 1104.36L320.6 1088.05C320.6 1088.05 346.928 1098.08 355.883 1101.06C364.837 1104.05 379.609 1107.72 387.032 1114.46C394.456 1121.12 403.717 1133.75 402.263 1137.11C400.809 1140.48 397.441 1140.48 397.441 1140.48C397.441 1140.48 413.055 1152.73 410.835 1157.55C408.615 1162.37 404.559 1156.78 399.355 1152.73C394.15 1148.67 373.715 1132.29 370.807 1129.69C367.899 1127.09 395.681 1157.55 401.574 1164.59C407.467 1171.63 401.192 1174.24 397.135 1171.63C397.135 1171.63 399.737 1178.67 393.768 1177.6C387.798 1176.53 381.905 1172.78 381.905 1172.78C381.905 1172.78 389.711 1177.6 383.359 1179.82L383.282 1179.67Z" fill="#DA7D6C"/>
<path d="M109.822 930.232C109.822 930.232 105 940.105 105 963.526C105 986.947 122.986 1006.46 131.558 1013.51C140.13 1020.55 162.784 1052.54 181.535 1058.82C200.287 1065.09 193.245 1107.26 278.429 1102.6C278.429 1102.6 313.559 1110.4 322.207 1120.58C322.207 1120.58 325.345 1095.55 330.779 1085.45C330.779 1085.45 299.553 1080.02 293.277 1072.98C293.277 1072.98 287.843 1052.69 275.291 1046.42C262.739 1040.14 247.203 1040.98 242.458 1032.33C237.789 1023.76 229.982 995.595 211.231 975.313C192.48 955.03 163.55 933.14 163.55 933.14L109.745 930.308L109.822 930.232Z" fill="#967CFF"/>
<path d="M323.814 1107.42C323.814 1107.42 306.44 1096.47 284.551 1092.8C284.551 1092.8 274.984 1078.64 260.366 1072.21C245.748 1065.78 220.185 1063.56 210.541 1055.3C200.975 1047.11 173.958 1021.01 154.824 999.576C135.69 978.145 106.836 967.124 106.836 967.124C106.836 967.124 118.699 1002.33 146.558 1026.52C174.417 1050.7 193.627 1049.78 198.602 1060.35C203.577 1070.91 211.843 1100.99 280.342 1099.61C280.342 1099.61 310.42 1104.28 322.054 1117.14L323.737 1107.34L323.814 1107.42Z" fill="#864DFF"/>
<path d="M150.691 203.35C139.134 304.763 146.711 331.781 208.398 412.911C124.822 368.213 101.938 284.48 150.691 203.35Z" fill="#AD9FFF"/>
<path d="M466.895 1455.89C473.081 1507.33 482.089 1570.09 482.089 1570.09C484.537 1538.38 481.392 1444.41 479.753 1401.39L466.895 1455.89Z" fill="#470AA7"/>
<path d="M746.06 1582.57C729.223 1558.38 655.289 1483.45 655.289 1483.45H655.213C662.091 1495.67 679.446 1524.44 693.846 1541.75C719.447 1562.24 746.06 1582.57 746.06 1582.57Z" fill="#470AA7"/>
<path d="M397.059 1171.56C397.059 1171.56 376.011 1160.53 369.047 1151.12C362.082 1141.71 361.699 1142.78 361.699 1142.78C361.699 1142.78 364.225 1156.55 373.256 1161.68C382.287 1166.81 397.059 1171.56 397.059 1171.56Z" fill="#AB4E42"/>
<path d="M382.977 1173.7C382.977 1173.7 361.93 1162.68 354.965 1153.26C348 1143.85 350.143 1153.49 350.143 1153.49C350.143 1153.49 351.444 1159.69 359.251 1163.83C368.512 1168.65 383.053 1173.7 383.053 1173.7H382.977Z" fill="#AB4E42"/>
<path d="M397.364 1140.33C397.364 1140.33 385.272 1127.24 380.756 1123.34C376.241 1119.43 369.582 1115.76 369.582 1115.76C369.582 1115.76 388.333 1117.75 397.364 1140.33Z" fill="#AB4E42"/>
<path d="M945.281 541.113C945.281 541.113 949.95 540.195 951.557 538.281C953.164 536.368 955.996 522.208 959.211 519.835C959.211 519.835 951.863 522.667 950.103 526.8C948.343 530.933 945.281 541.113 945.281 541.113Z" fill="#AB4E42"/>
<path d="M973.218 511.799C973.218 511.799 973.753 529.556 965.641 538.205C965.641 538.205 973.83 533.383 975.208 524.81C976.585 516.238 973.218 511.799 973.218 511.799Z" fill="#AB4E42"/>
<path d="M637.15 596.067C653.759 581.755 667.765 603.262 657.585 618.799C653.376 605.099 654.677 595.991 637.15 596.067Z" fill="#AD9FFF"/>
<path d="M212.838 458.911C202.047 475.52 187.734 491.44 189.724 511.416C195.082 542.261 222.864 564.457 252.56 572.494C305.14 585.658 368.511 577.928 414.815 610.456C387.798 601.348 360.551 601.042 332.616 600.889C289.45 599.664 240.62 603.491 205.185 573.795C184.29 556.421 167.835 527.336 175.871 499.629C182.683 481.796 197.914 468.708 212.838 458.988V458.911Z" fill="#AD9FFF"/>
<path d="M628.346 1094.89L672.74 1179.9C672.775 1175.56 672.746 1165.29 672.346 1158.89C663.846 1133.39 635.822 1101.62 628.346 1094.89Z" fill="#470AA7"/>
</svg>
