<svg width="1953" height="1112" viewBox="0 0 1953 1112" fill="none" xmlns="http://www.w3.org/2000/svg">
<path d="M1345.06 931.252C1345.06 931.252 1328.58 676.634 1333.96 495C1333.96 495 1827.55 539.924 1923.21 550.925C1923.21 550.925 1858.9 957.227 1852.6 990.181L1345.06 931.3V931.252Z" fill="#BFABFF"/>
<path d="M1368.66 913.417L1356.98 516.031L1879.93 576.851L1830.65 959.988L1368.66 913.417Z" fill="white"/>
<path d="M1516.76 637.914C1525.76 637.914 1533.05 630.623 1533.05 621.63C1533.05 612.637 1525.76 605.347 1516.76 605.347C1507.77 605.347 1500.48 612.637 1500.48 621.63C1500.48 630.623 1507.77 637.914 1516.76 637.914Z" fill="#864DFF"/>
<path d="M1516.77 630.934C1521.9 630.934 1526.07 626.768 1526.07 621.629C1526.07 616.49 1521.9 612.325 1516.77 612.325C1511.63 612.325 1507.46 616.49 1507.46 621.629C1507.46 626.768 1511.63 630.934 1516.77 630.934Z" fill="#470AA7"/>
<path d="M1587.81 643.535C1596.8 643.535 1604.09 636.245 1604.09 627.252C1604.09 618.259 1596.8 610.969 1587.81 610.969C1578.82 610.969 1571.53 618.259 1571.53 627.252C1571.53 636.245 1578.82 643.535 1587.81 643.535Z" fill="#CCB5FF"/>
<path d="M1587.81 636.557C1592.95 636.557 1597.11 632.391 1597.11 627.252C1597.11 622.113 1592.95 617.948 1587.81 617.948C1582.67 617.948 1578.5 622.113 1578.5 627.252C1578.5 632.391 1582.67 636.557 1587.81 636.557Z" fill="#864DFF"/>
<path d="M1658.85 649.155C1667.85 649.155 1675.14 641.865 1675.14 632.872C1675.14 623.879 1667.85 616.589 1658.85 616.589C1649.86 616.589 1642.57 623.879 1642.57 632.872C1642.57 641.865 1649.86 649.155 1658.85 649.155Z" fill="#8FE5D5"/>
<path d="M1658.85 642.176C1663.99 642.176 1668.16 638.01 1668.16 632.871C1668.16 627.733 1663.99 623.567 1658.85 623.567C1653.71 623.567 1649.55 627.733 1649.55 632.871C1649.55 638.01 1653.71 642.176 1658.85 642.176Z" fill="#07BC8F"/>
<path d="M1726.51 654.487C1735.5 654.487 1742.79 647.197 1742.79 638.204C1742.79 629.211 1735.5 621.92 1726.51 621.92C1717.51 621.92 1710.22 629.211 1710.22 638.204C1710.22 647.197 1717.51 654.487 1726.51 654.487Z" fill="#C4F2F6"/>
<path d="M1726.5 647.508C1731.64 647.508 1735.81 643.343 1735.81 638.204C1735.81 633.065 1731.64 628.899 1726.5 628.899C1721.37 628.899 1717.2 633.065 1717.2 638.204C1717.2 643.343 1721.37 647.508 1726.5 647.508Z" fill="#57E1E9"/>
<path d="M1795.95 660.012C1804.94 660.012 1812.23 652.722 1812.23 643.729C1812.23 634.736 1804.94 627.446 1795.95 627.446C1786.96 627.446 1779.67 634.736 1779.67 643.729C1779.67 652.722 1786.96 660.012 1795.95 660.012Z" fill="#FFE1A6"/>
<path d="M1795.95 653.033C1801.09 653.033 1805.25 648.867 1805.25 643.728C1805.25 638.589 1801.09 634.423 1795.95 634.423C1790.81 634.423 1786.64 638.589 1786.64 643.728C1786.64 648.867 1790.81 653.033 1795.95 653.033Z" fill="#FFBF3F"/>
<path d="M1817.67 678.058L1498.87 652.856C1489.63 652.126 1481.56 659.019 1480.83 668.25L1480.83 668.299C1480.1 677.53 1486.99 685.606 1496.22 686.336L1815.02 711.538C1824.25 712.268 1832.33 705.376 1833.06 696.144L1833.06 696.096C1833.79 686.864 1826.9 678.788 1817.67 678.058Z" fill="#E5DAFF"/>
<path d="M1536.7 706.87L1507.23 704.54C1494.31 703.519 1483.02 713.161 1482 726.074L1472.84 841.827C1471.82 854.741 1481.47 866.037 1494.38 867.058L1523.85 869.388C1536.76 870.409 1548.06 860.768 1549.08 847.854L1558.23 732.101C1559.25 719.187 1549.61 707.891 1536.7 706.87Z" fill="#E5DAFF"/>
<path d="M1623.8 713.76L1594.33 711.43C1581.41 710.409 1570.12 720.05 1569.09 732.964L1559.94 848.717C1558.92 861.631 1568.56 872.927 1581.48 873.948L1610.95 876.278C1623.86 877.298 1635.16 867.658 1636.18 854.744L1645.33 738.991C1646.35 726.077 1636.71 714.781 1623.8 713.76Z" fill="#8FE5D5"/>
<path d="M1710.84 720.646L1681.37 718.317C1668.46 717.296 1657.16 726.937 1656.14 739.851L1646.99 855.604C1645.97 868.517 1655.61 879.813 1668.53 880.834L1697.99 883.164C1710.91 884.185 1722.2 874.544 1723.23 861.63L1732.38 745.877C1733.4 732.963 1723.76 721.667 1710.84 720.646Z" fill="#C4F2F6"/>
<path d="M1797.94 727.537L1768.47 725.207C1755.56 724.186 1744.26 733.827 1743.24 746.741L1734.09 862.494C1733.07 875.408 1742.71 886.704 1755.62 887.725L1785.09 890.055C1798.01 891.076 1809.3 881.435 1810.32 868.521L1819.47 752.768C1820.49 739.854 1810.85 728.558 1797.94 727.537Z" fill="#FFE1A6"/>
<path d="M1697.29 1045.04C1697.29 1045.04 1076.06 974.431 1040 968.179L1345.07 931.251C1345.07 931.251 1712.99 966.629 1852.6 990.132L1697.29 1045.04Z" fill="#E5DAFF"/>
<path d="M1040.05 968.18L1050.03 999.05L1691.52 1072.86L1852.6 1001.72V990.133L1697.28 1045.04L1040.05 968.18Z" fill="#BFABFF"/>
<path d="M1422.31 918.796L1433.84 524.997L1356.98 516.031L1368.66 913.417L1422.31 918.796Z" fill="#864DFF"/>
<path d="M1427.5 678.863C1446.07 678.863 1461.13 663.805 1461.13 645.231C1461.13 626.656 1446.07 611.598 1427.5 611.598C1408.92 611.598 1393.87 626.656 1393.87 645.231C1393.87 663.805 1408.92 678.863 1427.5 678.863Z" fill="#F6A3A5"/>
<path d="M1427.5 663.985C1437.85 663.985 1446.25 655.588 1446.25 645.23C1446.25 634.872 1437.85 626.475 1427.5 626.475C1417.14 626.475 1408.74 634.872 1408.74 645.23C1408.74 655.588 1417.14 663.985 1427.5 663.985Z" fill="#FE695D"/>
<path d="M835.494 286.461C835.494 286.461 854.111 206.845 920.727 206.022C920.727 206.022 878.858 266.501 835.494 286.461Z" fill="#201A40"/>
<path d="M831.458 280.032C831.458 280.032 867.345 328.4 882.672 351.201C882.672 351.201 904.055 353.668 935.606 344.921C935.606 344.921 927.681 369.441 900.915 388.205C900.915 388.205 917.961 450.852 917.961 463.934C917.961 463.934 871.831 463.934 831.383 451.375C831.383 451.375 804.019 459.897 788.094 484.941C772.169 509.985 764.169 481.502 764.169 481.502C764.169 481.502 801.626 465.205 811.944 435.228C811.944 435.228 807.981 459.299 764.169 449.058C720.356 438.816 709.515 413.174 723.721 392.093C737.926 371.011 772.692 295.282 772.692 295.282L831.308 279.957L831.458 280.032Z" fill="#CB6454"/>
<path d="M1197.73 955.239C1197.73 955.239 1226.82 979.012 1248.5 983.273C1270.18 987.534 1318.18 972.059 1322.37 955.239C1326.55 938.418 1278.25 969.218 1271.6 969.592C1264.95 969.966 1248.12 967.051 1248.12 967.051C1248.12 967.051 1289.39 923.019 1295.75 914.945C1302.03 906.871 1335.67 873.305 1335.67 863.512C1335.67 853.719 1302.78 879.958 1295.45 890.125C1288.12 900.292 1268.16 927.205 1263.6 927.205C1259.04 927.205 1283.56 891.845 1291.26 878.912C1298.96 865.979 1314.74 832.039 1313.99 828.152C1313.24 824.264 1292.61 839.664 1292.61 839.664C1292.61 839.664 1296.42 828.6 1293.28 827.479C1290.14 826.357 1268.46 851.177 1262.11 864.11C1255.75 877.043 1243.94 909.936 1238.33 913.823C1232.72 917.711 1235.19 880.257 1238.33 869.343C1241.47 858.503 1262.85 823.517 1256.2 818.957C1249.54 814.396 1223.3 853.569 1223.3 875.996C1223.3 898.423 1229.28 930.943 1229.28 935.877C1229.28 940.811 1227.56 944.249 1227.56 944.249L1204.46 940.736L1197.81 955.089L1197.73 955.239Z" fill="#DC7D6A"/>
<path d="M776.055 490.024C776.055 490.024 841.773 559.175 862.409 578.088C883.119 597.002 912.651 649.108 923.941 675.198C935.23 701.288 966.706 766.925 992.799 779.484C1018.89 792.043 1098.89 833.459 1110.55 853.195C1122.22 873.005 1117.73 887.359 1137.55 899.918C1157.36 912.477 1213.06 939.465 1213.06 939.465C1213.06 939.465 1203.19 960.172 1203.19 973.629C1203.19 973.629 1145.62 935.876 1125.88 933.185C1106.14 930.494 1092.61 959.275 1051.27 952.099C1009.92 944.922 957.734 887.359 957.734 887.359C957.734 887.359 787.643 650.229 776.055 600.814C764.466 551.4 776.055 490.024 776.055 490.024Z" fill="#864DFF"/>
<path d="M684.767 387.906C684.767 387.906 679.384 338.043 684.767 327.278C690.151 316.513 709.365 306.271 721.402 306.271C721.402 306.271 688.954 269.042 711.833 212.002C734.636 154.963 755.645 161.541 762.897 164.008C770.149 166.475 798.934 198.247 798.934 198.247C798.934 198.247 824.728 145.394 851.793 133.433C878.858 121.471 908.839 163.485 920.802 206.097C920.802 206.097 892.017 216.338 835.569 286.535C835.569 286.535 812.84 342.977 780.99 347.762C780.99 347.762 810.896 378.337 797.14 407.193C797.14 407.193 772.542 395.157 743.084 397.624C713.702 400.017 717.29 412.651 734.711 427.677C752.131 442.703 809.177 454.066 812.167 435.452C812.167 435.452 810.373 457.057 786.373 459.449C762.374 461.841 720.954 434.255 712.505 414.445L684.917 388.056L684.767 387.906Z" fill="#441890"/>
<path d="M696.955 375.646L684.768 387.906C684.768 387.906 569.031 384.094 495.91 345.893C422.865 307.692 406.342 276.817 336.66 246.241C266.979 215.666 203.354 175.222 184.662 208.34C165.971 241.457 224.587 315.392 224.587 315.392C224.587 315.392 41.1129 266.949 16.4403 380.804C-8.15747 494.585 154.906 591.47 428.397 553.194C428.397 553.194 373.22 588.854 394.454 618.607C415.687 648.36 572.844 634.755 599.984 598.198C627.124 561.642 666.226 488.081 671.31 459.449C676.394 430.817 698.525 404.502 709.515 399.419C720.506 394.335 696.805 375.646 696.805 375.646H696.955Z" fill="#441890"/>
<path d="M676.992 371.833C676.992 371.833 711.832 405.549 712.43 414.968C712.43 414.968 705.178 430.592 689.179 430.817C689.179 430.817 662.114 394.186 663.31 379.459C663.31 379.459 665.104 371.534 676.992 371.833Z" fill="#967CFF"/>
<path d="M860.316 337.072C860.316 337.072 826.746 363.386 826.746 369.367C826.746 374.974 866.97 348.584 866.97 348.584C866.97 348.584 865.101 340.361 860.316 336.997V337.072Z" fill="white"/>
<path opacity="0.4" d="M844.018 311.953C844.018 311.953 858.223 288.629 865.101 284.068C865.101 284.068 914.521 380.505 913.474 407.044C913.474 407.044 892.989 422.444 873.624 395.083C854.26 367.722 844.018 311.953 844.018 311.953Z" fill="white"/>
<path d="M768.28 475.372C768.28 475.372 752.655 469.018 727.683 475.372C702.637 481.726 636.544 562.315 620.394 576.22C604.245 590.124 553.629 639.464 529.181 665.031C504.733 690.598 424.659 721.024 422.416 750.479C422.416 750.479 579.199 928.7 630.488 944.922C630.488 944.922 625.105 905.375 616.133 892.816C616.133 892.816 708.767 839.739 726.711 834.356C744.655 828.974 772.542 833.459 782.486 818.209C792.355 802.958 799.458 513.723 768.355 475.447L768.28 475.372Z" fill="#967CFF"/>
<path d="M767.907 827.778C767.907 827.778 741.141 674.675 737.477 647.986C733.814 621.298 709.889 562.39 709.889 562.39C709.889 562.39 683.646 793.24 726.711 834.356C726.711 834.356 754.225 829.946 767.982 827.853L767.907 827.778Z" fill="#864DFF"/>
<path d="M1040.8 615.692C1040.8 615.692 1052.91 578.836 1051.94 557.007C1050.97 535.178 1042.74 515.293 1049.02 487.184C1055.31 459.075 1069.36 433.807 1074.22 422.668C1079.08 411.53 1096.05 382.898 1106.22 384.841C1116.39 386.785 1099.42 436.723 1085.88 452.721C1072.35 468.719 1058.22 490.997 1061.14 513.349C1061.14 513.349 1070.33 485.689 1082 480.83C1093.66 475.97 1097.55 508.49 1097.55 508.49C1097.55 508.49 1114.07 493.464 1120.35 493.464C1126.63 493.464 1120.35 524.039 1120.35 524.039C1120.35 524.039 1137.32 510.433 1144.58 515.816C1151.83 521.198 1137.32 572.108 1122.74 573.005C1108.16 573.902 1118.86 541.458 1118.86 541.458C1118.86 541.458 1099.49 585.564 1088.28 585.564H1077.14L1065.02 620.476L1040.8 615.617V615.692Z" fill="#CB6454"/>
<path d="M697.628 573.604C697.628 573.604 719.459 608.665 725.74 640.137C732.02 671.61 767.085 877.492 806.636 911.656C846.187 945.82 957.662 1001.59 982.858 1001.59C1008.05 1001.59 1030.48 970.116 1034.07 944.922C1037.66 919.729 1053.88 818.134 1060.16 787.634C1066.45 757.058 1047.6 714.82 1047.6 704.952C1047.6 695.084 1063.75 625.859 1079.98 604.254C1079.98 604.254 1050.3 606.945 1033.25 605.151C1033.25 605.151 1032.35 665.405 1014.33 703.158C1014.33 703.158 974.783 729.248 966.708 759.824C958.633 790.4 957.736 817.387 957.736 817.387C957.736 817.387 921.774 744.573 898.373 719.38C874.971 694.187 837.215 618.682 832.729 592.592C828.243 566.502 787.346 478.288 768.206 475.522C749.066 472.756 676.693 531.291 697.553 573.753L697.628 573.604Z" fill="#967CFF"/>
<path d="M1118.93 541.532C1118.93 541.532 1132.69 525.011 1135.9 525.011C1139.12 525.011 1124.31 561.044 1115.12 561.791C1115.12 561.791 1115.79 549.082 1118.86 541.532H1118.93Z" fill="#823658"/>
<path d="M1097.55 508.565L1087.98 519.853C1087.98 519.853 1088.13 497.501 1092.76 489.128C1092.76 489.128 1096.72 502.136 1097.55 508.565Z" fill="#823658"/>
<path d="M1292.61 839.739C1292.61 839.739 1269.43 867.1 1266.74 882.351C1264.05 897.601 1252.98 919.057 1252.98 919.057C1252.98 919.057 1259.19 885.491 1268.91 867.1C1278.63 848.71 1292.68 839.739 1292.68 839.739H1292.61Z" fill="#C05E4C"/>
<path d="M841.4 400.167C841.4 400.167 868.615 430.892 890.372 415.642C890.372 415.642 848.354 402.185 841.4 400.167Z" fill="white"/>
<path d="M920.728 206.022C920.728 206.022 894.41 108.165 846.859 135.975C846.859 135.975 876.093 133.433 907.644 213.647C907.644 213.647 917.961 206.396 920.728 206.022Z" fill="#864DFF"/>
<path d="M957.735 817.237C957.735 817.237 957.96 886.163 951.007 919.057C944.054 951.95 909.362 915.394 957.735 817.237Z" fill="#864DFF"/>
<path d="M471.387 750.479C471.387 750.479 609.329 743.452 638.786 698.373C668.244 653.295 471.387 750.479 471.387 750.479Z" fill="#864DFF"/>
<path d="M181.746 232.337C181.746 232.337 167.391 153.917 275.427 193.762C344.286 219.18 442.378 304.029 476.396 325.111C536.059 362.041 590.338 373.254 636.244 383.421C636.244 383.421 562.675 401.886 397.22 306.347C327.09 265.828 204.176 185.913 181.746 232.337Z" fill="#864DFF"/>
<path d="M808.504 352.695C808.504 352.695 820.84 317.933 844.092 304.552C844.092 304.552 848.503 308.289 848.503 312.326C848.503 312.326 829.662 314.046 808.504 352.621V352.695Z" fill="#312766" stroke="#312766" stroke-width="0.5" stroke-linecap="round" stroke-linejoin="round"/>
<path d="M863.525 352.621C865.396 351.408 864.747 347.083 862.076 342.96C859.404 338.836 855.72 336.476 853.849 337.689C851.978 338.901 852.627 343.226 855.299 347.35C857.971 351.473 861.654 353.833 863.525 352.621Z" fill="#33276A"/>
<path d="M762.373 162.363C762.373 162.363 775.233 161.093 802.373 191.369C829.512 221.646 844.017 256.109 844.017 256.109C844.017 256.109 779.943 182.922 751.981 182.473C730.822 182.099 714.299 205.947 714.299 205.947C714.299 205.947 730.822 155.635 762.373 162.363Z" fill="#864DFF"/>
<path d="M828.541 264.183C828.541 264.183 779.195 213.647 743.458 213.647C720.056 213.647 710.785 240.56 710.785 240.56C710.785 240.56 717.962 220.002 746.074 219.628C774.186 219.254 828.541 264.183 828.541 264.183Z" fill="#864DFF"/>
<path d="M224.662 315.317C224.662 315.317 24.5154 256.558 14.123 400.166C14.123 400.166 65.8605 311.504 224.662 315.317Z" fill="#864DFF"/>
<path d="M205.746 185.09C205.746 185.09 296.212 151.674 373.968 216.189C451.724 280.704 501.218 339.314 606.862 376.767L602.376 380.431C602.376 380.431 507.274 351.35 408.734 252.895C310.193 154.44 205.746 185.09 205.746 185.09Z" fill="#864DFF"/>
<path d="M797.588 424.239C797.588 424.239 753.028 410.184 741.738 410.035C730.449 409.885 772.467 436.499 797.588 424.239Z" fill="#823658"/>
<path d="M822.859 446.815C822.859 446.815 814.485 440.237 812.092 435.303C812.092 435.303 810.672 445.694 801.551 453.618C801.551 453.618 815.532 449.731 822.859 446.741V446.815Z" fill="#823658"/>
<path d="M437.369 767.224C437.369 767.224 383.986 851.401 383.986 874.052C383.986 896.704 477.742 1050.4 477.742 1050.4H770.822L606.563 930.793C606.563 930.793 534.115 771.411 437.369 767.149V767.224Z" fill="#470AA7"/>
<path d="M556.619 879.435L622.786 1050.4H683.571L556.619 879.435Z" fill="#330A74"/>
<path d="M437.37 767.225C437.37 767.225 491.35 758.777 556.62 848.486C556.62 848.486 435.127 801.314 418.08 799.221L437.37 767.3V767.225Z" fill="#330A74"/>
<path d="M428.547 553.194C428.547 553.194 373.295 584.368 394.603 618.607C394.603 618.607 402.977 572.482 428.547 553.194Z" fill="#864DFF"/>
<path d="M520.209 430.219C520.209 430.219 455.163 424.911 380.024 390.224C296.81 351.799 267.801 395.756 276.623 427.528C285.446 459.3 352.062 469.392 352.062 469.392C352.062 469.392 287.988 443.974 306.455 415.417C339.202 364.956 393.332 427.528 520.209 430.219Z" fill="#864DFF"/>
<path d="M454.192 549.307C454.192 549.307 307.577 583.995 205.747 577.192C103.916 570.389 18.6837 484.792 14.123 415.417C14.123 415.417 68.3277 571.51 224.662 567.623C380.996 563.735 454.192 549.307 454.192 549.307Z" fill="#441890"/>
</svg>
