<svg width="838" height="1261" viewBox="0 0 838 1261" fill="none" xmlns="http://www.w3.org/2000/svg">
<path d="M529.581 320.856C529.581 320.856 538.401 327.205 538.401 329.676C538.401 332.148 527.4 342.325 527.4 342.325L529.532 320.856H529.581Z" fill="#AA594F"/>
<path d="M415.066 487.904C415.066 487.904 442.544 484.754 458.245 490.279C473.947 495.803 497.5 542.908 509.276 559.385C521.052 575.862 533.603 591.564 537.529 601.014C537.529 601.014 514.752 572.76 514.752 557.059C514.752 541.357 519.452 512.28 517.901 497.403C516.351 482.525 502.2 469.149 502.975 445.597C503.751 422.045 521.052 414.194 519.453 398.492C517.853 382.791 516.981 376.297 516.981 376.297L540.921 372.42C540.921 372.42 538.304 387.492 538.304 399.268C538.304 399.268 560.305 428.296 561.081 445.597C561.856 462.898 565.006 510.778 576.782 535.106C588.559 559.433 594.035 625.39 582.259 644.241C570.482 663.093 552.407 670.944 535.93 668.569C519.453 666.195 458.197 628.54 444.046 602.613C429.895 576.686 404.017 502.103 415.017 487.953L415.066 487.904Z" fill="#804DFF"/>
<path d="M316.253 394.955C316.253 394.955 298.806 389.867 276.32 398.59C253.834 407.313 240.022 451.607 146.395 450.153C52.7667 448.699 105.009 395.003 176.15 373.923C176.15 373.923 52.7184 344.167 61.4415 303.508C70.1646 262.849 188.605 296.239 188.605 296.239C188.605 296.239 126.768 214.193 125.314 143.052C123.86 71.9101 147.8 82.0871 164.519 88.5809C181.239 95.1232 248.018 149.545 271.959 228.683C295.899 307.821 287.951 360.79 322.068 377.509C322.068 377.509 317.658 386.959 316.253 394.955Z" fill="#441890"/>
<path d="M310.05 393.841C310.05 393.841 304.38 384.245 277.144 407.265C226.405 450.153 151.58 454.37 117.512 447.197C117.512 447.197 148.721 456.017 176.441 451.801C238.181 442.399 267.452 417.684 274.721 411.529C295.947 393.55 310.05 393.792 310.05 393.792V393.841Z" fill="#441890"/>
<path d="M366.121 950.665C366.121 950.665 357.204 975.09 357.204 979.209C357.204 983.328 290.957 940.149 290.957 940.149C290.957 940.149 283.251 929.487 298.032 921.83C298.032 921.83 351.485 948.339 366.072 950.665H366.121Z" fill="url(#paint0_linear_9225_18)"/>
<path d="M394.712 363.213C394.712 363.213 411.915 379.205 419.766 380.417C427.617 381.628 446.323 380.126 455.967 368.931C455.967 368.931 452.332 384.342 445.984 394.567C445.984 394.567 472.832 411.48 476.466 416.617C480.101 421.754 444.191 443.805 439.345 449.232C434.498 454.66 427.859 474.868 430.282 488.486C430.282 488.486 417.585 489.988 409.443 493.623C409.443 493.623 415.793 476.419 416.665 465.855C416.665 465.855 390.689 474.917 377.41 474.917C364.132 474.917 347.849 466.145 352.356 447.73C356.863 429.315 394.615 363.213 394.615 363.213H394.712Z" fill="#CB6454"/>
<path d="M333.991 369.222C333.991 369.222 343.732 376.395 349.887 369.222C356.041 362.05 349.887 336.414 373.487 316.399C397.088 296.384 423.742 314.849 423.209 335.348C423.209 335.348 377.073 384.585 378.624 419.429C378.624 419.429 379.642 431.205 385.797 432.223C391.951 433.24 404.261 431.205 399.657 447.1C399.657 447.1 365.83 447.1 363.795 459.894C361.76 472.688 414.049 472.203 412.499 454.757C412.499 454.757 422.773 461.445 413.032 475.789C407.023 484.028 384.827 481.411 384.827 481.411C384.827 481.411 368.254 494.156 345.186 479.763C322.07 465.37 333.216 429.072 333.216 429.072C333.216 429.072 307.773 413.177 334.088 369.125L333.991 369.222Z" fill="#441890"/>
<path d="M604.454 287.758C604.454 287.758 598.832 275.691 596.069 271.523C593.307 267.356 564.909 262.8 560.257 254.416C555.604 246.081 553.762 227.52 550.031 218.7C546.299 209.88 539.369 207.118 541.695 202.902C544.022 198.685 562.583 201.981 564.424 217.295C566.266 232.609 566.75 245.015 572.76 244.142C578.769 243.27 586.765 210.752 584.002 204.695C581.24 198.637 553.617 176.393 556.525 166.652C559.433 156.912 579.835 184.728 584.923 188.945C590.012 193.161 596.99 203.774 596.99 210.752C596.99 210.752 599.752 197.765 597.911 193.112C596.069 188.46 577.509 176.393 573.777 171.789C570.045 167.137 571.015 158.85 579.786 164.617C588.606 170.384 608.088 175.472 608.088 186.619C608.088 197.765 604.841 211.189 604.841 211.189C604.841 211.189 604.356 188.46 602.078 185.649C599.801 182.838 582.112 170.335 582.112 170.335C582.112 170.335 584.439 161.515 595.1 166.604C605.762 171.692 615.988 177.75 615.988 185.649C615.988 193.548 610.899 207.942 613.225 209.299C615.551 210.655 617.054 199.364 617.054 195.342C617.054 191.319 600.77 181.288 600.77 181.288C600.77 181.288 597.959 172.71 604.55 174.6C611.189 176.49 623.547 185.746 624.226 191.368C624.904 196.989 620.639 214.532 620.446 225.146C620.203 235.807 620.882 258.148 623.111 266.192C625.34 274.237 628.006 282.96 628.006 282.96C628.006 282.96 608.185 286.256 604.454 287.758Z" fill="#BE6A5A"/>
<path d="M392.82 509.906C392.82 509.906 399.653 492.653 410.266 489.261C420.879 485.869 451.119 494.931 470.019 495.755C488.919 496.579 505.154 488.486 533.116 489.261C561.127 490.085 623.012 482.719 639.199 464.303C639.199 464.303 628.149 451.655 639.199 437.698C639.199 437.698 615.598 429.653 618.554 402.418C621.51 375.134 633.383 386.329 631.881 375.279C630.427 364.23 608.28 361.274 608.28 347.995C608.28 334.717 613.175 327.399 613.175 327.399L597.619 286.013C597.619 286.013 612.642 274.188 626.599 274.188C626.599 274.188 634.062 314.072 642.155 318.482C642.155 318.482 670.457 334.426 676.32 363.164C682.184 391.902 712.036 398.686 710.583 429.605C709.129 460.572 730.452 487.71 716.495 509.857C702.49 532.004 636.921 561.469 572.079 569.562C507.238 577.655 491.779 612.305 457.129 613.032C422.479 613.759 366.505 601.159 392.674 509.857L392.82 509.906Z" fill="#967CFF"/>
<path d="M513.296 581.29C513.538 553.957 503.264 589.383 502.586 557.834C501.907 526.286 392.82 509.954 392.82 509.954C392.82 509.954 374.792 549.257 371.449 594.907C369.801 617.103 359.333 624.711 353.421 632.756C353.421 632.756 321.049 646.18 327.543 667.842C334.036 689.504 476.804 723.961 476.756 687.857C476.756 623.839 512.811 636.342 513.296 581.29Z" fill="#967CFF"/>
<path d="M513.296 588.462C513.296 588.462 453.882 602.807 436.436 610.124C419.038 617.442 443.608 630.769 513.296 588.462Z" fill="#804DFF"/>
<path d="M385.068 607.604C385.068 607.604 440.702 647.39 452.818 663.819C464.933 680.247 420.203 671.621 385.068 607.604Z" fill="#804DFF"/>
<path d="M639.25 464.304C639.25 464.304 659.895 481.556 659.895 489.262C659.895 496.967 639.25 490.861 639.25 464.304Z" fill="#804DFF"/>
<path d="M602.13 282.959C602.13 282.959 614.391 274.769 625.343 274.236L623.841 269.002C623.841 269.002 609.012 268.033 598.205 275.254C598.205 275.254 601.016 280.439 602.13 282.959Z" fill="#AA594F"/>
<path d="M402.032 454.658C402.032 454.658 379.739 452.962 375.039 457.857C370.338 462.8 399.028 460.619 402.032 454.658Z" fill="#823658"/>
<path d="M411.963 392.239C411.963 392.239 410.607 388.993 406.827 388.702C403.047 388.411 390.883 402.271 391.077 406.196C391.27 410.122 407.069 402.513 412.012 392.191L411.963 392.239Z" fill="#FCF7FA"/>
<path d="M445.934 401.886C445.934 401.886 429.942 410.124 421.316 413.226C416.179 415.067 442.979 423.306 449.182 414.97C455.385 406.635 445.983 401.934 445.983 401.934L445.934 401.886Z" fill="#FCF7FA"/>
<path d="M400.721 378.769C392.918 384.245 388.024 395.342 384.68 404.55C385.455 392.968 386.57 381.773 394.082 371.693L400.721 378.769Z" fill="#441890"/>
<path d="M407.838 397.009C408.894 396.062 408.289 393.663 406.486 391.649C404.683 389.635 402.365 388.769 401.308 389.716C400.251 390.662 400.856 393.061 402.659 395.075C404.463 397.089 406.781 397.955 407.838 397.009Z" fill="#441890"/>
<path opacity="0.76" d="M377.703 387.492C377.703 387.492 407.41 418.41 427.231 419.718C447.052 421.027 440.364 404.744 421.706 389.915C408.476 379.399 392.968 369.076 389.188 368.446C382.985 367.38 369.416 379.592 377.703 387.492Z" fill="#FDF6F9"/>
<path d="M423.16 335.396C423.16 335.396 424.953 316.496 407.167 309.178C389.333 301.86 371.742 314.315 363.406 327.545C363.406 327.545 377.315 311.504 393.307 312.473C409.3 313.443 416.23 343.295 416.23 343.295L423.16 335.347V335.396Z" fill="#783DEF"/>
<path d="M446.033 394.615C446.033 394.615 474.19 416.907 474.626 419.088C475.062 421.269 459.457 434.063 459.457 434.063C459.457 434.063 479.181 420.978 476.516 416.616C476.516 416.616 462.413 402.126 446.033 394.566V394.615Z" fill="#E8796D"/>
<path d="M444.044 892.22C444.044 892.22 409.782 864.403 372.661 819.189C335.539 774.022 363.453 682.236 363.453 682.236C363.453 682.236 439.683 689.215 451.265 703.317C451.265 703.317 523.716 824.81 533.408 862.368C543.1 899.974 577.12 950.956 591.465 1001.94C605.761 1052.92 630.767 1107.39 639.296 1130.07C647.826 1152.75 664.157 1196.27 664.157 1196.27H546.929C546.929 1196.27 512.763 1106.95 521.826 1130.7C530.936 1154.45 444.044 892.172 444.044 892.172V892.22Z" fill="#30096E"/>
<path d="M361.514 802.517L431.057 958.903C408.377 918.244 363.404 901.185 363.404 901.185C363.404 901.185 348.139 944.704 351.677 975.865C353.518 991.954 363.404 1043.86 363.404 1043.86C363.404 1043.86 492.118 1087.33 525.654 1097.65C559.238 1107.97 419.959 726.578 419.959 726.578L361.466 802.469L361.514 802.517Z" fill="#441890"/>
<path d="M330.164 376.054C330.164 376.054 325.56 365.732 318.339 372.419C309.374 380.706 309.228 398.88 310.876 401.884C313.687 406.973 322.071 404.549 322.071 404.549C322.071 404.549 323.185 389.866 330.212 376.054H330.164Z" fill="#783DEF"/>
<path d="M315.574 381.094C315.574 381.094 294.832 375.182 287.902 356.621C280.876 337.866 229.991 170.722 182.692 132.922C135.442 95.1217 125.508 125.119 125.508 125.119C125.508 125.119 124.199 146.539 126.719 160.157C126.719 160.157 140.046 145.812 157.929 145.231C175.811 144.649 208.086 168.88 236.921 240.361C265.755 311.842 277.822 350.611 283.589 363.211C289.356 375.811 315.574 381.094 315.574 381.094Z" fill="#783DEF"/>
<path d="M354.486 350.709C354.486 350.709 365.341 333.602 379.88 330.113C394.418 326.624 404.595 358.221 404.595 358.221L397.762 368.107C397.762 368.107 385.114 338.109 377.796 336.219C370.479 334.329 354.438 350.709 354.438 350.709H354.486Z" fill="#783DEF"/>
<path d="M360.16 333.07C360.16 333.07 368.35 315.091 383.615 305.544C397.33 296.966 423.693 295.755 423.16 335.348C423.16 335.348 417.151 306.271 400.771 302.491C384.391 298.711 360.209 333.07 360.209 333.07H360.16Z" fill="#783DEF"/>
<path d="M382.691 477.388C382.691 477.388 365.341 485.238 351.675 476.128C338.009 467.017 343.679 431.107 343.679 431.107C343.679 431.107 326.039 418.216 326.669 404.55C326.669 404.55 340.529 430.816 349.64 431.446C349.64 431.446 344.939 467.647 357.83 475.498C370.721 483.348 382.691 477.388 382.691 477.388Z" fill="#783DEF"/>
<path d="M364.956 441.768C364.956 441.768 345.427 439.588 344.506 430.138C343.585 420.688 352.647 388.557 347.171 382.451C347.171 382.451 356.766 387.055 348.915 429.508C348.915 429.508 347.946 435.807 364.956 441.768Z" fill="#783DEF"/>
<path d="M431.059 958.903C431.059 958.903 474.723 1024.47 474.723 1033.53C474.723 1042.6 443.901 999.999 431.059 958.903Z" fill="#30096E"/>
<path d="M390.449 852.189C390.449 852.189 429.897 891.007 431.109 906.467C432.32 921.926 390.449 852.189 390.449 852.189Z" fill="#30096E"/>
<path d="M402.027 498.904C402.027 498.904 396.163 528.32 404.595 554.15C413.027 579.98 422.236 587.008 423.156 594.083C424.077 601.158 385.066 607.555 385.066 607.555L420.636 639.297C420.636 639.297 383.902 631.301 374.501 639.297C365.099 647.294 402.899 679.569 423.205 683.252C423.205 683.252 374.985 679.908 363.451 682.186C351.869 684.415 328.123 670.071 332.339 660.378C336.555 650.686 360.738 637.456 360.738 637.456C360.738 637.456 376.245 612.256 379.153 594.519C382.06 576.782 380.462 520.518 402.076 498.904H402.027Z" fill="#804DFF"/>
<path d="M279.322 904.578C278.692 904.093 272.441 900.604 272.441 900.604C272.441 900.604 258.096 913.301 256.497 929.148L259.211 931.522L262.845 936.175L256.11 941.506C254.51 943.202 249.906 946.497 248.404 948.242C235.998 962.392 221.508 997.866 225.676 1004.12C225.676 1004.12 233.478 994.28 237.112 995.346C262.846 929.439 272.926 915.676 279.613 906.322C279.662 905.983 279.807 904.965 279.274 904.578H279.322Z" fill="#30096E"/>
<path d="M300.11 919.795C300.11 919.795 295.457 917.421 293.422 915.627C285.959 909.037 279.611 906.42 279.611 906.42C279.611 906.42 279.611 906.323 279.611 906.274C267.301 915.191 264.975 936.224 225.673 1004.12C228.29 1004.89 232.942 1002.08 233.378 1001.99C234.396 1001.74 241.665 995.347 241.665 995.347C241.665 995.347 255.186 975.041 256.979 971.746C260.323 965.64 263.715 960.503 270.403 953.379C270.403 953.379 287.025 952.749 290.902 940.198C290.902 940.198 289.691 933.413 292.211 928.809C294.731 924.205 300.061 922.412 300.061 922.412C300.061 922.412 300.788 921.637 300.061 919.844L300.11 919.795Z" fill="#30096E"/>
<path d="M615.018 191.852C615.018 191.852 603.388 183.225 600.141 179.154C596.894 175.084 599.268 169.22 599.268 169.22C599.268 169.22 593.646 176.538 596.699 182.353C599.752 188.168 615.018 191.852 615.018 191.852Z" fill="#AA594F"/>
<path d="M605.958 208.862C605.958 208.862 607.46 191.174 606.83 188.363C606.2 185.552 601.451 183.42 601.451 183.42C601.451 183.42 606.394 204.549 605.958 208.862Z" fill="#AA594F"/>
<path d="M584.004 167.234C584.004 167.234 582.502 168.736 583.859 171.887C585.216 175.037 596.847 177.896 596.847 177.896L601.499 184.923C601.499 184.923 584.15 176.103 582.841 172.226C581.533 168.349 584.004 167.234 584.004 167.234Z" fill="#AA594F"/>
<path d="M519.888 372.857C519.888 372.857 517.126 353.084 513.007 345.233C508.888 337.383 518.919 314.121 520.809 302.442C521.875 295.948 534.233 273.607 541.017 260.862C544.991 253.399 551.97 262.558 543.732 275.449C535.493 288.34 530.017 304.72 530.017 309.323C530.017 313.927 530.55 337.237 530.55 337.237C530.55 337.237 536.947 322.36 536.026 314.073C535.106 305.786 537.577 289.599 543.925 291.926C550.613 294.349 544.119 327.593 542.762 333.554C541.405 339.515 550.274 362.292 536.898 372.42L519.888 372.857Z" fill="#BE6A5A"/>
<path d="M521.004 312.911C521.004 312.911 516.4 308.694 511.554 310.391C506.708 312.087 509.616 325.608 509.616 325.608C509.616 325.608 505.545 328.128 505.545 332.925C505.545 337.723 516.109 357.835 519.889 372.809C519.889 372.809 526.674 354.152 525.657 342.036C524.639 329.921 520.955 312.862 520.955 312.862L521.004 312.911Z" fill="#BE6A5A"/>
<path d="M519.402 370.967L520.323 375.716L536.703 373.051L536.897 372.421L519.402 370.967Z" fill="#AA594F"/>
<path d="M522.266 156.862L570.921 253.785L609.158 236.775L562.828 128.027L522.266 156.862Z" fill="#441890"/>
<path d="M529.289 158.85L573.098 247.874L602.126 234.692L560.741 135.249L529.289 158.85Z" fill="#E5DAFF"/>
<path d="M583.76 237.163C586.33 237.163 588.412 234.863 588.412 232.026C588.412 229.189 586.33 226.889 583.76 226.889C581.191 226.889 579.107 229.189 579.107 232.026C579.107 234.863 581.191 237.163 583.76 237.163Z" fill="#FE695D"/>
<path d="M542.328 177.023L548.24 188.799L572.859 174.6L566.704 160.4L542.328 177.023Z" fill="white"/>
<path d="M550.613 193.065L554.878 202.418L574.457 190.109L569.61 180.756L550.613 193.065Z" fill="white"/>
<path d="M557.301 206.44L561.856 214.727L583.81 202.709L579.012 192.774L557.301 206.44Z" fill="white"/>
<path d="M149.301 87.6113C193.062 97.8367 236.435 123.57 259.066 163.502C281.165 203.192 295.267 248.407 297.545 293.864C299.968 323.086 297.981 356.186 315.572 381.095C305.25 369.755 301.664 353.956 298.805 339.321C294.782 316.98 294.54 294.106 291.633 271.717C284.848 234.983 273.459 198.443 255.286 165.731C233.091 126.235 191.899 100.454 149.301 87.6113Z" fill="#441890"/>
<path d="M529.289 158.85L536.655 174.018L568.446 153.955L560.741 135.249L529.289 158.85Z" fill="#967CFF"/>
<defs>
<linearGradient id="paint0_linear_9225_18" x1="288.97" y1="950.665" x2="366.121" y2="950.665" gradientUnits="userSpaceOnUse">
<stop stop-color="#F2F9FA"/>
<stop offset="1" stop-color="#F8F5F9"/>
</linearGradient>
</defs>
</svg>
