<svg width="1070" height="1443" viewBox="0 0 1070 1443" fill="none" xmlns="http://www.w3.org/2000/svg">
<g clip-path="url(#clip0_9225_19)">
<path opacity="0.4" d="M938.355 104.283L725.507 128.308C699.655 131.226 681.065 154.548 683.983 180.399L700.001 322.314C702.919 348.165 726.241 366.756 752.092 363.839L964.941 339.813C990.792 336.895 1009.38 313.573 1006.46 287.722L990.446 145.807C987.528 119.956 964.206 101.365 938.355 104.283Z" fill="#6ED8DE"/>
<path d="M453.005 530.545L396.499 473.748C375.563 452.667 341.349 452.57 320.268 473.554L263.423 530.06L259.982 526.62L316.828 470.113C339.799 447.288 377.066 447.385 399.891 470.355L456.397 527.153L452.956 530.593L453.005 530.545Z" fill="#6ED8DE"/>
<path d="M466.428 506.751H249.998C210.493 506.751 178.469 538.776 178.469 578.28V695.509C178.469 735.013 210.493 767.038 249.998 767.038H466.428C505.932 767.038 537.957 735.013 537.957 695.509V578.28C537.957 538.776 505.932 506.751 466.428 506.751Z" fill="#6ED8DE"/>
<path d="M460.467 521.096H255.959C221.299 521.096 193.201 549.193 193.201 583.854V689.936C193.201 724.596 221.299 752.694 255.959 752.694H460.467C495.127 752.694 523.225 724.596 523.225 689.936V583.854C523.225 549.193 495.127 521.096 460.467 521.096Z" fill="url(#paint0_linear_9225_19)"/>
<path d="M768.538 222.766L718.913 159.863C709.996 148.571 697.203 141.399 682.906 139.702C668.61 138.006 654.508 141.98 643.216 150.897L580.313 200.522L577.309 196.693L640.212 147.069C652.521 137.376 667.883 133.015 683.488 134.856C699.044 136.698 713.001 144.5 722.693 156.809L772.318 219.712L768.49 222.717L768.538 222.766Z" fill="#6ED8DE"/>
<path d="M821.776 214.709L523.931 182.878C500.325 180.356 479.143 197.447 476.621 221.053L455.084 422.572C452.562 446.177 469.653 467.359 493.259 469.881L791.104 501.712C814.71 504.235 835.891 487.143 838.414 463.538L859.95 262.019C862.473 238.413 845.382 217.232 821.776 214.709Z" fill="#6ED8DE"/>
<path d="M809.99 248.394L528.24 218.284C519.324 217.331 511.324 223.786 510.372 232.701L490.535 418.319C489.582 427.234 496.037 435.234 504.952 436.186L786.703 466.297C795.618 467.25 803.618 460.795 804.571 451.879L824.408 266.262C825.361 257.347 818.906 249.347 809.99 248.394Z" fill="url(#paint1_linear_9225_19)"/>
<path d="M598.922 359.136C598.922 359.136 612.346 328.121 620.536 322.596L579.053 316.49L618.21 299.528L728.072 311.256L708.203 335.148L678.399 329.284C678.399 329.284 686.008 348.572 682.47 367.859L598.922 359.088V359.136Z" fill="#582BBC"/>
<path d="M706.412 320.9L711.064 379.878C711.064 379.878 708.738 405.902 708.738 411.766C708.738 417.63 714.02 420.537 714.02 420.537C714.02 420.537 720.417 410.118 720.902 402.51C721.387 394.901 713.681 379.878 713.681 379.878L708.254 320.9H706.46H706.412Z" fill="#582BBC"/>
<path d="M300.253 641.861C300.253 641.861 282.806 636.772 260.32 645.495C237.834 654.218 224.022 698.512 130.395 697.058C36.7667 695.604 89.0084 641.909 160.15 620.828C160.15 620.828 36.7184 591.073 45.4415 550.413C54.1646 509.754 172.605 543.144 172.605 543.144C172.605 543.144 110.768 461.099 109.314 389.957C107.86 318.815 131.8 328.992 148.519 335.486C165.239 342.028 232.019 396.451 255.959 475.589C279.899 554.727 271.951 607.695 306.068 624.414C306.068 624.414 301.658 633.864 300.253 641.861Z" fill="#441890"/>
<path d="M294.05 640.747C294.05 640.747 288.38 631.152 261.144 654.171C210.405 697.06 135.58 701.276 101.512 694.103C101.512 694.103 132.721 702.923 160.441 698.707C222.181 689.306 251.452 664.59 258.721 658.436C279.947 640.456 294.05 640.699 294.05 640.699V640.747Z" fill="#441890"/>
<path d="M350.074 1197.57C350.074 1197.57 341.157 1221.99 341.157 1226.11C341.157 1230.23 274.91 1187.05 274.91 1187.05C274.91 1187.05 267.205 1176.39 281.985 1168.73C281.985 1168.73 335.438 1195.24 350.025 1197.57H350.074Z" fill="url(#paint2_linear_9225_19)"/>
<path d="M768.149 430.133C765.338 435.755 760.831 450.972 760.734 453.637C760.734 453.637 758.941 461.924 761.316 462.457C763.69 462.991 769.7 462.312 770.669 457.175C771.638 451.99 778.326 432.363 787.97 433.187C797.614 434.01 780.555 457.902 779.198 461.924C777.841 465.947 774.837 472.634 772.365 475.445C758.99 490.711 750.412 487.464 745.033 493.23C739.654 498.997 729.428 514.651 729.428 514.651L711.158 503.601C711.158 503.601 721.674 488.772 722.353 484.411C723.031 480.049 727.781 456.109 729.041 446.223C730.301 436.337 745.954 428.098 750.897 423.543C755.84 418.987 763.351 407.453 768.731 408.907C772.704 409.973 769.845 418.987 764.078 425.578C758.311 432.169 748.813 442.346 749.249 445.641C749.685 448.937 759.911 432.896 762.431 422.913C762.431 422.913 766.55 412.348 769.554 407.502C772.559 402.656 776.581 403.237 777.744 405.515C778.908 407.793 777.066 412.3 774.207 417.485C771.348 422.67 769.7 427.129 768.198 430.133H768.149Z" fill="#BE6A5A"/>
<path d="M391.361 737.767C391.361 737.767 428.337 715.087 451.017 705.007C473.697 694.927 537.569 666.286 549.345 649.082C561.121 631.878 575.805 601.687 593.882 597.422C611.958 593.157 652.52 573.191 655.864 554.727C659.208 536.263 681.888 536.263 681.888 536.263C681.888 536.263 712.37 499.966 714.066 493.229C714.066 493.229 732.53 496.234 737.619 512.808C737.619 512.808 707.96 543.824 705.44 553.904C705.44 553.904 720.027 560.93 704.471 575.421C688.915 589.911 648.546 619.327 644.378 643.654C640.162 668.031 582.735 696.962 564.562 709.174C546.389 721.387 529.282 764.615 510.77 773.047C492.306 781.431 434.298 829.359 415.834 819.279C397.37 809.199 366.015 758.557 391.457 737.767H391.361Z" fill="#804DFF"/>
<path d="M378.713 610.117C378.713 610.117 395.917 626.11 403.767 627.321C411.618 628.533 430.324 627.03 439.968 615.836C439.968 615.836 436.333 631.246 429.985 641.472C429.985 641.472 456.833 658.385 460.468 663.522C464.102 668.659 428.192 690.709 423.346 696.137C418.5 701.564 411.86 721.773 414.283 735.391C414.283 735.391 401.587 736.893 393.445 740.528C393.445 740.528 399.793 723.323 400.666 712.759C400.666 712.759 374.69 721.821 361.412 721.821C348.134 721.821 331.85 713.05 336.357 694.634C340.864 676.219 378.616 610.117 378.616 610.117H378.713Z" fill="#CB6454"/>
<path d="M317.945 616.13C317.945 616.13 327.686 623.302 333.841 616.13C339.995 608.957 333.841 583.321 357.441 563.306C381.042 543.292 407.696 561.756 407.163 582.255C407.163 582.255 361.028 631.492 362.578 666.336C362.578 666.336 363.596 678.112 369.751 679.13C375.905 680.147 388.214 678.112 383.611 694.007C383.611 694.007 349.785 694.007 347.749 706.801C345.714 719.595 398.004 719.11 396.453 701.664C396.453 701.664 406.727 708.352 396.986 722.697C390.977 730.935 368.781 728.318 368.781 728.318C368.781 728.318 352.207 741.063 329.14 726.67C306.024 712.277 317.17 675.98 317.17 675.98C317.17 675.98 291.727 660.084 318.042 616.033L317.945 616.13Z" fill="#441890"/>
<path d="M588.405 534.665C588.405 534.665 582.784 522.598 580.022 518.43C577.259 514.263 557.729 508.205 553.125 499.869C548.473 491.534 546.631 472.973 542.9 464.153C539.168 455.333 532.238 452.571 534.565 448.355C536.891 444.139 555.452 447.434 557.293 462.748C559.135 478.062 559.619 490.468 565.628 489.596C571.638 488.723 570.717 457.659 567.955 451.602C565.192 445.544 537.569 423.3 540.477 413.559C543.384 403.819 563.787 431.636 568.876 435.852C573.964 440.068 580.942 450.681 580.942 457.659C580.942 457.659 583.705 444.672 581.863 440.019C580.022 435.367 561.461 423.3 557.729 418.696C553.998 414.044 554.967 405.757 563.739 411.524C572.559 417.291 592.04 422.379 592.04 433.526C592.04 444.672 588.793 458.096 588.793 458.096C588.793 458.096 588.309 435.367 586.031 432.556C583.753 429.746 566.065 417.242 566.065 417.242C566.065 417.242 568.391 408.422 579.052 413.511C589.714 418.599 599.939 424.657 599.939 432.556C599.939 440.456 594.851 454.849 597.177 456.206C599.503 457.563 601.006 446.271 601.006 442.249C601.006 438.226 584.722 428.195 584.722 428.195C584.722 428.195 581.912 419.617 588.502 421.507C595.142 423.397 607.499 432.653 608.178 438.275C608.856 443.896 604.592 461.439 604.398 472.053C604.155 482.714 604.834 505.055 607.063 513.1C609.293 521.144 611.958 529.867 611.958 529.867C611.958 529.867 592.137 533.163 588.405 534.665Z" fill="#BE6A5A"/>
<path d="M376.774 756.813C376.774 756.813 383.607 739.561 394.22 736.168C404.833 732.776 435.073 741.839 453.973 742.662C472.873 743.486 489.108 735.393 517.07 736.168C545.081 736.992 606.967 729.626 623.153 711.211C623.153 711.211 612.104 698.562 623.153 684.605C623.153 684.605 599.552 676.561 602.508 649.325C605.465 622.041 617.338 633.236 615.835 622.187C614.381 611.137 592.235 608.181 592.235 594.903C592.235 581.624 597.129 574.307 597.129 574.307L581.573 532.92C581.573 532.92 596.596 521.096 610.553 521.096C610.553 521.096 618.016 560.98 626.109 565.39C626.109 565.39 654.411 581.334 660.275 610.071C666.138 638.809 695.991 645.594 694.537 676.512C693.083 707.479 714.406 734.618 700.449 756.765C686.444 778.912 620.875 808.376 556.034 816.469C491.192 824.562 475.733 859.212 441.083 859.939C406.433 860.666 350.459 848.066 376.629 756.765L376.774 756.813Z" fill="#967CFF"/>
<path d="M497.297 828.147C497.539 800.815 487.265 836.24 486.587 804.692C485.908 773.143 376.822 756.812 376.822 756.812C376.822 756.812 358.794 796.114 355.45 841.765C353.802 863.96 343.335 871.568 337.422 879.613C337.422 879.613 305.05 893.037 311.544 914.7C318.037 936.362 460.806 970.818 460.757 934.714C460.757 870.696 496.812 883.199 497.297 828.147Z" fill="#967CFF"/>
<path d="M497.296 835.37C497.296 835.37 437.882 849.715 420.436 857.032C403.038 864.35 427.608 877.677 497.296 835.37Z" fill="#804DFF"/>
<path d="M369.068 854.511C369.068 854.511 424.702 894.298 436.818 910.726C448.933 927.155 404.203 918.529 369.068 854.511Z" fill="#804DFF"/>
<path d="M623.25 711.16C623.25 711.16 643.895 728.412 643.895 736.118C643.895 743.823 623.25 737.717 623.25 711.16Z" fill="#804DFF"/>
<path d="M588.842 458.143C588.842 458.143 590.683 444.574 591.798 440.067C592.864 435.56 592.331 428.533 586.661 425.238C580.991 421.942 573.867 418.453 573.867 418.453C573.867 418.453 588.503 422.475 593.785 428.436C599.067 434.397 588.842 458.143 588.842 458.143Z" fill="#AA594F"/>
<path d="M586.132 529.866C586.132 529.866 598.393 521.677 609.345 521.143L607.843 515.91C607.843 515.91 593.014 514.94 582.207 522.161C582.207 522.161 585.018 527.346 586.132 529.866Z" fill="#AA594F"/>
<path d="M386.032 701.565C386.032 701.565 363.739 699.869 359.039 704.764C354.338 709.707 383.027 707.526 386.032 701.565Z" fill="#823658"/>
<path d="M395.917 639.148C395.917 639.148 394.56 635.901 390.78 635.61C387 635.319 374.836 649.179 375.03 653.105C375.223 657.03 391.022 649.422 395.965 639.099L395.917 639.148Z" fill="#FCF7FA"/>
<path d="M429.935 648.792C429.935 648.792 413.943 657.03 405.317 660.132C400.18 661.974 426.98 670.212 433.183 661.877C439.386 653.541 429.984 648.841 429.984 648.841L429.935 648.792Z" fill="#FCF7FA"/>
<path d="M732.918 445.106C732.918 445.106 735.05 440.696 739.266 436.673C743.482 432.651 750.897 423.54 750.897 423.54C750.897 423.54 731.173 438.03 732.918 445.106Z" fill="#AA594F"/>
<path d="M384.721 625.674C376.919 631.15 372.025 642.248 368.681 651.456C369.456 639.873 370.571 628.679 378.082 618.599L384.721 625.674Z" fill="#441890"/>
<path d="M391.862 644.01C392.918 643.064 392.313 640.665 390.51 638.651C388.707 636.637 386.388 635.771 385.332 636.717C384.275 637.663 384.88 640.063 386.683 642.077C388.486 644.091 390.805 644.957 391.862 644.01Z" fill="#441890"/>
<path opacity="0.76" d="M361.704 634.399C361.704 634.399 391.411 665.317 411.232 666.626C431.052 667.934 424.365 651.651 405.707 636.822C392.477 626.306 376.969 615.983 373.189 615.353C366.986 614.287 353.417 626.5 361.704 634.399Z" fill="#FDF6F9"/>
<path d="M407.16 582.302C407.16 582.302 408.953 563.402 391.168 556.084C373.334 548.767 355.743 561.221 347.407 574.451C347.407 574.451 361.316 558.411 377.308 559.38C393.3 560.349 400.23 590.201 400.23 590.201L407.16 582.254V582.302Z" fill="#783DEF"/>
<path d="M429.986 641.474C429.986 641.474 458.143 663.767 458.579 665.947C459.015 668.128 443.41 680.922 443.41 680.922C443.41 680.922 463.134 667.837 460.469 663.476C460.469 663.476 446.366 648.986 429.986 641.426V641.474Z" fill="#E8796D"/>
<path d="M427.998 1139.08C427.998 1139.08 393.735 1111.26 356.614 1066.05C319.492 1020.88 347.406 929.094 347.406 929.094C347.406 929.094 423.636 936.072 435.218 950.175C435.218 950.175 507.669 1071.67 517.361 1109.23C527.053 1146.83 561.073 1197.81 575.418 1248.8C589.714 1299.78 614.72 1354.25 623.249 1376.93C631.779 1399.61 648.11 1443.13 648.11 1443.13H530.882C530.882 1443.13 496.716 1353.81 505.779 1377.56C514.889 1401.3 427.998 1139.03 427.998 1139.03V1139.08Z" fill="#30096E"/>
<path d="M345.52 1049.42L415.063 1205.81C392.382 1165.15 347.41 1148.09 347.41 1148.09C347.41 1148.09 332.145 1191.61 335.682 1222.77C337.524 1238.86 347.41 1290.76 347.41 1290.76C347.41 1290.76 476.124 1334.23 509.659 1344.56C543.243 1354.88 403.965 973.485 403.965 973.485L345.471 1049.38L345.52 1049.42Z" fill="#441890"/>
<path d="M314.164 622.961C314.164 622.961 309.56 612.639 302.339 619.327C293.374 627.614 293.228 645.787 294.876 648.791C297.687 653.88 306.071 651.457 306.071 651.457C306.071 651.457 307.185 636.773 314.212 622.961H314.164Z" fill="#783DEF"/>
<path d="M299.575 628.001C299.575 628.001 278.833 622.089 271.903 603.528C264.877 584.774 213.992 417.629 166.693 379.829C119.443 342.029 109.509 372.027 109.509 372.027C109.509 372.027 108.2 393.447 110.72 407.065C110.72 407.065 124.047 392.72 141.929 392.139C159.812 391.557 192.087 415.788 220.922 487.269C249.756 558.75 261.823 597.519 267.59 610.119C273.357 622.719 299.575 628.001 299.575 628.001Z" fill="#783DEF"/>
<path d="M338.493 597.615C338.493 597.615 349.348 580.508 363.887 577.019C378.425 573.53 388.602 605.127 388.602 605.127L381.769 615.013C381.769 615.013 369.121 585.015 361.803 583.125C354.485 581.235 338.444 597.615 338.444 597.615H338.493Z" fill="#783DEF"/>
<path d="M344.161 579.976C344.161 579.976 352.351 561.996 367.616 552.449C381.331 543.872 407.694 542.66 407.161 582.253C407.161 582.253 401.152 553.176 384.772 549.396C368.392 545.616 344.209 579.976 344.209 579.976H344.161Z" fill="#783DEF"/>
<path d="M366.692 724.295C366.692 724.295 349.343 732.145 335.677 723.035C322.011 713.924 327.681 678.014 327.681 678.014C327.681 678.014 310.041 665.123 310.671 651.457C310.671 651.457 324.531 677.723 333.642 678.353C333.642 678.353 328.941 714.554 341.832 722.405C354.722 730.256 366.692 724.295 366.692 724.295Z" fill="#783DEF"/>
<path d="M348.909 688.675C348.909 688.675 329.379 686.494 328.458 677.044C327.537 667.594 336.6 635.464 331.124 629.357C331.124 629.357 340.719 633.961 332.868 676.414C332.868 676.414 331.899 682.714 348.909 688.675Z" fill="#783DEF"/>
<path d="M415.061 1205.81C415.061 1205.81 458.724 1271.38 458.724 1280.44C458.724 1289.5 427.903 1246.91 415.061 1205.81Z" fill="#30096E"/>
<path d="M374.403 1099.1C374.403 1099.1 413.851 1137.92 415.063 1153.37C416.274 1168.83 374.403 1099.1 374.403 1099.1Z" fill="#30096E"/>
<path d="M717.461 494.101C717.461 494.101 727.493 496.087 734.81 506.7L741.449 497.541C741.449 497.541 734.132 489.933 720.369 489.061L717.461 494.052V494.101Z" fill="#AA594F"/>
<path d="M759.475 430.811C759.475 430.811 763.255 420.586 764.515 417.727C765.775 414.867 768.683 408.955 768.683 408.955C768.683 408.955 761.801 417.775 757.973 424.463C754.144 431.15 754.145 437.111 754.145 437.111L759.475 430.811Z" fill="#AA594F"/>
<path d="M386.029 745.811C386.029 745.811 380.165 775.227 388.598 801.057C397.03 826.887 406.238 833.914 407.159 840.989C408.079 848.065 369.068 854.462 369.068 854.462L404.638 886.204C404.638 886.204 367.904 878.208 358.503 886.204C349.101 894.2 386.901 926.476 407.207 930.159C407.207 930.159 358.988 926.815 347.454 929.092C335.871 931.322 312.125 916.977 316.341 907.285C320.557 897.592 344.74 884.362 344.74 884.362C344.74 884.362 360.248 859.162 363.155 841.426C366.063 823.689 364.464 767.424 386.078 745.811H386.029Z" fill="#804DFF"/>
<path d="M263.277 1151.48C262.647 1151 256.395 1147.51 256.395 1147.51C256.395 1147.51 242.05 1160.21 240.451 1176.05L243.165 1178.43L246.8 1183.08L240.063 1188.41C238.464 1190.11 233.86 1193.4 232.358 1195.15C219.952 1209.3 205.462 1244.77 209.63 1251.02C209.63 1251.02 217.432 1241.19 221.066 1242.25C246.8 1176.34 256.88 1162.58 263.567 1153.23C263.616 1152.89 263.761 1151.87 263.228 1151.48H263.277Z" fill="#30096E"/>
<path d="M284.117 1166.7C284.117 1166.7 279.464 1164.32 277.429 1162.53C269.966 1155.94 263.617 1153.32 263.617 1153.32C263.617 1153.32 263.617 1153.23 263.617 1153.18C251.308 1162.1 248.982 1183.13 209.68 1251.02C212.297 1251.8 216.949 1248.99 217.385 1248.89C218.403 1248.65 225.672 1242.25 225.672 1242.25C225.672 1242.25 239.193 1221.95 240.986 1218.65C244.33 1212.54 247.722 1207.41 254.41 1200.28C254.41 1200.28 271.032 1199.65 274.909 1187.1C274.909 1187.1 273.697 1180.32 276.217 1175.71C278.737 1171.11 284.068 1169.32 284.068 1169.32C284.068 1169.32 284.795 1168.54 284.068 1166.75L284.117 1166.7Z" fill="#30096E"/>
</g>
<defs>
<linearGradient id="paint0_linear_9225_19" x1="193.201" y1="636.871" x2="523.225" y2="636.871" gradientUnits="userSpaceOnUse">
<stop stop-color="#F2F9FA"/>
<stop offset="1" stop-color="#F8F5F9"/>
</linearGradient>
<linearGradient id="paint1_linear_9225_19" x1="490.493" y1="342.211" x2="824.539" y2="342.211" gradientUnits="userSpaceOnUse">
<stop stop-color="#F2F9FA"/>
<stop offset="1" stop-color="#F8F5F9"/>
</linearGradient>
<linearGradient id="paint2_linear_9225_19" x1="272.923" y1="1197.57" x2="350.074" y2="1197.57" gradientUnits="userSpaceOnUse">
<stop stop-color="#F2F9FA"/>
<stop offset="1" stop-color="#F8F5F9"/>
</linearGradient>
<clipPath id="clip0_9225_19">
<rect width="1070" height="1443" fill="white"/>
</clipPath>
</defs>
</svg>
