<svg width="2197" height="1256" viewBox="0 0 2197 1256" fill="none" xmlns="http://www.w3.org/2000/svg">
<path d="M1997 1115.87L1909.94 1083L1894 1105.99L1983.72 1154L1997 1115.87Z" fill="#D1C7FF"/>
<path d="M1180.29 738.473C1180.29 738.473 1219.98 751.32 1245.58 751.32C1271.18 751.32 1417.11 735.918 1472.17 733.362C1527.23 730.807 1675.71 742.341 1698.76 750.043C1721.81 757.744 1717.95 788.55 1708.99 805.195C1700.03 821.84 1650.1 889.875 1607.86 929.66C1565.62 969.445 1509.28 1005.36 1483.68 1029.74C1458.08 1054.13 1426.07 1129.83 1349.26 1176C1349.26 1176 1331.34 1176 1292.93 1159.32C1254.51 1142.64 1208.44 1134.94 1208.44 1134.94C1208.44 1134.94 1225.08 1095.15 1244.27 1073.36C1263.46 1051.57 1314.67 1023.32 1335.17 1016.9C1355.64 1010.47 1478.54 937.362 1492.64 929.66C1506.73 921.959 1561.76 855.237 1561.76 855.237C1561.76 855.237 1162.37 806.473 1147 797.494C1131.63 788.515 1180.29 738.473 1180.29 738.473Z" fill="#390A84"/>
<path d="M1252.49 1137C1252.49 1137 1225.33 1164.07 1217 1169.36C1217 1169.36 1238.88 1172.37 1251.73 1175.37C1264.56 1178.38 1299.29 1194.17 1309.86 1198.68C1320.42 1203.19 1365.67 1212 1378.5 1212C1391.33 1212 1367.22 1203.95 1367.22 1203.95C1367.22 1203.95 1334 1192 1317 1185C1309.86 1182.06 1286.47 1164.09 1286.47 1164.09L1287.56 1153.23L1252.51 1137H1252.49Z" fill="#390A84"/>
<path d="M962.035 854.458C962.035 854.458 981.254 887.773 1000.51 901.879C1019.73 915.985 1088.94 933.919 1129.96 935.195C1170.99 936.471 1291.47 949.301 1324.8 955.68C1358.13 962.06 1465.82 969.786 1499.12 969.786C1532.41 969.786 1540.14 978.753 1540.14 978.753C1540.14 978.753 1615.77 1009.52 1650.38 1024.86C1684.99 1040.24 1761.89 1082.53 1790.08 1100.46C1818.27 1118.39 1851.6 1149.16 1860.57 1150.43C1869.54 1151.71 1909.29 1150.43 1920.82 1150.43C1920.82 1150.43 1982.33 1094.05 1999 1092.77C1999 1092.77 1959.25 1058.18 1927.23 1037.69C1895.18 1017.21 1869.54 985.168 1843.91 967.234C1818.27 949.301 1715.73 866.012 1693.92 854.494C1672.11 842.975 1659.31 836.56 1614.46 832.697C1569.61 828.834 1460.64 823.73 1437.56 823.73C1414.48 823.73 1206.84 813.488 1138.9 784L962 854.458H962.035Z" fill="#470AA7"/>
<path d="M962.035 854.458C962.035 854.458 981.254 887.773 1000.51 901.879C1019.73 915.985 1088.94 933.919 1129.96 935.195C1170.99 936.471 1291.47 949.301 1324.8 955.68C1358.13 962.06 1465.82 969.786 1499.12 969.786C1532.41 969.786 1540.14 978.753 1540.14 978.753C1540.14 978.753 1615.77 1009.52 1650.38 1024.86C1684.99 1040.24 1761.89 1082.53 1790.08 1100.46C1818.27 1118.39 1851.6 1149.16 1860.57 1150.43C1869.54 1151.71 1909.29 1150.43 1920.82 1150.43C1920.82 1150.43 1982.33 1094.05 1999 1092.77C1999 1092.77 1959.25 1058.18 1927.23 1037.69C1895.18 1017.21 1869.54 985.168 1843.91 967.234C1818.27 949.301 1715.73 866.012 1693.92 854.494C1672.11 842.975 1659.31 836.56 1614.46 832.697C1569.61 828.834 1460.64 823.73 1437.56 823.73C1414.48 823.73 1206.84 813.488 1138.9 784L962 854.458H962.035Z" fill="url(#paint0_linear_9225_11)"/>
<path d="M940.682 433.438C940.682 433.438 993.489 438.08 1025.12 446.335C1071.23 458.347 1088.44 478.012 1123.65 487.401C1158.85 496.79 1260.89 530.805 1294.89 530.805C1294.89 530.805 1341.82 475.637 1371.14 460.402C1400.47 445.166 1403.97 402.896 1449.73 402.896C1495.49 402.896 1497.83 401.727 1508.38 399.388C1518.94 397.05 1552.94 363 1552.94 363L1567 392.337C1567 392.337 1525.95 413.455 1516.57 427.557C1516.57 427.557 1504.84 493.283 1469.64 528.466C1434.43 563.65 1380.49 602.377 1360.55 622.325C1340.61 642.273 1319.5 681 1279.62 681C1239.74 681 1045.66 559.079 1016.37 534.419C987.043 509.794 886.706 527.262 940.682 433.403V433.438Z" fill="#967CFF"/>
<path d="M827.149 437.558C827.149 437.558 758.448 468.859 726.772 478.253C695.096 487.647 687.16 513.773 656.653 568.931C626.147 624.125 581.113 601.58 561.165 628.592C541.218 655.604 463.764 803.496 504.829 859.86C545.894 916.223 642.126 917.393 677.31 906.83C712.528 896.266 778.218 922.108 794.659 895.096C794.659 895.096 845.113 872.799 880.332 872.799L870.943 844.617C870.943 844.617 812.268 857.52 793.489 858.69C793.489 858.69 786.438 842.242 767.66 841.072C748.881 839.902 728.933 839.902 728.933 839.902C728.933 839.902 723.052 801.157 697.258 799.987C697.258 799.987 734.815 778.859 751.22 756.562C767.66 734.265 795.792 718.986 795.792 718.986C795.792 718.986 826.37 733.927 880.332 748C880.332 748 909.598 869.254 942.443 869.254C975.288 869.254 1039.84 863.369 1117.26 814.06C1194.71 764.751 1244 709.592 1244 691.974C1244 674.356 1182.99 675.526 1159.53 676.696C1136.08 677.866 1139.58 637.95 1136.08 608.599C1132.57 579.247 1117.3 546.386 1083.28 535.822C1049.27 525.258 994.102 506.471 976.493 498.247C958.883 490.022 940.105 433.694 940.105 433.694C940.105 433.694 870.907 427.987 827.078 437.523L827.149 437.558Z" fill="#967CFF"/>
<path d="M697.965 799.909C697.965 799.909 623.325 803.577 597.157 797.463C570.989 791.349 565.28 769.229 594.888 770.021C624.495 770.776 698 799.909 698 799.909H697.965Z" fill="#864DFF"/>
<path d="M796 718.78C796 718.78 869.097 675 877.349 675C885.601 675 827 731 827 731L796 718.78Z" fill="#864DFF"/>
<path d="M962 474.035C962 474.035 1005.11 509.369 1034.59 519.08C1083.44 535.241 1099.06 553.528 1108.77 568.307C1113.34 575.253 1136.26 608 1136.26 608L1203 593.009C1203 593.009 1144.3 545.093 1105.69 526.558C1067.07 508.023 1041.6 520.852 962 474V474.035Z" fill="#864DFF"/>
<path d="M1294.5 531.604C1285 542.937 1264 565.604 1256 565.604C1246 565.604 1281 535.604 1294.5 531.604Z" fill="#864DFF"/>
<path opacity="0.72" d="M1155.94 565.087L982.671 652.271C938.67 674.411 920.948 728.028 943.088 772.029L979.05 843.502C1001.19 887.503 1054.81 905.225 1098.81 883.085L1272.08 795.902C1316.08 773.762 1333.8 720.144 1311.66 676.143L1275.7 604.671C1253.56 560.67 1199.94 542.948 1155.94 565.087Z" fill="#DFD7FF"/>
<path d="M864 851.922L887.545 843.87C887.545 843.87 900.333 808.242 908.383 795.452C916.433 782.661 943.433 761.783 958.037 756.51C975.242 750.311 992.411 747.71 993.765 752.413C995.118 757.116 970.897 765.203 964.2 767.199C957.503 769.194 930.574 786.01 929.898 793.421C929.221 800.831 954.76 777.281 964.841 773.932C974.922 770.583 1007.19 756.439 1015.28 757.116C1023.37 757.793 1016.63 771.901 1010.58 773.255C1004.52 774.609 972.25 790.072 972.25 790.072C972.25 790.072 1006.55 766.522 1010.58 766.522C1014.6 766.522 1015.28 782.661 1006.55 787.364C997.826 792.067 962.846 814.94 959.498 819.643C956.15 824.346 967.548 820.32 971.609 818.966C975.669 817.612 1000.53 798.124 1007.91 798.124C1015.28 798.124 1015.96 806.176 1005.88 811.555C995.795 816.935 954.119 841.804 941.332 849.214C928.544 856.625 874.757 864 874.757 864L864 851.886V851.922Z" fill="#CB6454"/>
<path d="M1596 183C1740.59 183 1858 299.959 1858 444H1596V183Z" fill="#CCB5FF"/>
<path d="M1556.04 371.5C1556.04 371.5 1562.02 367.478 1565.63 361.749C1569.24 356.02 1579.12 328.371 1583.79 319.51C1588.46 310.649 1630.27 281.683 1637.53 285.313C1644.79 288.943 1624.29 318.336 1595.76 332.427L1595.93 391.463C1595.93 391.463 1582.8 393.918 1575.47 388.331L1565.38 390.182L1556 371.464L1556.04 371.5Z" fill="#CB6454"/>
<path d="M891.593 206.387C891.593 206.387 927.882 283.105 943.734 288.728C959.585 294.352 913.132 210.879 902.931 200.728C892.731 190.577 889.532 198.818 891.593 206.352V206.387Z" fill="white"/>
<path d="M842.765 208C842.765 208 875.114 239.291 889.459 250.5C903.805 261.709 940.857 243.025 947 242C942 252 929.619 271.996 926.566 274.047C926.566 274.047 959.524 323.883 957.5 330C919 345.5 902.775 364.177 889.459 374.396C876.144 384.615 863.858 433.516 863.858 447.766L884.311 460C884.311 460 842.34 458.974 827 454.908C811.66 450.842 803.458 447.766 803.458 447.766C803.458 447.766 836.197 437.582 832.113 398.829H788.118C766.636 398.829 725.694 385.569 709.325 382.528C692.956 379.488 719.551 305.057 719.551 305.057L856.685 197.035L842.765 208Z" fill="#CB6454"/>
<path d="M726.556 274.036C726.556 274.036 661.222 348.559 626.5 346.504C539.624 341.362 495 249.633 451.827 208.656C378.5 139.058 313.967 139.2 271.06 160.639C228.154 182.078 262.876 243.383 262.876 243.383C262.876 243.383 125.015 252.562 83.1363 289.345C41.2573 326.128 73.9597 425.209 263.903 418.051C263.903 418.051 183.228 457.881 191.377 517.132C199.526 576.382 260.821 590.663 340.469 587.615C420.117 584.568 474 517.132 474 517.132C474 517.132 439.5 581 489.5 587.615C536.5 601.5 692.826 483.396 718.336 443.565C743.846 403.734 747.956 394.521 747.956 394.521C747.956 394.521 812.298 439.454 831.714 398.596L820.482 373.046C820.482 373.046 808.223 386.335 787.815 386.335C767.407 386.335 713.269 371.026 719.399 350.579C725.528 330.132 805.176 346.504 805.176 346.504C805.176 346.504 809.251 293.385 786.788 269.89C786.788 269.89 896.091 179.527 932.868 139.058C956.465 113.083 961 85.2651 961 85.2651C961 85.2651 914.657 50.8208 885.072 57.979C855.488 65.1372 847.658 112.055 847.658 112.055C847.658 112.055 820.444 69.4526 800.355 85.3991C782.746 99.3612 783.5 149 786.788 207C786.788 207 746.114 185.445 725.67 200.789C705.227 216.133 726.591 274.001 726.591 274.001L726.556 274.036Z" fill="#470AA7"/>
<path d="M483 221.5C499 252.3 526.334 294 538 311L549.5 328L538 317.5C523.5 292.437 487.8 234.348 461 202.5C434.2 170.652 367.834 159.563 338 158C324.167 156.667 304.8 153.5 338 151.5C379.5 149 463 183 483 221.5Z" fill="#470AA7"/>
<path d="M443.5 574.5C440.3 558.1 453.833 531 461 519.5L475.5 503.5C466.833 523 449.7 564.5 450.5 574.5C451.3 584.5 483.833 588 500 588.5C482.5 590.667 446.7 590.9 443.5 574.5Z" fill="#470AA7"/>
<path opacity="0.64" d="M841 241.015C841 241.015 860.513 282.904 886.188 306.521C906.409 325.111 929.109 324.58 926.843 304.255C924.577 283.93 877.158 227.453 870.358 221.823C863.559 216.193 842.133 217.291 841 241.015Z" fill="white"/>
<path d="M1596 281C1596 281 1581.92 311.396 1574.12 344.568C1569.65 363.61 1580.01 350.761 1580.01 350.761L1596 311.289V281.036V281Z" fill="#CB6454"/>
<path d="M797 359.074C797 359.074 755.261 350.289 746.998 355.838C738.734 361.386 784.146 369.246 797 359.074Z" fill="#823658"/>
<path d="M258.941 246.979C258.941 246.979 234.566 221.964 238.411 190.493C242.256 159.021 299.365 152 299.365 152L300 163.537C300 163.537 244.196 171.229 242.891 198.819C241.586 226.41 267.9 254 267.9 254L258.906 246.944L258.941 246.979Z" fill="#470AA7"/>
<path d="M72.2902 303C72.2902 303 59.408 326.955 65.7604 356.81C67.6058 365.518 74.6324 384.888 90.0343 395.16C126.055 419.186 187.272 424.979 264.636 418.582C342 412.184 342 394.556 342 394.556C342 394.556 315.242 422.065 243.698 417.658C243.698 417.658 111.256 426.934 80.2395 369.961C57.3497 327.879 72.2902 303.071 72.2902 303.071V303Z" fill="#470AA7"/>
<path d="M835 106.122C835 106.122 844.435 69.9183 855.361 59.5036C866.286 49.0889 908 59.9996 908 59.9996C908 59.9996 867.279 53.5523 857.347 65.4548C847.415 77.3574 840.463 121 840.463 121L835 106.122Z" fill="#470AA7"/>
<path d="M202 545.952C202 545.952 221.646 587.975 268.372 600.144C315.097 612.312 364.655 604.813 446 540.362C446 540.362 368.407 594.555 285.221 596.429C202.035 598.304 233.788 489 233.788 489L202 545.987V545.952Z" fill="#470AA7"/>
<path d="M788.5 111.104C788.5 111.104 797.014 97.7661 811.04 106.606C837.913 123.542 874.421 186.063 874.421 186.063L883.45 177.542C883.45 177.542 839.09 110.121 816.5 100.5C793.91 90.8785 788.5 111.104 788.5 111.104Z" fill="#864DFF"/>
<path d="M855 97.4561C855 97.4561 865.89 85.0753 876.354 79.6277C886.818 74.1801 949 105.981 949 105.981C949 105.981 943.183 121.864 935.805 130C935.805 130 875.219 97.4561 867.451 95.8997C859.682 94.3432 855.036 97.4561 855.036 97.4561H855Z" fill="#864DFF"/>
<path d="M769 473.968C769 473.968 847.38 490.016 880 469.76C880 469.76 822.41 468.37 805.764 453L769 473.968Z" fill="#864DFF"/>
<path d="M704 557C704 557 696.265 616.809 655.627 623.561C614.989 630.313 704 557 704 557Z" fill="#864DFF"/>
<path d="M637 894.388C637 894.388 677.848 877.942 710.533 880.216C743.219 882.453 767 893.642 767 893.642C767 893.642 739.509 896.626 706.081 895.88C672.654 895.134 637 894.388 637 894.388Z" fill="#864DFF"/>
<path d="M943 805C943 805 960.36 787.251 968.845 783.099C977.331 778.948 1010 774 1010 774C1010 774 973.477 785.348 964.603 792.164C955.728 798.98 943 805 943 805Z" fill="#823658"/>
<path d="M850 217C850 217 813.873 262.874 810.207 269.149C810.207 269.149 822.7 316.406 805.473 347C805.473 347 806.417 298.794 782 271L850 217Z" fill="#823658"/>
<path d="M1595.83 332L1586 389.425C1586 389.425 1591.63 391.589 1596 390.844L1595.83 332Z" fill="#823658"/>
<path d="M838 280C838 280 881.826 262.117 882.969 254.559C884.112 247.002 853.394 249.734 838 280Z" fill="white"/>
<path d="M929 299.34C929 299.34 881.915 295.132 877.463 301.629C873.011 308.126 901.468 320.086 929 299.34Z" fill="white"/>
<path d="M874.596 266.624C877.647 264.863 877.709 259.258 874.734 254.106C871.759 248.954 866.875 246.205 863.824 247.966C860.774 249.727 860.712 255.332 863.687 260.484C866.661 265.636 871.546 268.385 874.596 266.624Z" fill="#312B73"/>
<path d="M811.035 269C811.035 269 820.753 200.339 844.803 191L851 197.615C851 197.615 829.239 199.171 811 269H811.035Z" fill="#16133F"/>
<path d="M852 527.926C852 527.926 957.917 551.16 991.654 535.682C1025.35 520.205 852 527.926 852 527.926Z" fill="#864DFF"/>
<path d="M201 523.765C201 523.765 203.516 434.298 336 399C336 399 224.959 472.11 230.027 554C230.027 554 213.617 547.698 201 523.765Z" fill="#864DFF"/>
<path d="M81.4332 307.124C81.4332 307.124 178.376 236.636 337 268.078C337 268.078 173.318 270.589 95.262 360C95.262 360 68.8069 341.113 81.3978 307.124H81.4332Z" fill="#864DFF"/>
<path d="M1272 927.673C1272 927.673 1432.86 913.136 1455.58 917.993C1478.3 922.851 1335.35 932.53 1272 927.673Z" fill="#390A84"/>
<path d="M1646 963.523C1646 963.523 1775.79 941.173 1785.55 958.726C1795.27 976.28 1646 963.523 1646 963.523Z" fill="#390A84"/>
<path d="M1466 1017C1466 1017 1350 1037.91 1350 1050.76C1350 1063.61 1466 1017 1466 1017Z" fill="#1F0548"/>
<path d="M1544 826.754C1544 826.754 1637.62 811 1648.03 811C1658.43 811 1582.13 829 1582.13 829L1544 826.754Z" fill="#330A74"/>
<path d="M1960.02 1149.45C1960.02 1149.45 1978.28 1165 1982.15 1165C1986.01 1165 2010.64 1155.62 2020.66 1144.81C2030.69 1134 2061.55 1117.03 2082.39 1109.3C2103.22 1101.56 2129.46 1088.46 2131 1077.65C2131 1073.08 2079.3 1093.86 2049.98 1103.11C2020.66 1112.35 2012.94 1113.92 2012.94 1113.92L1994.66 1111.77C1994.66 1111.77 1982.66 1140.63 1960 1149.41L1960.02 1149.45Z" fill="#390A84"/>
<path d="M764.5 296C749.445 324.936 714.139 340.838 720.412 356C611.119 308.87 660.772 226.285 689 194.5C711.582 169.072 760.5 162 787 162V207.486C787 216 793.949 224.532 787 239C780.052 253.468 771.253 283.02 764.5 296Z" fill="#16133F"/>
<path d="M779.086 101.844L616.965 342.065L549.655 307.329L707.518 97.3092L779.086 101.844Z" fill="#16133F"/>
<path d="M712.647 103.19L631.215 316.347L617.208 342.082L705.734 211.001L769.5 107.001L712.647 103.19Z" fill="#7F57EB"/>
<path d="M781 162.104C768 162.104 742 166.104 733.5 169.604C761.5 173.604 779.333 194.937 784 201.603C784 196.003 781 169.77 781 162.104Z" fill="#7F57EB"/>
<path d="M739.5 325C703.1 332.6 673.667 318.167 663.5 310C673.5 330.5 706 351 720.5 356C714.9 348 730.833 332 739.5 325Z" fill="#7F57EB"/>
<path d="M665.883 267.207L653.383 248.207L655.383 246.207L667.883 267.207C676.883 323.707 667.883 362.707 659.383 377.707C675.383 389.307 680.883 405.207 689.383 433.207C679.883 442.707 657.383 444.707 653.383 442.707C648.383 440.207 636.341 414.707 656.383 377.707C674.528 344.207 671.019 294.707 665.883 267.207Z" fill="#FFE1A6"/>
<path d="M638.5 413.604C641.7 397.604 651.427 384.604 657.5 379.104C640 402.104 641 430.104 646 443.604H640.5C638.5 440.27 635.3 429.604 638.5 413.604Z" fill="#FFE1A6"/>
<path d="M776.5 264.004C783.3 245.204 786.333 221.104 787.5 209.104C782.5 167.703 783.5 135.604 788 111.104C792.042 102.018 801.274 100.554 815 102.603C829.4 106.603 873.166 174.671 874 183.504C809.5 133.004 791 179.604 791 208.104C791 230.904 783.833 253.671 776.5 264.004Z" fill="#864DFF"/>
<defs>
<linearGradient id="paint0_linear_9225_11" x1="1810" y1="910.5" x2="823" y2="916.5" gradientUnits="userSpaceOnUse">
<stop stop-color="#864DFF"/>
<stop offset="1" stop-color="#470AA7"/>
</linearGradient>
</defs>
</svg>
