<svg width="1952" height="1464" viewBox="0 0 1952 1464" fill="none" xmlns="http://www.w3.org/2000/svg">
<g clip-path="url(#clip0_9225_28)">
<path d="M1887.82 676.087C1887.82 350.743 1624.05 87 1298.67 87C973.288 87 709.516 350.743 709.516 676.087V1329.39H1887.82V676.087Z" fill="#F0E2FF"/>
<path d="M1305.39 1086.88C1538.78 1086.88 1727.97 897.705 1727.97 664.35C1727.97 430.994 1538.78 241.822 1305.39 241.822C1072.01 241.822 882.82 430.994 882.82 664.35C882.82 897.705 1072.01 1086.88 1305.39 1086.88Z" fill="white"/>
<mask id="mask0_9225_28" style="mask-type:luminance" maskUnits="userSpaceOnUse" x="1070" y="927" width="624" height="623">
<path d="M1382.03 1549.85C1553.97 1549.85 1693.35 1410.48 1693.35 1238.56C1693.35 1066.64 1553.97 927.271 1382.03 927.271C1210.09 927.271 1070.71 1066.64 1070.71 1238.56C1070.71 1410.48 1210.09 1549.85 1382.03 1549.85Z" fill="url(#paint0_linear_9225_28)"/>
</mask>
<g mask="url(#mask0_9225_28)">
<path opacity="0.48" fill-rule="evenodd" clip-rule="evenodd" d="M1225.25 1021.39C1127.9 1105.87 1117.51 1253.29 1201.99 1350.62C1286.48 1447.95 1433.92 1458.35 1531.26 1373.87C1628.61 1289.39 1639 1141.97 1554.51 1044.64C1470.03 947.306 1322.59 936.914 1225.25 1021.39ZM1224.13 1020.04C1126.03 1105.19 1115.57 1253.66 1200.65 1351.74C1285.81 1449.82 1434.29 1460.29 1532.38 1375.22C1630.47 1290.07 1640.94 1141.6 1555.86 1043.52C1470.7 945.437 1322.22 934.971 1224.13 1020.04ZM1446.55 1138.31C1479.3 1176.06 1475.26 1233.18 1437.51 1265.92L1439.82 1268.54C1479 1234.52 1483.19 1175.17 1449.17 1135.99L1446.55 1138.31ZM1361.32 1212.32C1353.24 1202.98 1354.22 1188.85 1363.56 1180.7C1372.91 1172.62 1387.04 1173.6 1395.19 1182.94C1403.26 1192.28 1402.29 1206.41 1392.95 1214.56C1383.6 1222.64 1369.47 1221.66 1361.32 1212.32ZM1357.36 1215.76C1347.34 1204.25 1348.61 1186.75 1360.12 1176.74C1371.64 1166.72 1389.13 1167.99 1399.15 1179.5C1409.17 1191.01 1407.9 1208.51 1396.38 1218.52C1384.87 1228.54 1367.38 1227.27 1357.36 1215.76ZM1453.28 1284.01C1405.58 1325.43 1333.36 1320.34 1291.94 1272.57C1250.52 1224.88 1255.6 1152.66 1303.38 1111.25L1302.26 1109.9C1253.81 1151.92 1248.65 1225.33 1290.67 1273.7C1332.68 1322.14 1406.1 1327.3 1454.48 1285.28L1453.36 1283.94L1453.28 1284.01ZM1506.51 1345.39C1588.08 1274.59 1596.83 1151.02 1526.03 1069.46C1455.22 987.899 1331.64 979.152 1250.07 1049.95L1246.63 1045.99C1330.44 973.246 1457.32 982.217 1529.99 1066.02C1602.74 1149.82 1593.76 1276.69 1509.95 1349.35C1426.14 1422.09 1299.26 1413.12 1226.59 1329.31L1230.55 1325.88C1301.36 1407.44 1424.95 1416.18 1506.51 1345.39ZM1425.02 1157.07C1447.45 1182.87 1444.68 1221.96 1418.81 1244.39C1393.02 1266.82 1353.92 1264.05 1331.49 1238.19L1327.53 1241.62C1351.82 1269.66 1394.29 1272.65 1422.33 1248.35C1450.37 1224.06 1453.36 1181.59 1429.06 1153.56C1404.76 1125.53 1362.29 1122.54 1334.25 1146.83L1337.69 1150.79C1363.49 1128.37 1402.59 1131.13 1425.02 1157V1157.07ZM1476.46 1310.7C1538.89 1256.5 1545.62 1161.93 1491.41 1099.51C1437.21 1037.09 1342.63 1030.36 1280.2 1084.56L1271 1073.94C1339.34 1014.66 1442.74 1021.99 1502.03 1090.24C1561.32 1158.57 1553.99 1261.96 1485.73 1321.24L1476.53 1310.63L1476.46 1310.7Z" fill="#804DFF"/>
</g>
<path opacity="0.32" d="M1146.67 587.798H1129.85C1098.34 587.798 1072.8 613.336 1072.8 644.838V661.658C1072.8 693.161 1098.34 718.698 1129.85 718.698H1146.67C1178.17 718.698 1203.71 693.161 1203.71 661.658V644.838C1203.71 613.336 1178.17 587.798 1146.67 587.798Z" fill="#F0E2FF"/>
<path d="M1097.62 636.988L1143.68 683.039L1210.22 616.505" stroke="#864DFF" stroke-width="15" stroke-linecap="round" stroke-linejoin="round"/>
<path opacity="0.23" d="M1423.23 396.793H1373.51C1312.93 396.793 1263.83 445.894 1263.83 506.462V556.176C1263.83 616.744 1312.93 665.845 1373.51 665.845H1423.23C1483.8 665.845 1532.91 616.744 1532.91 556.176V506.462C1532.91 445.894 1483.8 396.793 1423.23 396.793Z" fill="#B9EDEB"/>
<path d="M867.494 566.044C867.494 566.044 886.111 486.428 952.727 485.605C952.727 485.605 910.858 546.084 867.494 566.044Z" fill="#201A40"/>
<path d="M863.458 559.615C863.458 559.615 899.345 607.983 914.672 630.784C914.672 630.784 936.055 633.251 967.606 624.504C967.606 624.504 959.681 649.024 932.915 667.788C932.915 667.788 949.961 730.435 949.961 743.517C949.961 743.517 903.831 743.517 863.383 730.958C863.383 730.958 836.019 739.48 820.094 764.524C804.169 789.568 796.169 761.085 796.169 761.085C796.169 761.085 833.626 744.788 843.944 714.811C843.944 714.811 839.981 738.883 796.169 728.641C752.356 718.399 741.515 692.757 755.721 671.676C769.926 650.594 804.692 574.865 804.692 574.865L863.308 559.54L863.458 559.615Z" fill="#CB6454"/>
<path d="M1229.73 1234.82C1229.73 1234.82 1258.82 1258.59 1280.5 1262.86C1302.18 1267.12 1350.18 1251.64 1354.37 1234.82C1358.55 1218 1310.25 1248.8 1303.6 1249.18C1296.95 1249.55 1280.12 1246.63 1280.12 1246.63C1280.12 1246.63 1321.39 1202.6 1327.75 1194.53C1334.03 1186.45 1367.67 1152.89 1367.67 1143.09C1367.67 1133.3 1334.78 1159.54 1327.45 1169.71C1320.12 1179.88 1300.16 1206.79 1295.6 1206.79C1291.04 1206.79 1315.56 1171.43 1323.26 1158.49C1330.96 1145.56 1346.74 1111.62 1345.99 1107.73C1345.24 1103.85 1324.61 1119.25 1324.61 1119.25C1324.61 1119.25 1328.42 1108.18 1325.28 1107.06C1322.14 1105.94 1300.46 1130.76 1294.11 1143.69C1287.75 1156.63 1275.94 1189.52 1270.33 1193.41C1264.72 1197.29 1267.19 1159.84 1270.33 1148.93C1273.47 1138.09 1294.85 1103.1 1288.2 1098.54C1281.54 1093.98 1255.3 1133.15 1255.3 1155.58C1255.3 1178.01 1261.28 1210.53 1261.28 1215.46C1261.28 1220.39 1259.56 1223.83 1259.56 1223.83L1236.46 1220.32L1229.81 1234.67L1229.73 1234.82Z" fill="#DC7D6A"/>
<path d="M808.055 769.608C808.055 769.608 873.773 838.758 894.409 857.672C915.119 876.585 944.651 928.691 955.941 954.781C967.23 980.872 998.706 1046.51 1024.8 1059.07C1050.89 1071.63 1130.89 1113.04 1142.55 1132.78C1154.22 1152.59 1149.73 1166.94 1169.55 1179.5C1189.36 1192.06 1245.06 1219.05 1245.06 1219.05C1245.06 1219.05 1235.19 1239.76 1235.19 1253.21C1235.19 1253.21 1177.62 1215.46 1157.88 1212.77C1138.14 1210.08 1124.61 1238.86 1083.27 1231.68C1041.92 1224.51 989.734 1166.94 989.734 1166.94C989.734 1166.94 819.643 929.812 808.055 880.398C796.466 830.983 808.055 769.608 808.055 769.608Z" fill="#864DFF"/>
<path d="M716.767 667.489C716.767 667.489 711.384 617.626 716.767 606.861C722.151 596.096 741.365 585.854 753.402 585.854C753.402 585.854 720.954 548.625 743.833 491.585C766.636 434.546 787.645 441.124 794.897 443.591C802.149 446.058 830.934 477.83 830.934 477.83C830.934 477.83 856.728 424.977 883.793 413.016C910.858 401.054 940.839 443.068 952.802 485.68C952.802 485.68 924.017 495.921 867.569 566.118C867.569 566.118 844.84 622.56 812.99 627.345C812.99 627.345 842.896 657.92 829.14 686.776C829.14 686.776 804.542 674.74 775.084 677.207C745.702 679.6 749.29 692.234 766.711 707.26C784.131 722.286 841.177 733.649 844.167 715.035C844.167 715.035 842.373 736.64 818.373 739.032C794.374 741.424 752.954 713.839 744.505 694.028L716.917 667.639L716.767 667.489Z" fill="#441890"/>
<path d="M728.955 655.229L716.768 667.489C716.768 667.489 601.031 663.677 527.91 625.476C454.865 587.275 438.342 556.4 368.66 525.824C298.979 495.249 235.354 454.805 216.662 487.923C197.971 521.04 256.587 594.975 256.587 594.975C256.587 594.975 73.1129 546.532 48.4403 660.387C23.8425 774.168 186.906 871.053 460.397 832.777C460.397 832.777 405.22 868.437 426.454 898.19C447.687 927.943 604.844 914.338 631.984 877.781C659.124 841.225 698.226 767.664 703.31 739.032C708.394 710.4 730.525 684.085 741.515 679.002C752.506 673.918 728.805 655.229 728.805 655.229H728.955Z" fill="#441890"/>
<path d="M708.992 651.416C708.992 651.416 743.832 685.132 744.43 694.551C744.43 694.551 737.178 710.175 721.179 710.4C721.179 710.4 694.114 673.769 695.31 659.042C695.31 659.042 697.104 651.117 708.992 651.416Z" fill="#967CFF"/>
<path d="M892.316 616.655C892.316 616.655 858.746 642.969 858.746 648.95C858.746 654.557 898.97 628.167 898.97 628.167C898.97 628.167 897.101 619.944 892.316 616.58V616.655Z" fill="white"/>
<path opacity="0.4" d="M876.018 591.536C876.018 591.536 890.223 568.212 897.101 563.651C897.101 563.651 946.521 660.088 945.474 686.627C945.474 686.627 924.989 702.027 905.624 674.666C886.26 647.305 876.018 591.536 876.018 591.536Z" fill="white"/>
<path d="M800.28 754.955C800.28 754.955 784.655 748.601 759.683 754.955C734.637 761.309 668.544 841.898 652.394 855.803C636.245 869.707 585.629 919.047 561.181 944.614C536.733 970.181 456.659 1000.61 454.416 1030.06C454.416 1030.06 611.199 1208.28 662.488 1224.5C662.488 1224.5 657.105 1184.96 648.133 1172.4C648.133 1172.4 740.767 1119.32 758.711 1113.94C776.655 1108.56 804.542 1113.04 814.486 1097.79C824.355 1082.54 831.458 793.306 800.355 755.03L800.28 754.955Z" fill="#967CFF"/>
<path d="M799.907 1107.36C799.907 1107.36 773.141 954.258 769.477 927.57C765.814 900.881 741.889 841.973 741.889 841.973C741.889 841.973 715.646 1072.82 758.711 1113.94C758.711 1113.94 786.225 1109.53 799.982 1107.44L799.907 1107.36Z" fill="#864DFF"/>
<path d="M1072.8 895.275C1072.8 895.275 1084.91 858.419 1083.94 836.59C1082.97 814.761 1074.74 794.876 1081.02 766.767C1087.31 738.658 1101.36 713.39 1106.22 702.251C1111.08 691.113 1128.05 662.481 1138.22 664.424C1148.39 666.368 1131.42 716.306 1117.88 732.304C1104.35 748.302 1090.22 770.58 1093.14 792.932C1093.14 792.932 1102.33 765.272 1114 760.413C1125.66 755.553 1129.55 788.073 1129.55 788.073C1129.55 788.073 1146.07 773.047 1152.35 773.047C1158.63 773.047 1152.35 803.622 1152.35 803.622C1152.35 803.622 1169.32 790.016 1176.58 795.399C1183.83 800.781 1169.32 851.691 1154.74 852.588C1140.16 853.485 1150.86 821.041 1150.86 821.041C1150.86 821.041 1131.49 865.147 1120.28 865.147H1109.14L1097.02 900.059L1072.8 895.2V895.275Z" fill="#CB6454"/>
<path d="M729.628 853.187C729.628 853.187 751.459 888.248 757.74 919.721C764.02 951.193 799.085 1157.07 838.636 1191.24C878.187 1225.4 989.662 1281.17 1014.86 1281.17C1040.05 1281.17 1062.48 1249.7 1066.07 1224.51C1069.66 1199.31 1085.88 1097.72 1092.16 1067.22C1098.45 1036.64 1079.6 994.403 1079.6 984.535C1079.6 974.667 1095.75 905.442 1111.98 883.837C1111.98 883.837 1082.3 886.528 1065.25 884.734C1065.25 884.734 1064.35 944.988 1046.33 982.741C1046.33 982.741 1006.78 1008.83 998.708 1039.41C990.633 1069.98 989.736 1096.97 989.736 1096.97C989.736 1096.97 953.774 1024.16 930.373 998.963C906.971 973.77 869.215 898.265 864.729 872.175C860.243 846.085 819.346 757.871 800.206 755.105C781.066 752.339 708.693 810.874 729.553 853.336L729.628 853.187Z" fill="#967CFF"/>
<path d="M1150.93 821.116C1150.93 821.116 1164.69 804.594 1167.9 804.594C1171.12 804.594 1156.31 840.627 1147.12 841.375C1147.12 841.375 1147.79 828.666 1150.86 821.116H1150.93Z" fill="#823658"/>
<path d="M1129.55 788.148L1119.98 799.436C1119.98 799.436 1120.13 777.084 1124.76 768.711C1124.76 768.711 1128.72 781.719 1129.55 788.148Z" fill="#823658"/>
<path d="M1324.61 1119.32C1324.61 1119.32 1301.43 1146.68 1298.74 1161.93C1296.05 1177.18 1284.98 1198.64 1284.98 1198.64C1284.98 1198.64 1291.19 1165.07 1300.91 1146.68C1310.63 1128.29 1324.68 1119.32 1324.68 1119.32H1324.61Z" fill="#C05E4C"/>
<path d="M873.4 679.75C873.4 679.75 900.615 710.475 922.372 695.224C922.372 695.224 880.354 681.768 873.4 679.75Z" fill="white"/>
<path d="M952.728 485.605C952.728 485.605 926.41 387.748 878.859 415.558C878.859 415.558 908.093 413.016 939.644 493.231C939.644 493.231 949.961 485.979 952.728 485.605Z" fill="#864DFF"/>
<path d="M989.735 1096.82C989.735 1096.82 989.96 1165.75 983.007 1198.64C976.054 1231.53 941.362 1194.98 989.735 1096.82Z" fill="#864DFF"/>
<path d="M503.387 1030.06C503.387 1030.06 641.329 1023.03 670.786 977.956C700.244 932.878 503.387 1030.06 503.387 1030.06Z" fill="#864DFF"/>
<path d="M213.746 511.92C213.746 511.92 199.391 433.5 307.427 473.345C376.286 498.763 474.378 583.612 508.396 604.694C568.059 641.624 622.338 652.837 668.244 663.004C668.244 663.004 594.675 681.469 429.22 585.93C359.09 545.411 236.176 465.496 213.746 511.92Z" fill="#864DFF"/>
<path d="M1378.29 1238.56C1400.34 1238.56 1418.22 1220.69 1418.22 1198.64C1418.22 1176.59 1400.34 1158.72 1378.29 1158.72C1356.24 1158.72 1338.37 1176.59 1338.37 1198.64C1338.37 1220.69 1356.24 1238.56 1378.29 1238.56Z" fill="#864DFF"/>
<path d="M840.504 632.279C840.504 632.279 852.84 597.517 876.092 584.135C876.092 584.135 880.503 587.873 880.503 591.91C880.503 591.91 861.662 593.629 840.504 632.204V632.279Z" fill="#312766" stroke="#312766" stroke-width="0.5" stroke-linecap="round" stroke-linejoin="round"/>
<path d="M895.525 632.204C897.396 630.991 896.747 626.666 894.076 622.543C891.404 618.419 887.72 616.059 885.849 617.272C883.978 618.484 884.627 622.809 887.299 626.933C889.971 631.056 893.654 633.416 895.525 632.204Z" fill="#33276A"/>
<path d="M794.373 441.946C794.373 441.946 807.233 440.676 834.373 470.952C861.512 501.229 876.017 535.692 876.017 535.692C876.017 535.692 811.943 462.505 783.981 462.056C762.822 461.682 746.299 485.53 746.299 485.53C746.299 485.53 762.822 435.218 794.373 441.946Z" fill="#864DFF"/>
<path d="M860.541 543.766C860.541 543.766 811.195 493.23 775.458 493.23C752.056 493.23 742.785 520.143 742.785 520.143C742.785 520.143 749.962 499.585 778.074 499.211C806.186 498.837 860.541 543.766 860.541 543.766Z" fill="#864DFF"/>
<path d="M256.662 594.9C256.662 594.9 56.5154 536.141 46.123 679.749C46.123 679.749 97.8605 591.087 256.662 594.9Z" fill="#864DFF"/>
<path d="M237.746 464.673C237.746 464.673 328.212 431.257 405.968 495.772C483.724 560.287 533.218 618.897 638.862 656.35L634.376 660.014C634.376 660.014 539.274 630.933 440.734 532.478C342.193 434.023 237.746 464.673 237.746 464.673Z" fill="#864DFF"/>
<path d="M829.588 703.821C829.588 703.821 785.028 689.767 773.738 689.617C762.449 689.468 804.467 716.081 829.588 703.821Z" fill="#823658"/>
<path d="M854.859 726.398C854.859 726.398 846.485 719.82 844.092 714.886C844.092 714.886 842.672 725.277 833.551 733.201C833.551 733.201 847.532 729.314 854.859 726.324V726.398Z" fill="#823658"/>
<path d="M469.369 1046.81C469.369 1046.81 415.986 1130.98 415.986 1153.64C415.986 1176.29 509.742 1329.99 509.742 1329.99H802.822L638.563 1210.38C638.563 1210.38 566.115 1050.99 469.369 1046.73V1046.81Z" fill="#470AA7"/>
<path d="M588.619 1159.02L654.786 1329.99H715.571L588.619 1159.02Z" fill="#330A74"/>
<path d="M469.37 1046.81C469.37 1046.81 523.35 1038.36 588.62 1128.07C588.62 1128.07 467.127 1080.9 450.08 1078.8L469.37 1046.88V1046.81Z" fill="#330A74"/>
<path d="M460.547 832.777C460.547 832.777 405.295 863.951 426.603 898.19C426.603 898.19 434.977 852.065 460.547 832.777Z" fill="#864DFF"/>
<path d="M552.209 709.802C552.209 709.802 487.163 704.494 412.024 669.807C328.81 631.382 299.801 675.339 308.623 707.111C317.446 738.883 384.062 748.975 384.062 748.975C384.062 748.975 319.988 723.557 338.455 695C371.202 644.539 425.332 707.111 552.209 709.802Z" fill="#864DFF"/>
<path d="M486.192 828.89C486.192 828.89 339.577 863.578 237.747 856.775C135.916 849.972 50.6837 764.375 46.123 695C46.123 695 100.328 851.093 256.662 847.206C412.996 843.318 486.192 828.89 486.192 828.89Z" fill="#441890"/>
<path d="M1309.58 494.8L1398.25 583.462L1526.25 455.403" stroke="#6FCBD1" stroke-width="25" stroke-linecap="round" stroke-linejoin="round"/>
</g>
<defs>
<linearGradient id="paint0_linear_9225_28" x1="1422.98" y1="1300.74" x2="1148.94" y2="894.192" gradientUnits="userSpaceOnUse">
<stop stop-color="white"/>
<stop offset="1" stop-color="#1D1D1B"/>
</linearGradient>
<clipPath id="clip0_9225_28">
<rect width="1952" height="1464" fill="white"/>
</clipPath>
</defs>
</svg>
