<svg width="853" height="1131" viewBox="0 0 853 1131" fill="none" xmlns="http://www.w3.org/2000/svg">
<g clip-path="url(#clip0_9225_104)">
<path d="M534.042 985.55C534.042 985.55 628.919 985.551 720.955 945.331C720.955 945.331 600.134 737.656 579.649 683.083C559.163 628.585 560.733 641.368 559.91 613.409C559.088 585.375 572.023 515.702 572.023 515.702L533.369 456.643C533.369 456.643 534.042 444.682 532.397 438.552C530.752 432.422 509.07 426.965 509.07 426.965L538.528 553.23L450.454 732.348L533.967 985.55H534.042Z" fill="#D1C6FF"/>
<path d="M320.81 781.463C320.81 781.463 314.306 868.63 303.24 921.11C292.175 973.589 281.035 1077.13 281.035 1131.33H338.305C338.305 1131.33 374.417 1026.07 387.351 981.513C395.8 952.433 425.557 866.985 445.743 830.055L458.752 824C458.752 824 489.855 941.892 515.35 983.457C547.2 1035.49 586.601 1131.33 586.601 1131.33H658.675C658.675 1131.33 635.572 984.504 610.526 905.261C585.554 826.018 548.471 741.842 548.471 741.842C548.471 741.842 428.173 648.694 320.81 781.463Z" fill="#470AA7"/>
<path d="M798.411 494.545C798.411 494.545 819.719 533.045 822.186 556.668C827.27 604.289 811.046 638.752 817.102 670.673C823.158 702.669 809.103 737.581 786.075 768.53C763.047 799.48 753.103 817.496 726.113 806.507C699.123 795.518 656.133 771.521 639.086 726.517C622.115 681.513 598.788 632.173 579.797 612.138C592.358 520.336 571.424 513.384 518.415 432.272C518.415 432.272 580.321 471.669 599.311 491.704C629.143 524.224 651.572 585.3 669.591 609.297C687.609 633.22 707.123 665.141 714.076 680.167C714.076 680.167 729.104 622.604 728.132 602.569C727.16 582.534 695.385 539.848 709.067 505.534C709.067 505.534 731.72 487.369 798.411 494.471V494.545Z" fill="#D1C6FF"/>
<path d="M714.077 680.242C714.077 680.242 703.086 730.255 691.273 739.225C679.46 748.196 693.292 696.838 709.067 671.57L714.077 680.242Z" fill="#AD9FFF"/>
<path d="M709.067 505.609C709.067 505.609 729.478 518.168 765.964 515.328C802.449 512.562 798.412 494.545 798.412 494.545C798.412 494.545 737.478 480.715 709.067 505.609Z" fill="#AD9FFF"/>
<path opacity="0.65" d="M728.132 331.35H728.357L726.861 329.78C726.338 329.182 725.74 328.659 725.217 328.136L679.311 282.459C672.357 275.581 660.694 280.441 660.694 290.159L660.47 356.394H660.619C660.769 377.476 677.89 394.595 699.049 394.595C720.207 394.595 737.478 377.326 737.478 356.095C737.478 346.601 733.964 338.078 728.282 331.35H728.132Z" fill="#7ACDD4"/>
<path d="M733.74 498.358C733.74 498.358 728.955 475.706 721.553 467.035C714.076 458.363 692.619 451.186 679.46 436.608C666.376 422.031 666.6 398.781 677.965 385.026C689.329 371.271 696.506 379.344 695.235 386.222C694.039 393.1 684.768 417.246 689.254 423.825C693.74 430.403 715.198 432.497 724.768 425.918C734.338 419.339 726.263 398.183 721.179 391.006C716.17 383.83 704.207 382.634 701.217 379.344C698.226 376.055 697.03 366.262 711.086 369.476C725.142 372.691 742.113 377.55 745.104 387.119C748.094 396.688 747.796 409.471 747.796 409.471C747.796 409.471 757.665 394.819 757.665 384.727C757.665 374.635 749.291 356.693 750.487 348.32C751.609 340.022 759.16 341.442 761.477 346.227C763.87 351.011 768.057 367.383 768.057 367.383C768.057 367.383 767.16 353.404 771.945 352.506C776.73 351.609 780.617 359.982 780.617 367.159C780.617 374.335 782.113 392.203 777.627 399.977C773.141 407.752 767.758 416.723 767.758 416.723C767.758 416.723 783.309 407.528 785.926 394.371C788.617 381.213 793.103 374.111 798.486 374.111C803.869 374.111 798.785 402.743 792.804 411.041C786.823 419.414 765.963 446.551 765.664 456.045C765.365 465.614 767.982 512.562 767.982 512.562L734.712 511.141L733.74 498.433V498.358Z" fill="#DD7E6B"/>
<path d="M755.421 414.181C755.421 414.181 764.468 395.342 766.936 390.782C769.328 386.147 768.132 367.383 768.132 367.383C768.132 367.383 755.945 407.378 750.637 414.032C751.982 418.143 755.421 414.181 755.421 414.181Z" fill="#C05E4C"/>
<path d="M673.254 392.95C673.254 392.95 679.011 404.239 683.198 405.36C687.385 406.407 690.151 404.014 690.151 404.014L693.59 393.025L680.282 382.11C680.282 382.11 676.021 386.97 673.18 393.025L673.254 392.95Z" fill="#C05E4C"/>
<path d="M734.712 511.066C734.712 511.066 749.59 515.178 767.982 512.487L767.011 501.871C767.011 501.871 743.759 501.722 733.74 498.283L734.712 510.992V511.066Z" fill="#C05E4C"/>
<path d="M660.544 356.319H660.395C671.609 355.123 679.236 356.992 686.264 362.673C693.291 368.355 703.16 385.4 698.973 394.52C677.815 394.52 660.694 377.401 660.544 356.319Z" fill="#7ACDD4"/>
<path d="M595.05 632.846C595.05 632.846 602.676 600.626 599.312 574.76C595.947 548.894 572.172 515.702 572.172 515.702C572.172 515.702 589.816 585.45 579.798 612.213L595.05 632.846Z" fill="#AD9FFF"/>
<path d="M476.323 374.859C476.323 374.859 512.733 394.819 526.341 421.283C539.948 447.673 531.799 469.277 531.799 469.277L462.117 408.574L476.248 374.934L476.323 374.859Z" fill="#D1C6FF"/>
<path d="M317.522 502.619C317.522 502.619 305.409 590.085 323.054 624.174C340.699 658.338 312.512 668.804 301.896 684.653C291.279 700.501 314.232 766.512 333.073 776.529C351.913 786.547 547.724 784.678 587.275 711.715C587.275 711.715 581.742 685.027 574.49 672.841C567.238 660.656 566.116 646.601 573.294 627.165C581.294 605.335 606.265 570.723 595.873 548.819C585.555 526.915 579.724 511.964 573.593 497.311C567.462 482.659 550.64 457.69 518.416 432.198C518.416 432.198 503.313 412.387 474.304 402.22C445.296 392.053 317.522 502.469 317.522 502.469V502.619Z" fill="#D1C6FF"/>
<path d="M462.192 408.425C462.192 408.425 493.967 401.024 493.518 362.075L453.593 349.666C453.593 349.666 430.94 327.612 445.743 300.102C460.547 272.516 490.752 261.676 490.752 261.676L573.218 233.119C573.218 233.119 616.208 264.368 616.208 288.29C616.208 288.29 593.405 306.381 581.891 345.928C573.816 373.663 572.171 399.753 552.583 418.367C552.583 418.367 528.957 407.752 510.341 388.315C510.341 388.315 490.154 428.534 501.07 454.774C501.07 454.774 488.659 453.802 478.266 441.841C467.799 429.955 462.192 408.275 462.192 408.275V408.425Z" fill="#DD7E6B"/>
<path d="M566.116 380.241C566.116 380.241 546.602 359.16 540.621 347.573C540.621 347.573 538.228 386.596 566.116 380.241Z" fill="white"/>
<path d="M530.303 292.402C530.303 292.402 558.788 300.999 560.359 318.791C560.359 318.791 543.76 324.472 530.303 292.402Z" fill="white"/>
<path d="M573.816 329.107C573.816 329.107 581.816 325.893 592.134 325.145C592.134 325.145 588.919 334.341 585.405 337.48C585.405 337.48 578.676 333.892 573.891 329.182L573.816 329.107Z" fill="white"/>
<path d="M448.958 281.263C448.958 281.263 420.772 305.708 416.884 323.052C412.921 340.396 423.463 366.486 448.584 371.42C473.705 376.354 493.668 362.15 493.668 362.15C493.668 362.15 490.229 346.451 489.705 342.937C489.705 342.937 484.322 354.226 472.434 351.834C460.547 349.367 441.93 314.455 454.715 304.064C467.5 293.673 488.21 321.781 488.21 321.781C488.21 321.781 504.21 295.242 499.275 283.954C499.275 283.954 548.545 289.86 555.947 258.836C555.947 258.836 576.059 305.634 611.049 278.572C611.049 278.572 602.152 313.932 644.021 298.681C644.021 298.681 688.431 196.787 567.91 224.148C540.919 175.407 499.425 180.041 481.481 223.251C476.472 235.362 475.799 255.023 468.023 244.258C463.911 238.577 451.799 180.565 415.388 145.504C328.362 61.7008 198.644 40.3204 208.139 74.3349C217.634 108.275 281.484 163.819 281.484 163.819C281.484 163.819 123.505 134.365 113.262 183.406C103.019 232.446 240.587 229.307 240.587 229.307C240.587 229.307 169.41 279.917 224.737 300.475C280.063 321.034 366.641 316.324 448.958 281.338V281.263Z" fill="#441890"/>
<path d="M592.135 373.737C585.032 373.737 563.425 368.878 556.771 362.374C558.789 347.872 570.752 320.66 580.097 300.251C580.097 300.251 573.368 320.51 572.471 333.144C572.471 333.144 568.883 350.862 592.06 373.737H592.135Z" fill="#C05E4C"/>
<path d="M521.331 274.535C521.331 274.535 564.62 267.657 578.003 291.43L575.611 295.392C575.611 295.392 559.835 277.151 521.331 274.61V274.535Z" fill="#42338A"/>
<path d="M588.247 307.876L584.957 313.932C584.957 313.932 590.49 316.175 594.004 316.997C594.004 316.997 595.649 315.502 595.873 313.708C595.873 313.708 590.938 309.297 588.247 307.951V307.876Z" fill="#42338A"/>
<path d="M552.06 311.39C553.929 308.549 553.929 305.26 551.985 303.914C550.041 302.569 546.901 303.84 545.032 306.606C543.163 309.447 543.163 312.736 545.107 314.081C547.051 315.427 550.191 314.156 552.06 311.39Z" fill="#42338A"/>
<path d="M586.004 332.696C587.798 330.602 588.172 327.911 586.677 326.64C585.256 325.369 582.564 326.042 580.77 328.136C578.976 330.229 578.602 332.92 580.097 334.191C581.518 335.462 584.209 334.789 586.004 332.696Z" fill="#42338A"/>
<path d="M483.725 331.201C483.725 331.201 471.164 313.558 462.043 311.988C452.921 310.418 467.875 331.574 483.725 331.201Z" fill="#C05E4C"/>
<path d="M643.871 298.681C643.871 298.681 635.049 302.195 628.993 302.195C628.993 302.195 637.89 260.555 631.161 247.174C615.012 214.654 564.919 228.858 564.919 228.858C564.919 228.858 543.761 195.143 518.789 195.741C493.892 196.339 476.322 240.446 476.322 240.446C476.322 240.446 479.911 186.994 526.191 188.938C552.508 191.106 567.76 224.298 567.76 224.298C567.76 224.298 622.115 208.375 644.619 233.568C667.049 258.761 643.797 298.756 643.797 298.756L643.871 298.681Z" fill="#864DFF"/>
<path d="M597.517 285.823C597.517 285.823 606.489 272.143 603.947 254.724C601.629 238.801 587.05 228.335 582.265 224.821H579.947C579.947 224.821 595.723 236.483 596.769 250.687C598.265 271.171 588.77 286.795 588.77 286.795C588.77 286.795 592.508 287.318 597.442 285.823H597.517Z" fill="#864DFF"/>
<path d="M476.322 374.859C476.322 374.859 497.78 409.621 481.556 459.409L510.042 479.444C510.042 479.444 508.696 552.557 496.434 599.056C484.173 645.63 490.603 794.994 500.322 824.748C522.752 859.884 577.854 1025.4 577.854 1025.4C577.854 1025.4 344.885 1091.03 259.877 1027.71C259.877 1027.71 268.101 688.391 312.138 541.568C312.138 541.568 341.521 429.731 336.96 409.397C336.96 409.397 378.754 382.26 451.127 402.669L476.322 375.009V374.859Z" fill="#FCF7FC"/>
<path d="M288.064 661.254C288.064 661.254 282.531 700.501 282.531 708.351C282.531 708.351 357.969 706.781 376.81 686.297C376.81 686.297 387.053 658.787 369.708 623.427L390.941 613.185C390.941 613.185 418.455 624.174 429.445 613.185C440.436 602.196 423.913 545.604 423.913 545.604C423.913 545.604 446.716 548.744 446.716 535.363C446.716 521.981 431.763 510.169 431.763 510.169L386.231 539.998L324.848 555.697L308.325 560.406C308.325 560.406 287.092 646.826 287.84 660.955L288.064 661.254Z" fill="#D1C6FF"/>
<path d="M351.539 664.394C289.708 682.933 181.074 669.327 148.626 676.953C116.178 684.578 55.0947 688.69 34.4595 653.404C13.8243 618.119 70.347 569.228 90.9074 544.558C111.468 519.888 155.28 486.023 220.999 465.166C258.083 453.354 300.998 419.863 338.754 407.528C376.436 395.193 431.763 406.93 431.763 406.93C431.763 406.93 425.333 507.553 395.875 522.28C366.418 537.007 322.306 522.878 296.362 538.727C270.419 554.575 207.467 575.806 209.859 575.208C212.252 574.61 222.794 571.695 269.896 558.164C316.998 544.633 326.418 542.614 332.923 542.614C332.923 542.614 351.614 625.37 351.539 664.468V664.394Z" fill="#FCF7FC"/>
<path d="M209.859 575.133C209.859 575.133 140.402 582.833 114.982 582.833C89.562 582.833 209.859 532.522 277.971 548.295C277.971 548.295 254.644 558.089 243.578 562.724C232.513 567.358 209.934 575.133 209.934 575.133H209.859Z" fill="#D1C6FF"/>
<path d="M328.063 539.549C328.063 539.549 321.633 548.669 329.035 595.841C336.511 642.938 351.464 664.543 351.464 664.543C351.464 664.543 354.903 624.099 348.922 588.963C342.941 553.828 336.212 538.129 327.988 539.624L328.063 539.549Z" fill="#D1C6FF"/>
<path d="M332.1 742.066L424.136 752.158C424.136 752.158 427.351 831.252 368.511 826.766C316.325 822.804 332.025 742.066 332.025 742.066H332.1Z" fill="#D1C6FF"/>
<path d="M531.874 469.128C531.874 469.128 580.621 560.93 560.06 613.334C539.425 665.739 587.948 723.676 563.126 750.888C538.304 778.025 494.491 772.194 494.491 772.194C494.491 772.194 484.173 676.43 496.435 599.056C508.696 521.607 510.042 479.444 510.042 479.444L481.557 459.409C481.557 459.409 484.398 449.84 484.996 447.149C484.996 447.149 490.155 452.756 501.07 454.924L531.874 469.203V469.128Z" fill="#8655FE"/>
<path d="M445.968 558.089L413.52 460.381L414.642 460.007C421.894 457.615 425.782 449.765 423.389 442.514C420.997 435.263 413.146 431.375 405.894 433.767L377.334 443.262C370.081 445.654 366.194 453.503 368.586 460.755C370.979 468.006 378.829 471.894 386.081 469.501L387.203 469.128L419.576 566.835C397.371 580.74 386.605 608.4 395.277 634.341C405.371 664.842 438.342 681.363 468.772 671.271C499.276 661.179 515.799 628.211 505.706 597.785C497.108 571.844 471.912 556.07 445.893 558.238L445.968 558.089Z" fill="#42338A"/>
<path d="M445.968 558.089L413.52 460.381L414.642 460.007C421.894 457.615 425.782 449.765 423.389 442.514C420.997 435.263 413.146 431.375 405.894 433.767L377.334 443.262C370.081 445.654 366.194 453.503 368.586 460.755C370.979 468.006 378.829 471.894 386.081 469.501L387.203 469.128L419.576 566.835C397.371 580.74 386.605 608.4 395.277 634.341C405.371 664.842 438.342 681.363 468.772 671.271C499.276 661.179 515.799 628.211 505.706 597.785C497.108 571.844 471.912 556.07 445.893 558.238L445.968 558.089Z" fill="url(#paint0_linear_9225_104)"/>
<path d="M446.94 558.089L414.492 460.381L415.613 460.007C422.865 457.615 426.753 449.765 424.361 442.514C421.968 435.263 414.118 431.375 406.866 433.767L378.305 443.262C371.053 445.654 367.165 453.503 369.558 460.755C371.95 468.006 379.801 471.894 387.053 469.501L388.174 469.128L420.548 566.835C398.342 580.74 387.576 608.4 396.249 634.341C406.342 664.842 439.314 681.363 469.743 671.271C500.247 661.179 516.771 628.211 506.677 597.785C498.079 571.844 472.883 556.07 446.865 558.238L446.94 558.089Z" fill="url(#paint1_linear_9225_104)"/>
<path d="M328.287 565.266C328.287 565.266 368.81 559.435 370.53 554.276C372.249 549.118 374.417 506.656 380.473 492.751C386.529 478.846 404.249 467.184 411.202 466.81C418.155 466.362 425.034 477.202 425.034 477.202C425.034 477.202 435.426 473.763 437.594 478.547C439.762 483.332 437.146 490.658 437.146 490.658C437.146 490.658 449.706 487.593 449.706 494.545C449.706 501.498 446.267 505.31 446.267 505.31C446.267 505.31 462.342 518.318 440.66 525.644C418.978 532.971 414.193 533.868 414.193 533.868C414.193 533.868 426.753 575.881 412.473 581.488C398.193 587.095 385.632 583.656 385.632 583.656L331.801 599.579C331.801 599.579 327.39 583.357 328.213 565.266H328.287Z" fill="#DD7E6B"/>
<path d="M362.455 117.993C430.342 170.996 465.481 238.128 465.481 238.128C465.481 238.128 457.481 197.46 424.286 150.288C371.651 79.4186 263.092 44.7312 215.84 61.2526C215.84 61.2526 294.568 65.0652 362.455 117.993Z" fill="#864DFF"/>
<path d="M510.341 388.39C510.341 388.39 502.49 376.803 499.051 370.822C499.051 370.822 496.658 390.707 504.584 402.145L510.266 388.315L510.341 388.39Z" fill="#C05E4C"/>
<path d="M414.192 533.942C414.192 533.942 414.267 556.295 407.763 569.302C403.426 577.974 396.024 584.478 396.024 584.478C396.024 584.478 410.006 584.329 415.164 579.843C420.323 575.358 421.744 560.257 414.192 533.942Z" fill="#C05E4C"/>
<path d="M328.287 565.266C328.287 565.266 326.568 581.339 331.876 599.579L351.091 593.898C351.091 593.898 341.446 583.806 337.932 563.621L328.213 565.191L328.287 565.266Z" fill="#C05E4C"/>
<path d="M425.034 477.202L397.969 484.154C397.969 484.154 408.361 475.034 420.249 471.744L425.034 477.276V477.202Z" fill="#C05E4C"/>
<path d="M437.146 490.583L405.595 499.031C405.595 499.031 425.108 484.528 433.407 484.528C437.445 484.528 437.221 490.583 437.221 490.583H437.146Z" fill="#C05E4C"/>
<path d="M446.267 505.31L409.034 513.16C409.034 513.16 441.109 499.105 444.473 499.33C447.838 499.554 446.342 505.31 446.342 505.31H446.267Z" fill="#C05E4C"/>
<path opacity="0.47" d="M468.846 292.402C468.846 292.402 500.845 274.983 527.237 276.778C553.704 278.572 599.236 319.838 599.236 319.838C599.236 319.838 597.517 349.741 581.517 360.506C581.517 360.506 572.471 350.413 572.471 337.555C572.471 337.555 560.658 350.114 526.565 340.994C492.472 331.948 468.846 292.327 468.846 292.327V292.402Z" fill="#F4EDF7"/>
<path d="M446.939 623.95C443.276 623.95 440.36 621.034 440.36 617.371C440.36 613.708 443.276 610.793 446.939 610.793V601.896C438.416 601.896 431.463 608.774 431.463 617.371C431.463 625.968 438.416 632.846 446.939 632.846V623.95Z" fill="white"/>
<path d="M446.939 646.975C463.238 646.975 476.472 633.743 476.472 617.446C476.472 601.149 463.238 587.992 446.939 587.992V596.888C458.304 596.888 467.575 606.083 467.575 617.521C467.575 628.959 458.304 638.154 446.939 638.154V647.05V646.975Z" fill="url(#paint2_linear_9225_104)"/>
<path d="M281.334 163.819C281.334 163.819 127.318 127.188 113.112 183.406C113.112 183.406 177.41 153.503 281.334 163.819Z" fill="#864DFF"/>
<path d="M115.654 176.753C115.654 176.753 131.579 146.102 163.055 141.542C183.765 138.551 281.409 163.745 281.409 163.745C281.409 163.745 186.382 143.186 159.392 145.728C140.925 147.448 115.654 176.753 115.654 176.753Z" fill="#864DFF"/>
<path d="M567.836 224.149C567.836 224.149 606.415 211.066 642.302 223.326C678.19 235.586 643.947 298.682 643.947 298.682C643.947 298.682 666.526 240.894 648.059 228.484C625.031 213.084 567.911 224.074 567.911 224.074L567.836 224.149Z" fill="#864DFF"/>
<path d="M240.438 229.232C240.438 229.232 362.829 186.471 450.529 255.846C450.529 255.846 346.381 193.423 212.7 255.846C212.7 255.846 223.541 241.193 240.438 229.232Z" fill="#864DFF"/>
<path d="M234.531 57.5146C234.531 57.5146 319.539 51.3846 369.557 81.437C419.575 111.564 453.968 203.964 463.762 233.045C463.762 233.045 409.258 107.079 364.249 84.801C319.24 62.5233 234.531 57.4398 234.531 57.4398V57.5146Z" fill="#864DFF"/>
<path d="M451.201 402.594L472.061 451.635C472.061 451.635 466.453 410.443 459.201 393.847L451.201 402.594Z" fill="#D1C6FF"/>
<path d="M310.568 546.8C310.568 546.8 325.895 539.549 327.989 539.549L343.54 559.883L353.558 525.495C353.558 525.495 324.026 528.261 314.606 531.924L310.568 546.8Z" fill="#D1C6FF"/>
<path d="M534.266 442.739C534.266 442.739 567.088 479.893 570.377 488.639C573.667 497.386 570.975 521.533 572.172 529.457C573.368 537.381 591.162 545.305 597.891 567.359C597.891 567.359 593.928 546.202 574.489 525.569C574.489 525.569 587.648 497.162 583.387 485.724C579.125 474.286 534.34 442.739 534.34 442.739H534.266Z" fill="#AD9FFF"/>
</g>
<defs>
<linearGradient id="paint0_linear_9225_104" x1="438.417" y1="433.095" x2="438.417" y2="674.261" gradientUnits="userSpaceOnUse">
<stop stop-color="#864DFF"/>
<stop offset="1" stop-color="#967CFF"/>
</linearGradient>
<linearGradient id="paint1_linear_9225_104" x1="532.172" y1="614.755" x2="456.29" y2="571.239" gradientUnits="userSpaceOnUse">
<stop stop-color="#D7FDFF"/>
<stop offset="1" stop-color="#D7FDFF" stop-opacity="0"/>
</linearGradient>
<linearGradient id="paint2_linear_9225_104" x1="455.014" y1="589.113" x2="477.663" y2="731.227" gradientUnits="userSpaceOnUse">
<stop stop-color="white"/>
<stop offset="1" stop-color="white" stop-opacity="0"/>
</linearGradient>
<clipPath id="clip0_9225_104">
<rect width="853" height="1131" fill="white"/>
</clipPath>
</defs>
</svg>
