<svg width="2256" height="2461" viewBox="0 0 2256 2461" fill="none" xmlns="http://www.w3.org/2000/svg">
<path opacity="0.48" d="M704.758 2096.57H176.092C130.754 2096.57 94 2133.31 94 2178.62C94 2223.93 130.754 2260.67 176.092 2260.67H704.758C750.096 2260.67 786.85 2223.93 786.85 2178.62C786.85 2133.31 750.096 2096.57 704.758 2096.57Z" fill="#DBBDFF" stroke="#DBBDFF" stroke-width="11" stroke-miterlimit="10"/>
<g opacity="0.45">
<path d="M1135.77 264.676H739.14C672.66 264.676 618.768 318.562 618.768 385.035V385.109C618.768 451.582 672.66 505.468 739.14 505.468H1135.77C1202.25 505.468 1256.14 451.582 1256.14 385.109V385.035C1256.14 318.562 1202.25 264.676 1135.77 264.676Z" fill="#B9EDEB"/>
<path d="M1135.77 545.165H739.215C650.917 545.165 579.067 473.323 579.067 385.035C579.067 296.746 650.917 224.905 739.215 224.905H1135.77C1224.07 224.905 1295.92 296.746 1295.92 385.035C1295.92 473.323 1224.07 545.165 1135.77 545.165ZM739.14 304.372C694.655 304.372 658.468 340.554 658.468 385.035C658.468 429.515 694.655 465.698 739.14 465.698H1135.7C1180.18 465.698 1216.37 429.515 1216.37 385.035C1216.37 340.554 1180.18 304.372 1135.7 304.372H739.14Z" fill="#B9EDEB"/>
</g>
<path d="M1135.77 264.676H739.14C672.66 264.676 618.768 318.562 618.768 385.035V385.11C618.768 451.582 672.66 505.469 739.14 505.469H1135.77C1202.25 505.469 1256.14 451.582 1256.14 385.11V385.035C1256.14 318.562 1202.25 264.676 1135.77 264.676Z" fill="#B9EDEB"/>
<path d="M1479.17 955.656C1479.17 955.656 1526.79 899.663 1533.52 893.234C1540.25 886.805 1552.21 890.767 1541.52 908.26C1530.83 925.754 1557.52 899.663 1564.47 907.139C1571.43 914.615 1543.91 941.752 1543.91 941.752C1543.91 941.752 1568.59 930.314 1569.86 941.976C1571.13 953.638 1543.91 992.138 1507.28 1006.42C1470.64 1020.7 1479.09 955.656 1479.09 955.656H1479.17Z" fill="#441890"/>
<path d="M832.82 1346.79C832.82 1346.79 854.128 1376.17 910.202 1397.32C929.492 1354.41 975.473 1251.4 987.51 1217.46C1002.84 1174.17 1002.39 1028.1 1002.39 1028.1C1002.39 1028.1 990.426 1024.66 972.93 1021.82C911.249 1035.2 870.203 1066.37 870.203 1066.37C870.203 1066.37 835.886 1199.89 832.82 1346.79Z" fill="#6FCACF"/>
<path d="M847.026 1047.76C805.083 1100.09 763.962 1272.93 762.765 1316.51C761.569 1360.09 813.382 1423.34 901.605 1416.46C901.605 1416.46 904.894 1409.21 910.203 1397.4C854.054 1376.24 832.821 1346.86 832.821 1346.86C835.886 1199.96 870.203 1066.45 870.203 1066.45C870.203 1066.45 911.249 1035.27 972.931 1021.89C936.37 1015.91 875.362 1012.47 847.026 1047.83V1047.76Z" fill="#B9EDEB"/>
<path d="M1091.73 1183.07C1091.73 1183.07 1149.75 1266.65 1278.72 1286.53C1407.69 1306.42 1420.85 1284.74 1428.03 1273.6C1432.89 1266.05 1487.39 1245.49 1463.39 1219.18C1451.88 1206.54 1434.83 1196.52 1410.08 1193.38C1333.67 1183.82 1307.36 1184.64 1259.58 1177.46C1211.81 1170.28 1167.25 1133.35 1154.01 1123.49C1140.78 1113.62 1110.05 1109.21 1097.79 1117.13C1085.53 1125.06 1069.83 1151.6 1091.66 1183.07H1091.73Z" fill="#D1C6FF"/>
<path d="M1201.94 1265C1201.94 1265 1156.11 1228 1154.24 1197.8C1151.17 1148.46 1117.45 1124.08 1117.45 1124.08L1114.61 1206.62C1114.61 1206.62 1142.35 1239.88 1201.94 1265Z" fill="#AD9FFF"/>
<path opacity="0.34" d="M1331.65 723.461H1095.02C1068.93 723.461 1047.85 702.304 1047.85 676.289C1047.85 650.199 1069 629.117 1095.02 629.117H1331.65" fill="#F6A3A5"/>
<path d="M1142.35 1038.41C1162.95 1038.41 1179.66 1021.18 1179.66 999.913C1179.66 978.65 1162.95 961.413 1142.35 961.413C1121.74 961.413 1105.04 978.65 1105.04 999.913C1105.04 1021.18 1121.74 1038.41 1142.35 1038.41Z" fill="#441890"/>
<path d="M1144.44 1656.65C1144.44 1656.65 1182.12 1674.97 1252.85 1656.65C1252.85 1656.65 1233.71 1640.66 1189.6 1640.06C1145.49 1639.46 1144.44 1656.65 1144.44 1656.65Z" fill="#3F2D7C"/>
<path d="M1206.27 1615.69C1206.27 1615.69 1155.96 1678.26 1154.31 1695.3C1154.31 1695.3 1190.5 1699.86 1211.28 1683.64C1211.28 1683.64 1237.67 1637.29 1240.22 1626.08C1242.76 1614.86 1245.9 1604.7 1236.48 1603.5C1227.06 1602.31 1215.1 1597.52 1206.35 1615.76L1206.27 1615.69Z" fill="#D1C6FF"/>
<path d="M917.979 1254.61C917.979 1254.61 927.548 1250.95 954.09 1254.61C980.632 1258.27 1037.68 1294.01 1037.68 1294.01C1037.68 1294.01 933.081 1287.58 917.979 1254.61Z" fill="#6234E0"/>
<path d="M780.036 616.109C780.036 616.109 790.653 624.931 800.148 630.837C800.148 630.837 701.607 760.69 708.785 840.381C715.962 920.072 695.327 920.969 685.533 920.072C675.738 919.175 627.365 956.853 628.262 897.047C629.533 814.59 724.485 656.329 780.036 616.035V616.109Z" fill="#D1C6FF"/>
<path d="M697.122 800.087C697.122 800.087 711.477 880.974 765.158 920.222C818.84 959.469 869.979 959.469 891.437 960.366C912.895 961.263 954.165 972.926 989.978 1011.43C1025.79 1049.93 1027.29 1123.49 1027.29 1123.49C1027.29 1123.49 1010.54 1169.24 896.82 1108.09C783.102 1046.94 767.85 1048.06 723.963 1027.5C680.075 1006.94 618.618 960.516 629.459 888.824C640.3 817.206 697.122 800.012 697.122 800.012V800.087Z" fill="#D1C6FF"/>
<path d="M708.71 692.96C708.71 692.96 730.616 696.249 750.13 708.808C750.952 720.77 809.494 674.57 818.316 610.428C818.316 610.428 820.036 601.756 810.241 591.29C800.447 580.824 785.344 568.713 788.26 535.746C791.176 502.778 822.054 472.052 818.466 459.942C814.877 447.831 776.074 488.275 770.317 527.074C770.317 527.074 793.12 463.979 800.223 444.916C807.326 425.852 751.177 440.879 755.812 531.185C755.812 531.185 746.541 500.535 752.373 472.127C758.205 443.719 758.728 428.17 751.251 428.17C743.775 428.17 716.486 501.133 745.495 543.969L774.429 586.805C774.429 586.805 686.505 659.618 708.86 693.109L708.71 692.96Z" fill="#441890"/>
<path d="M1035.06 1047.76C1035.06 1047.76 1084.41 1070.71 1110.72 1088.72C1137.04 1106.74 1160.89 1134.55 1160.89 1134.55C1160.89 1134.55 1082.54 1243.62 1082.69 1279.43C1082.84 1315.24 1082.69 1345.52 1082.69 1345.52C1082.69 1345.52 988.93 1359.05 941.155 1320.02C941.155 1320.02 931.212 1286.61 936.221 1259.54C941.23 1232.48 972.931 1193.61 972.931 1181.72C972.931 1169.84 950.501 1056.43 1035.14 1047.83L1035.06 1047.76Z" fill="#D1C6FF"/>
<path d="M1452.63 1068.09C1452.63 1068.09 1437.52 1137.62 1410.16 1193.46C1388.85 1236.97 1350.35 1250.12 1359.39 1262.68C1371.95 1280.1 1401.19 1298.79 1422.2 1294.01C1435.06 1288.77 1459.06 1269.41 1474.08 1222.69C1501.6 1137.54 1491.35 1009.63 1490.76 1000.06L1452.63 1068.09Z" fill="#D1C6FF"/>
<path d="M1041.72 1334.6C1041.72 1334.6 1066.24 1346.04 1082.69 1345.51C1099.13 1344.99 1207.1 1323.09 1240.22 1314.04C1273.34 1305 1432.74 1274.05 1470.79 1291.76C1508.85 1309.48 1477.75 1364.65 1464.74 1385.21C1451.73 1405.77 1272.52 1624.28 1252.85 1656.65C1252.85 1656.65 1179.43 1635.87 1144.44 1656.65C1144.44 1656.65 1144.07 1615.01 1160.89 1589.6C1177.71 1564.18 1184.07 1516.78 1209.19 1491.37C1234.31 1465.95 1282.83 1424.31 1282.83 1424.31C1282.83 1424.31 1231.99 1428.94 1184.59 1437.02C1137.19 1445.09 1022.72 1472.83 944.072 1453.24C865.418 1433.65 961.043 1296.62 1041.64 1334.68L1041.72 1334.6Z" fill="#8655FE"/>
<path d="M898.465 1347.76C898.465 1347.76 893.904 1408.39 896.894 1468.64C896.894 1468.64 844.11 1635.42 851.362 1715.11C851.362 1715.11 836.858 1803.33 861.007 1826.28C885.156 1849.23 911.773 1835.92 946.838 1726.03C981.903 1616.06 996.407 1475.89 1007.25 1438.44C1018.09 1400.98 1030.65 1357.33 1027.36 1329.59C1024.07 1301.86 923.81 1251.02 898.465 1347.76Z" fill="#8655FE"/>
<path d="M1142.35 1121.77C1142.35 1121.77 1128.14 1136.87 1127.47 1150.25C1126.8 1163.63 1140.03 1193.09 1132.7 1214.02C1125.38 1234.95 1100.85 1243.25 1100.18 1250.2C1099.51 1257.15 1091.28 1326.23 1071.92 1282.72C1052.56 1239.21 1047.7 1143.82 1142.42 1121.77H1142.35Z" fill="#D1C6FF"/>
<path d="M1055.17 1057.48C1055.17 1057.48 1037.98 1127 1027.36 1150.7C1016.74 1174.4 991.024 1221.19 983.323 1242.8C983.323 1242.8 958.65 1269.56 955.51 1273.67C955.51 1273.67 927.174 1267.99 917.978 1254.61C917.978 1254.61 898.913 1324.06 896.894 1364.73C894.875 1405.4 1082.69 1427.15 1099.13 1345.07C1099.13 1345.07 1100.33 1326.15 1099.13 1314.27C1099.13 1314.27 1090.54 1307.02 1089.27 1291.91C1087.99 1276.81 1098.31 1225.08 1113.12 1197.79C1127.92 1170.51 1143.54 1127.75 1142.27 1115.04C1142.27 1115.04 1140.11 1107.04 1132.26 1106.14C1132.26 1106.14 1100.55 1217.23 1073.12 1240.93C1073.12 1240.93 1040.97 1234.58 1023.55 1218.28C1023.55 1218.28 1062.57 1100.76 1067.58 1063.83C1067.58 1063.83 1062.72 1056.95 1055.17 1057.55V1057.48Z" fill="#8655FE"/>
<path fill-rule="evenodd" clip-rule="evenodd" d="M1513.18 444.317C1513.18 526.924 1446.27 593.832 1363.65 593.832C1446.27 593.832 1513.18 660.739 1513.18 743.346C1513.18 660.739 1580.1 593.832 1662.72 593.832C1580.1 593.832 1513.18 526.924 1513.18 444.317Z" fill="#FFD000" stroke="#FFD000" stroke-linecap="round" stroke-linejoin="round"/>
<path fill-rule="evenodd" clip-rule="evenodd" d="M1348.78 990.493C1348.78 1014.64 1329.19 1034.23 1305.04 1034.23C1329.19 1034.23 1348.78 1053.81 1348.78 1077.96C1348.78 1053.81 1368.37 1034.23 1392.51 1034.23C1368.37 1034.23 1348.78 1014.64 1348.78 990.493Z" fill="#FFD000" stroke="#FFD000" stroke-linecap="round" stroke-linejoin="round"/>
<path fill-rule="evenodd" clip-rule="evenodd" d="M1780.7 408.508C1780.7 432.655 1761.11 452.241 1736.96 452.241C1761.11 452.241 1780.7 471.828 1780.7 495.974C1780.7 471.828 1800.28 452.241 1824.43 452.241C1800.28 452.241 1780.7 432.655 1780.7 408.508Z" fill="#FFD000" stroke="#FFD000" stroke-linecap="round" stroke-linejoin="round"/>
<path fill-rule="evenodd" clip-rule="evenodd" d="M1380.4 253.312C1380.4 267.666 1368.81 279.253 1354.46 279.253C1368.81 279.253 1380.4 290.841 1380.4 305.194C1380.4 290.841 1391.99 279.253 1406.35 279.253C1391.99 279.253 1380.4 267.666 1380.4 253.312Z" fill="#FFD000" stroke="#FFD000" stroke-linecap="round" stroke-linejoin="round"/>
<g opacity="0.48">
<path opacity="0.48" d="M1964.32 1048.73C1964.32 929.567 2045.89 829.467 2156.24 801.134C2114.3 717.256 2027.65 659.543 1927.46 659.543C1786.23 659.543 1671.84 773.997 1671.84 915.138V1373.47C1671.84 1514.69 1786.3 1629.07 1927.46 1629.07C1949.44 1629.07 1970.82 1626.3 1991.24 1621.07C1974.04 1586.76 1964.39 1548.03 1964.39 1506.99V1048.65L1964.32 1048.73Z" fill="#DBBDFF"/>
<path opacity="0.48" d="M2183.08 1373.47V915.138C2183.08 874.171 2173.36 835.447 2156.24 801.059C2045.89 829.392 1964.32 929.492 1964.32 1048.65V1506.99C1964.32 1547.96 1974.04 1586.68 1991.16 1621.07C2101.51 1592.74 2183.08 1492.64 2183.08 1373.47Z" fill="#DBBDFF"/>
<path opacity="0.48" d="M2183.08 1373.47V915.138C2183.08 874.171 2173.36 835.447 2156.24 801.059C2045.89 829.392 1964.32 929.492 1964.32 1048.65V1506.99C1964.32 1547.96 1974.04 1586.68 1991.16 1621.07C2101.51 1592.74 2183.08 1492.64 2183.08 1373.47Z" fill="#DBBDFF"/>
</g>
<path d="M1002.39 1459.97C1002.39 1459.97 936.894 1459.45 914.838 1437.39C914.838 1437.39 927.025 1477.09 994.463 1505.57C994.463 1505.57 997.678 1486.36 999.098 1477.99C1000.22 1471.48 1002.39 1459.97 1002.39 1459.97Z" fill="#6234E0"/>
<path d="M1099.21 1343.42C1099.21 1343.42 1028.18 1356.36 1013.9 1358.9C999.622 1361.44 968.52 1351.05 968.52 1351.05C968.52 1351.05 997.528 1353.96 1015.92 1345.96C1034.31 1337.96 1053 1325.7 1099.21 1343.35V1343.42Z" fill="#6234E0"/>
<path opacity="0.14" d="M2021.59 1741.43H1664.66C1638.6 1741.43 1617.48 1762.55 1617.48 1788.6V1788.68C1617.48 1814.73 1638.6 1835.85 1664.66 1835.85H2021.59C2047.64 1835.85 2068.77 1814.73 2068.77 1788.68V1788.6C2068.77 1762.55 2047.64 1741.43 2021.59 1741.43Z" fill="#F6A3A5" stroke="#F6A3A5" stroke-width="7" stroke-miterlimit="10"/>
<path d="M1282.91 1424.23C1282.91 1424.23 1358.87 1416.09 1376.74 1416.46C1394.61 1416.83 1343.69 1440.38 1310.65 1445.69C1277.6 1451 1291.28 1460.34 1270.8 1481.87C1250.31 1503.4 1209.19 1491.37 1209.19 1491.37C1209.19 1491.37 1258.24 1443.3 1282.83 1424.31L1282.91 1424.23Z" fill="#6234E0"/>
<path d="M1019.58 1246.61C1019.58 1246.61 1002.01 1286.61 1001.57 1293.48C1001.12 1300.36 1028.41 1328.4 1056.44 1310.75C1056.44 1310.75 1066.01 1284.06 1068.71 1263.73C1068.71 1263.73 1037.53 1260.14 1019.51 1246.54L1019.58 1246.61Z" fill="#6234E0"/>
<g opacity="0.48">
<path opacity="0.48" d="M501.312 1508.19L665.048 1718.7C670.207 1725.36 674.917 1732.16 679.253 1739.19C701.683 1660.09 681.795 1571.58 619.516 1509.38L533.236 1423.11C441.724 1331.61 293.24 1331.61 201.727 1423.11L106.7 1518.13L172.344 1467.07C274.548 1387.6 421.836 1405.99 501.312 1508.19Z" fill="#DBBDFF"/>
<path opacity="0.48" d="M95.6346 1860.74L181.914 1947.01C273.427 2038.51 421.91 2038.51 513.423 1947.01L619.59 1840.86C648.898 1811.55 668.786 1776.42 679.328 1739.19C674.991 1732.23 670.281 1725.36 665.122 1718.7L501.386 1508.19C421.91 1405.99 274.623 1387.6 172.419 1467.07L106.775 1518.13L95.6346 1529.27C4.12181 1620.77 4.12181 1769.24 95.6346 1860.74Z" fill="#DBBDFF"/>
<path opacity="0.48" d="M95.6346 1860.74L181.914 1947.01C273.427 2038.51 421.91 2038.51 513.423 1947.01L619.59 1840.86C648.898 1811.55 668.786 1776.42 679.328 1739.19C674.991 1732.23 670.281 1725.36 665.122 1718.7L501.386 1508.19C421.91 1405.99 274.623 1387.6 172.419 1467.07L106.775 1518.13L95.6346 1529.27C4.12181 1620.77 4.12181 1769.24 95.6346 1860.74Z" fill="#DBBDFF"/>
</g>
<path d="M1608.36 2056.01C1608.36 1886.76 1471.17 1749.58 1301.9 1749.58H746.092C678.878 1749.58 616.748 1771.26 566.207 1807.96C588.039 1805.65 610.468 1805.2 633.197 1807.14L1271.69 1859.92C1437.15 1873.6 1566.49 1999.27 1591.39 2156.26C1602.3 2124.78 1608.29 2091.07 1608.29 2055.93L1608.36 2056.01Z" fill="#C29CFF"/>
<path d="M883.586 2231.16C714.318 2231.16 577.123 2093.98 577.123 1924.73C577.123 1882.57 585.721 1842.5 601.123 1805.94C589.385 1806.02 577.721 1806.69 566.208 1807.96C489.573 1863.66 439.63 1953.96 439.63 2055.93C439.63 2225.18 576.824 2362.36 746.093 2362.36H1301.9C1418.61 2362.36 1519.99 2297.1 1571.73 2201.04C1531.65 2220.32 1486.72 2231.09 1439.32 2231.09H883.512L883.586 2231.16Z" fill="#470AA7"/>
<path d="M1271.77 1859.99L633.272 1807.22C622.506 1806.32 611.815 1805.94 601.198 1806.09C585.796 1842.65 577.198 1882.72 577.198 1924.88C577.198 2094.13 714.393 2231.31 883.661 2231.31H1439.47C1486.94 2231.31 1531.8 2220.47 1571.88 2201.26C1579.58 2186.98 1586.16 2172.03 1591.54 2156.48C1566.64 1999.49 1437.3 1873.82 1271.84 1860.14L1271.77 1859.99Z" fill="#864DFF"/>
<path d="M1144.44 1671.31C1144.44 1671.31 1210.68 1665.48 1230.65 1677.14L1198.65 1737.84C1198.65 1737.84 1340.48 1718.7 1355.43 1719.53C1370.38 1720.35 1349.6 1750.33 1349.6 1750.33L1087.62 1792.71C1087.62 1792.71 1093.23 1755.26 1144.52 1671.31H1144.44Z" fill="#441890"/>
<path d="M825.12 1178.66C825.12 1178.66 855.624 1186.36 900.633 1193.76" stroke="#B9EDEB" stroke-miterlimit="10" stroke-linecap="round"/>
<path d="M915.661 1210.43C924.002 1210.43 930.764 1203.67 930.764 1195.33C930.764 1186.99 924.002 1180.23 915.661 1180.23C907.32 1180.23 900.559 1186.99 900.559 1195.33C900.559 1203.67 907.32 1210.43 915.661 1210.43Z" stroke="#B9EDEB" stroke-miterlimit="10" stroke-linecap="round"/>
<path d="M1331.66 770.932V581.572" stroke="#F6A3A5" stroke-miterlimit="10" stroke-linecap="round"/>
<g opacity="0.14">
<path d="M1331.65 723.461H1095.02C1068.93 723.461 1047.85 702.304 1047.85 676.289C1047.85 650.199 1069 629.117 1095.02 629.117H1331.65" fill="#F6A3A5"/>
<path d="M1331.65 723.461H1095.02C1068.93 723.461 1047.85 702.304 1047.85 676.289C1047.85 650.199 1069 629.117 1095.02 629.117H1331.65" stroke="#F6A3A5" stroke-width="7" stroke-miterlimit="10"/>
</g>
<path d="M1543.46 911.849L1532.62 914.316L1499.28 863.93C1491.65 852.417 1476.55 848.604 1464.44 855.108L1436.33 870.134C1436.7 874.022 1437.82 877.984 1439.84 881.647L1478.27 953.19C1486.42 968.365 1505.41 973.823 1520.44 965.375L1533.97 957.75C1548.47 949.527 1553.78 931.286 1546.01 916.559L1543.46 911.849Z" fill="#8655FE"/>
<path d="M1507.35 1006.34C1507.35 1006.34 1506.68 1036.92 1506.68 1063.31C1506.68 1099.71 1492.4 1122.29 1492.4 1122.29C1492.4 1122.29 1490.91 1116.83 1468.63 1113.62C1446.35 1110.4 1439.62 1117.73 1439.62 1117.73C1423.84 1083.86 1463.84 1000.59 1464.74 989.895C1465.63 979.205 1445.22 964.777 1454.79 944.517C1464.36 924.258 1507.5 898.467 1511.09 902.952C1514.68 907.438 1506.9 919.474 1497.86 928.893C1488.81 938.313 1479.17 955.582 1479.17 955.582L1507.35 1006.34Z" fill="#441890"/>
<path d="M936.147 1259.54C936.147 1259.54 944.82 1240.93 968.595 1234.58C976.595 1232.48 1027.29 1150.7 1027.29 1150.7C1027.29 1150.7 985.342 1233.6 983.249 1242.8L955.436 1273.67C955.436 1273.67 941.829 1270.68 934.651 1266.95C934.651 1266.95 935.25 1263.21 936.072 1259.54H936.147Z" fill="#AD9FFF"/>
<path d="M1095.47 1206.62C1095.47 1206.62 1061.83 1221.64 1053 1223.96C1044.18 1226.28 1034.39 1226.28 1034.39 1226.28C1034.39 1226.28 1049.86 1237.19 1073.12 1240.93C1073.12 1240.93 1083.96 1233.08 1095.47 1206.62Z" fill="#AD9FFF"/>
<path d="M970.837 1158.7C970.837 1158.7 991.622 1158.1 1027.36 1150.7C1027.36 1150.7 1034.31 1133.28 1039.17 1116.46C1039.17 1116.46 1006.43 1138.14 968.669 1149.73L970.837 1158.7Z" fill="#AD9FFF"/>
<path d="M1410.08 1193.46C1410.08 1193.46 1393.56 1235.7 1395.21 1253.94C1395.21 1253.94 1384.51 1239.88 1393.49 1191.44L1410.08 1193.46Z" fill="#AD9FFF"/>
<path d="M1046.28 1146.29C1046.28 1146.29 1082.84 1125.36 1099.66 1081.62L1088.59 1075.19C1088.59 1075.19 1076.56 1088.95 1070.95 1093.51C1065.34 1098.07 1058.69 1103.15 1058.69 1103.15L1046.28 1146.36V1146.29Z" fill="#AD9FFF"/>
<path d="M1087.62 1792.71L606.581 1856.56H832.821L1003.88 1919.8L1349.6 1750.33L1087.62 1792.71Z" fill="#864DFF"/>
<path d="M1436.33 870.134L1452.63 861.388L1441.93 849.202C1437.6 855.258 1435.58 862.733 1436.33 870.134Z" fill="#AD9FFF"/>
<path d="M1507.8 845.016C1499.95 830.214 1481.78 824.682 1466.98 832.083L1480.44 852.193C1487.91 853.164 1494.87 857.127 1499.35 863.855L1532.7 914.241L1543.54 911.774L1507.95 844.941L1507.8 845.016Z" fill="#AD9FFF"/>
<path opacity="0.23" d="M1452.03 840.231L1465.86 832.606C1465.86 832.606 1466.61 832.307 1466.98 832.158L1331.66 629.117V723.535L1441.93 849.277C1444.55 845.689 1447.92 842.549 1452.03 840.306V840.231Z" fill="#F6A3A5"/>
<path opacity="0.23" d="M1464.44 855.108L1452.62 861.388L1467.73 878.582L1484.85 858.996L1480.36 852.267C1475.05 851.594 1469.45 852.417 1464.36 855.108H1464.44Z" fill="#F6A3A5"/>
<path d="M1465.86 832.606L1452.03 840.231C1447.91 842.549 1444.48 845.614 1441.93 849.202L1452.62 861.388L1464.44 855.108C1469.52 852.417 1475.05 851.594 1480.44 852.267L1466.98 832.158C1466.98 832.158 1466.23 832.457 1465.86 832.606Z" fill="#DBBDFF"/>
<path d="M1465.86 832.606L1452.03 840.231C1447.91 842.549 1444.48 845.614 1441.93 849.202L1452.62 861.388L1464.44 855.108C1469.52 852.417 1475.05 851.594 1480.44 852.267L1466.98 832.158C1466.98 832.158 1466.23 832.457 1465.86 832.606Z" fill="#E6D4FF"/>
<path opacity="0.34" d="M2021.59 1741.43H1664.66C1638.6 1741.43 1617.48 1762.55 1617.48 1788.6V1788.68C1617.48 1814.73 1638.6 1835.85 1664.66 1835.85H2021.59C2047.64 1835.85 2068.77 1814.73 2068.77 1788.68V1788.6C2068.77 1762.55 2047.64 1741.43 2021.59 1741.43Z" fill="#F6A3A5"/>
<path opacity="0.14" d="M493.461 612.372H136.531C110.476 612.372 89.3545 633.491 89.3545 659.543V659.618C89.3545 685.67 110.476 706.79 136.531 706.79H493.461C519.516 706.79 540.638 685.67 540.638 659.618V659.543C540.638 633.491 519.516 612.372 493.461 612.372Z" fill="#F6A3A5" stroke="#F6A3A5" stroke-width="7" stroke-miterlimit="10"/>
<path opacity="0.34" d="M493.461 612.372H136.531C110.476 612.372 89.3545 633.491 89.3545 659.543V659.618C89.3545 685.67 110.476 706.79 136.531 706.79H493.461C519.516 706.79 540.638 685.67 540.638 659.618V659.543C540.638 633.491 519.516 612.372 493.461 612.372Z" fill="#F6A3A5"/>
<path d="M813.083 57H597.086C587.424 57 579.591 64.832 579.591 74.4932C579.591 84.1544 587.424 91.9864 597.086 91.9864H813.083C822.745 91.9864 830.578 84.1544 830.578 74.4932C830.578 64.832 822.745 57 813.083 57Z" fill="#F6A3A5"/>
<path opacity="0.34" d="M2122.49 1935.57H1906.5C1896.83 1935.57 1889 1943.41 1889 1953.07C1889 1962.73 1896.83 1970.56 1906.5 1970.56H2122.49C2132.15 1970.56 2139.99 1962.73 2139.99 1953.07C2139.99 1943.41 2132.15 1935.57 2122.49 1935.57Z" fill="#F6A3A5" stroke="#F6A3A5" stroke-width="4" stroke-miterlimit="10"/>
<path d="M1504.59 921.119C1504.59 921.119 1497.04 946.686 1497.11 949.601C1497.19 952.517 1509 966.646 1517.15 966.945C1517.15 966.945 1508.03 971.654 1494.87 967.468C1494.87 967.468 1484.77 964.328 1479.47 955.133C1479.47 955.133 1487.39 941.303 1492.62 935.098C1497.86 928.893 1504.59 921.119 1504.59 921.119Z" fill="#6234E0"/>
<path d="M1780.62 899.065C1780.62 886.431 1770.38 876.189 1757.74 876.189C1745.11 876.189 1734.86 886.431 1734.86 899.065V958.123C1734.86 970.757 1745.11 980.999 1757.74 980.999C1770.38 980.999 1780.62 970.757 1780.62 958.123V899.065Z" fill="white"/>
<path d="M1888.96 899.065C1888.96 886.431 1878.71 876.189 1866.08 876.189C1853.44 876.189 1843.2 886.431 1843.2 899.065V958.123C1843.2 970.757 1853.44 980.999 1866.08 980.999C1878.71 980.999 1888.96 970.757 1888.96 958.123V899.065Z" fill="white"/>
<path d="M358.135 1460.79C358.135 1448.16 347.892 1437.92 335.257 1437.92C322.622 1437.92 312.379 1448.16 312.379 1460.79V1519.85C312.379 1532.48 322.622 1542.72 335.257 1542.72C347.892 1542.72 358.135 1532.48 358.135 1519.85V1460.79Z" fill="white"/>
<path d="M466.47 1460.79C466.47 1448.16 456.227 1437.92 443.592 1437.92C430.957 1437.92 420.714 1448.16 420.714 1460.79V1519.85C420.714 1532.48 430.957 1542.72 443.592 1542.72C456.227 1542.72 466.47 1532.48 466.47 1519.85V1460.79Z" fill="white"/>
<path d="M1724.92 1046.26H1888.96" stroke="white" stroke-width="2" stroke-miterlimit="10" stroke-linecap="round"/>
<path d="M238.811 1606.04H540.115" stroke="white" stroke-width="2" stroke-miterlimit="10" stroke-linecap="round"/>
<path d="M800.149 1240.93C800.149 1240.93 744.523 1214.09 683.889 1229.27C623.254 1244.44 583.853 1305.97 525.984 1300.14C468.116 1294.31 439.705 1217.53 439.705 1217.53" stroke="#B9EDEB" stroke-width="16" stroke-miterlimit="10" stroke-linecap="round"/>
<path d="M400.453 1146.29C400.453 1146.29 376.378 1179.18 377.574 1194.51C378.771 1209.83 426.994 1231.58 461.91 1202.06C496.825 1172.53 439.704 1144.34 439.704 1144.34" stroke="#B9EDEB" stroke-width="16" stroke-miterlimit="10" stroke-linecap="round"/>
<path d="M786.84 1316.51C786.84 1316.51 636.935 1315.84 629.907 1346.79C622.879 1377.74 724.785 1400.46 795.064 1359.27" stroke="#B9EDEB" stroke-width="16" stroke-miterlimit="10" stroke-linecap="round"/>
<path d="M734.878 888.973C734.878 888.973 663.477 931.66 693.757 979.654C724.037 1027.65 836.559 1045.51 884.633 1041.18C884.633 1041.18 856.745 1095.75 896.894 1108.24C937.043 1120.72 958.576 1025.33 958.576 1025.33C958.576 1025.33 784.672 939.285 734.803 888.973H734.878Z" fill="#AD9FFF"/>
<path d="M1115.51 969.412C1115.51 969.412 1083.36 971.281 1071.4 958.721C1059.43 946.162 1018.46 871.106 993.865 838.96C969.267 806.815 877.904 711.649 810.466 753.289C743.027 794.854 930.24 837.764 932.109 845.315C933.978 852.865 791.55 850.996 749.382 908.933C707.215 966.87 729.869 1039.98 794.092 1049.48C858.316 1058.97 932.707 1036.84 932.707 1036.84C932.707 1036.84 860.259 1094.18 901.829 1140.16C943.398 1186.13 1058.76 1108.01 1078.95 1085.96C1099.13 1063.9 1141.3 1013.52 1141.3 1013.52C1141.3 1013.52 1157.68 967.543 1115.43 969.412H1115.51Z" fill="#441890"/>
<path d="M1110.5 997.072C1110.5 997.072 1025.94 1020.17 1022.87 1031.09C1015.25 1058.75 1064 1073.77 1126.2 1029.44L1139.58 1038.49V1006.27L1110.5 997.072Z" fill="#30096E"/>
<path d="M1113.04 978.831C1113.04 978.831 956.632 932.033 916.558 942.2C876.484 952.367 905.418 992.96 934.95 995.577C964.483 998.193 1153.04 993.782 1153.04 993.782L1113.04 978.756V978.831Z" fill="#30096E"/>
<path d="M1167.84 1032.81C1183.1 1027.8 1222.8 1005.82 1225.26 996.997C1227.73 988.176 1207.62 961.189 1207.62 961.189C1207.62 961.189 1221.82 935.696 1221.82 932.258C1221.82 928.819 1203.21 944.518 1196.78 944.518C1190.35 944.518 1172.26 910.653 1163.43 905.719C1154.61 900.785 1109.45 886.581 1105.04 926.352C1100.63 966.123 1132.03 1013.74 1132.03 1013.74C1132.03 1013.74 1085.98 978.981 1075.21 994.157C1065.86 1007.31 1091.81 1016.96 1104.67 1018.98C1109.6 1019.72 1112.97 1020.77 1114.84 1021.22C1116.7 1021.67 1119.25 1028.92 1127.32 1026.9L1135.99 1019.65C1135.99 1019.65 1147.43 1039.61 1167.84 1032.88V1032.81Z" fill="#BE6B5B"/>
<path d="M1139.13 1007.61C1139.13 1007.61 1130.99 1069.81 1091.81 1115.79C1091.81 1115.79 1091.36 1147.78 1095.85 1156.83C1095.85 1156.83 1120.22 1129.32 1124.26 1095.98C1124.26 1095.98 1141.08 1047.08 1170.39 1031.91C1183.02 1010.68 1161.71 999.539 1161.71 999.539C1161.71 999.539 1142.8 989.596 1139.13 1007.69V1007.61Z" fill="#BE6B5B"/>
<path d="M1111.02 979.579C1111.02 979.579 1198.42 876.563 1210.68 843.595C1210.68 843.595 1209.34 830.962 1195.28 823.262C1181.23 815.562 1159.47 812.87 1147.73 815.562C1135.99 818.253 1112.59 852.94 1106.54 869.237C1099.66 887.702 1090.24 951.694 1111.1 979.504L1111.02 979.579Z" fill="#441890"/>
<path d="M1187.36 882.469C1187.36 882.469 1165.08 853.314 1138.69 856.902C1118.27 859.743 1106.31 886.805 1099.66 902.579C1099.66 902.579 1133.3 893.832 1141.15 893.832C1149 893.832 1167.55 909.307 1167.55 909.307L1187.28 882.469H1187.36Z" fill="#864DFF"/>
<path d="M1098.31 918.277C1098.31 918.277 1125.6 913.717 1133 913.717C1140.41 913.717 1156.26 923.81 1156.26 923.81L1135.1 950.423C1135.1 950.423 1118.13 937.939 1114.61 936.892C1111.1 935.845 1098.46 933.902 1098.46 933.902L1098.31 918.277Z" fill="#864DFF"/>
<path d="M1140.63 945.713C1140.63 945.713 1165 980.177 1183.92 982.27C1202.83 984.363 1203.73 975.093 1200.59 963.954C1197.45 952.815 1170.54 920.371 1162.16 918.352C1153.79 916.334 1132.26 934.948 1140.63 945.639V945.713Z" fill="white"/>
<path d="M1116.33 1013.14C1116.33 1013.14 1094.72 1011.28 1090.16 1004.85C1085.6 998.417 1113.27 1004.55 1116.33 1013.14Z" fill="#80406C"/>
<path d="M1477.07 893.907C1490.58 893.907 1501.52 882.962 1501.52 869.461C1501.52 855.96 1490.58 845.016 1477.07 845.016C1463.57 845.016 1452.62 855.96 1452.62 869.461C1452.62 882.962 1463.57 893.907 1477.07 893.907Z" fill="#F6A3A5"/>
<path d="M1477.07 882.544C1484.3 882.544 1490.16 876.687 1490.16 869.461C1490.16 862.236 1484.3 856.379 1477.07 856.379C1469.85 856.379 1463.99 862.236 1463.99 869.461C1463.99 876.687 1469.85 882.544 1477.07 882.544Z" fill="#F16960"/>
<path d="M1040.97 946.312C1040.97 946.312 990.65 866.621 966.202 839.26C941.754 811.899 876.334 773.025 876.334 773.025C876.334 773.025 935.922 786.257 984.893 844.567C1013.38 878.507 1040.97 946.312 1040.97 946.312Z" fill="#864DFF"/>
</svg>
