<svg width="862" height="1128" viewBox="0 0 862 1128" fill="none" xmlns="http://www.w3.org/2000/svg">
<path d="M543.627 101.581C533.364 91.3188 516.725 91.3185 506.462 101.58C496.199 111.842 496.199 128.48 506.462 138.742C516.725 149.004 533.364 149.004 543.627 138.742C553.89 128.48 553.89 111.843 543.627 101.581Z" fill="#6ED8DE"/>
<path d="M173.923 370.238L185.212 403.805" stroke="#967CFF" stroke-width="0.75" stroke-miterlimit="10" stroke-linecap="round"/>
<path d="M166.072 398.422L193.062 375.621" stroke="#967CFF" stroke-width="0.75" stroke-miterlimit="10" stroke-linecap="round"/>
<path d="M327.94 747.463C327.94 747.463 301.099 835.004 292.501 870.588C277.174 933.982 241.586 1015.92 256.015 1127.53H362.855C362.855 1127.53 368.911 1026.46 380.35 982.5C387.303 955.737 418.181 826.855 418.181 801.139C418.181 801.139 432.537 872.906 433.434 894.286C434.331 915.667 434.854 1127.45 434.854 1127.45H491.9C491.9 1127.45 491.676 1088.06 495.937 1068.02C500.199 1047.99 524.199 943.028 524.199 875.373C524.199 807.718 507.9 741.782 507.9 741.782L327.865 747.239L327.94 747.463Z" fill="#441890"/>
<path d="M414.293 392.068C414.293 392.068 409.134 359.922 435.077 342.503C435.077 342.503 411.451 327.851 422.816 309.461C422.816 309.461 342.07 283.969 362.854 253.767C362.854 253.767 300.5 291.519 275.454 279.707C250.407 267.896 242.856 218.332 275.454 186.71C308.051 155.087 334.967 169.74 345.808 186.71C356.649 203.679 370.854 232.536 382.143 228.723C382.143 228.723 426.031 199.941 445.395 221.172C464.759 242.404 438.816 274.998 438.816 274.998C438.816 274.998 473.282 277.39 473.282 295.332C473.282 313.273 455.339 336.897 455.339 336.897C455.339 336.897 467.152 345.868 458.629 359.1C458.629 359.1 473.731 365.903 501.694 364.557C529.656 363.211 594.253 279.334 652.869 244.721C711.485 210.108 802.699 193.438 818.026 214.071C833.353 234.704 839.334 305.274 756.793 360.595C674.252 415.915 640.233 415.84 640.233 415.84C640.233 415.84 665.504 422.494 700.195 421.821C734.887 421.148 843.52 461.143 843.52 499.045C843.52 536.947 684.27 532.312 607.636 491.719C607.636 491.719 695.111 535.153 662.215 576.942C641.804 602.957 491.077 515.043 468.423 457.779C445.769 400.515 441.133 383.844 441.133 383.844C441.133 383.844 399.19 447.911 383.564 415.765C367.938 383.62 414.293 392.142 414.293 392.142V392.068Z" fill="#441890"/>
<path d="M333.995 174.524C333.995 174.524 312.687 160.993 297.211 161.965C291.155 162.339 279.118 169.142 268.426 180.28C251.978 197.549 239.567 230.816 262.146 267.746C262.146 267.746 244.053 224.312 258.707 199.942C273.361 175.571 298.781 165.105 305.286 165.105C311.79 165.105 333.995 174.524 333.995 174.524Z" fill="#441890"/>
<path d="M332.35 177.215C332.35 177.215 303.266 178.187 286.444 189.775C269.622 201.362 265.884 259.299 272.239 270.064C272.239 270.064 283.752 267.746 298.93 267.746C298.93 267.746 284.351 210.333 291.902 197.774C299.454 185.214 332.275 177.215 332.275 177.215H332.35Z" fill="#783DEF"/>
<path d="M305.36 267.746C305.36 267.746 299.678 207.193 307.155 197.699C314.631 188.205 336.238 185.364 336.238 185.364C336.238 185.364 309.995 196.204 309.696 203.156C309.397 210.109 305.285 267.821 305.285 267.821L305.36 267.746Z" fill="#783DEF"/>
<path d="M458.63 359.025C458.63 359.025 475.9 361.342 496.909 356.483C506.105 354.39 569.955 293.911 583.114 281.053C596.272 268.195 674.776 230.368 702.289 221.92C702.289 221.92 615.936 262.439 580.422 289.949C544.909 317.46 509.021 359.399 501.62 364.482C494.218 369.566 471.639 366.725 458.555 359.025H458.63Z" fill="#441890"/>
<path d="M552.758 422.868C552.758 422.868 825.801 381.153 842.847 494.036C842.847 494.036 834.324 447.911 763.446 431.764C692.569 415.616 552.758 422.868 552.758 422.868Z" fill="#441890"/>
<path d="M367.863 472.955C367.863 472.955 404.05 433.633 432.984 428.4C461.918 423.167 501.843 440.211 521.955 463.012C542.066 485.813 564.945 508.614 592.533 521.547C620.121 534.48 654.813 544.572 676.27 572.606C697.728 600.64 708.27 630.917 724.045 645.794C739.821 660.67 792.007 731.241 770.923 760.621C749.839 790 530.253 628.226 530.253 628.226L441.731 583.521L367.863 472.88V472.955Z" fill="#967CFF"/>
<path d="M514.33 595.856C514.33 595.856 531.675 621.946 545.432 623.067C559.189 624.189 598.217 659.848 615.188 665.38C632.16 670.912 677.842 676.893 699.299 696.703C720.757 716.514 683.3 632.262 625.058 612.452C566.815 592.641 558.815 617.012 542.143 604.902C525.47 592.791 514.33 595.781 514.33 595.781V595.856Z" fill="#804DFF"/>
<path d="M550.292 235.676C551.713 234.554 553.806 234.554 555.227 235.676L558.815 238.516C559.264 238.89 559.862 239.189 560.385 239.413L564.647 241.133C566.367 241.806 567.339 243.6 567.114 245.394L566.441 249.954C566.367 250.552 566.367 251.15 566.441 251.823L567.114 256.384C567.413 258.178 566.367 259.972 564.647 260.644L560.385 262.364C559.787 262.588 559.264 262.887 558.815 263.261L555.227 266.102C553.806 267.223 551.713 267.223 550.292 266.102L546.703 263.261C546.255 262.887 545.657 262.588 545.133 262.364L540.872 260.644C539.152 259.972 538.18 258.178 538.404 256.384L539.077 251.823C539.152 251.225 539.152 250.627 539.077 249.954L538.404 245.394C538.105 243.6 539.152 241.806 540.872 241.133L545.133 239.413C545.732 239.189 546.255 238.89 546.703 238.516L550.292 235.676Z" fill="#F1695E"/>
<path d="M132.951 278.437C137.437 276.717 142.521 278.063 145.512 281.801L154.708 293.164C157.698 296.902 157.997 302.135 155.381 306.171L147.456 318.432C144.839 322.469 139.904 324.338 135.269 323.067L121.213 319.329C116.577 318.058 113.287 314.021 112.988 309.237L112.241 294.659C112.017 289.875 114.858 285.464 119.344 283.744L132.951 278.511V278.437Z" stroke="#FE695D" stroke-miterlimit="10"/>
<path d="M134.671 305.798C137.562 305.798 139.905 303.455 139.905 300.565C139.905 297.675 137.562 295.332 134.671 295.332C131.781 295.332 129.438 297.675 129.438 300.565C129.438 303.455 131.781 305.798 134.671 305.798Z" fill="#FE695D"/>
<path d="M338.407 478.636C338.407 478.636 325.248 475.272 315.678 473.852C306.108 472.432 285.398 452.247 275.006 446.042C264.614 439.837 232.09 440.735 208.764 458.676C185.437 476.618 170.335 510.857 154.858 522.668C139.456 534.48 99.3075 564.383 90.859 583.521C82.4105 602.659 83.3076 637.196 69.2517 651.176C55.1958 665.23 14 710.384 14 733.708C14 757.032 41.2146 783.646 61.1769 787.832C81.1393 792.019 115.606 787.01 133.849 774.675C152.092 762.34 172.578 739.913 192.764 737.67C212.951 735.427 231.492 734.605 239.343 729.821C247.193 725.036 257.885 693.937 277.772 677.042C297.66 660.147 307.828 653.494 307.828 653.494C307.828 653.494 300.276 635.851 290.183 628.525C290.183 628.525 260.128 643.7 250.034 647.887C239.941 652.073 221.399 654.092 209.885 650.428C198.371 646.765 179.605 648.485 179.605 648.485C179.605 648.485 208.764 628.001 213.025 617.909C217.287 607.817 211.904 576.942 234.109 562.664C256.314 548.385 289.66 555.935 308.8 532.91C327.94 509.885 338.557 478.786 338.557 478.786L338.407 478.636Z" fill="#967CFF"/>
<path d="M289.884 768.321C301.846 763.088 294.37 729.372 306.332 711.356C318.295 693.339 345.21 679.883 345.21 679.883L341.546 661.866C341.546 661.866 362.556 654.166 363.303 647.513C364.051 640.859 363.303 612.377 363.303 612.377C363.303 612.377 366.967 632.636 394.705 635.627C422.518 638.617 450.779 583.521 450.779 583.521L376.836 541.283L328.238 572.756V612.452L239.342 664.034C239.492 671.361 238.819 678.537 236.651 685.265C227.305 714.196 225.062 742.679 228.352 751.052C229.773 754.64 233.884 761.742 240.613 769.517C256.613 770.713 281.884 771.834 289.884 768.321Z" fill="#804DFF"/>
<path d="M473.731 507.269C416.311 482.3 385.209 463.012 385.209 463.012C385.209 463.012 363.751 481.851 332.2 477.067C300.649 472.207 245.024 541.208 245.024 541.208C245.024 541.208 228.501 568.121 228.501 593.688C228.501 613.274 238.819 639.738 239.417 664.034L328.313 612.452V572.756L376.91 541.283L450.853 583.521C450.853 583.521 422.592 638.692 394.779 635.627C366.966 632.636 363.378 612.377 363.378 612.377C363.378 612.377 364.126 640.86 363.378 647.513C362.63 654.166 341.621 661.866 341.621 661.866L345.284 679.883C345.284 679.883 318.369 693.339 306.406 711.356C294.444 729.372 301.921 763.088 289.958 768.321C281.958 771.834 256.688 770.638 240.688 769.517C249.66 779.833 263.267 791.122 281.809 796.654C314.257 806.297 347.602 798.822 361.135 791.794C374.742 784.767 436.124 761.966 451.003 761.966C465.881 761.966 503.637 750.977 516.796 735.203C529.955 719.429 520.759 694.46 518.965 686.088C517.245 677.79 517.095 623.815 523.749 600.64C530.403 577.391 531.226 532.237 473.806 507.269H473.731Z" fill="#967CFF"/>
<path d="M234.033 562.589C234.033 562.589 233.286 594.884 253.772 608.789C294.519 636.449 282.482 656.035 282.482 656.035L240.987 673.155C240.987 673.155 238.295 637.122 231.267 616.04C224.239 594.959 232.015 568.794 234.033 562.589Z" fill="#804DFF"/>
<path d="M517.843 794.859C517.843 794.859 488.46 864.533 479.488 881.802C470.517 899.071 474.404 1066.08 474.404 1066.08L489.731 1101.29C489.731 1101.29 519.637 951.999 522.927 905.126C526.815 849.656 517.918 794.859 517.918 794.859H517.843Z" fill="#582BBC"/>
<path d="M232.015 583.596C232.015 583.596 231.118 567.149 239.716 546.366C248.314 525.584 233.361 468.544 244.276 455.611C255.192 442.678 287.416 481.328 305.584 489.327C323.752 497.326 335.864 482.225 335.864 482.225C335.864 482.225 330.107 520.201 360.985 521.472C391.864 522.743 373.023 549.506 373.023 549.506C373.023 549.506 350.518 617.012 350.518 617.76C350.518 618.507 308.949 669.118 308.949 669.118H277.772L231.94 583.446L232.015 583.596Z" fill="#804DFF"/>
<path d="M291.08 628.525C291.08 628.525 261.024 643.7 250.931 647.887C240.838 652.073 222.296 654.092 210.782 650.428C199.268 646.765 180.502 648.485 180.502 648.485C180.502 648.485 180.801 648.26 181.25 647.961L151.568 656.035L94.4473 788.281C109.4 786.262 124.578 781.627 134.746 774.824C152.989 762.489 173.474 740.062 193.661 737.82C213.848 735.577 232.389 734.754 240.24 729.97C248.09 725.186 258.782 694.087 278.669 677.191C298.632 660.371 308.725 653.643 308.725 653.643C308.725 653.643 301.173 636 291.08 628.674V628.525Z" fill="#967CFF"/>
<path d="M439.863 622.17C439.863 622.17 451.377 616.638 455.938 604.677C455.938 604.677 459.003 619.703 476.648 617.834C476.648 617.834 481.732 652.522 483.526 658.951C485.32 665.38 493.32 690.648 518.815 686.088C518.815 686.088 517.395 652.671 518.591 637.795C519.787 622.918 490.405 586.137 490.405 586.137L472.835 532.237L434.256 539.489L439.788 622.095L439.863 622.17Z" fill="#804DFF"/>
<path d="M357.323 604.079C357.323 604.079 352.986 729.148 382.892 766.152C382.892 766.152 392.462 709.935 399.266 699.619C399.266 699.619 417.359 734.979 427.677 745.37C427.677 745.37 445.62 711.057 444.125 691.62C442.63 672.183 427.228 587.034 427.228 587.034L357.323 604.004V604.079Z" fill="#804DFF"/>
<path d="M376.388 599.295C376.388 599.295 372.874 634.58 376.388 681.901C379.902 729.223 389.846 754.64 389.846 754.64C389.846 754.64 406.817 703.805 417.359 689.676C417.359 689.676 432.163 710.16 437.845 722.196C443.527 734.231 451.302 744.099 451.302 744.099C451.302 744.099 459.751 715.841 457.658 691.844C455.564 667.847 442.106 615.592 442.106 599.295C421.696 607.742 398.818 607.967 378.257 600.042L376.388 599.295Z" fill="#FE695D"/>
<path d="M408.163 612.452C436.241 612.452 459.003 589.692 459.003 561.617C459.003 533.542 436.241 510.782 408.163 510.782C380.084 510.782 357.322 533.542 357.322 561.617C357.322 589.692 380.084 612.452 408.163 612.452Z" fill="#FFEA3B"/>
<path d="M375.34 535.377C375.34 535.377 383.339 532.387 391.489 531.34C391.489 531.34 391.265 530.593 390.891 529.247C390.891 529.247 375.04 528.2 369.508 533.658L375.265 535.302L375.34 535.377Z" fill="#80406C"/>
<path d="M436.723 506.072C436.723 506.072 420.2 511.829 413.396 510.408C406.593 508.988 406.966 501.512 411.751 499.494C416.536 497.475 434.48 495.756 443.377 492.242C452.274 488.729 461.62 488.131 469.171 492.242C476.722 496.354 488.685 512.875 491.75 521.398C494.816 529.92 501.843 571.41 507.002 578.811C512.161 586.212 524.796 596.379 524.796 596.379L507.002 609.835C507.002 609.835 499.75 596.229 492.348 594.734C484.947 593.239 474.18 593.912 470.666 586.436C467.152 578.961 468.199 561.019 474.778 547.189C474.778 547.189 468.573 538.891 463.414 538.891C458.255 538.891 447.937 557.655 438.218 557.655C428.498 557.655 430.368 549.581 434.106 546.292C434.106 546.292 425.658 552.123 421.321 545.768C416.985 539.414 430.741 533.06 434.928 526.631C434.928 526.631 424.685 536.424 419.078 533.359C415.34 531.34 415.041 527.154 423.116 520.5C431.19 513.847 436.797 505.998 436.797 505.998L436.723 506.072Z" fill="#CB6454"/>
<path d="M434.031 546.366C434.031 546.366 445.845 536.424 450.779 528.275C455.265 520.874 461.844 520.426 468.199 525.061C474.554 529.696 477.993 533.882 477.993 533.882C477.993 533.882 472.012 523.566 465.508 518.482C459.003 513.399 457.732 511.903 447.34 528.126C441.433 537.396 434.031 546.516 434.031 546.516V546.366Z" fill="#823658"/>
<path d="M434.928 526.705C434.928 526.705 445.993 511.081 449.059 509.362C452.124 507.642 469.918 515.193 475.226 518.258C475.226 518.258 462.591 503.755 451.376 504.054C440.161 504.353 431.414 529.621 431.414 529.621L435.003 526.631L434.928 526.705Z" fill="#823658"/>
<path d="M436.723 506.072C436.723 506.072 443.377 497.7 454.517 499.344C465.657 500.989 466.404 502.559 466.404 502.559C466.404 502.559 460.423 495.681 443.302 495.98C426.181 496.279 421.545 510.034 421.545 510.034C421.545 510.034 433.059 507.194 436.648 505.997L436.723 506.072Z" fill="#823658"/>
<path d="M507.001 609.761L524.796 596.304C524.796 596.304 515.674 588.23 514.403 587.034L497.432 597.276C497.432 597.276 503.637 602.883 507.001 609.686V609.761Z" fill="#823658"/>
<path d="M494.367 615.965C494.367 615.965 515.003 600.64 519.339 586.212C519.339 586.212 541.918 611.181 548.572 615.965C555.226 620.75 571.45 608.564 598.216 628.674C624.982 648.784 628.496 656.708 652.122 659.325C675.748 661.941 717.916 687.807 738.476 705.824C759.111 723.765 774.438 750.528 770.924 760.621C767.41 770.713 741.093 786.935 698.178 777.74C655.188 768.545 668.795 749.631 629.767 742.006C590.74 734.381 564.647 719.504 548.572 688.779C532.498 658.129 521.059 670.389 518.89 647.139C518.89 647.139 506.18 620.376 494.367 615.965Z" fill="#967CFF"/>
<path d="M350.144 278.96C350.144 278.96 290.556 401.936 303.79 433.633C303.79 433.633 338.481 430.867 354.78 424.213C354.78 424.213 350.967 469.516 335.864 482.3C335.864 482.3 333.023 514.894 354.78 521.024C376.537 527.154 367.789 480.431 367.789 480.431C367.789 480.431 366.593 436.997 383.639 415.691L400.611 406.271C400.611 406.271 404.873 418.083 412.873 418.083C420.873 418.083 462.966 410.084 463.863 389.302C464.76 368.519 414.293 392.142 414.293 392.142C414.293 392.142 445.47 344.896 445.47 313.273C445.47 281.651 368.013 250.926 368.013 250.926L350.219 279.035L350.144 278.96Z" fill="#CB6454"/>
<path d="M340.5 250.851C340.5 250.851 318.294 313.348 411.826 289.874C411.826 289.874 399.639 319.404 443.601 328.001C443.601 328.001 398.667 369.042 414.293 392.068C414.293 392.068 445.545 352.147 450.479 344.522C455.414 336.897 453.844 295.93 453.844 295.93L401.209 250.926C401.209 250.926 341.471 234.031 340.574 250.926L340.5 250.851Z" fill="#441890"/>
<path d="M340.574 299.145C340.574 299.145 347.004 293.463 355.827 298.771L356.948 296.229C356.948 296.229 345.359 287.931 340.649 299.07L340.574 299.145Z" fill="#441890"/>
<path d="M380.874 290.697L378.406 294.509C378.406 294.509 399.416 287.408 415.715 308.34C415.715 308.34 407.565 285.539 380.874 290.622V290.697Z" fill="#441890"/>
<path d="M331.752 318.357C331.752 318.357 327.865 333.084 331.752 335.402C335.64 337.719 351.192 321.796 351.192 321.796C351.192 321.796 337.36 332.262 333.696 331.141C330.033 330.019 331.752 318.357 331.752 318.357Z" fill="#441890"/>
<path opacity="0.72" d="M350.37 303.826C350.37 303.826 325.856 370.894 319.133 377.949C310.962 386.618 299.616 388.842 298.541 369.765C297.888 358.422 308.139 317.971 314.693 301.254C321.247 284.538 324.259 279.75 328.598 275.734C335.849 269.017 361.897 275.287 350.37 303.826Z" fill="#FDEAE6"/>
<path d="M322.93 391.993C322.93 391.993 333.771 403.281 345.061 400.515C356.351 397.749 367.939 361.342 367.939 361.342C367.939 361.342 350.594 390.273 342.668 391.993C332.725 394.161 322.855 391.993 322.855 391.993H322.93Z" fill="#FDEAE6"/>
<path d="M376.836 318.357C376.836 318.357 374.892 338.392 382.294 341.158C389.696 343.924 400.537 322.17 400.537 322.17C400.537 322.17 391.191 338.542 383.49 336.747C377.958 335.476 376.836 318.357 376.836 318.357Z" fill="#441890"/>
<path d="M355.154 313.199C355.154 313.199 346.556 340.186 335.939 344.896C325.323 349.606 304.388 346.989 301.846 346.989C299.304 346.989 305.211 368.519 328.463 383.844C351.715 399.17 355.079 313.199 355.079 313.199H355.154Z" fill="#CB6454"/>
<path opacity="0.72" d="M379.603 291.893C379.603 291.893 356.8 338.766 357.323 367.099C357.847 395.432 370.482 401.337 382.145 398.796C398.967 395.133 416.238 367.622 425.733 331.813C433.584 302.209 424.537 291.968 417.808 286.585C411.079 281.203 387.379 275.446 379.528 291.893H379.603Z" fill="#FDEAE6"/>
<path d="M179.605 648.41C179.605 648.41 155.904 652.821 135.718 664.408C115.531 675.995 86.8957 689.676 74.3352 689.975C61.7746 690.274 95.8678 657.231 130.634 653.12C165.4 649.008 179.605 648.41 179.605 648.41Z" fill="#804DFF"/>
<path d="M416.686 400.964C416.686 400.964 439.863 390.498 448.237 394.385C456.61 398.273 424.835 407.991 416.686 400.964Z" fill="#823658"/>
<path d="M335.864 482.3C335.864 482.3 332.051 501.288 341.92 513.772C351.789 526.257 367.939 512.726 367.939 512.726C367.939 512.726 340.5 521.622 335.864 482.3Z" fill="#823658"/>
<path d="M292.874 630.543C292.874 630.543 299.828 642.878 304.986 647.588C304.986 647.588 315.528 637.496 320.014 633.907C324.5 630.319 336.388 633.683 341.322 622.469C346.257 611.256 344.911 594.211 347.154 592.193C349.397 590.174 368.911 586.661 377.883 586.137C386.854 585.614 398.966 579.858 397.62 572.905C396.275 565.953 375.415 570.438 369.583 572.905C363.752 575.372 348.5 581.652 346.705 579.858C344.911 578.063 364.649 570.663 372.948 569.167C381.247 567.672 404.574 559.599 406.368 554.216C408.163 548.833 405.471 547.039 397.396 547.338C391.565 547.488 381.92 550.03 381.92 550.03C381.92 550.03 408.611 543.974 408.162 535.003C407.714 526.032 387.752 532.312 381.023 533.658C374.294 535.003 365.098 539.713 360.387 543.526C355.677 547.338 339.976 556.758 338.406 556.758C336.836 556.758 335.266 551.151 338.406 546.665C341.546 542.18 350.967 528.948 354.555 528.948C358.144 528.948 378.555 538.592 387.079 536.349C395.602 534.106 391.34 525.958 379.901 518.183C368.462 510.408 362.406 509.885 357.696 511.455C352.986 513.025 325.173 534.779 319.117 545.993C313.061 557.206 313.958 566.85 316.65 575.596C319.341 584.343 318.668 605.425 314.182 613.274C309.696 621.124 292.874 630.543 292.874 630.543Z" fill="#CB6454"/>
<path d="M340.5 567.074C340.5 567.074 351.042 564.383 357.322 561.617C363.602 558.851 379.752 550.927 385.808 549.058C391.864 547.189 400.461 544.572 405.097 540.461C409.059 536.947 383.415 539.489 366.817 550.179C351.714 559.823 340.574 567.074 340.574 567.074H340.5Z" fill="#823658"/>
<path d="M375.34 535.377C375.34 535.377 386.48 531.639 391.489 531.34C391.489 531.34 378.031 529.546 369.508 533.732C369.508 533.732 374.293 535.153 375.265 535.377H375.34Z" fill="#823658"/>
<path d="M299.678 626.357C299.678 626.357 313.509 631.141 320.014 633.907L304.986 647.588C304.986 647.588 297.734 640.635 292.874 630.543L299.678 626.357Z" fill="#823658"/>
<path d="M402.48 223.64C402.48 223.64 371.079 241.432 367.191 254.066C363.303 266.7 362.48 273.727 362.48 273.727C362.48 273.727 374.443 269.989 386.032 272.157C386.032 272.157 376.537 250.777 402.405 223.565L402.48 223.64Z" fill="#783DEF"/>
<path d="M474.404 385.713C474.404 385.713 537.88 394.385 568.683 376.817C599.487 359.324 661.393 241.656 711.411 218.855C711.411 218.855 736.008 211.604 745.204 209.81C745.204 209.81 647.785 303.555 606.888 356.483C565.992 409.411 474.479 385.638 474.479 385.638L474.404 385.713Z" fill="#783DEF"/>
<path d="M485.618 407.841C485.618 407.841 603.822 421.896 634.551 437.744C665.279 453.593 706.7 520.65 706.7 520.65C706.7 520.65 682.027 516.613 672.831 514.445C672.831 514.445 640.906 455.686 619.523 442.678C598.14 429.67 485.469 407.841 485.469 407.841H485.618Z" fill="#783DEF"/>
<path d="M453.995 277.764C453.995 277.764 456.91 300.116 444.798 308.339C432.686 316.563 422.967 320.45 422.967 320.45C422.967 320.45 430.07 325.608 438.967 326.954C438.967 326.954 459.901 314.47 461.396 305.05C462.892 295.631 453.995 277.689 453.995 277.689V277.764Z" fill="#783DEF"/>
<path d="M370.93 230.293C370.93 230.293 395.304 212.426 411.378 209.884C427.453 207.343 443.602 215.865 447.49 223.64C447.49 223.64 432.237 206.52 405.023 214.818C377.808 223.116 366.594 235.975 366.594 235.975L370.93 230.218V230.293Z" fill="#441890"/>
</svg>
