<svg width="1520" height="1217" viewBox="0 0 1520 1217" fill="none" xmlns="http://www.w3.org/2000/svg">
<path d="M279.9 447.329C279.9 447.329 241.62 458.019 232.125 462.355C219.19 468.261 214.63 491.136 232.424 494.874C250.218 498.612 289.171 470.728 289.171 470.728L279.9 447.403V447.329Z" fill="#CB6454"/>
<path d="M285.133 503.396C285.133 503.396 247.003 508.928 247.003 520.366C247.003 531.804 272.049 527.618 293.956 520.142C315.862 512.666 285.133 503.471 285.133 503.471V503.396Z" fill="#CB6454"/>
<path d="M364.085 528.59C364.085 528.59 341.356 463.177 326.179 441.049C311.002 418.921 255.376 419.07 241.918 426.77C228.461 434.47 235.489 455.103 256.572 454.879C277.656 454.655 311.45 458.393 311.45 458.393L336.048 529.188C336.048 529.188 318.179 495.024 307.488 486.651C294.404 476.409 237.059 484.259 232.423 494.874C227.788 505.49 232.573 512.965 256.572 507.658C280.572 502.35 322.142 544.812 322.142 544.812L364.085 528.664V528.59Z" fill="#CB6454"/>
<path d="M305.395 628.091C305.395 628.091 283.19 625.026 279.9 608.281C276.536 591.535 293.059 539.654 293.059 539.654C293.059 539.654 355.563 511.321 364.086 528.589C368.647 537.859 359.6 604.842 359.6 604.842L305.395 628.091Z" fill="#CB6454"/>
<path d="M736.941 456.748C736.941 456.748 599.896 434.321 560.719 383.785C560.719 383.785 606.176 326.894 654.848 301.627C703.595 276.359 747.856 290.263 755.408 393.952C755.408 393.952 842.659 341.397 889.462 370.179C936.265 398.96 857.836 500.107 857.836 500.107C857.836 500.107 894.471 537.186 894.471 560.361C894.471 583.536 867.929 608.804 867.929 608.804C867.929 608.804 1139.78 496.294 1214.39 496.294C1289.01 496.294 1260.37 593.03 1158.77 653.06C1158.77 653.06 1447.06 639.155 1476.15 789.567C1505.23 940.053 1153.68 904.618 1153.68 904.618C1153.68 904.618 1251.03 981.767 1216.93 1013.32C1182.77 1044.94 977.535 915.533 867.929 751.142L833.238 696.419C833.238 696.419 772.379 704.717 735.072 669.357C697.764 633.997 736.941 456.598 736.941 456.598V456.748Z" fill="#441890"/>
<path d="M1003.18 693.504C1003.18 693.504 1179.4 697.391 1223.51 728.415C1267.62 759.439 1060.08 787.772 1060.08 787.772C1060.08 787.772 1281.68 784.633 1281.68 731.705C1281.68 678.776 1003.18 693.504 1003.18 693.504Z" fill="#783DEF"/>
<path d="M867.855 617.401C867.855 617.401 1068.45 507.134 1126.92 495.696C1185.38 484.259 1236.9 500.257 1236.9 500.257C1236.9 500.257 1195.85 472.596 1102.84 492.407C1009.83 512.218 856.341 612.841 856.341 612.841L867.855 617.401Z" fill="#3F2E7C"/>
<path d="M774.173 1124.7C774.173 1124.7 786.808 1160.36 788.827 1166.27H1079.89C1079.89 1166.27 1084.45 1104.89 1019.33 1041.57C954.208 978.254 774.248 1124.7 774.248 1124.7H774.173Z" fill="#470AA7"/>
<path d="M1049.68 1077.53C1049.68 1077.53 1007.22 1136.51 910.469 1166.34H788.826L777.163 1142.57C777.163 1142.57 952.487 1122.24 1019.33 1041.57C1019.33 1041.57 1039.14 1060.19 1049.68 1077.46V1077.53Z" fill="#330A74"/>
<path opacity="0.43" d="M674.287 470.653C674.287 470.653 589.951 517.451 557.354 572.696C557.354 572.696 543.148 608.804 685.576 483.436C685.576 483.436 689.09 474.166 674.212 470.653H674.287Z" fill="white"/>
<path d="M690.81 752.188C690.81 752.188 627.558 754.954 568.045 787.548C508.532 820.143 468.533 859.166 454.626 866.567C440.72 873.968 422.103 877.706 386.739 877.706C351.375 877.706 267.713 924.205 222.106 967.938C222.106 967.938 244.461 920.542 259.339 896.32C274.218 872.174 288.199 841.448 283.488 820.965C278.853 800.481 256.498 782.839 255.601 775.438C254.704 767.962 274.218 716.828 332.759 667.563C332.759 667.563 307.638 670.329 279.75 652.687C279.75 652.687 267.638 714.959 211.863 762.43C211.863 762.43 186.742 766.168 176.499 786.577C166.256 806.985 116.089 910.225 99.3416 936.315C82.5942 962.406 51.9402 1137.19 137.472 1165.97C223.003 1194.83 360.646 1114.84 409.917 1084.11C459.187 1053.39 542.924 917.701 580.083 917.701C580.083 917.701 596.83 920.467 605.204 950.22C613.577 979.974 647.072 1098.99 756.753 1142.72C756.753 1142.72 837.649 1149.22 963.18 1090.61C1088.71 1032 1076.6 929.737 1076.6 929.737C1076.6 929.737 1023.59 844.214 1010.58 829.338C997.572 814.461 1044.08 741.947 1057.09 713.09C1070.09 684.234 1118.92 560.586 1131.48 467.139C1144.04 373.693 1237.42 297.067 1229.12 174.315C1220.75 51.6387 1061.8 99.0347 1004.6 107.408C947.405 115.78 860.976 114.509 809.388 91.4095C757.8 68.3095 732.679 101.801 718.772 156.149C718.772 156.149 661.577 207.732 575.148 198.013L570.961 252.362C570.961 252.362 665.764 211.918 720.193 227.243C720.193 227.243 756.454 259.314 803.855 263.501C851.257 267.687 900.078 242.569 930.732 242.569C961.386 242.569 1028.38 262.08 1028.38 262.08C1028.38 262.08 1036.75 306.71 1018.58 327.642C1000.49 348.574 941.872 404.343 932.153 460.112C922.433 515.881 911.218 609.028 902.845 628.017C902.845 628.017 812.229 667.862 741.052 736.19L690.661 752.039L690.81 752.188Z" fill="#967CFF"/>
<path d="M621.353 563.875C621.353 563.875 582.475 531.131 570.887 503.396C570.887 503.396 611.41 518.946 670.773 526.721L710.324 503.396C710.324 503.396 664.119 565.52 621.353 563.875Z" fill="#CB6454"/>
<path d="M736.94 456.748C736.94 456.748 693.351 492.108 679.52 506.013C665.688 519.918 563.335 596.918 546.288 620.915C546.288 620.915 604.979 649.921 680.791 657.546C680.791 657.546 705.239 682.963 700.604 749.198C700.604 749.198 656.791 800.257 661.875 810.35C666.959 820.442 734.099 771.027 741.201 736.415C741.201 736.415 730.061 699.933 735.071 669.582L744.715 654.556C744.715 654.556 764.752 661.433 786.21 664.573C807.667 667.713 859.48 648.874 867.031 634.296C874.582 619.719 829.424 608.43 774.248 624.279C774.248 624.279 789.35 573.743 804.527 560.511C819.705 547.279 834.807 543.84 834.807 543.84C834.807 543.84 813.649 480.521 737.015 456.898L736.94 456.748Z" fill="#CB6454"/>
<path d="M611.409 575.537C611.409 575.537 620.829 581.667 637.502 582.19C654.174 582.714 695.744 575.537 695.744 575.537C695.744 575.537 653.576 608.281 620.829 608.281C588.082 608.281 611.409 575.537 611.409 575.537Z" fill="white"/>
<path d="M717.651 533.822C717.651 533.822 731.184 552.886 774.174 545.634C774.174 545.634 769.015 539.728 749.053 528.216C729.09 516.703 715.707 523.88 717.651 533.822Z" fill="white"/>
<path opacity="0.43" d="M722.66 490.09C722.66 490.09 638.624 558.492 636.53 588.844C634.437 619.195 698.885 600.805 734.996 572.472C771.108 544.139 777.837 509.377 777.837 509.377C777.837 509.377 766.323 489.118 722.66 490.015V490.09Z" fill="white"/>
<path d="M759.669 639.38C759.669 639.38 822.472 621.438 833.313 630.558C844.154 639.679 777.986 656.873 759.669 639.38Z" fill="#823658"/>
<path d="M222.107 967.863C222.107 967.863 235.714 1006.21 224.275 1025.65C212.836 1045.09 176.948 1096 176.948 1096C176.948 1096 234.069 1084.63 247.975 1061.91C261.882 1039.18 255.228 979.226 222.032 967.863H222.107Z" fill="#804DFF"/>
<path d="M580.158 917.701C580.158 917.701 508.533 923.083 472.645 945.809C436.758 968.536 406.403 1053.53 371.263 1078.65C336.124 1103.77 449.244 1028.57 495.374 975.712C541.504 922.934 580.158 917.626 580.158 917.626V917.701Z" fill="#804DFF"/>
<path d="M614.325 862.007C614.325 862.007 732.455 884.733 771.931 842.869C811.407 801.005 614.325 862.007 614.325 862.007Z" fill="#804DFF"/>
<path d="M820.378 716.38C820.378 716.38 1027.33 638.482 1029.2 565.818C1031.07 493.154 820.378 716.38 820.378 716.38Z" fill="#804DFF"/>
<path d="M1028.45 262.229C1028.45 262.229 1085.5 278.228 1115.4 272.696C1145.31 267.163 1146.5 299.533 1115.4 295.945C1084.3 292.357 1028.45 262.229 1028.45 262.229Z" fill="#804DFF"/>
<path d="M733.733 532.553C737.428 526.78 737.83 520.44 734.63 518.393C731.431 516.345 725.841 519.365 722.146 525.138C718.451 530.91 718.05 537.25 721.249 539.297C724.449 541.345 730.038 538.325 733.733 532.553Z" fill="#3F2E7C"/>
<path d="M560.719 383.785C560.719 383.785 602.214 308.579 636.456 288.096C670.699 267.612 713.614 283.311 732.679 311.868C732.679 311.868 690.137 270.229 640.568 296.244C590.999 322.26 565.354 380.944 565.354 380.944L560.719 383.785Z" fill="#3F2E7C"/>
<path d="M591.746 404.941C591.746 404.941 658.811 325.474 695.745 318.671C732.679 311.868 745.838 339.155 745.838 339.155C745.838 339.155 720.118 322.708 704.642 331.231C683.184 343.042 627.185 422.883 627.185 422.883C627.185 422.883 613.129 415.781 591.746 404.941Z" fill="#783DEF"/>
<path d="M721.763 453.832C721.763 453.832 772.006 379.075 850.509 363.75C850.509 363.75 860.079 362.33 869.5 363.75C869.5 363.75 840.939 379.374 820.304 404.268C799.37 429.611 783.295 464.523 783.295 464.523L721.688 453.758L721.763 453.832Z" fill="#783DEF"/>
<path d="M790.845 580.77C790.845 580.77 845.947 591.685 885.946 580.77C885.946 580.77 856.19 599.086 783.368 597.964L790.845 580.77Z" fill="#783DEF"/>
<path d="M1140.6 651.416C1140.6 651.416 1317.64 631.082 1382.24 669.582C1446.84 708.082 1472.78 776.26 1472.78 776.26C1472.78 776.26 1439.21 687.15 1377.16 657.92C1303.14 623.083 1140.6 640.501 1140.6 640.501V651.416Z" fill="#3F2E7C"/>
<path d="M834.733 543.69C834.733 543.69 866.284 541.597 885.872 543.69C885.872 543.69 880.34 531.654 871.592 528.589C862.845 525.524 824.938 524.104 824.938 524.104L834.658 543.69H834.733Z" fill="#783DEF"/>
<path d="M169.621 828.216C169.621 828.216 169.621 911.047 144.948 934.596C120.276 958.144 129.248 875.239 169.621 828.216Z" fill="#804DFF"/>
<path d="M744.192 474.914C744.192 474.914 787.183 491.734 808.865 539.653C808.865 539.653 808.864 494.799 751.669 464.597L744.192 474.914Z" fill="#3F2E7C"/>
<path d="M762.136 463.476C778.509 417.575 816.565 367.413 869.499 367.039C819.406 378.253 788.229 422.658 762.136 463.476Z" fill="#441890"/>
<path d="M575.223 198.088L571.036 252.436C571.036 252.436 588.307 241.597 591.746 227.916C595.185 214.235 575.223 198.013 575.223 198.013V198.088Z" fill="#804DFF"/>
<path d="M680.791 657.471C680.791 657.471 707.557 660.012 710.323 661.657C713.09 663.302 692.903 679.748 692.903 679.748C692.903 679.748 689.09 665.694 680.791 657.471Z" fill="#823658"/>
<path d="M741.201 736.265C741.201 736.265 701.276 789.791 669.726 789.791C667.258 789.791 659.109 807.808 661.875 810.2C661.875 810.2 667.258 819.246 694.099 797.342C717.501 778.279 737.687 753.31 741.276 736.19L741.201 736.265Z" fill="#823658"/>
<path d="M624.12 1004.27C624.12 1004.27 671.222 1038.73 721.614 1051.96C772.006 1065.2 824.715 945.435 842.883 940.053C946.209 909.477 980.974 991.561 999.815 1000.68C1018.66 1009.8 1068.38 984.458 1068.38 984.458C1068.38 984.458 1056.94 1027.82 1004.75 1066.47C952.564 1105.12 847.518 1131.8 847.518 1131.8C847.518 1131.8 788.155 1145.11 756.679 1142.79C756.679 1142.79 714.586 1126.35 681.39 1092.03C644.082 1053.46 624.045 1004.34 624.045 1004.34L624.12 1004.27Z" fill="#864DFF"/>
<path d="M588.381 231.729C588.381 231.729 559.746 238.531 547.634 248.325C547.634 248.325 536.345 287.572 514.438 290.562C492.532 293.553 479 288.32 463.897 298.861C448.794 309.401 443.561 313.962 433.767 310.896C423.972 307.831 428.458 279.424 454.85 271.798C481.243 264.173 498.364 271.724 508.682 266.416C518.999 261.108 518.252 227.991 518.252 227.991C518.252 227.991 497.915 215.207 483.56 212.142C469.205 209.077 461.654 209.152 461.654 209.152C461.654 209.152 463.149 237.784 460.906 250.642C458.663 263.426 456.346 283.087 446.551 287.572C436.757 292.058 433.767 265.668 433.767 265.668C433.767 265.668 426.215 280.022 417.169 280.022C408.122 280.022 404.384 266.416 408.87 255.128C408.87 255.128 388.384 264.323 383.225 255.875C381.207 252.511 382.702 247.502 389.58 240.625C402.814 227.393 427.935 209.152 428.458 196.294C428.458 196.294 380.235 207.582 371.188 200.032C362.141 192.481 368.87 178.128 384.721 178.128C400.571 178.128 440.495 166.092 451.112 161.532C461.729 156.971 495.598 163.774 512.196 176.633C528.793 189.416 556.756 204.592 578.587 206.76C590.475 207.956 588.381 231.654 588.381 231.654V231.729Z" fill="#CB6454"/>
<path d="M557.952 242.195C557.952 242.195 531.26 238.232 518.251 227.991C518.251 227.991 518.401 242.718 516.606 250.119L547.709 248.325L557.952 242.195Z" fill="#823658"/>
<path d="M428.533 196.294C428.533 196.294 455.673 187.098 459.86 186.575C464.047 186.052 518.252 227.991 518.252 227.991C518.252 227.991 493.579 214.534 480.794 209.6C468.009 204.666 448.197 204.143 448.197 204.143C448.197 204.143 432.795 242.12 408.87 255.202C408.87 255.202 435.86 222.01 438.627 207.059L428.459 196.368L428.533 196.294Z" fill="#823658"/>
<path d="M433.842 265.669C433.842 265.669 452.608 221.338 453.879 199.135L459.337 192.631C459.337 192.631 460.458 243.092 434.664 270.902L433.842 265.669Z" fill="#823658"/>
<path d="M250.517 454.356C250.517 454.356 265.321 454.729 268.012 454.356L274.442 422.135C274.442 422.135 281.321 422.434 283.339 422.808L261.583 507.209L259.863 489.94C259.863 489.94 252.087 488.744 244.237 489.94C236.387 491.136 233.471 493.304 233.471 493.304C233.471 493.304 249.022 484.557 259.639 483.511L264.274 461.233L250.443 454.43L250.517 454.356Z" fill="#823658"/>
<path d="M309.358 534.794C309.358 534.794 322.89 549.372 322.068 558.866C322.068 558.866 298.367 580.92 301.881 604.543C301.881 604.543 285.956 609.776 279.676 598.936L283.414 575.537L309.358 534.794Z" fill="#823658"/>
<path d="M280.348 349.322C280.348 354.48 323.637 377.505 330.441 380.197C335.301 382.14 349.506 378.477 357.207 376.309C355.039 376.758 352.871 376.833 350.628 376.533C332.759 374.291 301.731 353.284 296.871 347.229C292.012 341.173 295.152 308.43 301.582 302.15C308.011 295.87 333.88 290.189 333.88 290.189L335.226 275.686C323.338 278.527 296.199 285.479 289.47 290.637C280.797 297.366 280.273 344.164 280.273 349.322H280.348Z" fill="#98F7F9"/>
<path d="M399.823 278.228L370.366 311.121C370.366 311.121 389.954 331.156 388.758 343.491C387.861 353.134 376.048 369.207 362.366 374.739C362.366 374.739 362.216 374.739 361.992 374.889C360.422 375.487 358.852 376.01 357.282 376.309C349.581 378.552 335.301 382.14 330.516 380.197C323.712 377.505 280.423 354.48 280.423 349.322C280.423 344.164 280.946 297.366 289.619 290.637C296.348 285.479 323.413 278.527 335.375 275.686L338.74 239.653C308.46 238.008 267.488 258.268 260.685 266.79C248.423 282.265 235.638 345.285 246.33 364.273C256.722 382.738 287.301 407.857 287.301 407.857L247.451 562.529C244.012 573.519 251.264 586.153 273.395 588.096C295.825 590.04 300.983 573.593 300.983 573.593L332.983 425.873C332.983 425.873 364.683 427.219 379.861 420.715C395.038 414.211 427.636 390.065 436.234 358.218C444.832 326.371 399.823 278.228 399.823 278.228Z" fill="#7ACDD4"/>
<path d="M362.365 374.739C362.365 374.739 362.141 374.814 361.991 374.889C362.216 374.889 362.365 374.739 362.365 374.739Z" fill="#7ACDD4"/>
<path d="M332.984 425.873H319.301L309.731 467.139L321.32 479.474L332.984 425.873Z" fill="#98F7F9"/>
<path d="M279.451 677.207C279.451 677.207 301.058 628.989 301.881 618.373C302.629 607.757 304.498 576.434 322.067 558.866C322.067 558.866 316.759 540.476 301.881 527.468C287.003 514.461 262.704 479.474 283.563 464.298C300.759 451.739 326.778 505.789 336.422 533.897C346.291 562.455 366.329 557.446 362.59 580.023C358.852 602.599 363.039 645.884 314.666 668.759C272.648 688.645 279.376 677.356 279.376 677.356L279.451 677.207Z" fill="#CB6454"/>
<path d="M279.75 652.687C279.75 652.687 293.208 662.928 322.442 667.414C322.442 667.414 261.284 710.324 238.929 771.999C238.929 771.999 225.994 765.047 219.415 765.047C219.415 765.047 272.274 720.043 279.75 652.612V652.687Z" fill="#804DFF"/>
<path d="M399.823 278.228C399.823 278.228 424.346 317.475 429.954 342.893C435.561 368.31 401.767 401.054 398.253 403.521C394.739 405.988 368.272 423.855 368.272 423.855C368.272 423.855 378.291 422.658 386.889 417.126C395.487 411.594 430.627 389.092 436.309 358.218C441.991 327.343 420.832 304.692 399.898 278.228H399.823Z" fill="#98F7F9"/>
<path d="M306.665 547.279L297.095 541.896C297.095 541.896 292.236 567.164 287.899 575.537C283.563 583.91 280.423 588.246 280.423 588.246C280.423 588.246 294.927 588.171 300.983 573.594L306.665 547.354V547.279Z" fill="#98F7F9"/>
<path d="M755.407 393.877C755.407 393.877 804.378 352.461 850.21 352.461C896.041 352.461 903.592 391.186 903.592 391.186C903.592 391.186 900.751 352.761 847.967 347.154C795.182 341.547 745.763 404.044 745.763 404.044L755.332 393.877H755.407Z" fill="#441890"/>
<path d="M720.268 227.393C720.268 227.393 708.829 205.19 714.885 177.006C714.885 177.006 682.212 204.667 627.933 219.244L621.503 236.065C621.503 236.065 694.025 203.47 720.268 227.393Z" fill="#804DFF"/>
</svg>
