<svg width="1417" height="1479" viewBox="0 0 1417 1479" fill="none" xmlns="http://www.w3.org/2000/svg">
<path d="M146.376 1239.58L5.51108 1398.71C-6.12047 1411.84 1.8055 1433.61 18.5838 1434.74L646.533 1478.44C666.863 1479.82 685.905 1467.73 694.655 1447.92L759.503 1301.23C765.473 1287.75 757.033 1271.95 743.188 1270.82L188.168 1222.44C172.522 1221.1 157.185 1227.43 146.376 1239.68V1239.58Z" fill="#804DFF"/>
<path d="M59.2969 1411.53L616.891 1446.89C634.338 1448.02 650.705 1438.39 658.322 1422.64L716.891 1300.72C721.369 1291.4 715.09 1280.49 704.745 1279.67L210.095 1241.74C196.559 1240.71 183.281 1245.8 173.914 1255.69L49.5697 1386.72C40.9747 1395.78 46.8419 1410.76 59.2969 1411.53Z" fill="#8FE5D5"/>
<path d="M407.009 1398.81C538.87 1398.81 645.765 1369.23 645.765 1332.73C645.765 1296.23 538.87 1266.65 407.009 1266.65C275.148 1266.65 168.254 1296.23 168.254 1332.73C168.254 1369.23 275.148 1398.81 407.009 1398.81Z" fill="#AEFFEF"/>
<path d="M639.585 1347.5C639.585 1347.5 688.633 1304.12 687.758 1289.6C686.883 1275.09 647.202 1304.89 647.202 1304.89C647.202 1304.89 694.757 1237.88 682.199 1219.66C663.929 1193 556.568 1276.01 556.568 1276.01L639.585 1347.55V1347.5Z" fill="#AEFFEF"/>
<path d="M168.251 1332.73C168.251 1332.73 123.321 1229.95 125.379 1135.41C127.181 1053.78 197.33 1195.06 197.33 1195.06C197.33 1195.06 230.681 1033.61 264.031 1028.36C297.382 1023.11 278.082 1188.06 278.082 1188.06C278.082 1188.06 391.618 1055.53 418.484 1051.21C445.35 1046.89 355.334 1284.61 355.334 1284.61L168.303 1332.79L168.251 1332.73Z" fill="#AEFFEF"/>
<path d="M438.761 739.265C438.761 739.265 278.287 737.721 324.453 632.78C324.453 632.78 234.179 647.499 173.294 627.53C112.408 607.561 74.5801 475.445 154.663 382.598C217.041 310.236 329.188 307.611 329.188 307.611C329.188 307.611 254.252 269.783 289.301 127.167C315.909 18.8807 429.857 -15.2934 488.735 11.3151C546.996 37.6147 570.414 121.506 570.414 121.506C570.414 121.506 627.954 44.8201 697.692 41.7321C783.178 37.9235 858.783 159.283 777.62 294.59C777.62 294.59 931.352 212.706 912.412 393.458C893.678 572.512 665.422 662.785 665.422 662.785L438.761 739.368V739.265Z" fill="#441890"/>
<path d="M777.62 294.538C777.62 294.538 833.513 225.212 804.64 108.639C775.767 -7.93394 622.035 23.9242 570.465 121.454C570.465 121.454 650.959 37.46 721.109 80.7438C791.258 124.028 751.011 304.625 751.011 304.625L777.671 294.538H777.62Z" fill="#804DFF"/>
<path d="M324.451 632.783C324.451 632.783 291.306 693.72 351.317 722.027L381.322 706.484C381.322 706.484 327.59 700.256 324.451 632.783Z" fill="#804DFF"/>
<path d="M317.095 632.266C317.095 632.266 258.937 702.93 355.489 725.936L358.423 724.958C358.423 724.958 278.907 711.782 317.147 632.266H317.095Z" fill="#804DFF"/>
<path d="M339.429 1120.43C339.429 1120.43 326.511 1135.72 314.776 1154.45C303.042 1173.24 256.104 1242.51 256.104 1322.34C256.104 1322.34 293.572 1361.92 416.372 1358.78C465.78 1357.49 544.885 1344.21 575.405 1321.21L567.17 1270.72L339.429 1120.43Z" fill="#441890"/>
<path d="M563.569 671.175C563.569 671.175 671.29 645.698 660.533 684.556C649.828 723.414 551.32 731.648 551.32 731.648L563.569 671.175Z" fill="#8FE5D5"/>
<path d="M375.047 915.592C375.047 915.592 465.166 851.412 531.198 859.235C580.401 865.103 615.81 920.481 615.81 920.481C615.81 920.481 610.715 968.14 623.17 972C635.625 975.86 627.442 937.414 627.442 937.414C627.442 937.414 713.649 973.904 729.912 1001.7C746.228 1029.49 776.902 1087.08 802.79 1098.56C828.678 1110.09 864.19 1109.11 904.437 1140.76C944.736 1172.41 1027.19 1274.06 1031.05 1312.45C1034.91 1350.85 1026.77 1428.77 953.434 1423.01C853.33 1415.18 822.965 1325.84 786.475 1296.14C750.036 1266.39 691.518 1221.31 664.652 1136.95C664.652 1136.95 638.764 1168.6 653.124 1192.59C667.535 1216.57 672.321 1269.32 644.477 1276.02C616.685 1282.71 508.296 1297.12 415.243 1241.48C322.191 1185.85 327.029 1118.73 327.029 1118.73C327.029 1118.73 280.039 1151.36 221.521 1128.31C163.003 1105.25 134.233 1023.78 138.093 979.668C141.953 935.561 173.708 884.351 173.708 884.351L374.944 915.592H375.047Z" fill="#967CFF"/>
<path d="M347.872 1101.54C347.872 1101.54 391.928 1062.84 410.61 1028.1C429.293 993.358 446.071 891.916 463.467 875.91C463.467 875.91 526.771 932.421 445.351 1046.78C420.132 1082.19 490.744 1109.52 494.759 1145.6C498.773 1181.68 410.765 1166.54 415.397 1241.53C415.397 1241.53 326.462 1192.07 327.182 1118.78L347.923 1101.54H347.872Z" fill="#804DFF"/>
<path d="M664.703 1136.95C664.703 1136.95 680.967 1121.3 687.297 1102.16C693.628 1083.01 673.658 1031.19 673.658 1031.19C673.658 1031.19 720.082 1075.76 729.191 1118.53C738.301 1161.29 713.7 1226.81 713.7 1226.81C713.7 1226.81 683.952 1195.37 664.703 1136.9V1136.95Z" fill="#804DFF"/>
<path d="M458.111 1262.07L505.461 1204.58C515.446 1192.49 530.834 1186.26 546.377 1188.01L590.845 1193C606.131 1194.7 615.395 1210.71 609.27 1224.81L584.875 1281.06" stroke="#804DFF" stroke-miterlimit="10"/>
<path d="M603.556 919.606C603.556 919.606 636.958 876.528 636.752 860.367C636.752 860.367 600.005 859.029 585.851 849.354C571.647 839.626 553.942 805.349 567.118 769.374C580.293 733.398 619.305 707.099 619.305 707.099L789.61 723.105L802.27 736.229C802.27 736.229 791.102 776.785 792.646 793.924C794.19 811.062 826.1 829.899 846.378 832.781L793.984 865.102C793.984 865.102 790.793 908.798 784.669 913.893C778.544 918.988 705.976 913.893 691.256 913.893C676.536 913.893 644.112 928.201 633.973 935.612C633.973 935.612 634.488 982.447 622.342 985.896C610.195 989.344 603.608 919.606 603.608 919.606H603.556Z" fill="#CB6454"/>
<path d="M733.822 1248.17L754.615 1225.12C768.563 1209.68 792.701 1209.26 807.163 1224.19L847.101 1265.47C860.483 1279.31 860.637 1301.24 847.359 1315.23L824.713 1339.53" stroke="#804DFF" stroke-miterlimit="10"/>
<path d="M892.749 1365.06C892.749 1365.06 850.495 1306.33 868.766 1264.44C883.485 1230.73 862.435 1223.06 857.134 1195.78C848.282 1150.28 883.279 1126.04 883.279 1126.04C883.279 1126.04 972.215 1166.8 944.937 1278.18C926.254 1354.35 892.749 1365 892.749 1365V1365.06Z" fill="#804DFF"/>
<path d="M935.883 1235.56C935.883 1235.56 896.665 1167.99 912.826 1135.77C928.935 1103.55 981.328 1082.04 984.005 1072.62C986.681 1063.2 958.477 1010.81 961.153 981.266C963.829 951.724 985.343 914.101 1016.22 887.236C1047.1 860.37 1078.04 850.951 1080.71 836.18C1083.39 821.409 1090.13 760.935 1087.45 727.379C1087.45 727.379 1129.09 758.259 1149.27 758.259C1149.27 758.259 1121.06 836.18 1121.06 854.966C1121.06 873.751 1165.37 935.563 1168.1 1025.58C1170.83 1115.59 1147.93 1147.81 1147.93 1180.08C1147.93 1212.35 1172.12 1302.32 1129.14 1354.71C1086.17 1407.1 953.021 1448.54 915.553 1404.43C855.183 1333.35 935.935 1235.56 935.935 1235.56H935.883Z" fill="#967CFF"/>
<path d="M631.917 692.894C631.917 692.894 709.426 691.865 722.705 669.991C736.035 648.118 797.898 575.343 851.218 580.13C904.486 584.865 882.201 671.02 882.201 671.02C882.201 671.02 937.374 620.583 973.555 619.656C1009.74 618.73 1031.61 669.116 981.172 711.01C930.735 752.905 840.358 752.905 840.358 752.905C840.358 752.905 739.74 727.48 697.846 727.48C655.952 727.48 631.402 738.494 637.115 746.111C642.828 753.728 642.416 776.682 639.586 786.204C636.755 795.725 630.064 805.247 630.064 805.247C630.064 805.247 616.734 775.756 592.956 778.587C569.179 781.417 572.987 846.163 631.042 846.163L646.276 860.419C646.276 860.419 628.211 874.676 597.743 875.653C567.274 876.631 527.336 837.568 527.336 772.874C527.336 708.18 632.02 692.946 632.02 692.946L631.917 692.894Z" fill="#441890"/>
<path d="M1100.21 744.416C1100.21 744.416 1109.79 719.866 1110.4 706.69C1111.02 693.515 1106.8 650.437 1114.01 625.887C1121.21 601.337 1163.11 567.214 1172.06 554.656C1181.02 542.099 1199.6 575.604 1158.27 611.528C1116.94 647.452 1167.84 648.069 1174.43 645.033C1181.02 641.996 1220.54 626.453 1233.1 612.711C1245.66 598.97 1257.03 544.466 1269.64 534.276C1282.2 524.085 1285.19 549.819 1279.22 574.986L1273.25 600.153C1273.25 600.153 1294.19 553.473 1301.96 542.665C1309.74 531.908 1324.71 536.695 1324.71 549.252C1324.71 561.81 1313.34 618.682 1291.21 635.46C1269.08 652.238 1253.07 667.472 1253.07 667.472C1253.07 667.472 1279.94 644.569 1292.49 645.136C1305.05 645.702 1291.82 673.545 1291.82 673.545C1291.82 673.545 1312.46 677.302 1307.68 694.029C1302.89 710.807 1218.74 759.341 1186.42 761.142C1154.1 762.944 1140.92 759.958 1140.92 759.958L1100.21 744.416Z" fill="#CB6454"/>
<path opacity="0.36" d="M611.07 770.455C611.07 770.455 640.201 764.176 652.193 763.61V762.94C651.215 754.243 657.442 746.523 666.14 745.545C691.822 742.714 744.216 739.266 786.727 751.515C795.837 754.14 802.27 762.22 802.631 771.69C802.888 778.895 803.094 787.902 802.939 796.909C802.682 809.467 792.028 819.245 779.522 818.319C754.818 816.466 712.615 814.099 671.544 815.54C663.464 815.849 656.464 809.827 655.435 801.798L653.891 789.909C653.891 789.909 628.775 789.909 612.203 795.056L611.07 770.506V770.455Z" fill="white"/>
<path d="M161.046 988.467C161.046 988.467 152.554 926.861 173.81 884.35C195.066 841.838 267.326 807.87 286.42 782.342C305.514 756.814 391.464 649.66 473.4 648.476C513.75 647.91 583.9 637.874 609.376 586.87L660.38 610.236C660.38 610.236 584.774 668.909 572.062 690.164C559.35 711.42 557.188 793.253 520.132 818.523C445.916 869.115 437.527 944.823 404.074 991.453C355.952 1058.57 279.987 1069.27 235.365 1069.27C190.743 1069.27 167.377 1039.52 160.995 988.519L161.046 988.467Z" fill="#967CFF"/>
<path d="M310.557 755.479L341.437 793.411C352.863 807.41 352.76 827.533 341.231 841.481L287.706 906.021C271.545 925.475 241.231 923.931 227.129 902.933L196.197 856.612" stroke="#804DFF" stroke-miterlimit="10"/>
<path d="M611.382 598.092C611.382 598.092 625.741 577.197 627.748 562.117C627.748 562.117 587.861 511.782 571.546 494.798C555.231 477.814 540.82 447.088 544.732 406.532C548.643 365.976 558.474 367.983 565.01 368.601C571.546 369.218 572.833 424.803 572.833 441.838C572.833 458.874 594.398 483.012 598.309 483.012C602.221 483.012 603.559 473.182 601.603 461.447C599.647 449.713 590.486 377.762 593.111 348.323C595.736 318.884 608.808 302.568 625.123 303.238C641.49 303.907 632.329 356.197 628.417 382.342C624.506 408.488 623.168 477.145 627.131 481.056C631.094 484.968 634.954 473.233 636.292 467.984C637.63 462.734 644.115 393.459 655.901 364.02C667.687 334.581 686.626 313.685 697.074 313.685C707.522 313.685 716.683 327.427 700.986 359.44C685.288 391.452 654.562 447.706 656.518 482.343C656.518 482.343 660.43 483.63 663.054 481.056C665.679 478.483 683.332 422.229 699.03 401.951C714.727 381.673 759.813 350.33 768.305 353.572C776.797 356.866 780.708 386.923 740.821 410.443C700.934 433.964 687.193 481.725 685.906 494.129C684.619 506.532 689.2 530.722 693.111 531.391C697.023 532.06 723.734 520.84 727.646 495.107C734.131 452.132 746.74 445.75 753.945 445.081C761.151 444.412 778.135 488.879 754.614 520.892C731.094 552.904 646.07 610.444 646.07 610.444L611.433 598.041L611.382 598.092Z" fill="#CB6454"/>
<path d="M253.788 878.125C263.311 878.125 271.03 870.406 271.03 860.884C271.03 851.362 263.311 843.643 253.788 843.643C244.266 843.643 236.547 851.362 236.547 860.884C236.547 870.406 244.266 878.125 253.788 878.125Z" stroke="#804DFF" stroke-miterlimit="10"/>
<path d="M551.421 1248.69C560.546 1248.69 567.942 1241.29 567.942 1232.17C567.942 1223.04 560.546 1215.65 551.421 1215.65C542.297 1215.65 534.9 1223.04 534.9 1232.17C534.9 1241.29 542.297 1248.69 551.421 1248.69Z" stroke="#804DFF" stroke-miterlimit="10"/>
<path d="M781.325 1269.17C790.848 1269.17 798.567 1261.45 798.567 1251.93C798.567 1242.41 790.848 1234.69 781.325 1234.69C771.803 1234.69 764.084 1242.41 764.084 1251.93C764.084 1261.45 771.803 1269.17 781.325 1269.17Z" stroke="#804DFF" stroke-miterlimit="10"/>
<path d="M769.973 788.312C771.36 783.034 759.268 775.283 742.966 771C726.663 766.717 712.323 767.524 710.937 772.802C709.55 778.08 721.642 785.831 737.944 790.114C754.247 794.397 768.586 793.59 769.973 788.312Z" fill="#FEFFFE"/>
<path d="M759.505 791.349C762.802 791.349 765.475 786.464 765.475 780.438C765.475 774.412 762.802 769.527 759.505 769.527C756.208 769.527 753.535 774.412 753.535 780.438C753.535 786.464 756.208 791.349 759.505 791.349Z" fill="#441890"/>
<path d="M704.998 744.982C704.998 744.982 755.127 716.417 775.817 730.416C796.507 744.415 757.855 727.02 704.998 744.982Z" fill="#270968"/>
<path d="M1114.68 612.041C1114.68 612.041 1127.44 623.106 1159.46 618.886C1159.46 618.886 1147.52 627.43 1147.1 636.385C1146.69 645.34 1166.3 644.465 1178.65 639.782C1191.01 635.098 1214.01 625.731 1214.01 625.731L1285.19 716.931C1285.19 716.931 1220.39 763.406 1174.38 763.406C1128.37 763.406 1100.27 744.466 1100.27 744.466C1100.27 744.466 1106.7 711.269 1104.49 690.94C1099.34 644.465 1114.73 612.092 1114.73 612.092L1114.68 612.041Z" fill="#441890"/>
<path d="M1292.45 645.132C1292.45 645.132 1193.48 649.198 1196.92 670.66C1200.37 692.121 1249.27 686.563 1269.03 681.828C1288.79 677.093 1291.78 673.593 1291.78 673.593C1291.78 673.593 1302.12 650.948 1292.45 645.183V645.132Z" fill="#CB6454"/>
<path d="M1282.77 672.821C1282.77 672.821 1233.82 683.526 1222.24 694.283C1210.66 705.04 1220.55 719.193 1246.28 714.046C1272.01 708.9 1303.36 685.739 1303.36 685.739C1303.36 685.739 1308.91 673.696 1282.77 672.873V672.821Z" fill="#CB6454"/>
<path d="M725.74 842.355C725.74 842.355 739.482 877.456 766.914 872.618L725.74 842.355Z" fill="#FEFFFE"/>
<path d="M362.693 212.655C383.556 212.655 400.47 195.742 400.47 174.878C400.47 154.015 383.556 137.102 362.693 137.102C341.829 137.102 324.916 154.015 324.916 174.878C324.916 195.742 341.829 212.655 362.693 212.655Z" fill="#8FE5D5"/>
<path d="M1263.32 538.597C1294.61 538.597 1319.98 513.227 1319.98 481.932C1319.98 450.636 1294.61 425.267 1263.32 425.267C1232.02 425.267 1206.65 450.636 1206.65 481.932C1206.65 513.227 1232.02 538.597 1263.32 538.597Z" fill="#967CFF"/>
<path d="M419.512 199.43L730.321 331.031" stroke="#8FE5D5" stroke-width="11" stroke-miterlimit="10" stroke-linecap="round"/>
<path d="M622.499 824.649C622.499 824.649 612.874 792.945 601.191 790.423C589.508 787.902 604.125 816.311 622.499 824.649Z" fill="#823658"/>
<path d="M840.305 752.801C840.305 752.801 931.401 757.022 991.155 706.584C1050.96 656.146 991.155 623.465 991.155 623.465C991.155 623.465 1021.98 715.848 840.305 752.801Z" fill="#783DEF"/>
<path d="M851.219 580.08C851.219 580.08 884.055 590.785 872.732 633.451C861.409 676.066 814.111 744.723 814.111 744.723L786.113 733.4C786.113 733.4 834.75 680.75 850.087 638.804C865.424 596.858 851.219 580.132 851.219 580.132V580.08Z" fill="#783DEF"/>
<path d="M840.305 752.801C840.305 752.801 953.429 758.874 988.942 733.81C1024.45 708.745 1012.62 650.948 1012.62 650.948L1014.98 648.992C1014.98 648.992 1041.85 703.187 988.221 740.758C934.592 778.329 840.305 752.75 840.305 752.75V752.801Z" fill="#783DEF"/>
<path d="M1263.31 629.64C1344.89 629.64 1411.02 563.507 1411.02 481.929C1411.02 400.351 1344.89 334.219 1263.31 334.219C1181.74 334.219 1115.6 400.351 1115.6 481.929C1115.6 563.507 1181.74 629.64 1263.31 629.64Z" stroke="#8FE5D5" stroke-width="11" stroke-miterlimit="10" stroke-linecap="round"/>
<path d="M329.189 307.611C329.189 307.611 143.959 306.736 100.932 469.063C55.5382 640.243 230.681 659.183 324.454 632.78C324.454 632.78 168.92 631.288 150.083 535.302C124.864 406.994 241.695 327.684 329.189 307.611Z" fill="#804DFF"/>
<path d="M646.174 860.367L635.418 867.212C635.418 867.212 594.09 887.542 570.929 868.962C547.769 850.383 543.395 836.847 543.395 836.847C543.395 836.847 570.724 867.881 598.258 867.881C625.793 867.881 646.174 860.367 646.174 860.367Z" fill="#804DFF"/>
<path d="M329.187 307.61C329.187 307.61 289.815 290.214 276.434 224.182C263.001 158.15 300.16 21.9682 415.703 2.35926C531.247 -17.2497 565.267 90.934 570.465 121.454C570.465 121.454 522.858 12.4468 386.47 58.4069C261.096 100.661 295.322 278.583 329.239 307.61H329.187Z" fill="#804DFF"/>
<path d="M750.963 304.628C750.963 304.628 864.448 234.994 905.673 303.702C946.898 372.411 919.415 529.179 722.811 630.93C722.811 630.93 909.79 490.682 887.814 338.082C868.565 261.087 750.963 304.628 750.963 304.628Z" fill="#804DFF"/>
<path d="M789.408 389.96C810.271 389.96 827.185 373.047 827.185 352.183C827.185 331.319 810.271 314.406 789.408 314.406C768.544 314.406 751.631 331.319 751.631 352.183C751.631 373.047 768.544 389.96 789.408 389.96Z" fill="#8FE5D5"/>
<path d="M774.84 281.825C844.423 245.901 938.196 251.254 938.505 348.629C935.469 417.441 894.346 494.127 840.563 536.638C890.177 493.149 931.197 414.919 933.358 348.578C933.925 254.342 842.468 251.562 774.84 281.825Z" fill="#804DFF"/>
<path d="M426.87 5.0918C372.109 12.0913 319.253 38.8027 282.196 79.8219C258.573 108.077 248.074 145.545 246.787 181.881C244.162 235.819 270.205 297.682 329.546 305.093L328.929 310.137C271.183 306.997 210.297 318.681 162.175 352.031C79.828 410.292 51.058 531.188 130.523 604.837C47.9185 531.188 75.8136 408.49 159.602 348.326C208.701 314.203 270.359 301.748 329.443 305.093L328.826 310.137C310.04 307.461 291.872 299.072 278.131 285.793C237.163 244.928 235.31 178.69 252.551 126.657C275.66 55.2722 356.103 13.0177 426.87 5.0918Z" fill="#804DFF"/>
<path d="M1237.27 686.1C1237.27 686.1 1273.15 673.387 1291.78 673.542C1291.78 673.542 1292.19 664.175 1281.07 664.586C1269.95 664.998 1222.35 685.688 1222.35 685.688C1222.35 685.688 1230.12 686.511 1237.27 686.1Z" fill="#823658"/>
<path d="M583.077 892.897C583.077 892.897 572.784 973.804 578.651 1006.18C584.519 1038.55 646.331 1057.64 649.264 1034.12C652.198 1010.6 646.331 950.283 646.331 950.283" stroke="#804DFF" stroke-miterlimit="10" stroke-linecap="round"/>
<path d="M1157.55 971.33L1119.1 978.33C1099.24 981.932 1085.34 1000.1 1087.04 1020.22L1092.6 1085.48C1094.5 1107.77 1114.58 1123.93 1136.71 1121.05L1157.5 1118.32" stroke="#804DFF" stroke-miterlimit="10"/>
<path d="M1125.49 1040.76C1135.01 1040.76 1142.73 1033.04 1142.73 1023.52C1142.73 1014 1135.01 1006.28 1125.49 1006.28C1115.97 1006.28 1108.25 1014 1108.25 1023.52C1108.25 1033.04 1115.97 1040.76 1125.49 1040.76Z" stroke="#804DFF" stroke-miterlimit="10"/>
<path d="M630.939 846.06C630.939 846.06 637.167 860.985 634.954 869.426C632.741 877.866 661.459 854.191 661.459 854.191L630.939 846.111V846.06Z" fill="#CB6454"/>
<path d="M846.02 374.106L1190.85 471.636" stroke="#8FE5D5" stroke-width="11" stroke-miterlimit="10" stroke-linecap="round"/>
<path d="M623.736 625.782C623.736 625.782 541.389 660.008 521.831 701.593C502.274 743.179 542.212 771.691 542.212 771.691C542.212 771.691 547.925 700.77 561.77 682.859C575.614 664.949 623.736 625.782 623.736 625.782Z" fill="#804DFF"/>
</svg>
