<svg width="1825" height="1259" viewBox="0 0 1825 1259" fill="none" xmlns="http://www.w3.org/2000/svg">
<rect x="110" y="759" width="1559" height="127" rx="63.5" fill="#EEE9FF"/>
<path d="M737.37 98.5543C737.37 98.5543 1135.53 101.413 1224.99 101.85C1314.45 102.334 1504.18 84.7911 1534.81 100.202C1534.81 100.202 1514.84 528.506 1510.91 614.331C1510.91 614.331 1021.84 598 920.167 594.995C818.495 591.99 734.074 594.995 734.074 594.995C734.074 594.995 728.308 216.268 737.418 98.5543H737.37Z" fill="#BFABFF"/>
<path d="M779.291 133.397C779.291 133.397 1135.29 135.869 1215.3 136.257C1295.31 136.644 1464.93 121.524 1492.31 134.851C1492.31 134.851 1474.42 504.759 1470.98 578.905C1470.98 578.905 1033.67 564.803 942.752 562.186C851.838 559.569 776.335 562.186 776.335 562.186C776.335 562.186 771.149 235.07 779.339 133.446L779.291 133.397Z" fill="white"/>
<path d="M992.279 241.031C1002.56 241.031 1010.89 232.7 1010.89 222.422C1010.89 212.145 1002.56 203.813 992.279 203.813C982.002 203.813 973.67 212.145 973.67 222.422C973.67 232.7 982.002 241.031 992.279 241.031Z" fill="#864DFF"/>
<path d="M992.277 233.084C998.165 233.084 1002.94 228.311 1002.94 222.422C1002.94 216.534 998.165 211.761 992.277 211.761C986.388 211.761 981.615 216.534 981.615 222.422C981.615 228.311 986.388 233.084 992.277 233.084Z" fill="#470AA7"/>
<path d="M1073.79 241.031C1084.07 241.031 1092.4 232.7 1092.4 222.422C1092.4 212.145 1084.07 203.813 1073.79 203.813C1063.51 203.813 1055.18 212.145 1055.18 222.422C1055.18 232.7 1063.51 241.031 1073.79 241.031Z" fill="#CCB5FF"/>
<path d="M1073.79 233.084C1079.68 233.084 1084.45 228.311 1084.45 222.422C1084.45 216.534 1079.68 211.761 1073.79 211.761C1067.9 211.761 1063.13 216.534 1063.13 222.422C1063.13 228.311 1067.9 233.084 1073.79 233.084Z" fill="#864DFF"/>
<path d="M1155.25 241.031C1165.53 241.031 1173.86 232.7 1173.86 222.422C1173.86 212.145 1165.53 203.813 1155.25 203.813C1144.98 203.813 1136.65 212.145 1136.65 222.422C1136.65 232.7 1144.98 241.031 1155.25 241.031Z" fill="#8FE5D5"/>
<path d="M1155.26 233.084C1161.15 233.084 1165.92 228.311 1165.92 222.422C1165.92 216.534 1161.15 211.761 1155.26 211.761C1149.37 211.761 1144.6 216.534 1144.6 222.422C1144.6 228.311 1149.37 233.084 1155.26 233.084Z" fill="#07BC8F"/>
<path d="M1232.79 241.031C1243.07 241.031 1251.4 232.7 1251.4 222.422C1251.4 212.145 1243.07 203.813 1232.79 203.813C1222.52 203.813 1214.18 212.145 1214.18 222.422C1214.18 232.7 1222.52 241.031 1232.79 241.031Z" fill="#C4F2F6"/>
<path d="M1232.8 233.084C1238.68 233.084 1243.46 228.311 1243.46 222.422C1243.46 216.534 1238.68 211.761 1232.8 211.761C1226.91 211.761 1222.13 216.534 1222.13 222.422C1222.13 228.311 1226.91 233.084 1232.8 233.084Z" fill="#57E1E9"/>
<path d="M1312.47 241.031C1322.74 241.031 1331.07 232.7 1331.07 222.422C1331.07 212.145 1322.74 203.813 1312.47 203.813C1302.19 203.813 1293.86 212.145 1293.86 222.422C1293.86 232.7 1302.19 241.031 1312.47 241.031Z" fill="#FFE1A6"/>
<path d="M1312.46 233.084C1318.35 233.084 1323.13 228.311 1323.13 222.422C1323.13 216.534 1318.35 211.761 1312.46 211.761C1306.58 211.761 1301.8 216.534 1301.8 222.422C1301.8 228.311 1306.58 233.084 1312.46 233.084Z" fill="#FFBF3F"/>
<path d="M1348.76 259.835H961.795C951.197 259.835 942.604 268.427 942.604 279.026C942.604 289.625 951.197 298.217 961.795 298.217H1348.76C1359.36 298.217 1367.95 289.625 1367.95 279.026C1367.95 268.427 1359.36 259.835 1348.76 259.835Z" fill="#E5DAFF"/>
<path d="M1018.45 317.989H992.568C975.572 317.989 961.795 331.767 961.795 348.763V473.6C961.795 490.595 975.572 504.373 992.568 504.373H1018.45C1035.44 504.373 1049.22 490.595 1049.22 473.6V348.763C1049.22 331.767 1035.44 317.989 1018.45 317.989Z" fill="#E5DAFF"/>
<path d="M1118.28 317.989H1092.4C1075.41 317.989 1061.63 331.767 1061.63 348.763V473.6C1061.63 490.595 1075.41 504.373 1092.4 504.373H1118.28C1135.28 504.373 1149.05 490.595 1149.05 473.6V348.763C1149.05 331.767 1135.28 317.989 1118.28 317.989Z" fill="#8FE5D5"/>
<path d="M1218.11 317.989H1192.23C1175.24 317.989 1161.46 331.767 1161.46 348.763V473.6C1161.46 490.595 1175.24 504.373 1192.23 504.373H1218.11C1235.11 504.373 1248.88 490.595 1248.88 473.6V348.763C1248.88 331.767 1235.11 317.989 1218.11 317.989Z" fill="#C4F2F6"/>
<path d="M1317.99 317.989H1292.11C1275.12 317.989 1261.34 331.767 1261.34 348.763V473.6C1261.34 490.595 1275.12 504.373 1292.11 504.373H1317.99C1334.99 504.373 1348.76 490.595 1348.76 473.6V348.763C1348.76 331.767 1334.99 317.989 1317.99 317.989Z" fill="#FFE1A6"/>
<path d="M880.334 134.075L884.793 561.071C884.793 561.071 795.914 561.313 776.336 562.137C776.336 562.137 770.86 398.724 774.737 271.319C778.613 143.913 779.34 133.397 779.34 133.397L880.334 134.075Z" fill="#864DFF"/>
<path d="M879.363 290.85C895.957 290.85 909.409 277.398 909.409 260.804C909.409 244.21 895.957 230.758 879.363 230.758C862.769 230.758 849.316 244.21 849.316 260.804C849.316 277.398 862.769 290.85 879.363 290.85Z" fill="#F6A3A5"/>
<path d="M879.362 277.571C888.623 277.571 896.13 270.064 896.13 260.803C896.13 251.542 888.623 244.035 879.362 244.035C870.102 244.035 862.595 251.542 862.595 260.803C862.595 270.064 870.102 277.571 879.362 277.571Z" fill="#FE695D"/>
<path opacity="0.46" d="M1403.52 129.764L1394.94 576.435L1470.93 578.858L1492.26 134.804C1492.26 134.804 1479.56 129.764 1448.2 129.328C1416.85 128.892 1403.47 129.764 1403.47 129.764H1403.52Z" fill="#E5DAFF"/>
<path d="M1100.1 582.153C1100.1 582.153 1113.19 596.11 1113.19 609.873V715.132C1113.19 715.132 1053.24 722.837 1034 725.89C1014.76 728.943 970.179 740.477 970.179 740.477L964.8 758.941H1308.44V736.649C1308.44 736.649 1185.45 718.96 1163.93 718.96L1162.38 582.104H1100.1V582.153Z" fill="#BFABFF"/>
<path d="M197.312 824.315C197.312 824.315 302.232 855.088 402.451 836.915C502.621 818.742 288.469 790.44 260.894 794.802C233.319 799.164 197.361 824.315 197.361 824.315H197.312Z" fill="#FFD000"/>
<path d="M870.059 1112.32C870.059 1112.32 994.411 1087.51 1129.18 980.072C1129.18 980.072 1066.09 964.709 957.241 1031.1C874.614 1085.52 870.059 1112.32 870.059 1112.32Z" fill="#FFD000"/>
<path d="M344.785 738.247C344.785 738.247 319.827 820.923 307.324 881.791C294.821 942.658 307.276 966.259 326.031 972.268C390.388 992.913 486.729 966.308 486.729 966.308V895.845L421.209 878.689L438.365 744.499C438.365 744.499 377.497 711.739 344.737 738.247H344.785Z" fill="#FFCBBB"/>
<path d="M461.529 924.678C461.529 924.678 490.606 1145.08 510.088 1182.3H876.894C876.894 1182.3 806.625 1057.75 790.341 1022.47C763.688 964.756 765.917 915.955 765.917 915.955L461.529 924.726V924.678Z" fill="#582BBC"/>
<path d="M977.256 972.899C977.256 972.899 977.983 1147.85 1016.95 1172.66C1055.91 1197.47 1179.87 1103.6 1236.57 1048.69C1293.27 993.786 1404.83 871.566 1404.83 871.566L1372.95 860.953C1372.95 860.953 1314.5 922.935 1248.98 947.748C1183.46 972.56 1089.59 1045.16 1089.59 1045.16L1059.5 955.793L977.304 972.948L977.256 972.899Z" fill="#FFCBBB"/>
<path d="M651.35 456.006C651.35 456.006 734.22 424.942 726.369 331.169C726.369 331.169 716.774 336.354 708.584 333.786C695.063 329.57 689.344 316.388 671.947 307.859C627.701 286.294 621.934 253.873 632.402 243.89C645.729 231.144 679.652 226.201 700.442 243.551C721.232 260.9 721.329 290.413 728.065 294.29C728.065 294.29 721.571 261.191 726.127 252.128C730.682 243.066 756.754 146.433 800.128 130.926C843.501 115.418 920.361 149.729 920.361 149.729C920.361 149.729 908.924 199.644 908.924 205.363C908.924 205.363 967.708 233.858 981.616 255.133C995.525 276.408 905.628 353.413 905.628 353.413C905.628 353.413 903.981 439.287 890.896 445.005C890.896 445.005 872.093 453.196 853.29 445.005C834.487 436.815 787.867 391.601 768.24 389.662C748.613 387.724 720.796 440.886 720.796 476.893C720.796 512.9 651.35 455.958 651.35 455.958V456.006Z" fill="#FFCBBB"/>
<path d="M672.189 242.486C672.189 242.486 649.993 225.718 656.923 217.819C663.805 209.919 718.034 202.553 730.876 191.213C743.718 179.873 751.084 141.928 739.744 122.204C739.744 122.204 757.772 107.326 773.28 122.204C773.28 122.204 781.664 81.787 803.375 67.9755C825.085 54.1639 838.849 103.449 850.189 103.449C861.529 103.449 898.989 64.0016 913.77 62.5478C928.551 61.0455 933.009 73.8877 932.525 84.2585C932.04 94.6293 921.185 114.838 921.185 114.838C921.185 114.838 974.929 113.82 976.867 126.905C978.854 139.989 973.911 170.52 964.558 171.053C955.205 171.586 935.966 160.198 935.966 160.198C935.966 160.198 955.689 180.891 952.249 187.821C948.808 194.751 905.919 183.363 900.976 146.919C900.976 146.919 871.899 159.713 856.634 146.435C841.368 133.108 762.958 163.687 760.001 196.205C757.045 228.723 745.705 306.746 730.44 307.909C715.174 309.072 672.286 242.534 672.286 242.534L672.189 242.486Z" fill="#9283BE"/>
<path d="M715.709 326.808C715.709 326.808 698.408 340.813 698.408 349.052C698.408 357.29 722.736 355.255 732.234 344.109C741.733 332.963 729.86 323.076 715.757 326.808H715.709Z" fill="#9283BE"/>
<path d="M675.047 424.41C675.047 424.41 647.666 394.558 534.121 391.893C534.121 391.893 480.474 431.292 432.981 491.433C406.861 524.532 311.294 563.786 266.322 611.424C200.753 680.869 197.312 824.316 197.312 824.316C197.312 824.316 313.475 785.643 404.971 825.043C404.971 825.043 389.899 888.576 395.23 920.658C395.23 920.658 399.252 938.685 439.33 940.042C479.408 941.399 715.173 971.445 813.987 944.694C813.987 944.694 831.336 1044.19 870.105 1112.32C870.105 1112.32 903.495 1089.59 933.541 1065.56C963.588 1041.52 1062.45 979.393 1129.23 980.072C1129.23 980.072 1113.53 827.223 1070.3 728.749C1027.07 630.275 924.624 491.433 901.993 472.921C901.993 472.921 877.423 463.664 783.94 457.074C783.94 457.074 713.671 445.685 675.096 424.41H675.047Z" fill="#FEEA39"/>
<path d="M452.175 549.199C452.175 549.199 462.691 590.004 461.382 604.494C460.074 618.984 422.274 725.454 404.925 824.994C404.925 824.994 357.917 807.645 289.004 807.936C289.004 807.936 281.444 713.872 363.732 647.819C387.624 628.628 452.126 549.199 452.126 549.199H452.175Z" fill="#FFD000"/>
<path d="M629.545 416.559C629.545 416.559 638.801 396.545 653.146 389.663C653.146 389.663 792.085 389.227 843.551 472.872C843.551 472.872 651.159 450.337 629.545 416.559Z" fill="#FEEA39"/>
<path d="M789.516 293.709C789.516 293.709 782.15 342.801 793.587 352.59C805.024 362.428 852.468 368.97 852.468 368.97V331.364C852.468 331.364 818.932 289.639 789.468 293.758L789.516 293.709Z" fill="white"/>
<path d="M796.008 185.105C796.008 185.105 797.268 167.368 796.008 159.954C796.008 159.954 840.544 111.686 881.785 125.74C881.785 125.74 880.525 166.157 876.406 168.192C876.406 168.192 852.902 168.628 837.249 174.395C821.596 180.162 802.599 188.013 796.008 185.105Z" fill="#7061AA"/>
<path d="M809.335 217.092C809.335 217.092 811.419 190.729 833.663 185.156C855.907 179.583 863.757 210.938 863.757 210.938C863.757 210.938 855.519 233.569 833.663 233.618C819.851 233.618 809.335 217.141 809.335 217.141V217.092Z" fill="white"/>
<path d="M874.663 574.398C874.663 574.398 871.852 634.539 861.627 665.409C851.401 696.279 789.613 835.752 813.989 944.645C813.989 944.645 742.557 956.663 693.223 955.645C693.223 955.645 669.719 850.338 763.686 765.046C841.031 694.825 870.931 605.995 874.663 574.398Z" fill="#FFD000"/>
<path d="M726.369 331.171C726.369 331.171 716.774 336.356 708.584 333.788C695.063 329.572 689.344 316.39 671.947 307.861C627.701 286.295 621.934 253.875 632.402 243.891C645.729 231.146 679.652 226.203 700.442 243.552C721.232 260.901 721.329 290.415 728.065 294.292L753.459 285.52L735.625 364.9L726.369 331.122V331.171Z" fill="#FFCBBB"/>
<path d="M708.825 303.596C708.825 303.596 695.935 254.068 660.752 254.068C625.568 254.068 708.825 303.596 708.825 303.596Z" fill="#FFB39F"/>
<path d="M398.626 857.414C398.626 857.414 349.873 849.466 312.703 857.414C312.703 857.414 320.602 823.394 324.722 809.34C324.722 809.34 372.989 811.521 404.926 824.993L398.577 857.414H398.626Z" fill="#FFB39F"/>
<path d="M545.707 472.872C545.707 472.872 694.533 642.633 736.597 645.056C778.662 647.479 545.707 472.872 545.707 472.872Z" fill="#FFD000"/>
<path d="M506.062 744.741C506.062 744.741 592.179 667.881 629.543 666.718C666.955 665.506 506.062 744.741 506.062 744.741Z" fill="#FFD000"/>
<path d="M635.215 405.17C635.215 405.17 745.998 425.136 783.944 457.072C783.944 457.072 673.112 422.228 635.215 405.17Z" fill="#FFD000"/>
<path d="M852.518 224.167C857.255 224.167 861.096 215.445 861.096 204.686C861.096 193.926 857.255 185.204 852.518 185.204C847.781 185.204 843.94 193.926 843.94 204.686C843.94 215.445 847.781 224.167 852.518 224.167Z" fill="#6ED8DE"/>
<path d="M705.824 201.923C705.824 201.923 710.961 243.6 751.572 255.134C751.572 255.134 755.594 232.503 756.757 223.537C756.757 223.537 736.016 213.942 725.887 194.509C725.887 194.509 719.49 198.58 705.824 201.923Z" fill="#7061AA"/>
<path d="M820.482 180.6C820.482 180.6 822.275 152.783 817.769 139.65C817.769 139.65 827.848 134.949 829.302 134.125C830.756 133.301 833.276 160.197 824.02 179.34L820.482 180.6Z" fill="#9283BE"/>
<path d="M773.233 122.204C773.233 122.204 770.326 76.8436 790.97 64.0498C811.615 51.2559 832.211 82.8529 832.211 82.8529C832.211 82.8529 805.169 53.5821 788.062 71.0282C770.956 88.4744 774.978 133.786 774.978 133.786L773.233 122.204Z" fill="#9283BE"/>
<path d="M659.834 230.613C659.834 230.613 649.414 220.048 655.569 211.083C661.724 202.117 730.684 200.76 747.985 173.089C747.985 173.089 745.998 187.433 710.67 197.756C675.341 208.078 649.56 205.946 659.834 230.613Z" fill="#9283BE"/>
<path d="M1082.32 1023.59C1082.32 1023.59 1016.95 1062.75 985.738 1088.82C985.738 1088.82 982.394 1068.13 979.874 1034.25C979.874 1034.25 1019.22 1008.86 1071.27 990.829L1082.32 1023.59Z" fill="#FFB39F"/>
<path d="M1295.21 403.766C1295.21 403.766 1288.04 463.228 1295.21 475.537C1302.39 487.846 1322.89 544.547 1320.85 567.469C1318.82 590.391 1301.37 608.855 1281.89 625.235C1262.41 641.615 1240.89 671.371 1248.06 703.162C1255.23 734.952 1283.83 795.432 1283.83 795.432C1283.83 795.432 1346.73 764.078 1409.73 781.621C1472.73 799.116 1478.88 801.199 1478.88 801.199C1478.88 801.199 1537.86 762.769 1562.48 728.749C1587.1 694.729 1565.53 634.249 1562.48 617.821C1559.43 601.392 1544.02 530.057 1549.15 491.384C1554.29 452.76 1584 398.58 1584 398.58C1584 398.58 1457.17 423.247 1295.21 403.766Z" fill="white"/>
<path d="M1372.94 860.904C1372.94 860.904 1380.36 848.885 1381.18 842.488C1382.01 836.092 1379.92 815.205 1385.01 807.063C1390.15 798.97 1399.94 776.774 1402.94 768.245C1405.95 759.716 1411.03 742.657 1407.64 727.295C1404.25 711.933 1397.85 691.046 1416.17 691.046C1434.49 691.046 1434.93 728.167 1427.7 749.491C1420.44 770.814 1425.57 789.568 1428.96 791.313C1432.36 793.058 1440.89 793.009 1452.42 794.318C1463.95 795.626 1478.88 801.151 1478.88 801.151L1534.76 758.504C1534.76 758.504 1531.75 792.185 1521.53 799.455C1511.3 806.724 1496.38 814.817 1496.38 814.817C1496.38 814.817 1490.41 838.708 1486.15 841.713C1481.89 844.718 1455.42 847.674 1439.24 853.247C1423 858.771 1404.88 871.614 1404.88 871.614C1404.88 871.614 1374.98 875.539 1372.99 861.001L1372.94 860.904Z" fill="#FFCBBB"/>
<path d="M910.283 116.193C910.283 116.193 948.422 111.395 963.833 114.4C975.997 116.774 977.257 132.331 977.257 132.331C977.257 132.331 979.923 113.721 954.383 109.457C928.892 105.192 892.837 123.753 892.837 123.753L910.331 116.193H910.283Z" fill="#9283BE"/>
<path d="M1288.33 674.425C1288.33 674.425 1445.25 616.028 1518.23 616.028C1518.23 616.028 1326.66 581.379 1288.33 674.425Z" fill="#F3EEFF"/>
<path d="M1370.47 563.156C1370.47 563.156 1514.6 504.759 1514.6 484.696C1514.6 484.696 1377.74 526.664 1370.47 563.156Z" fill="#F3EEFF"/>
</svg>
