<svg width="1094" height="1461" viewBox="0 0 1094 1461" fill="none" xmlns="http://www.w3.org/2000/svg">
<path d="M958.754 1303.64C958.754 1303.64 969.513 1347.16 971.742 1371.49C973.971 1395.81 992.096 1371.49 992.096 1371.49C992.096 1371.49 972.323 1310.42 971.742 1287.79C971.16 1265.16 958.754 1303.64 958.754 1303.64Z" fill="#F7C2B3"/>
<path d="M955.359 1379.97C955.359 1379.97 934.423 1356.8 937.816 1346.63C941.208 1336.45 967.232 1363.3 967.232 1363.3C967.232 1363.3 975.712 1355.64 992.092 1355.64C992.092 1355.64 1010.7 1398.67 1000.52 1408.27C1000.52 1408.27 962.483 1403.13 937.428 1404.83C912.373 1406.52 828.68 1419.51 817.34 1412.19C817.34 1412.19 818.454 1394.65 826.402 1387.33C834.35 1380.02 886.931 1387.33 901.033 1387.33C915.135 1387.33 955.31 1379.97 955.31 1379.97H955.359Z" fill="#3F2B7C"/>
<path d="M798.829 609.429C798.829 609.429 734.327 680.522 690.227 749.822C646.127 819.122 628.148 806.522 595.727 850.622C563.306 894.722 524.634 984.715 486.834 1031.53C449.034 1078.34 408.52 1134.12 406.727 1158.4L493.134 1215.1C493.134 1215.1 551.627 1153.89 567.813 1126.03C583.999 1098.12 605.613 1036.96 618.213 1020.72C630.813 1004.54 711.792 890.215 733.406 856.05C755.02 821.836 842.3 674.27 842.3 674.27C842.3 674.27 853.106 757.963 851.313 800.27C849.52 842.577 858.534 923.557 872.927 968.578C887.32 1013.55 891.827 1089.15 894.541 1144.98C897.255 1200.76 917.028 1292.54 927.834 1313.29C927.834 1313.29 955.748 1315.08 989.041 1308.78C1022.33 1302.48 1040.31 1291.67 1040.31 1291.67C1040.31 1291.67 1007.89 1171.97 1006.1 1138.68C1004.31 1105.38 977.314 1037.88 971.886 1011.81C966.458 985.733 966.507 905.626 966.507 881.298C966.507 856.971 944.893 729.226 943.1 712.991C941.307 696.805 948.479 643.691 936.8 602.305C925.121 560.919 798.829 609.525 798.829 609.525V609.429Z" fill="#582BBC"/>
<path d="M406.773 1158.35C406.773 1158.35 440.164 1204.63 493.181 1215.05C493.181 1215.05 440.697 1170.42 406.773 1158.35Z" fill="#441890"/>
<path d="M472.924 1181.47C472.924 1181.47 452.425 1219.66 442.539 1232.4L432.652 1245.15L446.222 1254.02C446.222 1254.02 482.859 1189.27 483.586 1185.73C484.312 1182.2 472.972 1181.47 472.972 1181.47H472.924Z" fill="#F7C2B3"/>
<path d="M332.967 1166.11C332.967 1166.11 365 1186.7 382.883 1208.95C394.465 1223.29 420.876 1249.61 420.876 1249.61C420.876 1249.61 427.709 1218.69 435.366 1221.5C441.327 1223.68 435.56 1240.93 435.56 1240.93C443.847 1246.65 447.918 1257.75 447.918 1257.75C447.918 1257.75 438.856 1283.82 431.005 1286.49C426.11 1288.13 419.229 1292.06 400.862 1262.06C387.147 1239.72 307.282 1181.47 333.015 1166.11H332.967Z" fill="#3F2B7C"/>
<path d="M453.73 1184.86C453.73 1184.86 479.221 1203.57 486.2 1209.29L490.464 1179.39L462.696 1172.07L453.779 1184.86H453.73Z" fill="#582BBC"/>
<path d="M458.771 1206.72L469.53 1212.19L475.685 1201L466.138 1193.78C466.138 1193.78 460.468 1203.86 458.771 1206.72Z" fill="#E99C8A"/>
<path d="M960.836 1312.41C960.836 1312.41 964.131 1327.14 964.519 1329.08H979.687C979.687 1329.08 976.634 1317.36 975.423 1310.86L960.836 1312.46V1312.41Z" fill="#E99C8A"/>
<path d="M332.965 1166.11C332.965 1166.11 405.56 1233.71 422.183 1258.04L435.364 1221.5C435.364 1221.5 425.817 1216.89 420.874 1249.61C420.874 1249.61 394.22 1217.38 379.246 1202.21C364.271 1187.04 332.965 1166.11 332.965 1166.11Z" fill="#4F3D97"/>
<path d="M803.284 607.782L798.826 609.43C798.826 609.43 782.155 626.779 779.393 632.691C776.631 638.603 799.795 709.406 810.65 727.579L842.296 674.223L917.605 674.61L934.179 623.144L869.58 587.428L803.236 607.83L803.284 607.782Z" fill="#441890"/>
<path d="M944.893 355.006C944.893 355.006 897.74 350.16 878.743 360.628C878.743 360.628 864.786 374.682 862.993 386.7H876.562C876.562 386.7 863.332 397.459 857.323 405.358C851.313 413.257 842.154 426.875 836.775 431.624C831.396 436.373 762.968 505.092 752.161 544.298L769.026 557.818C769.026 557.818 733.94 599.689 752.161 616.554C770.383 633.418 948.625 632.74 948.625 632.74L976.296 374.827L972.952 365.716C972.952 365.716 966.071 354.183 961.758 351.081L944.893 355.006Z" fill="#FEEA39"/>
<path d="M775.71 133.244C775.71 133.244 781.622 122.098 785.741 108.674C789.909 95.2504 796.402 76.835 796.402 76.835C796.402 76.835 843.992 87.5935 868.562 90.6466C893.132 93.6996 934.179 99.4665 934.179 99.4665C934.179 99.4665 909.464 182.19 894.78 209.717C880.096 237.243 836.771 313.861 824.074 336.589C811.377 359.318 783.318 439.522 783.318 439.522C783.318 439.522 774.207 564.65 782.155 621.059C790.103 677.517 807.5 830.171 811.086 867.05C814.721 903.929 837.886 1054.74 854.944 1119.58C872.003 1184.43 914.213 1336.74 894.634 1431.77L755.889 1389.56C755.889 1389.56 728.847 1190.48 723.516 1118.13C718.185 1045.73 686.54 753.165 674.473 676.257C662.406 599.348 672.971 388.104 688.042 331.598L775.71 133.244Z" fill="#E5DAFF"/>
<path d="M739.413 215.387C739.413 215.387 735.827 191.204 736.215 177.781C736.603 164.357 756.569 140.562 762.675 134.408C768.781 128.253 808.713 111.388 817.921 113.278C827.129 115.168 819.084 125.151 805.66 128.253C792.237 131.306 773.821 139.787 769.217 142.452C764.613 145.118 758.846 152.823 758.846 152.823C758.846 152.823 778.425 144.003 791.849 140.174C805.273 136.346 830.231 132.517 834.834 141.725C839.438 150.933 813.705 148.704 813.705 148.704C813.705 148.704 823.688 148.607 823.688 155.149C823.688 161.691 800.669 163.969 790.686 165.52C780.703 167.071 755.357 169.736 754.243 173.177C753.128 176.618 773.967 171.238 785.791 170.124C797.616 169.009 817.582 168.961 819.133 172.45C820.683 175.939 817.97 180.495 791.51 180.882C765.05 181.27 752.74 185.098 752.74 185.098L739.462 215.435L739.413 215.387Z" fill="#F7C2B3"/>
<path d="M562.818 1399.3C562.818 1399.3 623.298 1327.14 646.657 1320.31C670.064 1313.48 894.635 1431.82 894.635 1431.82C894.635 1431.82 758.457 1423.68 723.517 1419.75C688.576 1415.83 594.948 1396.35 562.77 1399.26L562.818 1399.3Z" fill="#BFABFF"/>
<path d="M463.038 1331.51C463.038 1331.51 594.999 1313.48 646.659 1320.31C646.659 1320.31 597.567 1348.66 554.824 1414.47C554.824 1414.47 495.507 1420.77 444.768 1418.83C394.077 1416.9 376.485 1414.47 376.485 1414.47C376.485 1414.47 421.7 1348.57 462.941 1331.51H463.038Z" fill="#E5DAFF"/>
<path d="M554.824 1414.47C554.824 1414.47 346.488 1335.19 299.092 1344.35C251.697 1353.51 215.593 1414.47 215.593 1414.47H376.485C401.879 1414.47 511.645 1425.13 554.776 1414.47H554.824Z" fill="#BFABFF"/>
<path d="M969.411 195.422C969.411 195.422 953.613 185.584 955.018 179.236C956.424 172.887 974.015 175.359 974.015 175.359C974.015 175.359 977.553 162.371 983.514 159.9C989.474 157.428 997.567 172.548 997.567 172.548C997.567 172.548 1014.77 160.578 1020.73 161.305C1026.69 162.032 1029.5 192.224 1029.16 198.911C1028.83 205.599 1031.98 227.746 1035.51 232.64C1039.05 237.535 1044.67 259.343 1040.07 264.286L1036.19 266.564C1036.19 266.564 1041.13 276.595 1040.07 280.084C1039 283.574 1017.49 289.438 1017.49 289.438L980.315 301.989C980.315 301.989 976.777 313.523 972.222 314.201C967.667 314.88 960.979 307.514 960.979 307.514L969.411 195.422Z" fill="#9082BC"/>
<path d="M904.039 236.566C904.039 236.566 906.85 257.307 911.066 266.418C911.066 266.418 895.268 281.878 891.052 289.971C886.835 298.064 888.919 302.958 888.919 302.958C888.919 302.958 906.85 309.985 937.429 313.862C937.429 313.862 940.967 316.673 940.967 323.021C940.967 329.37 941.694 353.94 938.835 360.628C938.835 360.628 947.994 357.817 951.822 356.411C951.822 356.411 952.549 314.589 972.225 300.874C972.225 300.874 978.573 312.844 995.777 314.928C1012.98 317.061 1040.41 305.769 1040.07 301.553C1039.73 297.337 1021.46 285.754 990.156 287.16C990.156 287.16 996.504 271.701 1001.4 267.484C1006.29 263.268 1020.01 255.563 1022.09 253.431C1024.18 251.298 1022.43 242.236 1022.09 236.954C1021.75 231.671 1008.43 212.626 1000.67 206.665C992.918 200.704 989.429 198.233 989.429 198.233L984.486 192.272H972.176C972.176 192.272 964.422 211.608 949.69 221.107C949.69 221.107 919.45 200.704 908.207 200.026C896.964 199.347 903.991 236.566 903.991 236.566H904.039Z" fill="#F7C2B3"/>
<path d="M930.789 260.456C930.789 260.456 954.147 261.183 964.276 259.051C964.276 259.051 958.218 271.36 932.921 274.171C932.921 274.171 931.177 264.333 930.789 260.456Z" fill="white"/>
<path d="M987.002 295.252C987.002 295.252 1011.96 292.442 1016.85 298.402C1021.75 304.363 996.452 302.619 987.002 295.252Z" fill="#E99C8A"/>
<path d="M969.412 227.404C969.412 227.404 973.338 216.161 979.444 213.738C979.444 213.738 989.475 223.043 988.991 231.815C988.991 231.815 972.853 231.572 969.461 227.404H969.412Z" fill="white"/>
<path d="M966.605 193.53C966.605 193.53 953.956 182.142 961.613 175.26H968.689C968.689 175.26 966.799 186.746 975.522 192.27C975.522 192.27 970.433 192.658 966.605 193.53Z" fill="#7060A9"/>
<path d="M972.225 192.272L962.726 194.404C962.726 194.404 956.378 203.176 954.973 206.859L964.18 209.137C964.18 209.137 971.837 198.572 972.176 192.272H972.225Z" fill="#9082BC"/>
<path d="M984.532 192.272C984.532 192.272 974.016 166.49 986.277 159.948C986.277 159.948 990.008 161.595 992.528 165.085C992.528 165.085 985.986 189.509 991.559 196.488L989.475 198.281L984.532 192.32V192.272Z" fill="#7060A9"/>
<path d="M999.409 200.704C999.409 200.704 995.338 174.535 1008.18 165.957L1016.18 162.177C1016.18 162.177 998.924 194.162 1003.38 205.405C1007.84 216.648 999.36 200.704 999.36 200.704H999.409Z" fill="#7060A9"/>
<path d="M1013.32 219.459C1013.32 219.459 1025.2 211.56 1029.12 200.656C1029.12 200.656 1029.65 210.3 1030.87 216.454C1030.87 216.454 1024.9 223.82 1018.85 224.111L1013.27 219.459H1013.32Z" fill="#7060A9"/>
<path d="M993.837 279.113C993.837 279.113 1015.98 279.113 1030.47 285.365C1030.47 285.365 1022.58 288.321 1017.49 289.436C1017.49 289.436 1003.48 285.413 990.154 287.109L993.837 279.065V279.113Z" fill="#7060A9"/>
<path d="M995.872 275.238C995.872 275.238 1029.84 269.083 1040.07 278.243C1040.07 278.243 1037.79 270.15 1036.19 266.612C1036.19 266.612 1030.86 261.572 1013.32 262.105C1013.32 262.105 1003.29 264.867 1001.4 267.533L995.872 275.286V275.238Z" fill="#7060A9"/>
<path d="M981.527 222.657C979.007 227.067 975.372 229.684 973.434 228.569C971.786 227.6 971.883 224.159 973.579 220.428C973.87 219.846 974.161 219.216 974.5 218.635C977.02 214.225 980.655 211.608 982.593 212.722C984.532 213.837 984.047 218.295 981.527 222.705V222.657Z" fill="#79CDD4"/>
<path d="M953.953 394.6C953.953 394.6 927.978 446.405 922.841 469.134C917.655 491.911 878.401 571.097 878.401 571.097L869.63 587.38L916.638 585.49C916.638 585.49 961.658 440.638 953.953 394.6Z" fill="#FFD000"/>
<path d="M813.705 148.703C813.705 148.703 769.169 142.451 752.305 162.175C772.998 155.536 813.705 148.703 813.705 148.703Z" fill="#E99C8A"/>
<path d="M999.314 184.178C999.314 184.178 983.176 195.76 983.515 199.976L989.136 204.532C989.136 204.532 1002.85 229.15 1009.54 229.49L1020.78 217.52C1020.78 217.52 1017.24 204.532 1013.42 197.505C1009.54 190.478 999.362 184.129 999.362 184.129L999.314 184.178Z" fill="#9082BC"/>
<path d="M989.09 204.579L1002.13 189.604L994.372 213.254L989.09 204.579Z" fill="#7060A9"/>
<path d="M994.807 213.837C994.807 213.837 1008.28 198.378 1009.83 192.272C1009.83 192.272 1016.28 201.431 1019.23 212.432L1006.53 228.23L994.807 213.886V213.837Z" fill="#7060A9"/>
<path d="M735.49 372.354C735.49 372.354 765.488 400.122 779.445 402.254C779.445 402.254 770.964 421.591 785.987 432.155L809.006 365.666C809.006 365.666 812.399 341.435 795.922 329.611C779.445 317.786 761.708 304.701 761.708 304.701C761.708 304.701 750.901 325.394 765.391 334.699L742.469 351.079L782.013 380.931C782.013 380.931 803.869 376.037 802.852 383.5C801.834 391.011 735.538 372.354 735.538 372.354H735.49Z" fill="#BFABFF"/>
<path d="M946.879 393.726C946.879 393.726 929.384 453.576 923.52 497.919C917.657 542.309 883.152 581.418 882.958 595.763L1019.33 668.455C1019.33 668.455 1033.04 593.388 1025.19 544.442C1017.34 495.496 1005.18 438.893 990.204 414.129C975.18 389.316 957.201 374.826 957.201 374.826L946.879 393.726Z" fill="#FEEA39"/>
<path d="M873.943 562.371L902.729 618.829L869.63 596.973L873.943 562.371Z" fill="#F7C2B3"/>
<path d="M938.835 360.627L904.04 374.875C904.04 374.875 915.138 362.808 923.376 360.627C931.615 358.447 938.787 360.627 938.787 360.627H938.835Z" fill="#FFD000"/>
<path d="M909.71 378.702C909.71 378.702 926.866 402.351 929.289 409.233C931.712 416.114 909.71 393.968 909.71 393.968V378.702Z" fill="#FFD000"/>
<path d="M776.437 199.25C776.437 199.25 768.247 216.841 766.066 221.493L789.231 227.26C789.231 227.26 796.888 211.123 799.941 199.928L776.437 199.25Z" fill="#F8F5F9"/>
<path d="M750.609 255.754L738.784 279.065L761.319 284.541C761.319 284.541 771.496 265.834 775.033 258.711L750.56 255.754H750.609Z" fill="#F8F5F9"/>
<path d="M716.494 316.042L706.802 342.986L732.632 347.348C732.632 347.348 741.597 327.672 745.232 320.355L716.446 315.993L716.494 316.042Z" fill="#F8F5F9"/>
<path d="M981.771 219.894L973.581 220.379C973.581 220.379 978.33 210.348 982.595 212.674C984.485 213.691 981.771 219.894 981.771 219.894Z" fill="#7461A9"/>
<path d="M779.394 521.665L866.285 423.481L780.072 500.729L779.394 521.665Z" fill="#FFD000"/>
<path d="M623.301 1013.94C623.301 1013.94 534.18 1062.88 534.18 1075C534.18 1087.11 623.301 1013.94 623.301 1013.94Z" fill="#441890"/>
<path d="M669.241 862.01C669.241 862.01 594.658 907.127 595.143 923.411C595.628 939.694 669.241 862.01 669.241 862.01Z" fill="#441890"/>
<path d="M849.085 739.402C849.085 739.402 896.238 822.465 913.345 846.551C913.345 846.551 907.19 801.966 905.979 789.269L858.05 698.84L847.34 694.188L849.036 739.354L849.085 739.402Z" fill="#441890"/>
<path d="M904.086 374.873C904.086 374.873 886.882 373.613 880 377.393C873.119 381.173 872.489 416.502 872.489 416.502C872.489 416.502 833.671 458.131 817.388 498.499C801.105 538.868 787.681 586.748 812.687 644.659C837.742 702.571 875.639 748.513 888.045 764.699C900.451 780.885 917.267 805.697 917.267 805.697C917.267 805.697 914.408 734.507 897.592 709.646C880.824 684.786 848.306 577.685 847.676 560.288C847.046 542.89 840.213 470.197 883.102 417.374L904.086 374.873Z" fill="#79CDD4"/>
<path d="M934.231 623.093L920.613 653.867C920.613 653.867 878.403 570.949 862.266 539.449C846.128 507.949 809.297 433.463 809.297 427.357C809.297 421.251 808.134 394.549 812.011 374.098C815.888 353.647 809.685 336.637 803.142 327.768C796.6 318.9 768.396 295.735 758.364 301.115C748.332 306.494 785.018 331.258 795.437 336.637C805.856 342.065 805.081 367.555 805.081 367.555C805.081 367.555 790.785 338.188 774.163 330.87C757.54 323.552 735.151 325.055 737.865 332.809C740.579 340.514 772.999 345.942 779.202 350.982C785.406 356.022 796.213 371.82 796.213 371.82C796.213 371.82 756.038 330.482 734.036 339.787C734.036 339.787 728.221 347.88 762.241 359.85C796.212 371.82 791.221 378.799 791.221 378.799C791.221 378.799 746.297 359.075 733.697 366.829C721.097 374.582 790.203 386.262 790.203 386.262C790.203 386.262 787.441 426.339 798.393 426.873C798.393 426.873 838.326 689.631 927.883 734.41C927.883 734.41 962.824 679.067 962.824 638.31L934.328 623.142L934.231 623.093Z" fill="#F7C2B3"/>
<path d="M920.614 653.917L931.227 681.492C931.227 681.492 932.584 669.715 923.474 647.423L920.614 653.917Z" fill="#E99C8A"/>
<path d="M934.229 623.095L927.784 637.73L958.703 666.516C958.703 666.516 962.386 650.863 962.725 638.312L934.229 623.143V623.095Z" fill="#E99C8A"/>
<path d="M765.392 347.057L757.202 342.647L746.152 338.915C746.152 338.915 749.06 347.881 765.392 347.057Z" fill="#E99C8A"/>
<path d="M698.511 378.702C698.511 378.702 696.185 392.611 695.021 408.555L722.984 410.735L726.764 380.786L698.559 378.751L698.511 378.702Z" fill="#F8F5F9"/>
<path d="M691.728 446.258H721.144C721.144 446.258 717.946 469.374 717.607 477.176H690.274L691.728 446.258Z" fill="#F8F5F9"/>
<path d="M686.686 519.291C686.686 519.291 685.329 548.465 685.329 551.906H713.922L715.666 517.353L686.686 519.291Z" fill="#F8F5F9"/>
<path d="M686.688 599.253C686.688 599.253 686.688 622.321 689.014 630.607L716.443 628.572L715.668 597.023L686.64 599.253H686.688Z" fill="#F8F5F9"/>
<path d="M706.702 754.863C706.702 754.863 708.883 776.962 711.258 784.231L738.541 781.565L734.18 752.198L706.75 754.863H706.702Z" fill="#F8F5F9"/>
<path d="M694.057 677.324C694.057 677.324 696.771 697.581 698.758 707.758L726.138 705.383L722.843 674.562L694.057 677.324Z" fill="#F8F5F9"/>
<path d="M715.764 835.84C715.764 835.84 718.865 857.454 720.852 867.001L748.233 864.82L744.744 834.047L715.764 835.84Z" fill="#F8F5F9"/>
<path d="M727.492 920.262C727.492 920.262 729.673 945.414 732.048 953.701L759.332 950.648L754.97 917.209L727.541 920.262H727.492Z" fill="#F8F5F9"/>
<path d="M736.555 1001.68C736.555 1001.68 739.656 1024.84 741.643 1035.02L769.024 1032.64L765.535 999.737L736.555 1001.68Z" fill="#F8F5F9"/>
<path d="M743.678 1084.16C743.678 1084.16 746.343 1107.37 748.185 1117.6L775.614 1115.75L772.706 1082.8L743.726 1084.21L743.678 1084.16Z" fill="#F8F5F9"/>
<path d="M753.129 1171.54C753.129 1171.54 755.31 1196.69 757.684 1204.97L784.968 1201.92L780.607 1168.48L753.177 1171.54H753.129Z" fill="#F8F5F9"/>
<path d="M763.791 1255.03C763.791 1255.03 766.893 1278.2 768.879 1288.38L796.26 1286L792.771 1253.1L763.791 1255.03Z" fill="#F8F5F9"/>
<path d="M934.233 99.4664C934.233 99.4664 857.712 85.5096 849.764 84.0073C841.816 82.505 798.879 70.5833 798.879 70.5833C798.879 70.5833 725.993 49.2117 676.271 110.855C676.271 110.855 823.643 156.7 858.1 159.607C858.1 159.607 877.533 106.396 934.281 99.418L934.233 99.4664Z" fill="#BFABFF"/>
<path d="M803.289 541.825C803.289 541.825 818.748 587.427 847.971 618.83C847.971 618.83 829.652 573.422 814.241 506.496C814.241 506.496 805.567 530.678 803.289 541.776V541.825Z" fill="#4CAE9C"/>
<path d="M259.305 1414.47C259.305 1414.47 175.321 1399.64 151.188 1343.62C151.188 1343.62 37.3995 1307.28 14.4287 1287.65C14.4287 1287.65 -0.497227 1369.16 66.1375 1389.85C132.772 1410.55 215.641 1414.47 215.641 1414.47H259.305Z" fill="#E5DAFF"/>
<path d="M869.535 871.993C869.535 871.993 922.698 951.615 917.222 968.674C911.745 985.732 869.535 871.993 869.535 871.993Z" fill="#441890"/>
<path d="M958.752 1035.02C958.752 1035.02 947.315 1113.28 960.836 1122.25C974.357 1131.17 958.752 1035.02 958.752 1035.02Z" fill="#441890"/>
<path d="M836.433 220.621C825.917 220.621 810.119 217.859 809.44 217.714C808.18 217.471 807.308 216.26 807.55 215C807.793 213.74 809.004 212.868 810.264 213.11C810.409 213.11 826.305 215.921 836.433 215.921C837.742 215.921 838.808 216.987 838.808 218.295C838.808 219.604 837.742 220.67 836.433 220.67V220.621Z" fill="#F8F5F9"/>
<path d="M812.4 282.893C812.4 282.893 812.206 282.893 812.157 282.893C801.35 281.924 785.406 277.66 784.728 277.466C783.274 277.078 782.402 275.576 782.789 274.122C783.177 272.668 784.728 271.796 786.133 272.183C786.279 272.183 802.32 276.496 812.642 277.417C814.144 277.563 815.259 278.871 815.113 280.373C814.968 281.779 813.805 282.845 812.4 282.845V282.893Z" fill="#F8F5F9"/>
<path d="M765.343 406.617C765.343 406.617 765.149 406.617 765.052 406.617C753.131 405.502 735.539 400.85 734.812 400.656C733.213 400.22 732.244 398.573 732.68 396.973C733.116 395.374 734.812 394.405 736.363 394.841C736.557 394.841 754.197 399.59 765.585 400.656C767.233 400.802 768.444 402.256 768.299 403.952C768.154 405.503 766.845 406.714 765.294 406.714L765.343 406.617Z" fill="#F8F5F9"/>
<path d="M759.334 466.611C759.334 466.611 759.14 466.611 759.043 466.611C747.606 467.144 730.354 465.012 729.627 464.915C728.028 464.721 726.913 463.267 727.107 461.717C727.301 460.117 728.755 459.003 730.305 459.197C730.499 459.197 747.8 461.377 758.752 460.844C760.352 460.796 761.709 462.007 761.757 463.607C761.805 465.109 760.739 466.417 759.285 466.611H759.334Z" fill="#F8F5F9"/>
<path d="M778.766 764.652C778.766 764.652 778.621 764.7 778.524 764.749C767.523 767.947 750.222 769.885 749.495 769.982C747.896 770.176 746.49 769.013 746.297 767.463C746.103 765.863 747.266 764.458 748.865 764.264C749.059 764.264 766.408 762.277 776.924 759.224C778.475 758.788 780.074 759.66 780.51 761.211C780.947 762.665 780.171 764.167 778.814 764.7L778.766 764.652Z" fill="#F8F5F9"/>
<path d="M789.381 844.806C789.381 844.806 789.187 844.855 789.138 844.903C777.992 847.52 760.643 848.635 759.916 848.683C758.317 848.78 756.96 847.569 756.863 845.97C756.766 844.37 757.977 843.013 759.577 842.916C759.771 842.916 777.168 841.802 787.83 839.282C789.381 838.894 790.931 839.863 791.319 841.414C791.658 842.868 790.835 844.322 789.429 844.806H789.381Z" fill="#F8F5F9"/>
<path d="M828.826 1182.34C828.826 1182.34 828.632 1182.39 828.583 1182.44C817.437 1185.06 800.088 1186.17 799.361 1186.22C797.762 1186.32 796.405 1185.1 796.308 1183.5C796.211 1181.91 797.423 1180.55 799.022 1180.45C799.216 1180.45 816.614 1179.34 827.275 1176.82C828.826 1176.43 830.377 1177.4 830.764 1178.95C831.104 1180.4 830.28 1181.86 828.874 1182.34H828.826Z" fill="#F8F5F9"/>
<path d="M772.754 1335.87C772.754 1335.87 774.935 1361.02 777.309 1369.31L804.593 1366.25L800.232 1332.81L772.802 1335.87H772.754Z" fill="#F8F5F9"/>
<path d="M848.405 1347.4C848.405 1347.4 848.211 1347.4 848.163 1347.45C836.92 1349.58 819.522 1349.87 818.795 1349.87C817.196 1349.87 815.887 1348.61 815.839 1347.06C815.839 1345.46 817.099 1344.16 818.698 1344.16C818.892 1344.16 836.338 1343.87 847.097 1341.83C848.647 1341.54 850.15 1342.56 850.441 1344.11C850.731 1345.56 849.811 1347.02 848.405 1347.4Z" fill="#F8F5F9"/>
<path d="M840.214 1266.13C840.214 1266.13 840.02 1266.18 839.971 1266.23C828.825 1268.85 811.476 1269.96 810.749 1270.01C809.15 1270.11 807.793 1268.89 807.696 1267.29C807.599 1265.7 808.81 1264.34 810.41 1264.24C810.604 1264.24 828.001 1263.13 838.663 1260.61C840.214 1260.22 841.764 1261.19 842.152 1262.74C842.491 1264.19 841.668 1265.65 840.262 1266.13H840.214Z" fill="#F8F5F9"/>
<path d="M800.914 931.214C800.914 931.214 800.72 931.262 800.671 931.311C789.525 933.928 772.176 935.042 771.449 935.091C769.85 935.187 768.493 933.976 768.396 932.377C768.299 930.777 769.511 929.421 771.11 929.324C771.304 929.324 788.702 928.209 799.363 925.689C800.914 925.301 802.465 926.271 802.852 927.821C803.191 929.275 802.368 930.729 800.962 931.214H800.914Z" fill="#F8F5F9"/>
<path d="M759.67 536.107C759.67 536.107 759.476 536.107 759.428 536.155C748.185 538.288 730.787 538.675 730.06 538.675C728.461 538.675 727.152 537.464 727.104 535.864C727.104 534.265 728.364 532.957 729.914 532.908C730.108 532.908 747.554 532.569 758.313 530.485C759.864 530.194 761.366 531.212 761.705 532.763C761.996 534.217 761.075 535.671 759.67 536.058V536.107Z" fill="#F8F5F9"/>
<path d="M761.369 610.979C761.369 610.979 761.175 610.979 761.127 611.027C749.883 613.159 732.486 613.547 731.759 613.547C730.16 613.547 728.851 612.336 728.803 610.736C728.803 609.137 730.063 607.829 731.613 607.78C731.807 607.78 749.254 607.441 760.012 605.357C761.563 605.066 763.065 606.084 763.404 607.635C763.695 609.089 762.774 610.543 761.369 610.93V610.979Z" fill="#F8F5F9"/>
<path d="M809.537 1015.44C809.537 1015.44 809.343 1015.44 809.295 1015.49C798.051 1017.62 780.654 1018.01 779.927 1018.01C778.328 1018.01 777.019 1016.8 776.971 1015.2C776.971 1013.6 778.23 1012.29 779.781 1012.24C779.975 1012.24 797.422 1011.9 808.18 1009.82C809.731 1009.53 811.233 1010.54 811.572 1012.1C811.863 1013.55 810.942 1015 809.537 1015.39V1015.44Z" fill="#F8F5F9"/>
<path d="M818.117 1097.58C818.117 1097.58 817.923 1097.58 817.875 1097.63C806.632 1099.76 789.234 1100.15 788.507 1100.15C786.908 1100.15 785.599 1098.94 785.551 1097.34C785.551 1095.74 786.811 1094.43 788.362 1094.38C788.555 1094.38 806.002 1094.05 816.76 1091.96C818.311 1091.67 819.813 1092.69 820.152 1094.24C820.443 1095.69 819.523 1097.15 818.117 1097.53V1097.58Z" fill="#F8F5F9"/>
<path d="M767.956 687.354C767.956 687.354 767.762 687.403 767.714 687.451C756.664 690.504 739.364 692.249 738.637 692.297C737.037 692.443 735.632 691.279 735.487 689.729C735.342 688.129 736.504 686.724 738.055 686.579C738.249 686.579 755.598 684.834 766.163 681.878C767.714 681.442 769.265 682.363 769.701 683.913C770.088 685.367 769.313 686.869 767.956 687.354Z" fill="#F8F5F9"/>
</svg>
