<svg width="887" height="1253" viewBox="0 0 887 1253" fill="none" xmlns="http://www.w3.org/2000/svg">
<path d="M467.515 58.5698C467.515 58.5698 470.925 56.2268 474.638 56C474.638 56 574.128 97.1175 613 104.147C613 104.147 531.316 242.011 528.437 247L406.972 203.539L395 202.708C395 202.708 453.497 114.275 467.439 58.4943L467.515 58.5698Z" fill="#AD9FFF"/>
<path d="M421.462 219.058C425.315 222.078 441.484 186.292 441.484 186.292C441.484 186.292 438.537 224.192 443.222 222.305C447.906 220.417 448.359 184.933 448.359 184.933C448.359 184.933 448.586 225.098 454.026 219.285C459.466 213.471 455.764 180.101 455.764 180.101C455.764 180.101 468.003 219.662 470.496 216.038C472.99 212.414 465.812 182.215 458.03 174.514C450.248 166.813 434.155 161 434.155 161C422.369 162.51 398.267 177.61 398.267 177.61L367.214 193.389C367.214 193.389 342.961 202.826 295.438 222.984C247.914 243.142 152.414 297.501 147.578 308.524C142.743 319.546 168.28 343.63 222.15 371.414C276.02 399.197 395.245 452.65 395.245 452.65C425.844 461.559 435.893 442.835 420.253 434.832C404.613 426.829 213.084 309.505 213.084 309.505C244.212 303.314 276.851 274.021 308.508 250.315C342.432 224.872 374.241 205.167 374.241 205.167C374.241 205.167 385.196 211.584 391.24 210.149C397.285 208.715 432.039 177.761 432.039 177.761C432.039 177.761 413.907 213.245 421.311 219.134L421.462 219.058Z" fill="#FFCBBB"/>
<path d="M572.023 436.734C572.023 436.734 541.947 396.96 504.522 359.605C467.097 322.25 436.794 261 436.794 261C436.794 261 292.17 382.366 293.004 448.984C293.004 448.984 460.582 526.114 522.401 519.611C584.221 513.108 572.023 436.81 572.023 436.81V436.734Z" fill="#FEEA39"/>
<path d="M483.255 673.377C483.255 673.377 437.421 669 428.662 669C419.903 669 400.045 673 395.212 672.094C390.38 671.189 393.853 659.792 401.857 653.151C409.861 646.509 423.906 638.585 423.906 638.585C423.906 638.585 422.546 592.774 423.906 587.943C425.265 583.113 476.157 555.792 495.11 546.585C495.11 546.585 514.213 517.528 516.856 511.34C519.499 505.151 566.767 477.226 566.767 477.226C566.767 477.226 553.024 464.245 553.024 459.717C553.024 455.189 582.775 444.472 582.775 444.472C582.775 444.472 592.666 433 599.537 433L608.674 434.509L639.179 445.151C639.179 445.151 661.303 439.792 667.419 444.396C673.536 449 673.536 463.491 673.536 463.491H724.654C733.036 463.491 737.566 496.623 751.309 513.453C765.051 530.283 775.472 554.057 787.93 565.377C806.354 582.132 826.893 599.792 854 630.811C854 630.811 844.863 646.132 816.623 660.623C788.383 675.113 764.749 676.774 747.156 698.132C729.563 719.491 680.482 737 680.482 737C680.482 737 683.956 666.132 676.329 635.642C668.703 605.151 693.394 539.038 693.394 539.038C693.394 539.038 678.595 580.245 666.664 597C645.673 626.434 599.386 684.774 601.727 682.132C601.727 682.132 627.4 690.887 615.998 700.774C604.596 710.66 593.497 712.924 593.497 712.924C593.497 712.924 532.713 674.434 483.406 673.453L483.255 673.377Z" fill="#FEEA39"/>
<path d="M321.577 1057.88C321.577 1057.88 366.997 1082.37 377.88 1090.99C388.763 1099.6 391.332 1081.84 391.332 1081.84C391.332 1081.84 349.766 1038.99 331.704 1022.14C313.641 1005.29 321.577 1057.88 321.577 1057.88Z" fill="#C9B5D8"/>
<path d="M343.04 1014.58C368.887 1038.31 381.583 1050.33 406.296 1074.66C406.296 1074.66 414.08 1060.23 414.307 1051.61C414.609 1043 357.475 968.178 357.475 968.178C351.58 986.693 348.708 995.989 343.04 1014.58Z" fill="#C9B5D8"/>
<path d="M431.613 672.154C290.515 702.46 221.516 712.586 98.4047 786.951C98.4047 786.951 72.0291 799.875 60.8441 811.437C49.5835 823 50.7171 834.563 51.3973 841.894C52.0774 849.224 70.6688 866.531 78.3774 872.199C86.086 877.867 152.44 943.465 164.532 951.174C176.624 958.883 221.062 995.309 221.062 995.309C221.062 995.309 279.33 1056.45 292.858 1075.19C306.386 1093.93 341.377 1116.08 341.377 1116.08C341.377 1116.08 387.855 1085.17 394.43 1048.51C394.43 1048.51 334.575 981.101 298.224 947.773C261.872 914.445 184.862 784.004 184.862 784.004C184.862 784.004 290.289 759.745 323.844 752.414C357.399 745.008 423.753 729.062 423.753 729.062C423.753 729.062 515.274 720.446 535.528 719.766" fill="#582BBC"/>
<path d="M127.274 736.165C127.274 736.165 99.2354 747.577 84.9518 757.175C82.9113 758.535 80.7952 760.198 78.6036 762.012C61.4481 776.371 54.1173 799.496 58.9541 821.337C59.332 823 59.6343 824.587 59.9366 825.872C62.1283 836.225 91.5267 852.701 110.874 870.234C130.221 887.767 187.431 935.001 210.406 958.278C233.38 981.555 337.295 1069.6 337.295 1069.6C337.295 1069.6 390.198 1064.91 423.602 1017.6C423.602 1017.6 387.552 1009.14 382.035 1000.67C376.519 992.135 374.78 961.527 361.026 949.813C347.271 938.099 313.867 923.287 304.345 912.782C294.822 902.353 283.108 861.77 270.79 849.375C258.471 836.981 209.197 820.279 200.052 806.978C200.052 806.978 226.881 795.415 255.07 793.602C321.274 789.369 393.523 772.819 460.935 769.493C489.956 768.058 528.046 767 528.046 767C528.046 767 540.138 768.964 560.014 744.932C567.722 735.636 576.187 702.535 576.187 702.535C541.8 684.699 524.342 676.008 488.973 659.155C366.845 676.613 245.623 701.93 127.123 736.165H127.274Z" fill="#864DFF"/>
<path d="M391.332 1081.84C399.343 1078.89 413.626 1092.8 413.626 1092.8C411.359 1103.46 410.603 1110.63 410.603 1110.63C409.696 1130.06 406.522 1163.84 400.25 1179.26C394.052 1194.75 384.606 1213.34 382.565 1207.29C380.525 1201.25 376.67 1198.75 377.728 1177.44C378.786 1156.13 387.326 1113.66 387.326 1113.66C387.326 1113.66 374.705 1100.73 379.391 1091.44C379.391 1091.44 385.588 1083.81 391.332 1081.77V1081.84Z" fill="#322B73"/>
<path d="M404.935 1087.13C404.935 1087.13 397.755 1073.3 397.831 1069.14C397.906 1064.99 406.9 1064.69 406.9 1064.69C409.016 1057.05 410.074 1053.2 412.19 1045.57C412.19 1045.57 413.399 1044.66 415.817 1045.11C418.236 1045.57 429.799 1056.6 429.648 1061.89C429.421 1067.18 429.496 1090.46 429.27 1095.82C429.043 1101.11 432.671 1121.67 429.799 1145.02C426.927 1168.37 410.981 1185.15 404.859 1187.19C398.662 1189.31 400.249 1169.58 401.307 1133.99C402.139 1105.5 405.01 1087.13 405.01 1087.13H404.935Z" fill="#322B73"/>
<path d="M530.076 567C530.076 567 543.85 587.877 554.352 593.455C564.854 599.032 600.545 659.251 604.578 666.487C608.612 673.722 582.661 602.273 571.323 589.46C559.984 576.647 530 567 530 567H530.076Z" fill="#FFD000"/>
<path d="M563 539.111C563 539.111 648.407 520.636 658.015 519.053C667.622 517.469 604.834 552.005 563 539.111Z" fill="#FFD000"/>
<path d="M650.894 304.772C650.894 304.772 646.579 288.489 647.033 278.643C647.488 268.797 659.902 269.252 661.568 269.252C663.233 269.252 675.269 288.943 675.269 288.943C675.269 288.943 681.25 263.723 684.656 260.239C688.062 256.756 706.912 261.072 707.29 267.51C707.669 273.947 702.597 297.88 703.884 299.167C705.171 300.455 713.725 298.334 716.753 303.863C719.781 309.392 715.92 323.554 715.92 323.554C715.92 323.554 730 315.45 730 322.267C730 329.083 720.992 350.061 721.446 361.649C721.9 373.236 721.446 376.19 721.446 376.19L700.023 393.761C700.023 393.761 679.054 426.705 670.5 428.826C661.946 430.946 654.225 412.997 654.225 412.997L677.692 354.227L682.006 318.859L650.818 304.772H650.894Z" fill="#8983BF"/>
<path d="M584.433 488.924C584.433 488.924 603.369 460.658 607.686 450.077C612.685 437.757 611.17 427.78 611.17 427.78C611.17 427.78 603.445 415.083 595.492 404.426C584.66 389.839 578.601 389.688 577.01 371.322C576.48 365.503 596.552 353.712 596.552 353.712C596.552 353.712 592.159 308.44 603.217 306.173C608.822 305.039 615.488 309.649 623.971 315.242C632.454 320.835 641.24 326.352 641.24 326.352L667.372 307.609C667.372 307.609 670.932 312.824 679.718 312.824C688.504 312.824 694.26 313.428 694.26 313.428L703.653 342.678C703.653 342.678 679.263 346.986 677.597 355.073C676.309 361.119 697.593 370.415 697.82 375.479C697.82 375.479 673.204 387.799 673.204 392.485C673.204 397.171 674.34 401.252 674.34 401.252C674.34 401.252 689.564 393.089 704.865 393.618C720.165 394.148 726.603 398.304 723.043 405.938C719.483 413.571 679.036 435.187 669.114 416.443C669.114 416.443 640.937 432.24 624.501 474.942L584.585 489L584.433 488.924Z" fill="#FFCBBB"/>
<path d="M679 408.624C679 408.624 694.203 402.246 704.929 404.471C710.1 405.509 695.746 415.447 679 408.624Z" fill="#FFB39F"/>
<path d="M612.369 487.68C612.369 487.68 603 525.266 603 528C603 528 654.187 519.875 667.821 471.583C678.561 433.465 612.369 487.68 612.369 487.68Z" fill="#FFD000"/>
<path d="M612.077 488.263C612.077 488.263 611.473 500.016 608 517C608 517 655.561 491.448 673 463.394C673 463.394 672.623 449.594 666.885 444.211C661.148 438.827 638.65 444.969 638.65 444.969C638.65 444.969 615.549 474.085 612.077 488.188V488.263Z" fill="#FEF295"/>
<path d="M665.45 288.973C665.45 288.973 661 305.449 661 308.714C661 311.978 683.554 331.263 685.741 332.857C687.929 334.452 696 322.152 696 322.152C696 322.152 673.446 286.088 671.183 283.507C668.92 280.925 665.45 289.049 665.45 289.049V288.973Z" fill="#8983BF"/>
<path d="M679 354.498L682.879 350.004C693.147 349.78 718.779 358.093 718.779 358.093C718.779 358.093 718.931 361.013 718.931 361.388C718.931 361.762 720.072 368.652 719.996 369.626C719.996 369.626 705.241 370 704.024 370C702.807 370 694.592 357.269 694.592 357.269L679 354.498Z" fill="#C9B5D8"/>
<path d="M704.401 341C704.401 341 710.94 336.882 713.976 335.632C717.012 334.382 726.898 334.971 726.898 334.971L729 326C729 326 713.587 327.985 711.485 329.235C709.383 330.485 703 336.368 703 336.368L704.323 340.927L704.401 341Z" fill="#C9B5D8"/>
<path d="M725.692 321.556C725.692 321.556 730.619 322.943 731.949 324.484C733.278 326.026 724.285 345.293 722.877 348.915C721.469 352.538 721 353 721 353C721 353 731.948 333.424 732.809 327.798C733.669 322.172 731.479 321.247 729.211 320.245C726.943 319.244 725.692 321.633 725.692 321.633V321.556Z" fill="#A29DCD"/>
<path d="M697 347C697 347 708.476 339.615 710.957 339.077C713.438 338.538 726 338 726 338C726 338 707.235 340.769 697.078 347H697Z" fill="#8983BF"/>
<path d="M682.199 385.482C682.199 385.482 697.478 382 700.609 382C703.739 382 710 384.829 710 384.829L702.919 389.181C702.919 389.181 682.944 384.321 674 396L674.149 391.212L682.199 385.409V385.482Z" fill="#C9B5D8"/>
<path d="M651 305C651 305 644.752 298.83 644.752 295.098C644.752 288.167 649.095 274 649.095 274C649.095 274 643 282.835 643 294.184C643 299.744 650.924 304.924 650.924 304.924L651 305Z" fill="#8983BF"/>
<path d="M666.803 287.094C666.803 287.094 663.745 290.961 663.745 292.818C663.745 294.674 660 312 660 312C660 312 665.045 294.055 667.261 292.818C669.478 291.58 672 288.409 672 288.409L670.93 284L666.956 287.171L666.803 287.094Z" fill="#C9B5D8"/>
<path d="M675 321.892C675 321.892 680.287 307.412 682.968 304L689 312.112L678.053 325L675 321.967V321.892Z" fill="#C9B5D8"/>
<path d="M680 326L690 315C690 315 688.445 323.669 680 326Z" fill="#C9B5D8"/>
<path d="M693 538.516L687.698 514C687.698 514 679.746 552.103 674.672 561.135C669.597 570.243 650.891 578.744 647.482 587.852C644.074 596.96 639 634 639 634C639 634 679.443 590.129 693 538.516Z" fill="#FFD000"/>
<path d="M585 488C585 488 582.699 472.209 579.656 465.984C576.613 459.758 566 485.115 566 485.115L585 488Z" fill="#FFD000"/>
<path d="M582 444C582 444 571.24 466.8 568.231 473.925C565.221 481.05 551 489 551 489C551 489 570.714 452.4 582 444Z" fill="#FFD000"/>
<path d="M427 603C427 603 517.786 630.537 532.152 630.537C546.518 630.537 473.86 656.945 427 603Z" fill="#FFD000"/>
<path d="M553.848 520C553.848 520 531.811 547.69 527.797 551.776C523.784 555.861 470.167 585.292 466.078 589.301C461.989 593.311 464.033 641.58 464.033 641.58L441.239 664.353C441.239 664.353 517.65 643.245 540.444 648.616C563.239 653.988 593 713 593 713C593 713 524.995 677.139 504.927 673.734C484.859 670.33 432 668.968 432 668.968L460.626 640.218C460.626 640.218 461.307 590.663 461.989 585.973C462.67 581.282 518.331 553.819 518.331 553.819L553.772 520.076L553.848 520Z" fill="#FFD000"/>
<path opacity="0.86" d="M611.425 427C611.425 427 616.084 446.395 616.084 452.024C616.084 457.652 617 477.504 617 477.504L585 488C585 488 604.933 455.751 607.912 449.514C612.418 439.778 611.425 427.076 611.425 427.076V427Z" fill="#FFB39F"/>
<path d="M699 378C699 378 714.437 382.07 715.625 384.784C716.812 387.498 706.793 393 706.793 393C706.793 393 718 388.402 718 384.558C718 380.714 699 378 699 378Z" fill="#8983BF"/>
<path d="M664 420.341C664 420.341 666.376 428.289 669.184 428.951C671.992 429.613 682 423.358 682 423.358C682 423.358 672.136 423.358 669.328 416L664 420.268V420.341Z" fill="#8983BF"/>
<path fill-rule="evenodd" clip-rule="evenodd" d="M403 673.61C403 673.61 483.472 708.4 510.296 716.984C537.12 725.569 576 703.957 576 703.957C576 703.957 543.977 682.872 510.824 671.427C477.67 659.981 429.447 665.177 429.447 665.177L403 673.61Z" fill="#582BBC"/>
<path d="M595 361.548C595 361.548 603.089 361.841 611.027 361.841C618.966 361.841 639 357 639 357C639 357 621.99 365.216 611.481 364.996C600.972 364.776 595.076 361.548 595.076 361.548H595Z" fill="#F8F8FC"/>
<path d="M582 388C582 388 607.551 419.038 611.541 428.013L617.373 477C617.373 477 629.803 435.641 628.959 421.132C605.249 405.725 582 388 582 388Z" fill="#FFB39F"/>
<path d="M705.197 265C705.197 265 708.616 267.16 709.88 272.521C711.144 277.883 702 300 702 300C702 300 708.616 277.585 708.616 274.532C708.616 271.479 705.197 265 705.197 265Z" fill="#8983BF"/>
<path d="M592 485.715C592 485.715 571.758 478.067 558.54 479.657C545.322 481.247 542.679 499.571 542.679 499.571C542.679 499.571 527.724 481.777 497.738 470.344C467.753 458.91 453.025 453.383 439.807 431.348C426.589 409.314 406.196 355.326 379.383 326.401C352.57 297.476 283.309 271.883 266.843 267.416C250.378 262.948 191.842 250.379 174.545 246.442C157.249 242.504 119.257 229.329 113.517 228.042C107.777 226.754 151.282 255.604 171.524 273.17C191.766 290.737 327.569 364.109 343.733 370.016C359.896 375.922 387.389 431.575 398.416 443.236C409.444 454.897 459.294 485.942 475.23 485.791C491.167 485.639 535.352 504.796 540.413 505.932C545.473 507.068 587.166 493.741 592 485.715Z" fill="#6FCBD1"/>
<path d="M646 332.107C646 332.107 656.941 320.304 662.103 320.003C667.266 319.703 660.254 340 660.254 340C660.254 340 646.693 338.948 646 332.182V332.107Z" fill="#F8F8FC"/>
<path d="M658.002 330.638C662.422 326.565 664.676 321.82 663.035 320.04C661.395 318.259 656.482 320.118 652.062 324.191C647.642 328.264 645.388 333.009 647.029 334.789C648.669 336.569 653.582 334.711 658.002 330.638Z" fill="#6FCBD1"/>
<path d="M680 737C680 737 695.825 701.441 733.381 679.291C770.937 657.142 854 631 854 631C854 631 848.094 648.478 794.031 672.285C794.031 672.285 769.423 685.017 758.141 691.571C746.859 698.126 717.405 729.843 680 737Z" fill="#FFD000"/>
<path d="M713.527 701.96C713.527 701.96 704.907 783.501 706.116 808.236C707.326 832.971 734.549 914.512 734.549 914.512L718.518 936.751C718.518 936.751 740.221 956.115 752.547 959.822C764.872 963.528 772.51 966.327 772.51 966.327C772.51 966.327 759.881 948.702 736.364 938.793C736.364 938.793 774.703 943.181 795.649 955.51C816.596 967.84 819.999 972 819.999 972C819.999 972 820.83 953.846 782.718 939.323C764.797 932.515 755.571 917.009 755.571 917.009C755.571 917.009 732.129 713.079 732.129 697.043C732.129 681.007 713.603 701.96 713.603 701.96H713.527Z" fill="#FFCBBB"/>
<path d="M468.155 59C468.155 59 497.546 93.2614 521.044 110.845C544.542 128.428 558.822 152.728 558.822 152.728C558.822 152.728 562.675 142.012 534.568 189.857C503.288 242.985 479.564 294 479.564 294C479.564 294 452.591 240.495 396 202.988C396 202.988 461.884 149.483 468.231 59H468.155Z" fill="#F7F5FA"/>
<path d="M712.074 715L732 707.513L731.114 694.169C731.114 694.169 730.819 688.906 724.694 691.945C718.568 694.985 713.328 701.73 713.328 701.73L712 715H712.074Z" fill="#FFB39F"/>
<path d="M759 926C759 926 790.702 929.565 800.941 933.131C811.18 936.696 813 959 813 959C813 959 762.716 935.179 759 926Z" fill="#FFCBBB"/>
<path d="M472.783 58C472.783 58 568.306 106.8 594 120.537C594 120.537 512.458 262.991 510.342 268L409 199.923L472.707 58H472.783Z" fill="#F7F5FA"/>
<path d="M396 203.058C396 203.058 415.335 167.874 431.347 141.146C447.359 114.419 468.205 59 468.205 59C468.205 59 500.003 85.5768 571 124.687C571 124.687 537.918 174.141 522.057 199.812C506.196 225.482 483.387 262.932 468.583 292C468.583 292 452.949 271.765 441.242 255.985C429.535 240.206 396 203.058 396 203.058Z" fill="#D1C6FF"/>
<path d="M308.726 368L273 396.464L303.882 411C303.882 411 316.598 387.712 325 377.589L308.726 368Z" fill="#FFB39F"/>
<path d="M448.5 191L461 180L418.5 166.5L397.5 203.5L412.5 219.5L435.5 210.5L431.5 200.5L448.5 195V191Z" fill="#AD9FFF"/>
<path d="M778 936.077C778 936.077 805.185 952.634 812 958C812 958 805.859 946.118 801.291 942.669C796.723 939.219 778 936 778 936V936.077Z" fill="#FFB39F"/>
<path d="M394.956 192.096C394.956 192.096 427.903 211.086 435.875 209.951C443.846 208.816 442.479 201.175 442.479 201.175L396.398 184.53C396.398 184.53 443.39 196.333 452.728 194.138C457.814 193.004 459.408 188.313 456.903 185.059C454.778 182.336 448.704 180.898 448.704 180.898L458.497 179.839C460.623 179.612 462.521 178.477 463.812 176.737L467 169.701L418.869 161L380 191.566L394.88 192.096H394.956Z" fill="#FFCBBB"/>
<path d="M448.3 181H447.85L409 177.593C409 177.593 415.975 172.975 418.975 172.066C421.975 171.158 457 179.864 457 179.864" fill="#FFB39F"/>
</svg>
