<svg width="935" height="1385" viewBox="0 0 935 1385" fill="none" xmlns="http://www.w3.org/2000/svg">
<path d="M490.34 1108.34C512.845 1081.05 540.956 1029.62 540.956 1029.62L637.404 993.663C631.198 980.58 627.236 972.208 627.236 972.208C627.236 972.208 427.238 950.304 409.145 986.187C409.145 986.187 408.397 1072.91 410.416 1165.53C428.808 1155.29 472.77 1129.65 490.34 1108.27V1108.34Z" fill="#582BBC"/>
<path d="M694.524 1123.96C680.319 1085.91 652.431 1025.58 637.404 993.663L540.956 1029.62C540.956 1029.62 512.844 1080.98 490.34 1108.34C472.77 1129.65 428.808 1155.36 410.416 1165.6C412.36 1255.01 416.846 1350.03 427.089 1377.77H493.63C493.63 1377.77 529.816 1100.34 539.835 1076.72C539.835 1076.72 639.647 1314 686.898 1377.77H755.608C755.608 1377.77 714.487 1177.64 694.449 1123.96H694.524Z" fill="#864DFF"/>
<path d="M763.906 74C763.906 74 477.106 88.4282 444.583 95.5301L469.48 412.501L799.045 373.776L763.831 74H763.906Z" fill="#AD9FFF"/>
<path d="M49 151.149L99.1675 352.62L271.576 310.083L210.643 103.454L49 151.149Z" fill="#D1C6FF"/>
<path d="M435.985 438.142C435.985 438.142 596.207 447.038 614.749 445.543L621.553 297.449H435.985V438.217V438.142Z" fill="#D1C6FF"/>
<path d="M440.845 371.608C440.845 371.608 422.378 383.42 420.135 391.942C417.892 400.465 428.659 431.115 437.406 439.936L441.593 438.366C441.593 438.366 420.435 405.772 422.528 394.559C425.444 379.084 444.584 371.608 444.584 371.608H440.845Z" fill="#9082BC"/>
<path d="M491.088 407.491C491.088 407.491 506.863 395.53 512.695 388.354C518.527 381.252 544.695 350.302 566.75 360.245C566.75 360.245 545.517 355.834 526.601 378.486C503.723 405.772 498.863 405.697 491.088 407.491Z" fill="#9082BC"/>
<path d="M561.292 442.403C561.292 442.403 564.507 471.409 564.283 487.108C564.133 502.732 562.787 586.685 562.787 586.685C562.787 586.685 486.676 605.673 454.079 586.834C421.481 567.92 424.471 550.427 424.471 550.427L409.145 492.865C409.145 492.865 443.088 425.583 476.732 417.584C510.302 409.585 556.956 419.827 556.956 419.827L561.292 442.403Z" fill="#FFCBBB"/>
<path d="M535.946 504.302C535.946 504.302 539.684 485.688 548.955 483.072C558.226 480.455 563.46 484.865 564.357 487.033C565.254 489.201 565.18 505.424 564.357 509.685C563.983 511.479 539.685 512.6 535.946 504.302Z" fill="white"/>
<path d="M428.659 566.575C428.659 566.575 411.014 536.747 395.463 527.028C379.912 517.385 363.089 530.841 372.734 552.67C382.379 574.499 428.659 566.575 428.659 566.575Z" fill="#F7C1B2"/>
<path d="M396.584 511.778C396.584 511.778 388.808 506.396 390.677 502.732C392.546 499.069 409.144 483.894 409.144 483.894C409.144 483.894 392.322 463.186 390.378 453.617C388.434 444.048 403.238 428.125 434.938 433.657C434.938 433.657 420.135 400.764 434.938 376.767C449.742 352.77 491.087 407.417 491.087 407.417C491.087 407.417 507.311 402.633 516.208 393.737C525.105 384.841 550.152 359.423 566.824 360.171C583.422 360.919 579.011 393.737 563.161 407.417C563.161 407.417 586.413 418.855 588.282 431.788C590.151 444.721 569.815 452.496 569.815 452.496L545.815 423.715C545.815 423.715 497.218 432.386 480.47 441.731C463.723 451.001 416.396 499.593 421.181 501.985C425.966 504.377 439.275 527.776 435.013 549.232C430.751 570.687 396.658 511.778 396.658 511.778H396.584Z" fill="#9082BC"/>
<path d="M452.658 461.018C452.658 461.018 455.35 479.034 456.322 481.95C456.322 481.95 477.63 484.043 490.788 479.034C503.872 474.025 510.153 468.792 511.573 464.083C513.143 458.775 512.62 447.786 507.76 439.861C504.844 435.152 460.135 444.272 452.733 461.018H452.658Z" fill="#7060A9"/>
<path d="M543.722 411.454C543.722 411.454 534.601 426.106 539.909 442.777C541.18 446.814 565.628 458.252 568.245 456.981C570.862 455.71 570.637 440.161 569.665 435.301C568.694 430.442 543.722 411.454 543.722 411.454Z" fill="#7060A9"/>
<path d="M491.237 495.033C482.191 494.883 469.032 496.453 462.004 500.938C456.397 504.527 458.49 506.246 458.49 506.246C458.49 506.246 476.957 510.956 491.237 510.956C490.041 508.863 489.293 506.097 489.293 503.032C489.293 499.967 490.041 497.201 491.237 495.107V495.033Z" fill="white"/>
<path d="M504.395 499.443C504.62 500.565 504.769 501.761 504.769 503.032C504.769 505.05 504.395 506.994 503.872 508.638C508.582 506.097 507.162 502.284 504.395 499.443Z" fill="white"/>
<path d="M504.396 499.443C503.05 498.023 501.406 496.827 499.985 496.229C498.49 495.556 495.275 495.107 491.163 495.107C489.966 497.275 489.219 499.967 489.219 503.032C489.219 506.097 489.966 508.863 491.163 510.956C494.153 510.956 496.994 510.731 499.387 510.208C501.256 509.76 502.751 509.237 503.873 508.638C504.471 506.919 504.77 505.05 504.77 503.032C504.77 501.761 504.62 500.565 504.396 499.443Z" fill="#79CDD4"/>
<path d="M560.021 516.787C564.315 516.787 567.796 509.457 567.796 500.415C567.796 491.373 564.315 484.043 560.021 484.043C555.726 484.043 552.245 491.373 552.245 500.415C552.245 509.457 555.726 516.787 560.021 516.787Z" fill="#79CDD4"/>
<path d="M525.405 466.325C525.405 466.325 526.601 497.125 532.134 506.545C532.134 506.545 613.03 504.751 610.338 524.412C610.338 524.412 603.684 564.856 545.292 595.88C545.292 595.88 509.48 550.128 525.33 466.325H525.405Z" fill="#FFCBBB"/>
<path d="M217.596 904.552C217.596 904.552 241.521 966.9 256.25 997.775C270.979 1028.65 326.455 1056.09 341.183 1056.09C355.912 1056.09 365.407 1042.03 361.37 1013.55C357.333 985.066 347.464 938.343 347.464 938.343L217.521 904.627L217.596 904.552Z" fill="#FFCBBB"/>
<path d="M292.81 904.552C292.81 904.552 324.66 937.371 335.352 950.827C346.118 964.283 346.043 1036.57 350.23 1054.14C350.23 1054.14 363.837 1049.06 363.463 1022.15C363.239 1008.61 359.875 971.759 350.23 937.296L292.735 904.552H292.81Z" fill="#FFB39F"/>
<path d="M358.229 926.157C358.229 926.157 361.669 978.562 373.781 993.14C385.967 1007.72 639.646 984.916 663.347 967.348C687.047 949.781 667.459 851.923 667.459 851.923L358.304 926.157H358.229Z" fill="#FEEA39"/>
<path d="M480.62 943.426C480.62 943.426 483.162 981.178 471.798 1025.29C460.434 1069.47 459.163 1104.08 461.106 1107.22C463.05 1110.36 519.124 1059.3 537.367 1008.91C555.61 958.527 551.872 919.429 551.872 919.429L480.62 943.351V943.426Z" fill="#6ED8DE"/>
<path d="M786.784 487.706C786.784 487.706 791.42 450.701 794.111 440.31C794.111 440.31 631.123 494.21 512.246 537.27C512.246 537.27 555.834 547.886 633.216 534.953C710.598 522.095 786.859 487.706 786.859 487.706H786.784Z" fill="#AD9FFF"/>
<path d="M700.954 935.502L691.758 915.915C691.758 915.915 724.206 903.805 759.271 902.085L771.682 913.523C771.682 913.523 720.916 926.68 700.954 935.502Z" fill="#FFB39F"/>
<path d="M198.008 502.209V443.301C198.008 443.301 397.706 510.732 512.172 537.27C512.172 537.27 415.351 559.174 359.576 557.529C303.801 555.885 198.008 502.284 198.008 502.284V502.209Z" fill="#AD9FFF"/>
<path d="M180.213 909.636C180.213 909.636 181.409 826.356 183.727 787.408C186.045 748.459 178.194 678.188 178.194 678.188C178.194 678.188 153.896 524.263 156.213 483.744C156.213 483.744 198.904 491.295 256.399 504.004C396.061 534.953 462.826 534.205 512.246 537.271C512.246 537.271 509.48 694.036 512.246 750.702C515.012 807.368 537.965 926.98 536.395 947.314C536.395 947.314 511.125 965.704 442.34 957.256C373.482 948.809 180.288 909.71 180.288 909.71L180.213 909.636Z" fill="#D1C6FF"/>
<path d="M512.171 537.271C512.171 537.271 596.731 518.805 645.552 509.61C694.374 500.415 815.419 483.744 815.419 483.744C815.419 483.744 797.924 680.057 801.662 721.547C805.401 763.037 817.214 856.708 828.279 893.488C828.279 893.488 717.402 904.104 681.814 919.504C646.15 934.904 575.423 960.172 536.32 947.239C497.293 934.306 491.237 590.647 512.171 537.271Z" fill="white"/>
<path d="M830.522 647.911C819.981 629.446 812.654 597.599 805.7 592.142C798.672 586.76 791.046 589.302 780.878 604.552C770.71 619.877 755.383 634.305 735.869 646.117C729.739 649.855 724.804 659.349 730.486 666.077C736.243 672.73 749.925 666.077 749.925 666.077C748.654 670.189 749.925 679.458 749.925 679.458C730.187 685.215 747.982 716.987 747.982 716.987C747.982 716.987 745.14 717.659 745.14 729.471C745.14 741.283 762.636 764.233 768.392 770.887C774.149 777.615 783.346 783.969 790.373 777.914C797.401 771.859 793.887 759.449 788.131 754.664C782.374 749.88 768.392 734.256 768.392 734.256C771.607 721.846 801.364 716.987 801.364 716.987C801.364 716.987 808.616 757.953 809.887 765.354C811.158 772.755 825.214 775.447 825.214 775.447C825.812 807.592 778.187 919.429 778.187 919.429L759.271 902.086L725.402 907.543C721.066 916.813 700.954 935.502 700.954 935.502C700.954 935.502 760.243 1060.27 802.859 1046.07C845.476 1031.86 855.345 791.295 855.345 771.26C855.345 751.226 840.99 666.451 830.522 647.911ZM780.355 645.07C780.355 645.07 790.822 628.399 791.869 615.541C791.869 615.541 806.149 637.819 807.869 654.49C807.869 654.49 796.355 645.818 780.43 645.07H780.355Z" fill="#FFCBBB"/>
<path d="M825.138 775.447C825.138 775.447 836.054 779.334 843.68 768.195C843.68 768.195 848.017 781.876 822.223 795.631C822.223 795.631 823.419 790.398 824.241 785.165C824.615 782.848 825.138 777.764 825.138 775.447Z" fill="#FFB39F"/>
<path d="M778.187 919.429C778.187 919.429 753.215 950.154 750.523 964.881C750.523 964.881 753.14 927.278 767.495 909.561L778.187 919.354V919.429Z" fill="#FFB39F"/>
<path d="M749.925 666.077C749.925 666.077 750.074 646.267 780.354 645.07C780.354 645.07 783.868 638.791 784.616 637.445C784.616 637.445 747.607 633.184 749.925 666.077Z" fill="#FFB39F"/>
<path d="M747.981 716.987C747.981 716.987 758.448 706.969 774.747 703.157C791.046 699.344 810.186 701.063 810.186 701.063C810.186 701.063 785.14 693.064 769.813 693.064C754.486 693.064 743.869 708.09 743.869 708.09L747.906 716.987H747.981Z" fill="#FFB39F"/>
<path d="M749.925 679.458C749.925 679.458 783.121 671.384 815.494 679.458C815.494 679.458 794.784 664.881 777.14 661.442C759.495 657.928 749.925 666.077 749.925 666.077C749.925 666.077 748.729 668.992 749.925 679.458Z" fill="#FFB39F"/>
<path d="M771.682 900.291C771.682 900.291 814.672 897.75 828.279 893.563C828.279 893.563 814.074 821.796 812.503 810.732C810.933 799.668 774.224 863.511 774.224 863.511L771.682 900.291Z" fill="white"/>
<path d="M472.995 480.305C472.995 480.305 474.341 457.729 473.369 446.964C473.369 446.964 484.808 441.207 491.836 440.908C491.836 440.908 493.107 467.896 486.453 479.184C486.453 479.184 477.182 480.903 472.92 480.305H472.995Z" fill="#9082BC"/>
<path d="M447.724 469.391C447.724 469.391 422.229 440.908 391.874 445.992C391.874 445.992 408.846 438.366 428.659 448.832C448.471 459.298 451.462 465.728 451.462 465.728L447.649 469.466L447.724 469.391Z" fill="#7060A9"/>
<path d="M491.088 407.492C491.088 407.492 515.985 410.482 518.302 415.566C520.62 420.649 518.302 429.545 518.302 429.545L530.19 426.854C530.19 426.854 530.564 415.715 527.798 411.529C525.031 407.343 491.088 407.492 491.088 407.492Z" fill="#7060A9"/>
<path d="M222.904 918.158L350.304 942.305V970.936C350.304 970.936 265.147 954.191 222.904 918.083V918.158Z" fill="#FFB39F"/>
<path d="M452.808 505.499C452.808 505.499 492.508 508.489 506.938 510.956C506.938 510.956 496.321 516.188 482.714 516.786C469.106 517.385 452.808 505.499 452.808 505.499Z" fill="#FFB39F"/>
<path d="M390.304 450.402C390.304 450.402 401.145 445.169 442.864 474.25C442.864 474.25 429.93 487.93 427.089 491.519C427.089 491.519 421.556 484.791 409.07 483.969C409.07 483.969 388.211 460.195 390.229 450.477L390.304 450.402Z" fill="#7060A9"/>
<path d="M497.293 440.385C497.293 440.385 498.415 466.4 490.714 477.614C490.714 477.614 501.331 467.447 500.508 440.684L497.293 440.31V440.385Z" fill="#9082BC"/>
<path d="M427.986 510.956L485.555 530.617L577.965 513.871L512.097 537.27L430.154 516.861C430.154 516.861 428.734 512.6 427.911 510.956H427.986Z" fill="#FFB39F"/>
<path d="M552.32 502.209L567.572 496.602C567.572 496.602 566.077 483.594 560.021 484.043C551.797 484.641 552.32 502.209 552.32 502.209Z" fill="#39A3A8"/>
<path d="M489.368 504.751L504.695 501.013L504.47 499.444C504.47 499.444 501.854 496.603 498.489 495.706C495.125 494.809 491.237 495.033 491.237 495.033C491.237 495.033 488.77 498.77 489.368 504.751Z" fill="#39A3A8"/>
<path d="M546.937 975.422C546.937 975.422 550.451 957.78 550.974 950.229C550.974 950.229 542.601 949.332 536.321 947.239C536.321 947.239 528.62 952.846 512.097 956.06C495.573 959.275 480.77 959.349 480.77 959.349C480.77 959.349 480.546 968.246 479.798 976.918C479.798 976.918 519.573 984.319 546.937 975.497V975.422Z" fill="#39A7AA"/>
<g opacity="0.62">
<path d="M190.979 610.607C190.979 610.607 206.755 712.651 206.755 725.584C206.755 725.584 284.287 732.237 304.922 735.377C304.922 735.377 311.352 658.975 309.034 619.354L190.979 610.607Z" fill="white"/>
</g>
<path d="M525.704 586.311C525.704 586.311 521.367 669.965 525.704 711.081C525.704 711.081 570.413 711.081 597.703 704.278C597.703 704.278 593.665 642.454 599.048 572.556L525.704 586.236V586.311Z" fill="#D1C6FF"/>
<path d="M528.021 732.237C528.021 732.237 528.245 740.535 529.965 751.599C529.965 751.599 648.169 737.246 718.075 729.097C718.075 729.097 718.822 725.135 715.981 711.155L527.946 732.312L528.021 732.237Z" fill="#D1C6FF"/>
<g opacity="0.62">
<path d="M198.008 590.721C198.008 590.721 341.483 603.355 357.333 603.804C357.333 603.804 359.127 595.655 357.333 587.432L198.008 571.36V590.721Z" fill="white"/>
</g>
<g opacity="0.62">
<path d="M433.967 641.332C421.182 641.332 346.791 636.548 343.501 636.324C341.408 636.174 339.912 634.38 339.987 632.361C340.062 630.343 341.931 628.698 343.95 628.848C367.276 630.343 429.033 634.155 434.79 633.856C436.958 633.632 438.603 635.277 438.752 637.37C438.902 639.463 437.332 641.183 435.238 641.332C434.939 641.332 434.49 641.332 433.892 641.332H433.967Z" fill="white"/>
</g>
<g opacity="0.62">
<path d="M432.994 663.46C417.518 663.46 346.715 659.946 343.5 659.797C341.407 659.722 339.837 657.928 339.986 655.91C340.061 653.817 341.781 652.022 343.874 652.396C367.201 653.517 429.107 656.433 434.789 656.059C436.882 655.835 438.677 657.405 438.826 659.498C438.976 661.591 437.48 663.385 435.387 663.535C434.864 663.535 434.041 663.535 432.994 663.535V663.46Z" fill="white"/>
</g>
<g opacity="0.62">
<path d="M432.621 685.29C416.995 685.29 351.5 682.224 343.5 681.851C341.407 681.776 339.837 679.982 339.912 677.963C339.987 675.87 341.781 674.151 343.8 674.375C367.126 675.496 428.957 678.113 434.714 677.739C436.808 677.59 438.602 679.085 438.752 681.178C438.901 683.271 437.406 685.065 435.312 685.215C434.789 685.215 433.817 685.215 432.546 685.215L432.621 685.29Z" fill="white"/>
</g>
<path d="M630.824 586.984C629.029 586.984 627.459 585.713 627.16 583.919C626.786 581.9 628.132 579.957 630.151 579.583C630.749 579.508 686.972 568.893 735.869 563.361C737.887 563.136 739.757 564.632 739.981 566.65C740.205 568.668 738.71 570.537 736.691 570.762C688.019 576.294 632.02 586.834 631.496 586.909C631.272 586.909 631.048 586.909 630.824 586.909V586.984Z" fill="#D1C6FF"/>
<path d="M630.824 612.625C629.029 612.625 627.459 611.355 627.16 609.56C626.786 607.542 628.132 605.598 630.151 605.224C630.749 605.15 686.972 594.534 735.869 589.002C737.887 588.778 739.757 590.273 739.981 592.292C740.205 594.31 738.71 596.179 736.691 596.403C688.019 601.935 632.02 612.476 631.496 612.551C631.272 612.551 631.048 612.551 630.824 612.551V612.625Z" fill="#D1C6FF"/>
<path d="M630.824 635.501C629.029 635.501 627.459 634.23 627.16 632.436C626.786 630.418 628.132 628.474 630.151 628.1C630.749 628.025 686.972 617.41 735.869 611.878C737.813 611.653 739.757 613.149 739.981 615.167C740.205 617.186 738.71 619.054 736.691 619.279C688.019 624.811 632.02 635.351 631.496 635.426C631.272 635.426 631.048 635.426 630.824 635.426V635.501Z" fill="#D1C6FF"/>
<path d="M538.264 788.156C536.47 788.156 534.9 786.884 534.6 785.09C534.227 783.072 535.572 781.128 537.591 780.754C538.189 780.679 594.413 770.064 643.309 764.532C645.328 764.308 647.197 765.803 647.421 767.821C647.646 769.84 646.15 771.709 644.132 771.933C595.459 777.465 539.46 788.006 538.937 788.081C538.713 788.081 538.488 788.081 538.264 788.081V788.156Z" fill="#D1C6FF"/>
<path d="M538.264 813.872C536.47 813.872 534.9 812.601 534.6 810.807C534.227 808.788 535.572 806.844 537.591 806.471C538.189 806.396 594.413 795.78 643.309 790.248C645.253 790.024 647.197 791.519 647.421 793.538C647.646 795.556 646.15 797.425 644.132 797.649C595.459 803.181 539.46 813.722 538.937 813.797C538.713 813.797 538.488 813.797 538.264 813.797V813.872Z" fill="#D1C6FF"/>
<path d="M538.264 836.673C536.47 836.673 534.9 835.402 534.6 833.608C534.227 831.589 535.572 829.646 537.591 829.272C538.189 829.197 594.413 818.581 643.309 813.049C645.253 812.825 647.197 814.32 647.421 816.339C647.646 818.357 646.15 820.226 644.132 820.45C595.459 825.982 539.46 836.523 538.937 836.598C538.713 836.598 538.488 836.598 538.264 836.598V836.673Z" fill="#D1C6FF"/>
<path d="M805.027 485.164C805.027 485.164 810.41 462.064 810.41 459.896L790.149 463.634L786.784 487.706L805.027 485.164Z" fill="#AD9FFF"/>
<path d="M492.807 436.572C492.807 436.572 482.265 439.637 477.854 443.301C477.854 443.301 475.162 408.987 428.957 394.11C428.957 394.11 429.779 388.653 430.976 385.513C430.976 385.513 485.779 388.728 492.807 436.572Z" fill="#7060A9"/>
<path d="M178.643 487.856C178.643 487.856 178.494 475.82 178.494 473.129C178.419 467.671 178.12 457.953 178.12 457.953L245.259 480.38L238.007 499.368L178.718 487.781L178.643 487.856Z" fill="#AD9FFF"/>
<path d="M120.476 610.607C120.476 610.607 113.299 603.43 113.299 601.113C113.299 598.795 139.167 557.156 147.392 548.035C155.616 538.915 196.213 569.341 208.699 577.19C221.185 585.04 219.839 598.197 203.092 597.525C186.344 596.852 155.84 567.024 155.84 567.024C155.84 567.024 140.438 601.412 143.728 602.757C143.728 602.757 168.102 595.73 177.522 593.562C186.942 591.394 226.119 586.983 234.643 596.179C243.166 605.374 234.418 617.56 218.867 617.56C218.867 617.56 232.325 626.381 219.839 638.566C207.353 650.677 180.587 651.051 180.587 651.051C180.587 651.051 214.007 645.145 219.839 651.051C225.671 656.956 223.428 668.768 178.195 678.262C178.195 678.262 183.055 727.228 183.129 738.89C183.129 738.89 174.531 734.33 168.999 723.49C163.391 712.651 153.597 697.25 150.606 690.672C147.616 684.093 143.055 677.215 150.307 670.039C150.307 670.039 119.803 667.348 131.915 642.603C131.915 642.603 116.513 642.453 113.224 631.315C109.934 620.176 120.401 610.682 120.401 610.682L120.476 610.607Z" fill="#FFCBBB"/>
<path d="M198.007 648.733C198.007 648.733 159.578 663.087 150.232 669.964C150.232 669.964 142.158 668.469 139.69 667.198C139.69 667.198 162.195 648.957 198.007 648.733Z" fill="#FFB39F"/>
<path d="M218.792 617.485C218.792 617.485 218.717 611.055 195.988 614.419C168.848 618.456 138.419 639.687 138.419 639.687C138.419 639.687 172.961 629.446 185.521 626.979C198.082 624.512 218.792 617.485 218.792 617.485Z" fill="#FFB39F"/>
<path d="M143.728 602.757C143.728 602.757 131.317 606.869 126.756 608.215C122.195 609.561 155.84 567.024 155.84 567.024C155.84 567.024 146.644 586.236 143.728 602.757Z" fill="#FFB39F"/>
<path d="M178.194 678.113C178.194 678.113 164.363 680.131 161.821 682C159.279 683.869 165.783 719.977 182.755 730.443L180.886 707.268L178.194 678.038" fill="#FFB39F"/>
<path d="M187.765 591.918C187.765 591.918 204.213 589.675 216.774 590.796C216.774 590.796 208.4 585.189 201.447 581.825C194.493 578.461 175.354 583.545 175.354 583.545C175.354 583.545 185.97 590.871 187.839 591.918H187.765Z" fill="#FFB39F"/>
</svg>
