<svg width="1379" height="925" viewBox="0 0 1379 925" fill="none" xmlns="http://www.w3.org/2000/svg">
<g clip-path="url(#clip0_9225_102)">
<path d="M1161.57 681.735C1161.57 681.735 1106.24 717.245 1096.75 732.496C1087.33 747.746 1071.55 798.73 1134.8 792.301C1198.06 785.872 1231.63 769.5 1256.97 767.332L1231.63 759.632C1231.63 759.632 1142.43 778.92 1110.51 774.584C1078.58 770.248 1161.5 698.481 1161.5 698.481V681.81L1161.57 681.735Z" fill="#D1C6FF"/>
<path d="M154.182 137.951C154.182 137.951 42.6326 243.434 65.8098 336.581C88.9123 429.729 173.472 312.958 173.472 312.958L158.743 318.415C158.743 318.415 119.94 359.008 89.4356 353.327C58.9313 347.645 75.0807 243.434 167.266 152.978L154.257 137.951H154.182Z" fill="#D1C6FF"/>
<path d="M530.102 925.444C544.756 912.959 560.307 899.727 576.681 885.972C633.203 840.145 650.773 788.189 694.062 770.696C694.062 770.696 746.847 862.573 757.314 907.128C758.585 912.585 760.529 918.79 762.996 925.369H858.845C856.229 910.343 853.537 893.597 852.191 880.589C849.126 850.088 857.798 785.05 846.957 753.951C836.191 722.926 848.004 692.276 846.434 690.332C834.248 675.904 659.446 646.973 625.204 701.994C625.204 701.994 624.605 704.312 621.391 709.918C618.176 715.525 574.588 735.486 535.485 774.658C496.383 813.831 486.439 824.895 476.346 830.203C468.869 834.165 403.973 890.607 365.992 925.369H530.102V925.444Z" fill="#864DFF"/>
<path d="M604.719 177.872C604.719 177.872 621.017 144.605 605.167 134.587C589.317 124.57 575.485 131.522 569.205 178.47C569.205 178.47 518.514 176.974 512.383 202.392C512.383 202.392 509.468 217.045 537.505 241.415C537.505 241.415 525.841 266.01 523 273.935C520.234 281.859 520.608 289.26 530.103 294.866C539.598 300.473 568.756 306.305 568.756 306.305C568.756 306.305 566.439 325.367 571.298 329.479C576.158 333.591 591.56 330.077 591.56 330.077C590.139 307.65 589.466 296.511 588.195 274.159C594.85 235.659 598.139 216.372 604.868 177.797L604.719 177.872Z" fill="#8169CC"/>
<path d="M345.356 559.432C339.076 565.861 362.478 686.818 416.907 708.872C416.907 708.872 452.121 693.996 477.018 659.682C499.822 628.284 518.662 583.355 551.709 558.535C551.709 558.535 558.512 571.393 555.746 586.42C546.027 638.824 567.709 690.706 621.465 709.993C621.465 709.993 625.053 705.508 625.278 702.069C625.278 702.069 673.053 686.819 709.015 691.379C772.042 699.378 848.303 709.769 903.33 668.503C903.33 668.503 919.554 627.835 889.2 576.029C858.845 524.222 838.733 499.029 838.733 499.029C842.621 495.141 1024.9 566.235 1026.02 565.861C1036.34 562.572 1079.25 371.717 1075.96 362.746C1072 351.981 934.582 327.162 882.695 338.6C820.565 352.28 812.715 364.167 785.65 363.045C745.725 361.326 702.585 357.513 664.081 372.689C664.081 372.689 656.305 364.541 650.698 364.466C647.782 363.943 634.175 380.389 634.175 380.389C634.175 380.389 639.109 409.544 637.315 415.973C635.521 422.402 617.203 391.453 617.203 391.453C617.203 391.453 603.745 382.407 602.026 388.089C600.231 393.771 594.4 408.647 594.4 408.647C594.4 408.647 541.092 433.467 522.177 447.97C503.336 462.472 496.681 496.636 482.326 500.524C425.505 515.774 365.02 539.098 345.282 559.432H345.356Z" fill="#FEEA39"/>
<path d="M551.634 558.46C551.634 558.46 542.213 518.914 539.596 512.634C537.054 506.429 540.045 567.656 540.045 567.656C540.045 567.656 549.391 559.432 551.634 558.46Z" fill="#FFD000"/>
<path d="M710.809 618.566C739.37 587.242 777.724 555.695 818.77 543.135C818.77 543.135 782.21 570.571 761.724 583.205C741.239 595.839 710.734 618.566 710.734 618.566H710.809Z" fill="#FFD000"/>
<path d="M660.043 565.936C659.52 565.712 746.771 428.757 746.771 428.757C741.313 504.636 660.043 565.936 660.043 565.936Z" fill="#FFD000"/>
<path d="M838.658 499.103C838.658 499.103 802.322 483.928 793.5 464.939C793.5 464.939 804.042 507.252 851.219 516.223C851.219 516.223 844.64 506.953 838.658 499.029V499.103Z" fill="#FFD000"/>
<path d="M617.129 391.378C617.129 391.378 611.073 351.981 583.186 319.462C583.186 319.462 579.597 320.209 573.391 323.424C567.261 326.713 551.859 336.955 529.13 322.751C506.402 308.548 516.271 290.157 550.513 294.194C550.513 294.194 562.251 293.895 563.672 290.755C565.093 287.615 561.429 275.654 551.485 273.711C551.485 273.711 568.98 263.32 566.887 249.938C564.793 236.556 543.859 229.679 541.242 222.203C538.626 214.652 596.195 190.506 604.569 177.797C604.569 177.797 611.746 199.701 621.092 201.794C621.092 201.794 689.577 187.441 699.296 189.384C709.016 191.328 715.371 195.44 709.764 215.251C704.156 235.061 671.783 273.262 671.783 273.262C671.783 273.262 683.371 296.063 680.156 308.398C676.941 320.733 633.727 341.291 633.727 341.291C633.727 341.291 631.484 362.746 637.839 384.276C637.839 384.276 643.746 403.19 640.755 416.796C637.69 430.402 617.054 391.453 617.054 391.453L617.129 391.378Z" fill="#FFCBBB"/>
<path d="M661.465 444.307C661.465 444.307 672.531 454.997 667.297 463.818C662.138 472.64 652.942 477.798 652.942 477.798C652.942 477.798 673.054 496.711 665.727 513.233C651.447 545.378 616.98 584.102 617.653 619.313C618.176 645.553 664.755 665.737 671.26 692.351C671.26 692.351 637.241 698.78 625.129 702.144C625.129 702.144 580.868 679.193 577.803 641.665C574.738 604.137 647.709 548.144 652.419 507.701C654.138 493.048 634.4 484.003 634.4 484.003C645.241 468.229 650.624 460.304 661.391 444.381L661.465 444.307Z" fill="#FFD000"/>
<path d="M610.4 263.843C610.4 263.843 650.624 275.654 655.11 277.075C659.596 278.495 644.643 303.538 628.045 299.203C611.447 294.867 610.4 263.843 610.4 263.843Z" fill="#FCF7FA"/>
<path d="M568.681 306.305C568.681 306.305 532.495 298.38 531.373 304.884C530.177 311.313 561.578 321.929 568.681 306.305Z" fill="#FFB39F"/>
<path d="M565.018 204.485C565.018 204.485 536.831 217.12 539.822 224.296C542.812 231.398 559.41 231.996 566.962 250.087C566.962 250.087 567.709 237.677 563.298 231.398C558.887 225.118 586.849 235.734 601.952 228.632C604.942 227.212 592.008 201.869 592.008 201.869C581.167 202.99 575.784 203.439 564.943 204.485H565.018Z" fill="#FFB39F"/>
<path d="M559.561 203.663C559.561 203.663 569.579 217.941 576.756 218.315C583.934 218.614 604.195 184.974 604.195 184.974C604.195 184.974 598.289 163.892 587.523 162.546C576.757 161.201 559.561 203.663 559.561 203.663Z" fill="#8169CC"/>
<path d="M842.023 354C807.033 415.525 824.827 482.881 824.827 482.881L842.023 354Z" fill="#FFD000"/>
<path d="M664.006 372.614C664.006 372.614 690.174 410.292 686.511 434.962C686.511 434.962 672.605 426.141 667.67 453.427C655.334 441.989 636.941 506.953 636.941 424.87C647.857 404.012 653.24 393.546 664.081 372.54L664.006 372.614Z" fill="#FFD000"/>
<path d="M664.006 372.614C664.006 372.614 671.633 407.227 669.913 418.44C669.913 418.44 658.025 409.619 651.895 409.694C645.764 409.769 640.829 416.87 640.829 416.87C640.829 416.87 638.736 385.772 636.119 376.95C636.119 376.95 645.54 365.662 650.325 362.971C657.203 362.223 663.932 372.689 663.932 372.689L664.006 372.614Z" fill="#FFD000"/>
<path d="M541.241 219.512C541.241 219.512 522.401 222.278 514.625 213.307C514.625 213.307 516.419 219.511 524.27 228.258C524.27 228.258 536.681 229.978 542.961 227.81C542.961 227.81 537.354 225.193 541.241 219.512Z" fill="#AE98E5"/>
<path d="M546.925 214.578C546.925 214.578 514.776 213.755 512.309 202.392C512.309 202.392 513.28 197.384 516.346 194.319C516.346 194.319 525.841 209.419 551.037 211.886C549.392 212.933 548.57 213.456 546.925 214.578Z" fill="#AE98E5"/>
<path d="M563.747 262.422C563.747 262.422 542.962 246.798 532.345 252.33C532.345 252.33 524.345 269.524 523.598 272.141C523.598 272.141 537.803 271.618 551.635 273.711C551.635 273.711 561.279 267.431 563.821 262.348L563.747 262.422Z" fill="#AE98E5"/>
<path d="M576.755 170.77C576.755 170.77 584.082 171.817 588.343 177.573C592.605 183.329 597.988 194.692 597.988 194.692C597.54 195.29 597.39 195.589 597.016 196.187C597.016 196.187 587.072 173.61 575.559 172.564C575.559 172.564 575.783 172.115 576.755 170.845V170.77Z" fill="#AE98E5"/>
<path d="M572.568 175.405C572.568 175.405 590.063 190.132 594.474 195.813C594.474 195.813 593.128 197.608 588.493 203.439C588.493 203.439 578.026 192.151 569.428 181.685C569.428 181.685 570.998 178.246 572.568 175.48V175.405Z" fill="#AE98E5"/>
<path d="M1046.73 497.982C1046.73 497.982 1023.7 555.844 1025.94 565.861C1025.94 565.861 1042.92 560.105 1060.04 499.627L1046.73 497.982Z" fill="#FFD000"/>
<path d="M1054.65 457.538L1065.35 459.108C1065.35 459.108 1077.16 378.371 1075.81 362.746C1075.81 362.746 1059.89 388.014 1054.58 457.538H1054.65Z" fill="#FFD000"/>
<path d="M617.129 391.378L640.605 408.946C640.605 408.946 643.297 418.59 639.185 420.459C635.073 422.328 619.895 403.265 617.129 391.303V391.378Z" fill="#FFB39F"/>
<path d="M594.4 408.647C594.4 408.647 625.727 453.875 633.129 459.108C633.129 459.108 616.681 464.042 610.4 473.238C610.4 473.238 594.475 432.57 594.4 408.647Z" fill="#FFD000"/>
<path d="M459.448 507.028C459.448 507.028 448.831 563.544 502.887 618.566C502.887 618.566 473.28 571.543 459.448 507.028Z" fill="#FFD000"/>
<path d="M419 558.685C419 558.685 324.796 603.763 314.927 603.763C305.058 603.763 232.087 459.108 212.499 343.384L194.779 332.096C194.779 332.096 201.658 591.503 292.572 652.879C303.039 659.906 316.647 660.056 327.413 653.552C358.889 634.564 430.589 590.681 446.963 576.029C468.121 557.115 419 558.685 419 558.685Z" fill="#FFCBBB"/>
<path d="M345.432 577.524C345.432 577.524 350.516 642.563 389.992 685.922C409.73 707.676 447.486 661.551 458.701 616.173C467.748 579.542 452.197 543.21 452.197 543.21L345.432 577.524Z" fill="#FEEA39"/>
<path d="M604.493 207.326C604.493 207.326 586.4 217.493 590.362 225.193C594.325 232.893 612.792 225.716 613.988 218.54C615.259 211.363 604.418 207.326 604.418 207.326H604.493Z" fill="#FCF7FA"/>
<path d="M600.232 215.4C602.774 220.857 602.251 226.464 599.036 227.81C595.896 229.23 591.186 225.866 588.718 220.409C586.251 214.951 586.774 209.344 589.989 207.999C593.129 206.578 597.765 209.868 600.307 215.4H600.232Z" fill="#6ED8DE"/>
<path d="M597.466 212.41L590.961 223.25C590.961 223.25 584.606 215.998 589.017 208.447C589.017 208.447 593.13 206.803 597.391 212.335L597.466 212.41Z" fill="#8169CC"/>
<path d="M602.475 175.405C602.475 175.405 616.68 163.145 616.68 153.726C616.68 144.306 605.689 137.279 605.689 137.279L601.428 132.569C601.428 132.569 617.278 139.446 618.923 152.828C620.568 166.21 602.549 175.405 602.549 175.405H602.475Z" fill="#8169CC"/>
<path d="M501.317 829.455C501.317 829.455 563.596 809.421 599.334 783.854C635.072 758.287 652.044 730.552 671.258 721.132C671.258 721.132 708.641 735.336 739.669 731.897C770.697 728.533 843.892 705.657 843.892 705.657L846.359 690.482C846.359 690.482 827.967 707.153 725.762 693.547C725.762 693.547 692.118 687.716 677.389 690.482C662.661 693.248 625.128 702.144 625.128 702.144C625.128 702.144 624.456 709.395 618.1 714.329C611.745 719.263 565.466 742.363 535.335 774.808C535.335 774.808 518.064 801.72 501.242 829.53L501.317 829.455Z" fill="#582BBC"/>
<path d="M336.609 596.512C336.609 596.512 332.871 627.836 344.908 642.937L359.188 634.19C359.188 634.19 351.039 613.407 347.376 591.653L336.609 596.512Z" fill="#FFB39F"/>
<path d="M211.453 345.851C211.453 345.851 171.603 333.89 146.033 336.507C120.389 339.123 100.8 328.807 84.6509 314.454C68.5016 300.1 57.1373 299.651 53.9972 293.521C50.8571 287.391 63.3428 281.486 76.7258 293.895C98.6321 314.229 124.501 319.761 136.314 319.462C143.641 319.238 146.482 327.91 146.482 327.91C146.482 327.91 183.491 312.435 193.584 314.827C203.603 317.219 207.191 327.985 212.574 343.385L212.275 346.524L211.528 345.851H211.453Z" fill="#FFCBBB"/>
<path d="M130.706 336.731C130.706 336.731 116.724 318.639 96.463 304.734C76.2016 290.83 51.3048 290.008 51.0057 280.364C50.7066 270.72 62.2205 273.262 70.968 277.672C79.7156 282.083 110.369 295.24 122.556 306.828C134.743 318.415 142.07 312.36 142.07 312.36L189.845 324.246L170.331 334.563L130.706 336.805V336.731Z" fill="#FFCBBB"/>
<path d="M135.266 322.676C135.266 322.676 108.949 292.923 94.9679 283.354C80.9868 273.785 72.6878 272.365 74.856 266.01C77.0242 259.656 98.6314 269.449 108.65 279.242C118.594 289.036 157.846 320.359 161.135 322.452C164.425 324.545 135.266 322.676 135.266 322.676Z" fill="#FFCBBB"/>
<path d="M159.265 324.172C159.265 324.172 133.023 295.614 126.294 286.569C119.565 277.523 106.78 271.169 112.387 266.534C117.995 261.899 134.966 278.046 143.041 292.549C151.116 307.052 165.022 318.714 171.452 320.284C177.882 321.854 159.19 324.172 159.19 324.172H159.265Z" fill="#FFCBBB"/>
<path d="M756.416 779.294L703.408 759.558L686.885 713.731L693.987 770.771L756.416 779.294Z" fill="#582BBC"/>
<path d="M636.941 424.944C636.941 424.944 626.549 431.672 624.605 441.615C622.661 451.558 623.633 467.182 635.895 473.238C635.895 473.238 629.39 474.807 618.773 486.619C608.157 498.431 593.204 516.821 586.25 555.396C579.297 593.97 565.167 605.782 556.943 614.08C527.485 643.833 490.401 727.188 491.523 769.65C492.869 820.784 501.392 829.306 501.392 829.306C501.392 829.306 527.784 784.975 535.485 774.584C561.129 739.897 568.755 692.8 598.138 620.435C614.512 580.14 609.802 542.986 618.101 530.501C626.399 518.017 649.951 494.319 650.773 489.011C651.595 483.704 642.399 475.854 642.399 475.854C642.399 475.854 655.633 455.371 652.792 444.307C650.025 433.243 636.867 424.944 636.867 424.944V425.019L636.941 424.944Z" fill="#6ED8DE"/>
<path d="M78.4454 295.465C78.4454 295.465 59.9783 289.036 57.0625 287.242C57.0625 287.242 67.754 295.465 74.5577 300.025C83.679 306.155 97.2863 308.472 97.2863 308.472C97.2863 308.472 89.5855 304.735 78.5202 295.39L78.4454 295.465Z" fill="#FFB39F"/>
<path d="M1267.06 750.437C1267.06 750.437 1273.64 745.952 1263.55 739.298C1251.14 731.075 1220.19 730.626 1220.19 730.626C1220.19 730.626 1228.93 726.963 1241.42 728.458C1253.83 729.953 1261.53 731.972 1263.4 725.543C1265.04 719.862 1243.29 721.207 1226.39 722.179C1209.57 723.225 1187.51 734.364 1160.82 729.879C1160.82 729.879 1186.47 617.967 1180.56 536.557C1174.73 455.221 1134.43 450.212 1116.86 449.465C1108.78 449.091 1085.61 450.96 1055.1 450.511C1054.21 460.529 1053.08 477.499 1046.58 497.907C1073.35 501.421 1105.64 504.112 1124.86 503.888C1124.86 503.888 1133.61 538.725 1135.1 575.356C1136.6 611.987 1142.43 668.354 1142.43 685.922C1142.43 703.49 1136.6 729.879 1136.6 729.879C1136.6 729.879 1126.35 741.541 1133.68 753.278C1141.01 765.015 1158.58 769.351 1168.15 773.014C1177.64 776.677 1187.89 797.16 1198.2 797.16C1208.52 797.16 1211.21 777.051 1183.92 766.66C1183.92 766.66 1205.53 762.697 1217.19 762.697C1228.86 762.697 1252.11 780.265 1265.49 780.265C1278.88 780.265 1273.57 767.108 1273.57 767.108C1273.57 767.108 1283.06 759.034 1266.99 750.288L1267.06 750.437Z" fill="#FFCBBB"/>
<path d="M1055.25 450.586C1055.25 450.586 1053.68 470.097 1051.52 479.442C1049.35 488.787 1046.73 497.982 1046.73 497.982L1067.59 500.449C1067.59 500.449 1073.12 471.144 1065.35 450.661H1055.25" fill="#FFB39F"/>
<path d="M1273.64 767.257C1273.64 767.257 1247.03 752.53 1232.52 751.334C1218.02 750.138 1193.27 753.054 1193.27 753.054C1193.27 753.054 1218.32 746.176 1230.13 746.924C1241.94 747.671 1262.05 755.969 1273.72 767.257H1273.64Z" fill="#FFB39F"/>
<path d="M1267.06 750.437C1267.06 750.437 1245.68 741.541 1233.42 740.794C1221.16 740.046 1198.36 744.233 1198.36 744.233C1198.36 744.233 1222.65 736.159 1234.92 737.131C1247.18 738.102 1266.99 750.437 1266.99 750.437H1267.06Z" fill="#FFB39F"/>
<path d="M161.434 314.304C161.434 314.304 162.705 312.285 168.312 309.893C175.415 306.903 188.274 322.751 194.779 401.246C200.835 474.658 303.488 462.846 347.599 432.27C391.711 401.695 448.981 378.072 500.494 396.537L491.448 415.376C491.448 415.376 416.084 393.995 347.599 440.868C279.114 487.74 214.143 476.153 194.779 444.157C175.415 412.161 187.975 345.552 168.162 318.565C168.162 318.565 166.667 317.892 164.948 316.845C163.228 315.799 161.434 314.229 161.434 314.229V314.304Z" fill="#D1C6FF"/>
<path d="M480.757 413.207C490.551 412.908 587.223 448.867 641.502 488.189C708.941 537.08 871.182 646.225 948.489 591.653C1025.87 537.005 1190.8 468.827 1212.41 531.922C1234.02 595.017 1172.04 669.849 1172.04 669.849L1168.45 691.454C1168.45 691.454 1274.99 594.494 1216.97 516.298C1158.95 438.102 964.414 564.441 934.807 580.888C905.2 597.334 825.425 580.589 780.416 551.658C735.333 522.727 581.017 422.926 500.495 396.686C500.495 396.686 474.252 398.106 480.757 413.282V413.207Z" fill="#D1C6FF"/>
<path d="M1207.48 764.641C1207.48 764.641 1256.45 754.175 1273.72 745.728C1298.09 733.841 1319.92 735.411 1328.45 763.445C1336.97 791.479 1259.59 816.672 1252.19 835.287C1244.71 853.901 1285.68 874.385 1285.68 874.385L1268.63 891.429C1268.63 891.429 1218.92 872.516 1229.01 837.754C1239.1 802.917 1310.65 785.124 1314.62 769.65C1318.58 754.175 1298.91 751.334 1284.86 757.016C1270.8 762.697 1241.12 769.724 1224.45 774.285L1207.48 764.566V764.641Z" fill="#D1C6FF"/>
<path d="M126.668 343.608C126.668 343.608 134.369 347.87 140.499 349.515C140.499 349.515 150.443 339.87 154.032 336.058C154.032 336.058 148.798 336.208 146.032 336.432C143.266 336.656 136.986 336.806 136.986 336.806C136.986 336.806 130.257 341.515 126.668 343.534V343.608Z" fill="#AD9FFF"/>
<path d="M1156.26 772.565C1156.26 772.565 1159.85 777.873 1160.9 780.714C1161.94 783.555 1163.29 788.563 1163.29 788.563C1163.29 788.563 1176 786.246 1181.61 785.124C1181.61 785.124 1174.73 777.499 1170.92 774.659C1167.1 771.818 1163.89 771.668 1163.89 771.668L1156.26 772.64V772.565Z" fill="#AD9FFF"/>
<path d="M325.918 453.95C325.918 453.95 363.749 429.355 376.758 422.104C389.767 414.852 357.469 426.29 347.6 432.345C337.731 438.401 325.918 453.95 325.918 453.95Z" fill="#AD9FFF"/>
<path d="M942.284 592.924C942.284 592.924 996.04 555.246 1027.37 543.958C1058.69 532.669 1079.18 522.802 1079.18 522.802C1079.18 522.802 1030.36 528.782 1001.05 543.958C971.741 559.133 942.209 592.924 942.209 592.924H942.284Z" fill="#AD9FFF"/>
<path d="M1136.52 718.366C1136.52 718.366 1103.85 750.811 1102.21 761.65C1100.56 772.565 1086.28 748.119 1100.19 730.477C1110.65 717.095 1138.99 698.481 1138.99 698.481L1136.52 718.366Z" fill="#AD9FFF"/>
<path d="M597.316 458.062C597.316 458.062 677.988 512.859 710.212 531.847C742.436 550.761 774.66 557.937 774.66 557.937C774.66 557.937 659.372 469.35 597.316 458.062Z" fill="#AD9FFF"/>
<path d="M387.375 149.24C385.282 149.24 383.637 147.595 383.637 145.502V112.609C383.637 76.3517 413.169 46.8223 449.43 46.8223H483.972C486.065 46.8223 487.71 48.4669 487.71 50.5601C487.71 52.6533 486.065 54.298 483.972 54.298H449.43C417.281 54.298 391.113 80.4634 391.113 112.609V145.502C391.113 147.595 389.468 149.24 387.375 149.24Z" fill="#864DFF"/>
<path d="M847.257 150.062C845.163 150.062 843.518 148.417 843.518 146.324V111.786C843.518 79.6406 817.35 53.4757 785.201 53.4757H752.305C750.211 53.4757 748.566 51.8311 748.566 49.7379C748.566 47.6447 750.211 46 752.305 46H785.201C821.463 46 850.995 75.529 850.995 111.786V146.324C850.995 148.417 849.35 150.062 847.257 150.062Z" fill="#864DFF"/>
<path d="M785.202 485.348H750.66C748.567 485.348 746.922 483.703 746.922 481.61C746.922 479.517 748.567 477.872 750.66 477.872H785.202C817.351 477.872 843.519 451.707 843.519 419.562V386.669C843.519 384.575 845.163 382.931 847.257 382.931C849.35 382.931 850.995 384.575 850.995 386.669V419.562C850.995 455.819 821.463 485.348 785.202 485.348Z" fill="#864DFF"/>
<path d="M482.327 486.171H449.43C413.169 486.171 383.637 456.642 383.637 420.384V385.847C383.637 383.753 385.282 382.109 387.375 382.109C389.468 382.109 391.113 383.753 391.113 385.847V420.384C391.113 452.53 417.281 478.695 449.43 478.695H482.327C484.42 478.695 486.065 480.339 486.065 482.433C486.065 484.526 484.42 486.171 482.327 486.171Z" fill="#864DFF"/>
<path d="M1186.92 768.005C1186.92 768.005 1196.86 771.518 1202.54 779.966C1202.54 779.966 1233.35 771.743 1240.45 761.501C1247.55 751.259 1211.07 767.108 1186.92 768.005Z" fill="#AD9FFF"/>
<path d="M1314.91 760.305C1314.91 760.305 1323.81 771.594 1321.94 778.322C1320.07 785.05 1301.01 798.73 1297.72 800.375C1294.43 802.02 1305.34 783.181 1309.9 779.144C1314.46 775.107 1319.1 768.379 1314.84 760.38L1314.91 760.305Z" fill="#AD9FFF"/>
<path d="M955.518 166.808V160.379C955.518 141.54 970.844 126.214 989.685 126.214H998.283V118.739H989.685C966.732 118.739 948.041 137.428 948.041 160.379V166.808H955.518Z" fill="#6ED8DE"/>
<path d="M1035.22 126.214H1043.81C1062.66 126.214 1077.98 141.54 1077.98 160.379V166.808H1085.46V160.379C1085.46 137.428 1066.77 118.739 1043.81 118.739H1035.22V126.214Z" fill="#6ED8DE"/>
<path d="M998.283 248.667H989.685C970.844 248.667 955.518 233.342 955.518 214.503V203.663H948.041V214.503C948.041 237.453 966.732 256.143 989.685 256.143H998.283V248.667Z" fill="#6ED8DE"/>
<path d="M1077.98 203.738V214.577C1077.98 233.416 1062.66 248.742 1043.81 248.742H1035.22V256.217H1043.81C1066.77 256.217 1085.46 237.528 1085.46 214.577V203.738H1077.98Z" fill="#6ED8DE"/>
<path d="M627.221 478.545C627.221 478.545 614.735 489.235 608.979 498.73C608.979 498.73 621.763 500.599 638.062 505.233C638.062 505.233 645.614 497.235 648.529 493.198C648.529 493.198 638.96 486.245 636.193 484.376C633.427 482.507 627.221 478.471 627.221 478.471V478.545Z" fill="#39A7AA"/>
<path d="M672.381 420.608C672.381 420.608 667.895 409.096 650.998 415.076C650.998 415.076 664.755 390.257 664.157 375.53C664.157 375.53 672.605 394.593 672.381 420.683V420.608Z" fill="#FEEA39"/>
</g>
<defs>
<clipPath id="clip0_9225_102">
<rect width="1379" height="925" fill="white"/>
</clipPath>
</defs>
</svg>
