<svg width="829" height="892" viewBox="0 0 829 892" fill="none" xmlns="http://www.w3.org/2000/svg">
<path d="M826.481 154.534C826.481 156.961 825.834 159.388 824.432 161.6C820.548 167.749 812.349 169.583 806.2 165.7L692.545 93.6882C490.481 -34.3677 221.853 25.7765 93.6888 227.839C-34.3679 429.849 25.7767 698.529 227.841 826.693L291.006 866.717C297.155 870.6 298.989 878.8 295.106 884.949C291.222 891.098 283.023 892.932 276.873 889.048L213.708 849.024C-0.654574 713.039 -64.4672 428.069 71.411 213.707C207.397 -0.65457 492.369 -64.4668 706.732 71.4106L820.386 143.422C824.378 145.957 826.535 150.218 826.535 154.588L826.481 154.534Z" fill="#470AA7"/>
<path d="M826.374 332.917C826.374 335.344 825.726 337.771 824.324 339.983C820.44 346.132 812.241 347.966 806.092 344.082L610.77 220.288C478.884 136.679 303.575 176.002 219.912 307.888C136.303 439.774 175.626 615.082 307.512 698.744L572.31 866.717C578.513 870.6 580.294 878.8 576.41 884.949C572.526 891.098 564.327 892.932 558.178 889.048L293.38 721.076C149.141 629.646 106.203 437.886 197.58 293.756C289.064 149.571 480.772 106.58 624.903 197.956L820.224 321.751C824.216 324.286 826.374 328.548 826.374 332.917Z" fill="#470AA7"/>
<path d="M828.585 873.783C828.585 876.21 827.938 878.638 826.536 880.849C822.652 886.998 814.453 888.832 808.303 884.949L377.258 611.684C296.994 560.871 273.098 454.176 324.018 373.858C374.831 293.647 481.527 269.752 561.845 320.618L820.332 484.491C826.482 488.374 828.316 496.574 824.432 502.723C820.548 508.872 812.349 510.706 806.2 506.822L547.713 342.95C479.693 299.851 389.341 320.078 346.35 387.99C303.251 456.01 323.479 546.361 391.391 589.352L822.436 862.617C826.428 865.152 828.585 869.414 828.585 873.783Z" fill="#470AA7"/>
<path d="M827.938 684.935C827.938 687.363 827.291 689.79 825.888 692.002C822.004 698.151 813.805 699.985 807.656 696.101L450.241 469.765C444.091 465.881 442.204 457.682 446.141 451.533C450.025 445.384 458.224 443.549 464.373 447.433L821.788 673.769C825.78 676.305 827.938 680.566 827.938 684.935Z" fill="#470AA7"/>
</svg>
