<svg width="2016" height="1965" viewBox="0 0 2016 1965" fill="none" xmlns="http://www.w3.org/2000/svg">
<path d="M2015.24 1342.4C2015.24 1685.49 1738.37 1964.09 1398.92 1964.09V1758.23C1626.13 1758.23 1811.16 1571.59 1811.16 1342.4H2015.24ZM316.269 1345.67C485.332 1345.67 622.385 1483.92 622.385 1654.46V1655.14C622.385 1825.68 485.332 1963.93 316.269 1963.93H315.589C146.526 1963.93 9.47266 1825.68 9.47266 1655.14V1654.46C9.47266 1483.92 146.526 1345.67 315.589 1345.67H316.269ZM1303.33 1962.56H997.214C827.83 1962.56 691.098 1823.94 691.098 1653.77C691.098 1482.91 828.51 1344.98 997.214 1344.98V1344.3H1303.33V1962.56ZM1299.49 0.397461C1658.04 0.397461 1948.92 293.522 1948.92 653.397C1948.92 1014.72 1658.04 1306.4 1300.93 1306.4L652.928 1306.4L652.928 653.397C651.488 293.522 942.367 0.39752 1299.49 0.397461ZM595.306 835.856L341.57 835.856C272.184 835.856 215.723 892.811 215.723 962.803C215.723 1032.79 272.184 1089.75 341.57 1089.75H595.306V1295.61L341.57 1295.6C159.262 1295.6 11.6458 1146.02 11.6455 962.803C11.6455 779.59 159.942 630 341.57 630L595.306 630V835.856ZM618.259 0C618.259 338.088 341.037 612.911 0 612.911C0.000200209 274.823 277.222 -2.98144e-05 618.259 0Z" fill="url(#paint0_linear_9213_10377)"/>
<defs>
<linearGradient id="paint0_linear_9213_10377" x1="1734.57" y1="-182.603" x2="325.511" y2="2201.81" gradientUnits="userSpaceOnUse">
<stop stop-color="#FFF7D3"/>
<stop offset="1" stop-color="#FAF5FF"/>
</linearGradient>
</defs>
</svg>
