<?xml version="1.0" standalone="no"?>
<!DOCTYPE svg PUBLIC "-//W3C//DTD SVG 1.1//EN" "http://www.w3.org/Graphics/SVG/1.1/DTD/svg11.dtd">
<svg xmlns="http://www.w3.org/2000/svg" width="350" height="70" viewBox="0 0 350 70" fill="none">
<path d="M20.5281 52.3095H0V0.963379H19.8202C24.9621 0.963379 29.4846 2.05236 33.3778 4.2207C37.2711 6.39866 40.3287 9.42469 42.5408 13.3084C44.7627 17.1921 45.8638 21.683 45.8638 26.7713C45.8638 31.8597 44.7922 36.1867 42.6391 40.0223C40.4958 43.8578 37.5169 46.8646 33.7219 49.0425C29.927 51.2205 25.5225 52.2998 20.5183 52.2998L20.5281 52.3095ZM11.4635 6.09992V47.3175L6.01686 41.9015H19.3975C22.4157 41.9015 25.0014 41.304 27.1447 40.0994C29.2879 38.8947 30.9298 37.1601 32.0604 34.8954C33.191 32.6307 33.7613 29.9227 33.7613 26.781C33.7613 23.6393 33.1615 20.7771 31.9523 18.4931C30.7528 16.1995 29.0225 14.4456 26.7809 13.2217C24.5393 11.9978 21.8357 11.381 18.6798 11.381H6.01686L11.4635 6.10955V6.09992Z" fill="white"/>
<path d="M57.9075 12.1993C56.1575 12.1993 54.6827 11.6114 53.4833 10.4261C52.2839 9.25037 51.6743 7.80481 51.6743 6.08942C51.6743 4.37403 52.274 2.94775 53.4833 1.79131C54.6827 0.634862 56.1575 0.0566406 57.9075 0.0566406C59.6575 0.0566406 61.0535 0.634862 62.2628 1.79131C63.4622 2.94775 64.0718 4.38367 64.0718 6.08942C64.0718 7.79517 63.4721 9.25037 62.2628 10.4261C61.0535 11.6018 59.6083 12.1993 57.9075 12.1993ZM52.5297 52.3086V17.6153H63.4327V52.3086H52.5297Z" fill="white"/>
<path d="M69.8626 34.3333C69.8626 30.8158 70.5803 27.7223 72.0255 25.0336C73.4609 22.3545 75.4665 20.244 78.0423 18.7213C80.6182 17.1987 83.548 16.4277 86.8513 16.4277C89.6336 16.4277 92.0325 16.9867 94.0381 18.0949C96.0438 19.2032 97.4202 20.6584 98.1772 22.4702L97.1154 23.164L97.9609 17.6131H108.225V50.0899C108.225 54.2049 107.448 57.761 105.885 60.7388C104.322 63.7166 102.11 66.0102 99.2292 67.61C96.3485 69.2097 92.878 70 88.8275 70C83.4005 70 78.9862 68.5737 75.5943 65.7308C72.1926 62.8879 70.2362 59.0138 69.7151 54.1085H80.7558C80.8541 56.0552 81.6013 57.5682 83.0171 58.6572C84.4328 59.7462 86.3401 60.2859 88.7488 60.2859C91.3935 60.2859 93.4777 59.5727 95.0114 58.1368C96.5452 56.7009 97.312 54.7638 97.312 52.3064V44.9533L98.5114 45.8592C97.7544 47.6613 96.2895 49.1165 94.1266 50.2344C91.9539 51.3427 89.4567 51.9016 86.6252 51.9016C83.3218 51.9016 80.4117 51.1596 77.885 49.6851C75.3583 48.201 73.3921 46.1483 71.9763 43.5078C70.5606 40.8672 69.8527 37.8219 69.8527 34.3526L69.8626 34.3333ZM80.8345 34.0539C80.8345 35.7211 81.1884 37.1859 81.8963 38.458C82.6041 39.7301 83.5676 40.7323 84.7966 41.4744C86.0255 42.2164 87.4412 42.5826 89.0438 42.5826C90.6463 42.5826 92.1505 42.2261 93.3991 41.5033C94.6477 40.7901 95.621 39.7879 96.2994 38.5158C96.9876 37.2437 97.3218 35.75 97.3218 34.0442C97.3218 32.3385 96.9777 30.864 96.2994 29.6401C95.6112 28.4162 94.6477 27.4525 93.3991 26.7586C92.1505 26.0648 90.6758 25.7178 88.9749 25.7178C87.3724 25.7178 85.9567 26.0648 84.7277 26.7586C83.4988 27.4525 82.5452 28.4258 81.8569 29.669C81.1687 30.9218 80.8345 32.377 80.8345 34.0442V34.0539Z" fill="white"/>
<path d="M121.822 12.1993C120.072 12.1993 118.597 11.6114 117.397 10.4261C116.198 9.25037 115.588 7.80481 115.588 6.08942C115.588 4.37403 116.188 2.94775 117.397 1.79131C118.597 0.634862 120.072 0.0566406 121.822 0.0566406C123.572 0.0566406 124.968 0.634862 126.177 1.79131C127.376 2.94775 127.986 4.38367 127.986 6.08942C127.986 7.79517 127.386 9.25037 126.177 10.4261C124.968 11.6018 123.522 12.1993 121.822 12.1993ZM116.444 52.3086V17.6153H127.347V52.3086H116.444Z" fill="white"/>
<path d="M132.224 17.6165H156.507V26.5018H132.224V17.6165ZM156.507 0.404755V9.55993H153.46C151.238 9.55993 149.783 10.0707 149.075 11.0826C148.367 12.1041 148.013 13.3473 148.013 14.8314V52.3002H137.11V14.841C137.11 11.3717 137.7 8.54805 138.88 6.37971C140.059 4.20175 141.731 2.602 143.903 1.5612C146.076 0.5204 148.642 0 151.621 0C152.378 0 153.165 0.0385481 153.991 0.106007C154.816 0.173467 155.652 0.279474 156.507 0.414392V0.404755Z" fill="white"/>
<path d="M242.828 17.6164V27.6774H239.357C236.241 27.6774 233.802 28.4195 232.033 29.8939C230.263 31.378 229.378 33.8258 229.378 37.247V52.3H218.475V17.6838H228.739L229.585 25.1043H228.592C229.064 22.7915 230.135 20.8833 231.816 19.3799C233.488 17.8766 235.769 17.1249 238.649 17.1249C239.308 17.1249 239.986 17.1634 240.665 17.2309C241.353 17.2983 242.071 17.4236 242.828 17.6164Z" fill="white"/>
<path d="M259.256 52.309H248.353V17.6157H258.548L259.747 23.581L258.617 22.3282C259.324 20.9405 260.603 19.6202 262.441 18.377C264.28 17.1339 266.669 16.5074 269.589 16.5074C272.705 16.5074 275.202 17.2688 277.09 18.8011C278.978 20.3237 280.374 22.3186 281.268 24.7664H279.567C280.138 22.3186 281.504 20.3237 283.677 18.8011C285.85 17.2784 288.445 16.5074 291.464 16.5074C296.045 16.5074 299.466 17.7024 301.728 20.0828C303.989 22.4631 305.129 25.6434 305.129 29.6234V52.309H294.226V32.6013C294.226 30.4233 293.695 28.8043 292.633 27.7442C291.572 26.6841 290.166 26.1445 288.426 26.1445C287.383 26.1445 286.4 26.3661 285.457 26.7998C284.513 27.2431 283.736 28.0044 283.117 29.0934C282.507 30.1824 282.192 31.7147 282.192 33.7095V52.309H271.289V32.6013C271.289 30.4233 270.768 28.8236 269.736 27.7828C268.694 26.742 267.308 26.2216 265.558 26.2216C264.515 26.2216 263.513 26.4432 262.549 26.8769C261.586 27.3202 260.789 28.0815 260.18 29.1705C259.57 30.2595 259.256 31.7725 259.256 33.7192V52.3186V52.309Z" fill="white"/>
<path d="M340.021 17.6157H350V52.309H339.736L339.166 47.8663C338.124 49.1577 336.639 50.3912 334.702 51.5477C332.765 52.7041 330.406 53.2823 327.624 53.2823C324.133 53.2823 321.135 52.4728 318.638 50.8538C316.14 49.2348 314.233 46.999 312.935 44.1561C311.638 41.3132 310.989 38.0655 310.989 34.4034C310.989 30.7413 311.697 27.4551 313.112 24.7953C314.528 22.1355 316.494 20.0924 319.021 18.6565C321.548 17.2206 324.438 16.5074 327.692 16.5074C330.19 16.5074 332.53 16.9893 334.702 17.9626C336.875 18.936 338.458 20.2273 339.441 21.8464L340.011 17.6157H340.021ZM339.028 34.9624C339.028 33.2084 338.664 31.6761 337.927 30.3848C337.199 29.0934 336.177 28.0815 334.879 27.3684C333.581 26.6552 332.087 26.289 330.386 26.289C328.685 26.289 327.201 26.6552 325.923 27.3973C324.645 28.1393 323.671 29.1512 322.983 30.4522C322.295 31.7436 321.961 33.247 321.961 34.9624C321.961 36.6777 322.305 38.1811 322.983 39.4725C323.671 40.7639 324.645 41.7854 325.923 42.5274C327.201 43.2695 328.685 43.6357 330.386 43.6357C332.087 43.6357 333.581 43.2791 334.879 42.5563C336.177 41.8432 337.19 40.8217 337.927 39.5014C338.655 38.1811 339.028 36.6681 339.028 34.9527V34.9624Z" fill="white"/>
<path d="M176.937 42.6136C172.562 42.6136 169.023 39.1346 169.023 34.8558C169.023 30.5769 172.572 27.098 176.937 27.098V16.5743C166.634 16.5743 158.287 24.7562 158.287 34.8558C158.287 44.9554 166.634 53.1372 176.937 53.1372V42.6136Z" fill="white"/>
<path d="M176.937 69.8576C196.6 69.8576 212.547 54.236 212.547 34.9523C212.547 15.6686 196.6 0.0566406 176.937 0.0566406V10.5803C190.672 10.5803 201.811 21.499 201.811 34.962C201.811 48.4249 190.672 59.3436 176.937 59.3436V69.8673V69.8576Z" fill="url(#paint0_linear_4_66)"/>
<defs>
<linearGradient id="paint0_linear_4_66" x1="194.742" y1="0.0566406" x2="194.742" y2="69.8673" gradientUnits="userSpaceOnUse">
<stop stop-color="#C099FF"/>
<stop offset="1" stop-color="#9D6CFF"/>
</linearGradient>
</defs>
</svg>