<?xml version="1.0" standalone="no"?>
<!DOCTYPE svg PUBLIC "-//W3C//DTD SVG 1.1//EN" "http://www.w3.org/Graphics/SVG/1.1/DTD/svg11.dtd">
<svg xmlns="http://www.w3.org/2000/svg" width="457" height="94" viewBox="0 0 457 94" fill="none">
<path d="M26.7723 69.5978H0V1.28223H25.8491C32.5551 1.28223 38.4532 2.73111 43.5307 5.61606C48.6082 8.51383 52.5958 12.5399 55.4808 17.7072C58.3786 22.8745 59.8146 28.8495 59.8146 35.6195C59.8146 42.3896 58.417 48.1466 55.609 53.2498C52.8138 58.353 48.9287 62.3534 43.9795 65.2512C39.0302 68.149 33.2859 69.585 26.7595 69.585L26.7723 69.5978ZM14.9505 8.11635V62.956L7.84706 55.7501H25.2978C29.2342 55.7501 32.6063 54.9551 35.4015 53.3524C38.1967 51.7496 40.338 49.4417 41.8125 46.4285C43.2871 43.4153 44.0307 39.8123 44.0307 35.6324C44.0307 31.4524 43.2486 27.6443 41.6715 24.6054C40.1072 21.5538 37.8505 19.2202 34.9271 17.5918C32.0037 15.9634 28.4777 15.1428 24.3618 15.1428H7.84706L14.9505 8.12917V8.11635Z" fill="white"/>
<path d="M75.5217 16.2299C73.2394 16.2299 71.3161 15.4478 69.7518 13.8707C68.1875 12.3064 67.3926 10.3831 67.3926 8.10079C67.3926 5.81847 68.1747 3.92082 69.7518 2.38218C71.3161 0.843539 73.2394 0.0742188 75.5217 0.0742188C77.804 0.0742188 79.6248 0.843539 81.2019 2.38218C82.7662 3.92082 83.5611 5.8313 83.5611 8.10079C83.5611 10.3703 82.779 12.3064 81.2019 13.8707C79.6248 15.435 77.7399 16.2299 75.5217 16.2299ZM68.5081 69.5951V23.4359H82.7277V69.5951H68.5081Z" fill="white"/>
<path d="M91.1137 45.6807C91.1137 41.0007 92.0497 36.8848 93.9346 33.3075C95.8066 29.743 98.4222 26.9349 101.782 24.9091C105.141 22.8832 108.962 21.8574 113.27 21.8574C116.899 21.8574 120.027 22.6011 122.643 24.0756C125.259 25.5502 127.054 27.4863 128.041 29.8968L126.656 30.82L127.759 23.4345H141.145V66.6447C141.145 72.1197 140.132 76.851 138.094 80.813C136.055 84.775 133.17 87.8266 129.413 89.9551C125.656 92.0835 121.13 93.1349 115.847 93.1349C108.77 93.1349 103.013 91.2373 98.5889 87.4548C94.1525 83.6723 91.601 78.5178 90.9214 71.9914H105.32C105.449 74.5815 106.423 76.5945 108.27 78.0434C110.116 79.4923 112.603 80.2103 115.745 80.2103C119.194 80.2103 121.912 79.2615 123.912 77.351C125.913 75.4406 126.913 72.8633 126.913 69.5937V59.8105L128.477 61.0158C127.49 63.4135 125.579 65.3496 122.758 66.837C119.925 68.3115 116.668 69.0552 112.975 69.0552C108.667 69.0552 104.872 68.0679 101.576 66.1061C98.2812 64.1316 95.7168 61.4005 93.8704 57.8872C92.0241 54.374 91.1009 50.3223 91.1009 45.7063L91.1137 45.6807ZM105.423 45.3089C105.423 47.5271 105.885 49.476 106.808 51.1685C107.731 52.861 108.988 54.1945 110.59 55.1818C112.193 56.1691 114.039 56.6563 116.129 56.6563C118.219 56.6563 120.181 56.1819 121.81 55.2203C123.438 54.2714 124.707 52.9379 125.592 51.2454C126.49 49.5529 126.926 47.5655 126.926 45.296C126.926 43.0265 126.477 41.0648 125.592 39.4364C124.695 37.808 123.438 36.5258 121.81 35.6026C120.181 34.6794 118.258 34.2178 116.04 34.2178C113.95 34.2178 112.103 34.6794 110.501 35.6026C108.898 36.5258 107.654 37.8208 106.757 39.4748C105.859 41.1417 105.423 43.0778 105.423 45.296V45.3089Z" fill="white"/>
<path d="M158.877 16.2299C156.595 16.2299 154.672 15.4478 153.107 13.8707C151.543 12.3064 150.748 10.3831 150.748 8.10079C150.748 5.81847 151.53 3.92082 153.107 2.38218C154.672 0.843539 156.595 0.0742188 158.877 0.0742188C161.16 0.0742188 162.98 0.843539 164.557 2.38218C166.122 3.92082 166.917 5.8313 166.917 8.10079C166.917 10.3703 166.134 12.3064 164.557 13.8707C162.98 15.435 161.095 16.2299 158.877 16.2299ZM151.864 69.5951V23.4359H166.083V69.5951H151.864Z" fill="white"/>
<path d="M172.443 23.4386H204.114V35.2605H172.443V23.4386ZM204.114 0.538524V12.7194H200.139C197.241 12.7194 195.343 13.399 194.42 14.7453C193.497 16.1044 193.035 17.7585 193.035 19.7331V69.585H178.816V19.7459C178.816 15.13 179.585 11.3731 181.124 8.48816C182.662 5.59039 184.842 3.46194 187.676 2.07716C190.51 0.692388 193.856 0 197.741 0C198.728 0 199.754 0.051288 200.831 0.141042C201.908 0.230796 202.998 0.371838 204.114 0.551346V0.538524Z" fill="white"/>
<path d="M316.691 23.4381V36.8243H312.165C308.1 36.8243 304.92 37.8116 302.612 39.7733C300.304 41.7479 299.15 45.0047 299.15 49.5565V69.5845H284.931V23.5279H298.317L299.42 33.4008H298.124C298.74 30.3235 300.138 27.7848 302.33 25.7845C304.51 23.7843 307.485 22.7842 311.241 22.7842C312.1 22.7842 312.985 22.8355 313.87 22.9252C314.767 23.015 315.703 23.1817 316.691 23.4381Z" fill="white"/>
<path d="M338.117 69.5966H323.897V23.4374H337.193L338.758 31.3742L337.283 29.7074C338.206 27.861 339.873 26.1044 342.271 24.4504C344.669 22.7963 347.784 21.9629 351.592 21.9629C355.657 21.9629 358.914 22.9758 361.376 25.0145C363.837 27.0404 365.658 29.6946 366.825 32.9513H364.607C365.35 29.6946 367.133 27.0404 369.966 25.0145C372.8 22.9887 376.185 21.9629 380.121 21.9629C386.096 21.9629 390.559 23.5528 393.508 26.7199C396.457 29.8869 397.944 34.1181 397.944 39.4136V69.5966H383.724V43.3756C383.724 40.4779 383.032 38.3238 381.647 36.9133C380.262 35.5029 378.429 34.7849 376.159 34.7849C374.8 34.7849 373.518 35.0798 372.287 35.6568C371.056 36.2466 370.043 37.2595 369.236 38.7084C368.441 40.1573 368.03 42.196 368.03 44.8502V69.5966H353.811V43.3756C353.811 40.4779 353.131 38.3494 351.785 36.9646C350.426 35.5799 348.618 34.8875 346.335 34.8875C344.976 34.8875 343.668 35.1824 342.412 35.7594C341.155 36.3492 340.117 37.3621 339.322 38.811C338.527 40.2599 338.117 42.2729 338.117 44.863V69.6094V69.5966Z" fill="white"/>
<path d="M443.449 23.4374H456.463V69.5966H443.077L442.333 63.6857C440.974 65.4038 439.038 67.045 436.512 68.5837C433.986 70.1223 430.909 70.8916 427.28 70.8916C422.728 70.8916 418.818 69.8146 415.561 67.6605C412.304 65.5064 409.817 62.5317 408.124 58.7492C406.432 54.9667 405.585 50.6457 405.585 45.7733C405.585 40.901 406.509 36.5287 408.355 32.9898C410.201 29.4509 412.766 26.7327 416.061 24.8222C419.356 22.9117 423.126 21.9629 427.37 21.9629C430.627 21.9629 433.678 22.604 436.512 23.899C439.346 25.194 441.41 26.9122 442.692 29.0663L443.436 23.4374H443.449ZM442.154 46.517C442.154 44.1834 441.679 42.1447 440.718 40.4266C439.769 38.7084 438.435 37.3621 436.743 36.4133C435.05 35.4645 433.101 34.9772 430.883 34.9772C428.665 34.9772 426.729 35.4645 425.062 36.4518C423.395 37.439 422.126 38.7854 421.228 40.5163C420.331 42.2345 419.895 44.2347 419.895 46.517C419.895 48.7993 420.344 50.7996 421.228 52.5177C422.126 54.2359 423.395 55.595 425.062 56.5823C426.729 57.5696 428.665 58.0568 430.883 58.0568C433.101 58.0568 435.05 57.5824 436.743 56.6208C438.435 55.6719 439.756 54.3128 440.718 52.5562C441.667 50.7996 442.154 48.7865 442.154 46.5042V46.517Z" fill="white"/>
<path d="M230.757 56.6968C225.052 56.6968 220.436 52.0681 220.436 46.3751C220.436 40.6821 225.064 36.0534 230.757 36.0534V22.0518C217.32 22.0518 206.434 32.9376 206.434 46.3751C206.434 59.8125 217.32 70.6984 230.757 70.6984V56.6968Z" fill="white"/>
<path d="M230.758 92.9459C256.402 92.9459 277.199 72.1614 277.199 46.5046C277.199 20.8478 256.402 0.0761719 230.758 0.0761719V14.0778C248.67 14.0778 263.197 28.6051 263.197 46.5175C263.197 64.4298 248.67 78.9571 230.758 78.9571V92.9587V92.9459Z" fill="url(#paint0_linear_4987_22481)"/>
<defs>
<linearGradient id="paint0_linear_4987_22481" x1="231" y1="-54.5" x2="253.978" y2="92.9587" gradientUnits="userSpaceOnUse">
<stop stop-color="white" stop-opacity="0.5"/>
<stop offset="1" stop-color="#FBF7FF"/>
</linearGradient>
</defs>
</svg>