<?xml version="1.0" standalone="no"?>
<!DOCTYPE svg PUBLIC "-//W3C//DTD SVG 1.1//EN" "http://www.w3.org/Graphics/SVG/1.1/DTD/svg11.dtd">
<svg xmlns="http://www.w3.org/2000/svg" xmlns:xlink="http://www.w3.org/1999/xlink" id="Calque_1" viewBox="0 0 1014.15 348.66" width="1014.1500244140625" height="348.6600036621094"><defs><style>.cls-1{fill:url(#Dégradé_sans_nom_2);}.cls-1,.cls-2{stroke-width:0px;}.cls-2{fill:#1f0942;}</style><linearGradient id="Dégradé_sans_nom_2" x1="554.28" y1="256.97" x2="554.28" y2="86.86" gradientTransform="translate(0 346.33) scale(1 -1)" gradientUnits="userSpaceOnUse"><stop offset="0" stop-color="#c099ff"/><stop offset="1" stop-color="#9d6cff"/></linearGradient></defs><path class="cls-2" d="m138.16,216.68h-49.03v-125.12h47.34c12.28,0,23.08,2.65,32.38,7.94,9.3,5.31,16.6,12.68,21.89,22.14,5.31,9.46,7.94,20.41,7.94,32.81s-2.56,22.94-7.7,32.29c-5.12,9.35-12.23,16.67-21.3,21.98-9.06,5.31-19.59,7.94-31.54,7.94l.02.02Zm-21.65-112.6v100.44l-13.01-13.2h31.96c7.21,0,13.39-1.46,18.51-4.39,5.12-2.94,9.04-7.16,11.74-12.68,2.7-5.52,4.06-12.12,4.06-19.77s-1.43-14.63-4.32-20.19c-2.86-5.59-7-9.86-12.35-12.85-5.35-2.98-11.81-4.48-19.35-4.48h-30.25l13.01-12.85v-.02Z"/><path class="cls-2" d="m227.44,118.94c-4.18,0-7.7-1.43-10.57-4.32-2.87-2.87-4.32-6.39-4.32-10.57s1.43-7.65,4.32-10.47c2.86-2.82,6.39-4.23,10.57-4.23s7.52,1.41,10.4,4.23c2.86,2.82,4.32,6.32,4.32,10.47s-1.43,7.7-4.32,10.57c-2.89,2.86-6.34,4.32-10.4,4.32Zm-12.84,97.74v-84.54h26.04v84.54h-26.04Z"/><path class="cls-2" d="m256,172.88c0-8.57,1.71-16.11,5.17-22.66,3.43-6.53,8.22-11.67,14.37-15.38,6.15-3.71,13.15-5.59,21.04-5.59,6.65,0,12.38,1.36,17.17,4.06,4.79,2.7,8.08,6.25,9.89,10.66l-2.54,1.69,2.02-13.53h24.52v79.14c0,10.03-1.85,18.69-5.59,25.95-3.73,7.26-9.02,12.85-15.9,16.74-6.88,3.9-15.17,5.82-24.84,5.82-12.96,0-23.51-3.47-31.61-10.4-8.12-6.93-12.8-16.37-14.04-28.32h26.37c.23,4.74,2.02,8.43,5.4,11.08,3.38,2.65,7.94,3.97,13.69,3.97,6.32,0,11.3-1.74,14.96-5.24,3.66-3.5,5.49-8.22,5.49-14.21v-17.92l2.86,2.21c-1.81,4.39-5.31,7.94-10.47,10.66-5.19,2.7-11.15,4.06-17.92,4.06-7.89,0-14.84-1.81-20.88-5.4-6.03-3.62-10.73-8.62-14.11-15.05-3.38-6.43-5.07-13.85-5.07-22.31l.02-.05Zm26.21-.68c0,4.06.85,7.63,2.54,10.73,1.69,3.1,3.99,5.54,6.93,7.35,2.93,1.81,6.32,2.7,10.14,2.7s7.42-.87,10.4-2.63c2.98-1.74,5.31-4.18,6.93-7.28,1.64-3.1,2.44-6.74,2.44-10.9s-.82-7.75-2.44-10.73c-1.64-2.98-3.95-5.33-6.93-7.02-2.98-1.69-6.5-2.54-10.57-2.54-3.83,0-7.21.84-10.15,2.54-2.93,1.69-5.21,4.06-6.86,7.09-1.64,3.05-2.44,6.6-2.44,10.66v.02Z"/><path class="cls-2" d="m380.11,118.94c-4.18,0-7.7-1.43-10.57-4.32-2.86-2.87-4.32-6.39-4.32-10.57s1.43-7.65,4.32-10.47c2.86-2.82,6.39-4.23,10.57-4.23s7.52,1.41,10.4,4.23c2.86,2.82,4.32,6.32,4.32,10.47s-1.43,7.7-4.32,10.57c-2.89,2.86-6.34,4.32-10.4,4.32Zm-12.85,97.74v-84.54h26.04v84.54h-26.04Z"/><path class="cls-2" d="m404.95,132.14h58v21.65h-58v-21.65Zm58-41.94v22.31h-7.28c-5.31,0-8.78,1.24-10.47,3.71-1.69,2.49-2.54,5.52-2.54,9.13v91.3h-26.04v-91.28c0-8.45,1.41-15.33,4.23-20.62,2.82-5.31,6.81-9.21,12-11.74,5.19-2.54,11.32-3.8,18.43-3.8,1.81,0,3.69.09,5.66.26,1.97.17,3.97.42,6.01.75v-.02Z"/><path class="cls-2" d="m669.14,132.14v24.52h-8.29c-7.44,0-13.27,1.81-17.49,5.4-4.23,3.62-6.34,9.58-6.34,17.92v36.68h-26.05v-84.35h24.52l2.02,18.08h-2.37c1.12-5.64,3.68-10.29,7.7-13.95,3.99-3.66,9.44-5.49,16.32-5.49,1.57,0,3.19.09,4.81.26,1.65.17,3.36.47,5.17.94Z"/><path class="cls-2" d="m708.38,216.68h-26.04v-84.54h24.35l2.86,14.54-2.7-3.05c1.69-3.38,4.75-6.6,9.14-9.63,4.39-3.03,10.1-4.55,17.07-4.55,7.45,0,13.41,1.85,17.92,5.59,4.51,3.71,7.84,8.57,9.98,14.54h-4.06c1.36-5.96,4.62-10.83,9.81-14.54,5.19-3.71,11.39-5.59,18.6-5.59,10.94,0,19.12,2.91,24.52,8.71,5.4,5.8,8.12,13.55,8.12,23.25v55.28h-26.04v-48.02c0-5.31-1.27-9.25-3.8-11.83-2.54-2.58-5.9-3.9-10.05-3.9-2.49,0-4.84.54-7.1,1.6-2.25,1.08-4.11,2.93-5.59,5.59-1.45,2.65-2.2,6.39-2.2,11.25v45.32h-26.05v-48.02c0-5.31-1.24-9.2-3.71-11.74-2.49-2.54-5.8-3.8-9.98-3.8-2.49,0-4.88.54-7.18,1.6-2.3,1.08-4.21,2.94-5.66,5.59-1.46,2.65-2.21,6.34-2.21,11.09v45.32-.02Z"/><path class="cls-2" d="m901.29,132.14h23.84v84.54h-24.52l-1.36-10.83c-2.49,3.15-6.03,6.15-10.66,8.97s-10.26,4.23-16.91,4.23c-8.33,0-15.5-1.97-21.46-5.92-5.97-3.95-10.52-9.39-13.62-16.32-3.1-6.93-4.65-14.84-4.65-23.77s1.69-16.93,5.07-23.41c3.38-6.48,8.08-11.46,14.11-14.96,6.04-3.5,12.94-5.24,20.72-5.24,5.96,0,11.55,1.17,16.74,3.55,5.19,2.37,8.97,5.52,11.32,9.46l1.36-10.31h.02Zm-2.37,42.27c0-4.27-.87-8.01-2.63-11.16-1.74-3.15-4.18-5.61-7.28-7.35-3.1-1.74-6.67-2.63-10.73-2.63s-7.61.89-10.66,2.7c-3.05,1.81-5.38,4.27-7.02,7.44-1.65,3.15-2.44,6.81-2.44,10.99s.82,7.84,2.44,10.99c1.64,3.15,3.97,5.64,7.02,7.44,3.05,1.81,6.6,2.7,10.66,2.7s7.63-.87,10.73-2.63c3.1-1.74,5.52-4.23,7.28-7.45,1.74-3.22,2.63-6.9,2.63-11.08v.02Z"/><path class="cls-2" d="m511.75,193.06c-10.45,0-18.9-8.48-18.9-18.9s8.48-18.9,18.9-18.9v-25.64c-24.61,0-44.55,19.94-44.55,44.55s19.94,44.55,44.55,44.55v-25.64Z"/><path class="cls-1" d="m511.76,259.44c46.96,0,85.05-38.07,85.05-85.06s-38.09-85.03-85.05-85.03v25.64c32.81,0,59.41,26.61,59.41,59.41s-26.61,59.41-59.41,59.41v25.64-.02Z"/></svg>